<?xml version="1.0" encoding="us-ascii" standalone="no"?><svg xmlns="http://www.w3.org/2000/svg" xmlns:xlink="http://www.w3.org/1999/xlink" contentStyleType="text/css" height="926px" preserveAspectRatio="none" style="width:1857px;height:926px;background:#FFFFFF;" version="1.1" viewBox="0 0 1857 926" width="1857px" zoomAndPan="magnify"><defs/><g><!--cluster CloudDrive.App--><g id="cluster_CloudDrive.App"><rect fill="none" height="913" rx="2.5" ry="2.5" style="stroke:#181818;stroke-width:1.0;" width="1844" x="7" y="7"/><rect fill="none" height="10" style="stroke:#181818;stroke-width:1.0;" width="15" x="1831" y="12"/><rect fill="none" height="2" style="stroke:#181818;stroke-width:1.0;" width="4" x="1829" y="14"/><rect fill="none" height="2" style="stroke:#181818;stroke-width:1.0;" width="4" x="1829" y="18"/><text fill="#000000" font-family="sans-serif" font-size="14" font-weight="bold" lengthAdjust="spacing" textLength="110" x="874" y="34.5332">CloudDrive.App</text></g><!--cluster CloudDrive.App.Factories--><g id="cluster_CloudDrive.App.Factories"><rect fill="none" height="116" rx="2.5" ry="2.5" style="stroke:#181818;stroke-width:1.0;" width="233" x="991" y="772"/><rect fill="none" height="10" style="stroke:#181818;stroke-width:1.0;" width="15" x="1204" y="777"/><rect fill="none" height="2" style="stroke:#181818;stroke-width:1.0;" width="4" x="1202" y="779"/><rect fill="none" height="2" style="stroke:#181818;stroke-width:1.0;" width="4" x="1202" y="783"/><text fill="#000000" font-family="sans-serif" font-size="14" font-weight="bold" lengthAdjust="spacing" textLength="180" x="1017.5" y="799.5332">CloudDrive.App.Factories</text></g><!--cluster CloudDrive.App.Model--><g id="cluster_CloudDrive.App.Model"><rect fill="none" height="332" rx="2.5" ry="2.5" style="stroke:#181818;stroke-width:1.0;" width="742" x="1077" y="400"/><rect fill="none" height="10" style="stroke:#181818;stroke-width:1.0;" width="15" x="1799" y="405"/><rect fill="none" height="2" style="stroke:#181818;stroke-width:1.0;" width="4" x="1797" y="407"/><rect fill="none" height="2" style="stroke:#181818;stroke-width:1.0;" width="4" x="1797" y="411"/><text fill="#000000" font-family="sans-serif" font-size="14" font-weight="bold" lengthAdjust="spacing" textLength="158" x="1369" y="427.5332">CloudDrive.App.Model</text></g><!--cluster CloudDrive.App.Services--><g id="cluster_CloudDrive.App.Services"><rect fill="none" height="332" rx="2.5" ry="2.5" style="stroke:#181818;stroke-width:1.0;" width="919" x="39" y="400"/><rect fill="none" height="10" style="stroke:#181818;stroke-width:1.0;" width="15" x="938" y="405"/><rect fill="none" height="2" style="stroke:#181818;stroke-width:1.0;" width="4" x="936" y="407"/><rect fill="none" height="2" style="stroke:#181818;stroke-width:1.0;" width="4" x="936" y="411"/><text fill="#000000" font-family="sans-serif" font-size="14" font-weight="bold" lengthAdjust="spacing" textLength="176" x="410.5" y="427.5332">CloudDrive.App.Services</text></g><!--cluster CloudDrive.App.Utils--><g id="cluster_CloudDrive.App.Utils"><rect fill="none" height="116" rx="2.5" ry="2.5" style="stroke:#181818;stroke-width:1.0;" width="245" x="1264" y="772"/><rect fill="none" height="10" style="stroke:#181818;stroke-width:1.0;" width="15" x="1489" y="777"/><rect fill="none" height="2" style="stroke:#181818;stroke-width:1.0;" width="4" x="1487" y="779"/><rect fill="none" height="2" style="stroke:#181818;stroke-width:1.0;" width="4" x="1487" y="783"/><text fill="#000000" font-family="sans-serif" font-size="14" font-weight="bold" lengthAdjust="spacing" textLength="145" x="1314" y="799.5332">CloudDrive.App.Utils</text></g><!--cluster CloudDrive.App.ViewModels--><g id="cluster_CloudDrive.App.ViewModels"><rect fill="none" height="224" rx="2.5" ry="2.5" style="stroke:#181818;stroke-width:1.0;" width="748" x="576" y="115"/><rect fill="none" height="10" style="stroke:#181818;stroke-width:1.0;" width="15" x="1304" y="120"/><rect fill="none" height="2" style="stroke:#181818;stroke-width:1.0;" width="4" x="1302" y="122"/><rect fill="none" height="2" style="stroke:#181818;stroke-width:1.0;" width="4" x="1302" y="126"/><text fill="#000000" font-family="sans-serif" font-size="14" font-weight="bold" lengthAdjust="spacing" textLength="199" x="850.5" y="142.5332">CloudDrive.App.ViewModels</text></g><!--cluster CloudDrive.App.Views--><g id="cluster_CloudDrive.App.Views"><rect fill="none" height="224" rx="2.5" ry="2.5" style="stroke:#181818;stroke-width:1.0;" width="497" x="39" y="115"/><rect fill="none" height="10" style="stroke:#181818;stroke-width:1.0;" width="15" x="516" y="120"/><rect fill="none" height="2" style="stroke:#181818;stroke-width:1.0;" width="4" x="514" y="122"/><rect fill="none" height="2" style="stroke:#181818;stroke-width:1.0;" width="4" x="514" y="126"/><text fill="#000000" font-family="sans-serif" font-size="14" font-weight="bold" lengthAdjust="spacing" textLength="155" x="210" y="142.5332">CloudDrive.App.Views</text></g><!--class WebApiClient--><g id="elem_WebApiClient"><rect codeLine="55" fill="#F1F1F1" height="48" id="WebApiClient" rx="2.5" ry="2.5" style="stroke:#181818;stroke-width:0.5;" width="117" x="846.5" y="816"/><ellipse cx="861.5" cy="832" fill="#ADD1B2" rx="11" ry="11" style="stroke:#181818;stroke-width:1.0;"/><path d="M864.2656,827.875 Q864.4219,827.6563 864.6094,827.5469 Q864.7969,827.4375 865.0156,827.4375 Q865.3906,827.4375 865.625,827.7031 Q865.8594,827.9531 865.8594,828.5625 L865.8594,830.0156 Q865.8594,830.625 865.625,830.8906 Q865.3906,831.1563 865.0156,831.1563 Q864.6719,831.1563 864.4688,830.9531 Q864.2656,830.7656 864.1563,830.25 Q864.1094,829.8906 863.9219,829.7031 Q863.5938,829.3281 862.9844,829.1094 Q862.375,828.8906 861.75,828.8906 Q860.9844,828.8906 860.3438,829.2188 Q859.7188,829.5469 859.2188,830.2969 Q858.7344,831.0469 858.7344,832.0781 L858.7344,833.1719 Q858.7344,834.4063 859.625,835.2344 Q860.5156,836.0469 862.1094,836.0469 Q863.0469,836.0469 863.7031,835.7969 Q864.0938,835.6406 864.5156,835.2031 Q864.7813,834.9375 864.9219,834.8594 Q865.0781,834.7813 865.2813,834.7813 Q865.6094,834.7813 865.8594,835.0469 Q866.125,835.2969 866.125,835.6406 Q866.125,835.9844 865.7813,836.3906 Q865.2813,836.9688 864.4844,837.2969 Q863.4063,837.75 862.1094,837.75 Q860.5938,837.75 859.3906,837.125 Q858.4063,836.625 857.7188,835.5625 Q857.0313,834.4844 857.0313,833.2031 L857.0313,832.0469 Q857.0313,830.7188 857.6406,829.5781 Q858.2656,828.4219 859.3594,827.8125 Q860.4531,827.1875 861.6875,827.1875 Q862.4219,827.1875 863.0625,827.3594 Q863.7188,827.5156 864.2656,827.875 Z " fill="#000000"/><text fill="#000000" font-family="sans-serif" font-size="14" lengthAdjust="spacing" textLength="85" x="875.5" y="837.7285">WebApiClient</text><line style="stroke:#181818;stroke-width:0.5;" x1="847.5" x2="962.5" y1="848" y2="848"/><line style="stroke:#181818;stroke-width:0.5;" x1="847.5" x2="962.5" y1="856" y2="856"/></g><!--class App--><g id="elem_App"><rect codeLine="57" fill="#F1F1F1" height="48" id="App" rx="2.5" ry="2.5" style="stroke:#181818;stroke-width:0.5;" width="57" x="499.5" y="43"/><ellipse cx="514.5" cy="59" fill="#ADD1B2" rx="11" ry="11" style="stroke:#181818;stroke-width:1.0;"/><path d="M517.2656,54.875 Q517.4219,54.6563 517.6094,54.5469 Q517.7969,54.4375 518.0156,54.4375 Q518.3906,54.4375 518.625,54.7031 Q518.8594,54.9531 518.8594,55.5625 L518.8594,57.0156 Q518.8594,57.625 518.625,57.8906 Q518.3906,58.1563 518.0156,58.1563 Q517.6719,58.1563 517.4688,57.9531 Q517.2656,57.7656 517.1563,57.25 Q517.1094,56.8906 516.9219,56.7031 Q516.5938,56.3281 515.9844,56.1094 Q515.375,55.8906 514.75,55.8906 Q513.9844,55.8906 513.3438,56.2188 Q512.7188,56.5469 512.2188,57.2969 Q511.7344,58.0469 511.7344,59.0781 L511.7344,60.1719 Q511.7344,61.4063 512.625,62.2344 Q513.5156,63.0469 515.1094,63.0469 Q516.0469,63.0469 516.7031,62.7969 Q517.0938,62.6406 517.5156,62.2031 Q517.7813,61.9375 517.9219,61.8594 Q518.0781,61.7813 518.2813,61.7813 Q518.6094,61.7813 518.8594,62.0469 Q519.125,62.2969 519.125,62.6406 Q519.125,62.9844 518.7813,63.3906 Q518.2813,63.9688 517.4844,64.2969 Q516.4063,64.75 515.1094,64.75 Q513.5938,64.75 512.3906,64.125 Q511.4063,63.625 510.7188,62.5625 Q510.0313,61.4844 510.0313,60.2031 L510.0313,59.0469 Q510.0313,57.7188 510.6406,56.5781 Q511.2656,55.4219 512.3594,54.8125 Q513.4531,54.1875 514.6875,54.1875 Q515.4219,54.1875 516.0625,54.3594 Q516.7188,54.5156 517.2656,54.875 Z " fill="#000000"/><text fill="#000000" font-family="sans-serif" font-size="14" lengthAdjust="spacing" textLength="25" x="528.5" y="64.7285">App</text><line style="stroke:#181818;stroke-width:0.5;" x1="500.5" x2="555.5" y1="75" y2="75"/><line style="stroke:#181818;stroke-width:0.5;" x1="500.5" x2="555.5" y1="83" y2="83"/></g><!--class WebApiClientFactory--><g id="elem_WebApiClientFactory"><rect codeLine="6" fill="#F1F1F1" height="48" id="WebApiClientFactory" rx="2.5" ry="2.5" style="stroke:#181818;stroke-width:0.5;" width="165" x="1034.5" y="816"/><ellipse cx="1049.5" cy="832" fill="#ADD1B2" rx="11" ry="11" style="stroke:#181818;stroke-width:1.0;"/><path d="M1052.2656,827.875 Q1052.4219,827.6563 1052.6094,827.5469 Q1052.7969,827.4375 1053.0156,827.4375 Q1053.3906,827.4375 1053.625,827.7031 Q1053.8594,827.9531 1053.8594,828.5625 L1053.8594,830.0156 Q1053.8594,830.625 1053.625,830.8906 Q1053.3906,831.1563 1053.0156,831.1563 Q1052.6719,831.1563 1052.4688,830.9531 Q1052.2656,830.7656 1052.1563,830.25 Q1052.1094,829.8906 1051.9219,829.7031 Q1051.5938,829.3281 1050.9844,829.1094 Q1050.375,828.8906 1049.75,828.8906 Q1048.9844,828.8906 1048.3438,829.2188 Q1047.7188,829.5469 1047.2188,830.2969 Q1046.7344,831.0469 1046.7344,832.0781 L1046.7344,833.1719 Q1046.7344,834.4063 1047.625,835.2344 Q1048.5156,836.0469 1050.1094,836.0469 Q1051.0469,836.0469 1051.7031,835.7969 Q1052.0938,835.6406 1052.5156,835.2031 Q1052.7813,834.9375 1052.9219,834.8594 Q1053.0781,834.7813 1053.2813,834.7813 Q1053.6094,834.7813 1053.8594,835.0469 Q1054.125,835.2969 1054.125,835.6406 Q1054.125,835.9844 1053.7813,836.3906 Q1053.2813,836.9688 1052.4844,837.2969 Q1051.4063,837.75 1050.1094,837.75 Q1048.5938,837.75 1047.3906,837.125 Q1046.4063,836.625 1045.7188,835.5625 Q1045.0313,834.4844 1045.0313,833.2031 L1045.0313,832.0469 Q1045.0313,830.7188 1045.6406,829.5781 Q1046.2656,828.4219 1047.3594,827.8125 Q1048.4531,827.1875 1049.6875,827.1875 Q1050.4219,827.1875 1051.0625,827.3594 Q1051.7188,827.5156 1052.2656,827.875 Z " fill="#000000"/><text fill="#000000" font-family="sans-serif" font-size="14" lengthAdjust="spacing" textLength="133" x="1063.5" y="837.7285">WebApiClientFactory</text><line style="stroke:#181818;stroke-width:0.5;" x1="1035.5" x2="1198.5" y1="848" y2="848"/><line style="stroke:#181818;stroke-width:0.5;" x1="1035.5" x2="1198.5" y1="856" y2="856"/></g><!--class Benchmark--><g id="elem_Benchmark"><rect codeLine="10" fill="#F1F1F1" height="48" id="Benchmark" rx="2.5" ry="2.5" style="stroke:#181818;stroke-width:0.5;" width="103" x="1141.5" y="444"/><ellipse cx="1156.5" cy="460" fill="#ADD1B2" rx="11" ry="11" style="stroke:#181818;stroke-width:1.0;"/><path d="M1159.2656,455.875 Q1159.4219,455.6563 1159.6094,455.5469 Q1159.7969,455.4375 1160.0156,455.4375 Q1160.3906,455.4375 1160.625,455.7031 Q1160.8594,455.9531 1160.8594,456.5625 L1160.8594,458.0156 Q1160.8594,458.625 1160.625,458.8906 Q1160.3906,459.1563 1160.0156,459.1563 Q1159.6719,459.1563 1159.4688,458.9531 Q1159.2656,458.7656 1159.1563,458.25 Q1159.1094,457.8906 1158.9219,457.7031 Q1158.5938,457.3281 1157.9844,457.1094 Q1157.375,456.8906 1156.75,456.8906 Q1155.9844,456.8906 1155.3438,457.2188 Q1154.7188,457.5469 1154.2188,458.2969 Q1153.7344,459.0469 1153.7344,460.0781 L1153.7344,461.1719 Q1153.7344,462.4063 1154.625,463.2344 Q1155.5156,464.0469 1157.1094,464.0469 Q1158.0469,464.0469 1158.7031,463.7969 Q1159.0938,463.6406 1159.5156,463.2031 Q1159.7813,462.9375 1159.9219,462.8594 Q1160.0781,462.7813 1160.2813,462.7813 Q1160.6094,462.7813 1160.8594,463.0469 Q1161.125,463.2969 1161.125,463.6406 Q1161.125,463.9844 1160.7813,464.3906 Q1160.2813,464.9688 1159.4844,465.2969 Q1158.4063,465.75 1157.1094,465.75 Q1155.5938,465.75 1154.3906,465.125 Q1153.4063,464.625 1152.7188,463.5625 Q1152.0313,462.4844 1152.0313,461.2031 L1152.0313,460.0469 Q1152.0313,458.7188 1152.6406,457.5781 Q1153.2656,456.4219 1154.3594,455.8125 Q1155.4531,455.1875 1156.6875,455.1875 Q1157.4219,455.1875 1158.0625,455.3594 Q1158.7188,455.5156 1159.2656,455.875 Z " fill="#000000"/><text fill="#000000" font-family="sans-serif" font-size="14" lengthAdjust="spacing" textLength="71" x="1170.5" y="465.7285">Benchmark</text><line style="stroke:#181818;stroke-width:0.5;" x1="1142.5" x2="1243.5" y1="476" y2="476"/><line style="stroke:#181818;stroke-width:0.5;" x1="1142.5" x2="1243.5" y1="484" y2="484"/></g><!--class FileIndexEntryStagingSet--><g id="elem_FileIndexEntryStagingSet"><rect codeLine="11" fill="#F1F1F1" height="48" id="FileIndexEntryStagingSet" rx="2.5" ry="2.5" style="stroke:#181818;stroke-width:0.5;" width="190" x="1280" y="444"/><ellipse cx="1295" cy="460" fill="#ADD1B2" rx="11" ry="11" style="stroke:#181818;stroke-width:1.0;"/><path d="M1297.7656,455.875 Q1297.9219,455.6563 1298.1094,455.5469 Q1298.2969,455.4375 1298.5156,455.4375 Q1298.8906,455.4375 1299.125,455.7031 Q1299.3594,455.9531 1299.3594,456.5625 L1299.3594,458.0156 Q1299.3594,458.625 1299.125,458.8906 Q1298.8906,459.1563 1298.5156,459.1563 Q1298.1719,459.1563 1297.9688,458.9531 Q1297.7656,458.7656 1297.6563,458.25 Q1297.6094,457.8906 1297.4219,457.7031 Q1297.0938,457.3281 1296.4844,457.1094 Q1295.875,456.8906 1295.25,456.8906 Q1294.4844,456.8906 1293.8438,457.2188 Q1293.2188,457.5469 1292.7188,458.2969 Q1292.2344,459.0469 1292.2344,460.0781 L1292.2344,461.1719 Q1292.2344,462.4063 1293.125,463.2344 Q1294.0156,464.0469 1295.6094,464.0469 Q1296.5469,464.0469 1297.2031,463.7969 Q1297.5938,463.6406 1298.0156,463.2031 Q1298.2813,462.9375 1298.4219,462.8594 Q1298.5781,462.7813 1298.7813,462.7813 Q1299.1094,462.7813 1299.3594,463.0469 Q1299.625,463.2969 1299.625,463.6406 Q1299.625,463.9844 1299.2813,464.3906 Q1298.7813,464.9688 1297.9844,465.2969 Q1296.9063,465.75 1295.6094,465.75 Q1294.0938,465.75 1292.8906,465.125 Q1291.9063,464.625 1291.2188,463.5625 Q1290.5313,462.4844 1290.5313,461.2031 L1290.5313,460.0469 Q1290.5313,458.7188 1291.1406,457.5781 Q1291.7656,456.4219 1292.8594,455.8125 Q1293.9531,455.1875 1295.1875,455.1875 Q1295.9219,455.1875 1296.5625,455.3594 Q1297.2188,455.5156 1297.7656,455.875 Z " fill="#000000"/><text fill="#000000" font-family="sans-serif" font-size="14" lengthAdjust="spacing" textLength="158" x="1309" y="465.7285">FileIndexEntryStagingSet</text><line style="stroke:#181818;stroke-width:0.5;" x1="1281" x2="1469" y1="476" y2="476"/><line style="stroke:#181818;stroke-width:0.5;" x1="1281" x2="1469" y1="484" y2="484"/></g><!--class LocalCommitedFileIndexEntry--><g id="elem_LocalCommitedFileIndexEntry"><rect codeLine="12" fill="#F1F1F1" height="48" id="LocalCommitedFileIndexEntry" rx="2.5" ry="2.5" style="stroke:#181818;stroke-width:0.5;" width="218" x="1505" y="444"/><ellipse cx="1520" cy="460" fill="#ADD1B2" rx="11" ry="11" style="stroke:#181818;stroke-width:1.0;"/><path d="M1522.7656,455.875 Q1522.9219,455.6563 1523.1094,455.5469 Q1523.2969,455.4375 1523.5156,455.4375 Q1523.8906,455.4375 1524.125,455.7031 Q1524.3594,455.9531 1524.3594,456.5625 L1524.3594,458.0156 Q1524.3594,458.625 1524.125,458.8906 Q1523.8906,459.1563 1523.5156,459.1563 Q1523.1719,459.1563 1522.9688,458.9531 Q1522.7656,458.7656 1522.6563,458.25 Q1522.6094,457.8906 1522.4219,457.7031 Q1522.0938,457.3281 1521.4844,457.1094 Q1520.875,456.8906 1520.25,456.8906 Q1519.4844,456.8906 1518.8438,457.2188 Q1518.2188,457.5469 1517.7188,458.2969 Q1517.2344,459.0469 1517.2344,460.0781 L1517.2344,461.1719 Q1517.2344,462.4063 1518.125,463.2344 Q1519.0156,464.0469 1520.6094,464.0469 Q1521.5469,464.0469 1522.2031,463.7969 Q1522.5938,463.6406 1523.0156,463.2031 Q1523.2813,462.9375 1523.4219,462.8594 Q1523.5781,462.7813 1523.7813,462.7813 Q1524.1094,462.7813 1524.3594,463.0469 Q1524.625,463.2969 1524.625,463.6406 Q1524.625,463.9844 1524.2813,464.3906 Q1523.7813,464.9688 1522.9844,465.2969 Q1521.9063,465.75 1520.6094,465.75 Q1519.0938,465.75 1517.8906,465.125 Q1516.9063,464.625 1516.2188,463.5625 Q1515.5313,462.4844 1515.5313,461.2031 L1515.5313,460.0469 Q1515.5313,458.7188 1516.1406,457.5781 Q1516.7656,456.4219 1517.8594,455.8125 Q1518.9531,455.1875 1520.1875,455.1875 Q1520.9219,455.1875 1521.5625,455.3594 Q1522.2188,455.5156 1522.7656,455.875 Z " fill="#000000"/><text fill="#000000" font-family="sans-serif" font-size="14" lengthAdjust="spacing" textLength="186" x="1534" y="465.7285">LocalCommitedFileIndexEntry</text><line style="stroke:#181818;stroke-width:0.5;" x1="1506" x2="1722" y1="476" y2="476"/><line style="stroke:#181818;stroke-width:0.5;" x1="1506" x2="1722" y1="484" y2="484"/></g><!--class LocalIncomingFileIndexEntry--><g id="elem_LocalIncomingFileIndexEntry"><rect codeLine="13" fill="#F1F1F1" height="48" id="LocalIncomingFileIndexEntry" rx="2.5" ry="2.5" style="stroke:#181818;stroke-width:0.5;" width="211" x="1109.5" y="552"/><ellipse cx="1124.5" cy="568" fill="#ADD1B2" rx="11" ry="11" style="stroke:#181818;stroke-width:1.0;"/><path d="M1127.2656,563.875 Q1127.4219,563.6563 1127.6094,563.5469 Q1127.7969,563.4375 1128.0156,563.4375 Q1128.3906,563.4375 1128.625,563.7031 Q1128.8594,563.9531 1128.8594,564.5625 L1128.8594,566.0156 Q1128.8594,566.625 1128.625,566.8906 Q1128.3906,567.1563 1128.0156,567.1563 Q1127.6719,567.1563 1127.4688,566.9531 Q1127.2656,566.7656 1127.1563,566.25 Q1127.1094,565.8906 1126.9219,565.7031 Q1126.5938,565.3281 1125.9844,565.1094 Q1125.375,564.8906 1124.75,564.8906 Q1123.9844,564.8906 1123.3438,565.2188 Q1122.7188,565.5469 1122.2188,566.2969 Q1121.7344,567.0469 1121.7344,568.0781 L1121.7344,569.1719 Q1121.7344,570.4063 1122.625,571.2344 Q1123.5156,572.0469 1125.1094,572.0469 Q1126.0469,572.0469 1126.7031,571.7969 Q1127.0938,571.6406 1127.5156,571.2031 Q1127.7813,570.9375 1127.9219,570.8594 Q1128.0781,570.7813 1128.2813,570.7813 Q1128.6094,570.7813 1128.8594,571.0469 Q1129.125,571.2969 1129.125,571.6406 Q1129.125,571.9844 1128.7813,572.3906 Q1128.2813,572.9688 1127.4844,573.2969 Q1126.4063,573.75 1125.1094,573.75 Q1123.5938,573.75 1122.3906,573.125 Q1121.4063,572.625 1120.7188,571.5625 Q1120.0313,570.4844 1120.0313,569.2031 L1120.0313,568.0469 Q1120.0313,566.7188 1120.6406,565.5781 Q1121.2656,564.4219 1122.3594,563.8125 Q1123.4531,563.1875 1124.6875,563.1875 Q1125.4219,563.1875 1126.0625,563.3594 Q1126.7188,563.5156 1127.2656,563.875 Z " fill="#000000"/><text fill="#000000" font-family="sans-serif" font-size="14" lengthAdjust="spacing" textLength="179" x="1138.5" y="573.7285">LocalIncomingFileIndexEntry</text><line style="stroke:#181818;stroke-width:0.5;" x1="1110.5" x2="1319.5" y1="584" y2="584"/><line style="stroke:#181818;stroke-width:0.5;" x1="1110.5" x2="1319.5" y1="592" y2="592"/></g><!--class LogMessageEventArgs--><g id="elem_LogMessageEventArgs"><rect codeLine="14" fill="#F1F1F1" height="48" id="LogMessageEventArgs" rx="2.5" ry="2.5" style="stroke:#181818;stroke-width:0.5;" width="178" x="1356" y="552"/><ellipse cx="1371" cy="568" fill="#ADD1B2" rx="11" ry="11" style="stroke:#181818;stroke-width:1.0;"/><path d="M1373.7656,563.875 Q1373.9219,563.6563 1374.1094,563.5469 Q1374.2969,563.4375 1374.5156,563.4375 Q1374.8906,563.4375 1375.125,563.7031 Q1375.3594,563.9531 1375.3594,564.5625 L1375.3594,566.0156 Q1375.3594,566.625 1375.125,566.8906 Q1374.8906,567.1563 1374.5156,567.1563 Q1374.1719,567.1563 1373.9688,566.9531 Q1373.7656,566.7656 1373.6563,566.25 Q1373.6094,565.8906 1373.4219,565.7031 Q1373.0938,565.3281 1372.4844,565.1094 Q1371.875,564.8906 1371.25,564.8906 Q1370.4844,564.8906 1369.8438,565.2188 Q1369.2188,565.5469 1368.7188,566.2969 Q1368.2344,567.0469 1368.2344,568.0781 L1368.2344,569.1719 Q1368.2344,570.4063 1369.125,571.2344 Q1370.0156,572.0469 1371.6094,572.0469 Q1372.5469,572.0469 1373.2031,571.7969 Q1373.5938,571.6406 1374.0156,571.2031 Q1374.2813,570.9375 1374.4219,570.8594 Q1374.5781,570.7813 1374.7813,570.7813 Q1375.1094,570.7813 1375.3594,571.0469 Q1375.625,571.2969 1375.625,571.6406 Q1375.625,571.9844 1375.2813,572.3906 Q1374.7813,572.9688 1373.9844,573.2969 Q1372.9063,573.75 1371.6094,573.75 Q1370.0938,573.75 1368.8906,573.125 Q1367.9063,572.625 1367.2188,571.5625 Q1366.5313,570.4844 1366.5313,569.2031 L1366.5313,568.0469 Q1366.5313,566.7188 1367.1406,565.5781 Q1367.7656,564.4219 1368.8594,563.8125 Q1369.9531,563.1875 1371.1875,563.1875 Q1371.9219,563.1875 1372.5625,563.3594 Q1373.2188,563.5156 1373.7656,563.875 Z " fill="#000000"/><text fill="#000000" font-family="sans-serif" font-size="14" lengthAdjust="spacing" textLength="146" x="1385" y="573.7285">LogMessageEventArgs</text><line style="stroke:#181818;stroke-width:0.5;" x1="1357" x2="1533" y1="584" y2="584"/><line style="stroke:#181818;stroke-width:0.5;" x1="1357" x2="1533" y1="592" y2="592"/></g><!--class RemoteIncomingFileIndexEntry--><g id="elem_RemoteIncomingFileIndexEntry"><rect codeLine="15" fill="#F1F1F1" height="48" id="RemoteIncomingFileIndexEntry" rx="2.5" ry="2.5" style="stroke:#181818;stroke-width:0.5;" width="226" x="1569" y="552"/><ellipse cx="1584" cy="568" fill="#ADD1B2" rx="11" ry="11" style="stroke:#181818;stroke-width:1.0;"/><path d="M1586.7656,563.875 Q1586.9219,563.6563 1587.1094,563.5469 Q1587.2969,563.4375 1587.5156,563.4375 Q1587.8906,563.4375 1588.125,563.7031 Q1588.3594,563.9531 1588.3594,564.5625 L1588.3594,566.0156 Q1588.3594,566.625 1588.125,566.8906 Q1587.8906,567.1563 1587.5156,567.1563 Q1587.1719,567.1563 1586.9688,566.9531 Q1586.7656,566.7656 1586.6563,566.25 Q1586.6094,565.8906 1586.4219,565.7031 Q1586.0938,565.3281 1585.4844,565.1094 Q1584.875,564.8906 1584.25,564.8906 Q1583.4844,564.8906 1582.8438,565.2188 Q1582.2188,565.5469 1581.7188,566.2969 Q1581.2344,567.0469 1581.2344,568.0781 L1581.2344,569.1719 Q1581.2344,570.4063 1582.125,571.2344 Q1583.0156,572.0469 1584.6094,572.0469 Q1585.5469,572.0469 1586.2031,571.7969 Q1586.5938,571.6406 1587.0156,571.2031 Q1587.2813,570.9375 1587.4219,570.8594 Q1587.5781,570.7813 1587.7813,570.7813 Q1588.1094,570.7813 1588.3594,571.0469 Q1588.625,571.2969 1588.625,571.6406 Q1588.625,571.9844 1588.2813,572.3906 Q1587.7813,572.9688 1586.9844,573.2969 Q1585.9063,573.75 1584.6094,573.75 Q1583.0938,573.75 1581.8906,573.125 Q1580.9063,572.625 1580.2188,571.5625 Q1579.5313,570.4844 1579.5313,569.2031 L1579.5313,568.0469 Q1579.5313,566.7188 1580.1406,565.5781 Q1580.7656,564.4219 1581.8594,563.8125 Q1582.9531,563.1875 1584.1875,563.1875 Q1584.9219,563.1875 1585.5625,563.3594 Q1586.2188,563.5156 1586.7656,563.875 Z " fill="#000000"/><text fill="#000000" font-family="sans-serif" font-size="14" lengthAdjust="spacing" textLength="194" x="1598" y="573.7285">RemoteIncomingFileIndexEntry</text><line style="stroke:#181818;stroke-width:0.5;" x1="1570" x2="1794" y1="584" y2="584"/><line style="stroke:#181818;stroke-width:0.5;" x1="1570" x2="1794" y1="592" y2="592"/></g><!--class WatchedFileSystemPath--><g id="elem_WatchedFileSystemPath"><rect codeLine="16" fill="#F1F1F1" height="48" id="WatchedFileSystemPath" rx="2.5" ry="2.5" style="stroke:#181818;stroke-width:0.5;" width="186" x="1115" y="660"/><ellipse cx="1130" cy="676" fill="#ADD1B2" rx="11" ry="11" style="stroke:#181818;stroke-width:1.0;"/><path d="M1132.7656,671.875 Q1132.9219,671.6563 1133.1094,671.5469 Q1133.2969,671.4375 1133.5156,671.4375 Q1133.8906,671.4375 1134.125,671.7031 Q1134.3594,671.9531 1134.3594,672.5625 L1134.3594,674.0156 Q1134.3594,674.625 1134.125,674.8906 Q1133.8906,675.1563 1133.5156,675.1563 Q1133.1719,675.1563 1132.9688,674.9531 Q1132.7656,674.7656 1132.6563,674.25 Q1132.6094,673.8906 1132.4219,673.7031 Q1132.0938,673.3281 1131.4844,673.1094 Q1130.875,672.8906 1130.25,672.8906 Q1129.4844,672.8906 1128.8438,673.2188 Q1128.2188,673.5469 1127.7188,674.2969 Q1127.2344,675.0469 1127.2344,676.0781 L1127.2344,677.1719 Q1127.2344,678.4063 1128.125,679.2344 Q1129.0156,680.0469 1130.6094,680.0469 Q1131.5469,680.0469 1132.2031,679.7969 Q1132.5938,679.6406 1133.0156,679.2031 Q1133.2813,678.9375 1133.4219,678.8594 Q1133.5781,678.7813 1133.7813,678.7813 Q1134.1094,678.7813 1134.3594,679.0469 Q1134.625,679.2969 1134.625,679.6406 Q1134.625,679.9844 1134.2813,680.3906 Q1133.7813,680.9688 1132.9844,681.2969 Q1131.9063,681.75 1130.6094,681.75 Q1129.0938,681.75 1127.8906,681.125 Q1126.9063,680.625 1126.2188,679.5625 Q1125.5313,678.4844 1125.5313,677.2031 L1125.5313,676.0469 Q1125.5313,674.7188 1126.1406,673.5781 Q1126.7656,672.4219 1127.8594,671.8125 Q1128.9531,671.1875 1130.1875,671.1875 Q1130.9219,671.1875 1131.5625,671.3594 Q1132.2188,671.5156 1132.7656,671.875 Z " fill="#000000"/><text fill="#000000" font-family="sans-serif" font-size="14" lengthAdjust="spacing" textLength="154" x="1144" y="681.7285">WatchedFileSystemPath</text><line style="stroke:#181818;stroke-width:0.5;" x1="1116" x2="1300" y1="692" y2="692"/><line style="stroke:#181818;stroke-width:0.5;" x1="1116" x2="1300" y1="700" y2="700"/></g><!--class IAccessTokenHolder--><g id="elem_IAccessTokenHolder"><rect codeLine="20" fill="#F1F1F1" height="48" id="IAccessTokenHolder" rx="2.5" ry="2.5" style="stroke:#181818;stroke-width:0.5;" width="164" x="144" y="444"/><ellipse cx="159" cy="460" fill="#B4A7E5" rx="11" ry="11" style="stroke:#181818;stroke-width:1.0;"/><path d="M159.9531,456.6406 L159.9531,463.2969 L161.6719,463.2969 Q162.2813,463.2969 162.5469,463.5313 Q162.8125,463.7656 162.8125,464.1563 Q162.8125,464.5313 162.5469,464.7656 Q162.2813,465 161.6719,465 L156.5313,465 Q155.9219,465 155.6563,464.7656 Q155.3906,464.5313 155.3906,464.1406 Q155.3906,463.7656 155.6563,463.5313 Q155.9219,463.2969 156.5313,463.2969 L158.25,463.2969 L158.25,456.6406 L156.5313,456.6406 Q155.9219,456.6406 155.6563,456.4063 Q155.3906,456.1719 155.3906,455.7813 Q155.3906,455.4063 155.6563,455.1719 Q155.9219,454.9375 156.5313,454.9375 L161.6719,454.9375 Q162.2813,454.9375 162.5469,455.1719 Q162.8125,455.4063 162.8125,455.7813 Q162.8125,456.1719 162.5469,456.4063 Q162.2813,456.6406 161.6719,456.6406 L159.9531,456.6406 Z " fill="#000000"/><text fill="#000000" font-family="sans-serif" font-size="14" font-style="italic" lengthAdjust="spacing" textLength="132" x="173" y="465.7285">IAccessTokenHolder</text><line style="stroke:#181818;stroke-width:0.5;" x1="145" x2="307" y1="476" y2="476"/><line style="stroke:#181818;stroke-width:0.5;" x1="145" x2="307" y1="484" y2="484"/></g><!--class IAutoSyncService--><g id="elem_IAutoSyncService"><rect codeLine="21" fill="#F1F1F1" height="48" id="IAutoSyncService" rx="2.5" ry="2.5" style="stroke:#181818;stroke-width:0.5;" width="142" x="343" y="444"/><ellipse cx="358" cy="460" fill="#B4A7E5" rx="11" ry="11" style="stroke:#181818;stroke-width:1.0;"/><path d="M358.9531,456.6406 L358.9531,463.2969 L360.6719,463.2969 Q361.2813,463.2969 361.5469,463.5313 Q361.8125,463.7656 361.8125,464.1563 Q361.8125,464.5313 361.5469,464.7656 Q361.2813,465 360.6719,465 L355.5313,465 Q354.9219,465 354.6563,464.7656 Q354.3906,464.5313 354.3906,464.1406 Q354.3906,463.7656 354.6563,463.5313 Q354.9219,463.2969 355.5313,463.2969 L357.25,463.2969 L357.25,456.6406 L355.5313,456.6406 Q354.9219,456.6406 354.6563,456.4063 Q354.3906,456.1719 354.3906,455.7813 Q354.3906,455.4063 354.6563,455.1719 Q354.9219,454.9375 355.5313,454.9375 L360.6719,454.9375 Q361.2813,454.9375 361.5469,455.1719 Q361.8125,455.4063 361.8125,455.7813 Q361.8125,456.1719 361.5469,456.4063 Q361.2813,456.6406 360.6719,456.6406 L358.9531,456.6406 Z " fill="#000000"/><text fill="#000000" font-family="sans-serif" font-size="14" font-style="italic" lengthAdjust="spacing" textLength="110" x="372" y="465.7285">IAutoSyncService</text><line style="stroke:#181818;stroke-width:0.5;" x1="344" x2="484" y1="476" y2="476"/><line style="stroke:#181818;stroke-width:0.5;" x1="344" x2="484" y1="484" y2="484"/></g><!--class IBenchmarkService--><g id="elem_IBenchmarkService"><rect codeLine="22" fill="#F1F1F1" height="48" id="IBenchmarkService" rx="2.5" ry="2.5" style="stroke:#181818;stroke-width:0.5;" width="154" x="520" y="444"/><ellipse cx="535" cy="460" fill="#B4A7E5" rx="11" ry="11" style="stroke:#181818;stroke-width:1.0;"/><path d="M535.9531,456.6406 L535.9531,463.2969 L537.6719,463.2969 Q538.2813,463.2969 538.5469,463.5313 Q538.8125,463.7656 538.8125,464.1563 Q538.8125,464.5313 538.5469,464.7656 Q538.2813,465 537.6719,465 L532.5313,465 Q531.9219,465 531.6563,464.7656 Q531.3906,464.5313 531.3906,464.1406 Q531.3906,463.7656 531.6563,463.5313 Q531.9219,463.2969 532.5313,463.2969 L534.25,463.2969 L534.25,456.6406 L532.5313,456.6406 Q531.9219,456.6406 531.6563,456.4063 Q531.3906,456.1719 531.3906,455.7813 Q531.3906,455.4063 531.6563,455.1719 Q531.9219,454.9375 532.5313,454.9375 L537.6719,454.9375 Q538.2813,454.9375 538.5469,455.1719 Q538.8125,455.4063 538.8125,455.7813 Q538.8125,456.1719 538.5469,456.4063 Q538.2813,456.6406 537.6719,456.6406 L535.9531,456.6406 Z " fill="#000000"/><text fill="#000000" font-family="sans-serif" font-size="14" font-style="italic" lengthAdjust="spacing" textLength="122" x="549" y="465.7285">IBenchmarkService</text><line style="stroke:#181818;stroke-width:0.5;" x1="521" x2="673" y1="476" y2="476"/><line style="stroke:#181818;stroke-width:0.5;" x1="521" x2="673" y1="484" y2="484"/></g><!--class IFileSystemWatcher--><g id="elem_IFileSystemWatcher"><rect codeLine="23" fill="#F1F1F1" height="48" id="IFileSystemWatcher" rx="2.5" ry="2.5" style="stroke:#181818;stroke-width:0.5;" width="159" x="709.5" y="444"/><ellipse cx="724.5" cy="460" fill="#B4A7E5" rx="11" ry="11" style="stroke:#181818;stroke-width:1.0;"/><path d="M725.4531,456.6406 L725.4531,463.2969 L727.1719,463.2969 Q727.7813,463.2969 728.0469,463.5313 Q728.3125,463.7656 728.3125,464.1563 Q728.3125,464.5313 728.0469,464.7656 Q727.7813,465 727.1719,465 L722.0313,465 Q721.4219,465 721.1563,464.7656 Q720.8906,464.5313 720.8906,464.1406 Q720.8906,463.7656 721.1563,463.5313 Q721.4219,463.2969 722.0313,463.2969 L723.75,463.2969 L723.75,456.6406 L722.0313,456.6406 Q721.4219,456.6406 721.1563,456.4063 Q720.8906,456.1719 720.8906,455.7813 Q720.8906,455.4063 721.1563,455.1719 Q721.4219,454.9375 722.0313,454.9375 L727.1719,454.9375 Q727.7813,454.9375 728.0469,455.1719 Q728.3125,455.4063 728.3125,455.7813 Q728.3125,456.1719 728.0469,456.4063 Q727.7813,456.6406 727.1719,456.6406 L725.4531,456.6406 Z " fill="#000000"/><text fill="#000000" font-family="sans-serif" font-size="14" font-style="italic" lengthAdjust="spacing" textLength="127" x="738.5" y="465.7285">IFileSystemWatcher</text><line style="stroke:#181818;stroke-width:0.5;" x1="710.5" x2="867.5" y1="476" y2="476"/><line style="stroke:#181818;stroke-width:0.5;" x1="710.5" x2="867.5" y1="484" y2="484"/></g><!--class ILocalCommitedFileIndexService--><g id="elem_ILocalCommitedFileIndexService"><rect codeLine="24" fill="#F1F1F1" height="48" id="ILocalCommitedFileIndexService" rx="2.5" ry="2.5" style="stroke:#181818;stroke-width:0.5;" width="236" x="63" y="552"/><ellipse cx="78" cy="568" fill="#B4A7E5" rx="11" ry="11" style="stroke:#181818;stroke-width:1.0;"/><path d="M78.9531,564.6406 L78.9531,571.2969 L80.6719,571.2969 Q81.2813,571.2969 81.5469,571.5313 Q81.8125,571.7656 81.8125,572.1563 Q81.8125,572.5313 81.5469,572.7656 Q81.2813,573 80.6719,573 L75.5313,573 Q74.9219,573 74.6563,572.7656 Q74.3906,572.5313 74.3906,572.1406 Q74.3906,571.7656 74.6563,571.5313 Q74.9219,571.2969 75.5313,571.2969 L77.25,571.2969 L77.25,564.6406 L75.5313,564.6406 Q74.9219,564.6406 74.6563,564.4063 Q74.3906,564.1719 74.3906,563.7813 Q74.3906,563.4063 74.6563,563.1719 Q74.9219,562.9375 75.5313,562.9375 L80.6719,562.9375 Q81.2813,562.9375 81.5469,563.1719 Q81.8125,563.4063 81.8125,563.7813 Q81.8125,564.1719 81.5469,564.4063 Q81.2813,564.6406 80.6719,564.6406 L78.9531,564.6406 Z " fill="#000000"/><text fill="#000000" font-family="sans-serif" font-size="14" font-style="italic" lengthAdjust="spacing" textLength="204" x="92" y="573.7285">ILocalCommitedFileIndexService</text><line style="stroke:#181818;stroke-width:0.5;" x1="64" x2="298" y1="584" y2="584"/><line style="stroke:#181818;stroke-width:0.5;" x1="64" x2="298" y1="592" y2="592"/></g><!--class ILocalIncomingFileIndexService--><g id="elem_ILocalIncomingFileIndexService"><rect codeLine="25" fill="#F1F1F1" height="48" id="ILocalIncomingFileIndexService" rx="2.5" ry="2.5" style="stroke:#181818;stroke-width:0.5;" width="230" x="334" y="552"/><ellipse cx="349" cy="568" fill="#B4A7E5" rx="11" ry="11" style="stroke:#181818;stroke-width:1.0;"/><path d="M349.9531,564.6406 L349.9531,571.2969 L351.6719,571.2969 Q352.2813,571.2969 352.5469,571.5313 Q352.8125,571.7656 352.8125,572.1563 Q352.8125,572.5313 352.5469,572.7656 Q352.2813,573 351.6719,573 L346.5313,573 Q345.9219,573 345.6563,572.7656 Q345.3906,572.5313 345.3906,572.1406 Q345.3906,571.7656 345.6563,571.5313 Q345.9219,571.2969 346.5313,571.2969 L348.25,571.2969 L348.25,564.6406 L346.5313,564.6406 Q345.9219,564.6406 345.6563,564.4063 Q345.3906,564.1719 345.3906,563.7813 Q345.3906,563.4063 345.6563,563.1719 Q345.9219,562.9375 346.5313,562.9375 L351.6719,562.9375 Q352.2813,562.9375 352.5469,563.1719 Q352.8125,563.4063 352.8125,563.7813 Q352.8125,564.1719 352.5469,564.4063 Q352.2813,564.6406 351.6719,564.6406 L349.9531,564.6406 Z " fill="#000000"/><text fill="#000000" font-family="sans-serif" font-size="14" font-style="italic" lengthAdjust="spacing" textLength="198" x="363" y="573.7285">ILocalIncomingFileIndexService</text><line style="stroke:#181818;stroke-width:0.5;" x1="335" x2="563" y1="584" y2="584"/><line style="stroke:#181818;stroke-width:0.5;" x1="335" x2="563" y1="592" y2="592"/></g><!--class ILogHistoryService--><g id="elem_ILogHistoryService"><rect codeLine="26" fill="#F1F1F1" height="48" id="ILogHistoryService" rx="2.5" ry="2.5" style="stroke:#181818;stroke-width:0.5;" width="150" x="599" y="552"/><ellipse cx="614" cy="568" fill="#B4A7E5" rx="11" ry="11" style="stroke:#181818;stroke-width:1.0;"/><path d="M614.9531,564.6406 L614.9531,571.2969 L616.6719,571.2969 Q617.2813,571.2969 617.5469,571.5313 Q617.8125,571.7656 617.8125,572.1563 Q617.8125,572.5313 617.5469,572.7656 Q617.2813,573 616.6719,573 L611.5313,573 Q610.9219,573 610.6563,572.7656 Q610.3906,572.5313 610.3906,572.1406 Q610.3906,571.7656 610.6563,571.5313 Q610.9219,571.2969 611.5313,571.2969 L613.25,571.2969 L613.25,564.6406 L611.5313,564.6406 Q610.9219,564.6406 610.6563,564.4063 Q610.3906,564.1719 610.3906,563.7813 Q610.3906,563.4063 610.6563,563.1719 Q610.9219,562.9375 611.5313,562.9375 L616.6719,562.9375 Q617.2813,562.9375 617.5469,563.1719 Q617.8125,563.4063 617.8125,563.7813 Q617.8125,564.1719 617.5469,564.4063 Q617.2813,564.6406 616.6719,564.6406 L614.9531,564.6406 Z " fill="#000000"/><text fill="#000000" font-family="sans-serif" font-size="14" font-style="italic" lengthAdjust="spacing" textLength="118" x="628" y="573.7285">ILogHistoryService</text><line style="stroke:#181818;stroke-width:0.5;" x1="600" x2="748" y1="584" y2="584"/><line style="stroke:#181818;stroke-width:0.5;" x1="600" x2="748" y1="592" y2="592"/></g><!--class ILogRelayService--><g id="elem_ILogRelayService"><rect codeLine="27" fill="#F1F1F1" height="48" id="ILogRelayService" rx="2.5" ry="2.5" style="stroke:#181818;stroke-width:0.5;" width="142" x="784" y="552"/><ellipse cx="799" cy="568" fill="#B4A7E5" rx="11" ry="11" style="stroke:#181818;stroke-width:1.0;"/><path d="M799.9531,564.6406 L799.9531,571.2969 L801.6719,571.2969 Q802.2813,571.2969 802.5469,571.5313 Q802.8125,571.7656 802.8125,572.1563 Q802.8125,572.5313 802.5469,572.7656 Q802.2813,573 801.6719,573 L796.5313,573 Q795.9219,573 795.6563,572.7656 Q795.3906,572.5313 795.3906,572.1406 Q795.3906,571.7656 795.6563,571.5313 Q795.9219,571.2969 796.5313,571.2969 L798.25,571.2969 L798.25,564.6406 L796.5313,564.6406 Q795.9219,564.6406 795.6563,564.4063 Q795.3906,564.1719 795.3906,563.7813 Q795.3906,563.4063 795.6563,563.1719 Q795.9219,562.9375 796.5313,562.9375 L801.6719,562.9375 Q802.2813,562.9375 802.5469,563.1719 Q802.8125,563.4063 802.8125,563.7813 Q802.8125,564.1719 802.5469,564.4063 Q802.2813,564.6406 801.6719,564.6406 L799.9531,564.6406 Z " fill="#000000"/><text fill="#000000" font-family="sans-serif" font-size="14" font-style="italic" lengthAdjust="spacing" textLength="110" x="813" y="573.7285">ILogRelayService</text><line style="stroke:#181818;stroke-width:0.5;" x1="785" x2="925" y1="584" y2="584"/><line style="stroke:#181818;stroke-width:0.5;" x1="785" x2="925" y1="592" y2="592"/></g><!--class IRemoteIncomingFileIndexService--><g id="elem_IRemoteIncomingFileIndexService"><rect codeLine="28" fill="#F1F1F1" height="48" id="IRemoteIncomingFileIndexService" rx="2.5" ry="2.5" style="stroke:#181818;stroke-width:0.5;" width="245" x="63.5" y="660"/><ellipse cx="78.5" cy="676" fill="#B4A7E5" rx="11" ry="11" style="stroke:#181818;stroke-width:1.0;"/><path d="M79.4531,672.6406 L79.4531,679.2969 L81.1719,679.2969 Q81.7813,679.2969 82.0469,679.5313 Q82.3125,679.7656 82.3125,680.1563 Q82.3125,680.5313 82.0469,680.7656 Q81.7813,681 81.1719,681 L76.0313,681 Q75.4219,681 75.1563,680.7656 Q74.8906,680.5313 74.8906,680.1406 Q74.8906,679.7656 75.1563,679.5313 Q75.4219,679.2969 76.0313,679.2969 L77.75,679.2969 L77.75,672.6406 L76.0313,672.6406 Q75.4219,672.6406 75.1563,672.4063 Q74.8906,672.1719 74.8906,671.7813 Q74.8906,671.4063 75.1563,671.1719 Q75.4219,670.9375 76.0313,670.9375 L81.1719,670.9375 Q81.7813,670.9375 82.0469,671.1719 Q82.3125,671.4063 82.3125,671.7813 Q82.3125,672.1719 82.0469,672.4063 Q81.7813,672.6406 81.1719,672.6406 L79.4531,672.6406 Z " fill="#000000"/><text fill="#000000" font-family="sans-serif" font-size="14" font-style="italic" lengthAdjust="spacing" textLength="213" x="92.5" y="681.7285">IRemoteIncomingFileIndexService</text><line style="stroke:#181818;stroke-width:0.5;" x1="64.5" x2="307.5" y1="692" y2="692"/><line style="stroke:#181818;stroke-width:0.5;" x1="64.5" x2="307.5" y1="700" y2="700"/></g><!--class ISyncService--><g id="elem_ISyncService"><rect codeLine="29" fill="#F1F1F1" height="48" id="ISyncService" rx="2.5" ry="2.5" style="stroke:#181818;stroke-width:0.5;" width="113" x="343.5" y="660"/><ellipse cx="358.5" cy="676" fill="#B4A7E5" rx="11" ry="11" style="stroke:#181818;stroke-width:1.0;"/><path d="M359.4531,672.6406 L359.4531,679.2969 L361.1719,679.2969 Q361.7813,679.2969 362.0469,679.5313 Q362.3125,679.7656 362.3125,680.1563 Q362.3125,680.5313 362.0469,680.7656 Q361.7813,681 361.1719,681 L356.0313,681 Q355.4219,681 355.1563,680.7656 Q354.8906,680.5313 354.8906,680.1406 Q354.8906,679.7656 355.1563,679.5313 Q355.4219,679.2969 356.0313,679.2969 L357.75,679.2969 L357.75,672.6406 L356.0313,672.6406 Q355.4219,672.6406 355.1563,672.4063 Q354.8906,672.1719 354.8906,671.7813 Q354.8906,671.4063 355.1563,671.1719 Q355.4219,670.9375 356.0313,670.9375 L361.1719,670.9375 Q361.7813,670.9375 362.0469,671.1719 Q362.3125,671.4063 362.3125,671.7813 Q362.3125,672.1719 362.0469,672.4063 Q361.7813,672.6406 361.1719,672.6406 L359.4531,672.6406 Z " fill="#000000"/><text fill="#000000" font-family="sans-serif" font-size="14" font-style="italic" lengthAdjust="spacing" textLength="81" x="372.5" y="681.7285">ISyncService</text><line style="stroke:#181818;stroke-width:0.5;" x1="344.5" x2="455.5" y1="692" y2="692"/><line style="stroke:#181818;stroke-width:0.5;" x1="344.5" x2="455.5" y1="700" y2="700"/></g><!--class IUserSettingsService--><g id="elem_IUserSettingsService"><rect codeLine="30" fill="#F1F1F1" height="48" id="IUserSettingsService" rx="2.5" ry="2.5" style="stroke:#181818;stroke-width:0.5;" width="163" x="491.5" y="660"/><ellipse cx="506.5" cy="676" fill="#B4A7E5" rx="11" ry="11" style="stroke:#181818;stroke-width:1.0;"/><path d="M507.4531,672.6406 L507.4531,679.2969 L509.1719,679.2969 Q509.7813,679.2969 510.0469,679.5313 Q510.3125,679.7656 510.3125,680.1563 Q510.3125,680.5313 510.0469,680.7656 Q509.7813,681 509.1719,681 L504.0313,681 Q503.4219,681 503.1563,680.7656 Q502.8906,680.5313 502.8906,680.1406 Q502.8906,679.7656 503.1563,679.5313 Q503.4219,679.2969 504.0313,679.2969 L505.75,679.2969 L505.75,672.6406 L504.0313,672.6406 Q503.4219,672.6406 503.1563,672.4063 Q502.8906,672.1719 502.8906,671.7813 Q502.8906,671.4063 503.1563,671.1719 Q503.4219,670.9375 504.0313,670.9375 L509.1719,670.9375 Q509.7813,670.9375 510.0469,671.1719 Q510.3125,671.4063 510.3125,671.7813 Q510.3125,672.1719 510.0469,672.4063 Q509.7813,672.6406 509.1719,672.6406 L507.4531,672.6406 Z " fill="#000000"/><text fill="#000000" font-family="sans-serif" font-size="14" font-style="italic" lengthAdjust="spacing" textLength="131" x="520.5" y="681.7285">IUserSettingsService</text><line style="stroke:#181818;stroke-width:0.5;" x1="492.5" x2="653.5" y1="692" y2="692"/><line style="stroke:#181818;stroke-width:0.5;" x1="492.5" x2="653.5" y1="700" y2="700"/></g><!--class IViewLocator--><g id="elem_IViewLocator"><rect codeLine="31" fill="#F1F1F1" height="48" id="IViewLocator" rx="2.5" ry="2.5" style="stroke:#181818;stroke-width:0.5;" width="113" x="689.5" y="660"/><ellipse cx="704.5" cy="676" fill="#B4A7E5" rx="11" ry="11" style="stroke:#181818;stroke-width:1.0;"/><path d="M705.4531,672.6406 L705.4531,679.2969 L707.1719,679.2969 Q707.7813,679.2969 708.0469,679.5313 Q708.3125,679.7656 708.3125,680.1563 Q708.3125,680.5313 708.0469,680.7656 Q707.7813,681 707.1719,681 L702.0313,681 Q701.4219,681 701.1563,680.7656 Q700.8906,680.5313 700.8906,680.1406 Q700.8906,679.7656 701.1563,679.5313 Q701.4219,679.2969 702.0313,679.2969 L703.75,679.2969 L703.75,672.6406 L702.0313,672.6406 Q701.4219,672.6406 701.1563,672.4063 Q700.8906,672.1719 700.8906,671.7813 Q700.8906,671.4063 701.1563,671.1719 Q701.4219,670.9375 702.0313,670.9375 L707.1719,670.9375 Q707.7813,670.9375 708.0469,671.1719 Q708.3125,671.4063 708.3125,671.7813 Q708.3125,672.1719 708.0469,672.4063 Q707.7813,672.6406 707.1719,672.6406 L705.4531,672.6406 Z " fill="#000000"/><text fill="#000000" font-family="sans-serif" font-size="14" font-style="italic" lengthAdjust="spacing" textLength="81" x="718.5" y="681.7285">IViewLocator</text><line style="stroke:#181818;stroke-width:0.5;" x1="690.5" x2="801.5" y1="692" y2="692"/><line style="stroke:#181818;stroke-width:0.5;" x1="690.5" x2="801.5" y1="700" y2="700"/></g><!--class FileIndexStagingHelper--><g id="elem_FileIndexStagingHelper"><rect codeLine="35" fill="#F1F1F1" height="48" id="FileIndexStagingHelper" rx="2.5" ry="2.5" style="stroke:#181818;stroke-width:0.5;" width="177" x="1307.5" y="816"/><ellipse cx="1322.5" cy="832" fill="#ADD1B2" rx="11" ry="11" style="stroke:#181818;stroke-width:1.0;"/><path d="M1325.2656,827.875 Q1325.4219,827.6563 1325.6094,827.5469 Q1325.7969,827.4375 1326.0156,827.4375 Q1326.3906,827.4375 1326.625,827.7031 Q1326.8594,827.9531 1326.8594,828.5625 L1326.8594,830.0156 Q1326.8594,830.625 1326.625,830.8906 Q1326.3906,831.1563 1326.0156,831.1563 Q1325.6719,831.1563 1325.4688,830.9531 Q1325.2656,830.7656 1325.1563,830.25 Q1325.1094,829.8906 1324.9219,829.7031 Q1324.5938,829.3281 1323.9844,829.1094 Q1323.375,828.8906 1322.75,828.8906 Q1321.9844,828.8906 1321.3438,829.2188 Q1320.7188,829.5469 1320.2188,830.2969 Q1319.7344,831.0469 1319.7344,832.0781 L1319.7344,833.1719 Q1319.7344,834.4063 1320.625,835.2344 Q1321.5156,836.0469 1323.1094,836.0469 Q1324.0469,836.0469 1324.7031,835.7969 Q1325.0938,835.6406 1325.5156,835.2031 Q1325.7813,834.9375 1325.9219,834.8594 Q1326.0781,834.7813 1326.2813,834.7813 Q1326.6094,834.7813 1326.8594,835.0469 Q1327.125,835.2969 1327.125,835.6406 Q1327.125,835.9844 1326.7813,836.3906 Q1326.2813,836.9688 1325.4844,837.2969 Q1324.4063,837.75 1323.1094,837.75 Q1321.5938,837.75 1320.3906,837.125 Q1319.4063,836.625 1318.7188,835.5625 Q1318.0313,834.4844 1318.0313,833.2031 L1318.0313,832.0469 Q1318.0313,830.7188 1318.6406,829.5781 Q1319.2656,828.4219 1320.3594,827.8125 Q1321.4531,827.1875 1322.6875,827.1875 Q1323.4219,827.1875 1324.0625,827.3594 Q1324.7188,827.5156 1325.2656,827.875 Z " fill="#000000"/><text fill="#000000" font-family="sans-serif" font-size="14" lengthAdjust="spacing" textLength="145" x="1336.5" y="837.7285">FileIndexStagingHelper</text><line style="stroke:#181818;stroke-width:0.5;" x1="1308.5" x2="1483.5" y1="848" y2="848"/><line style="stroke:#181818;stroke-width:0.5;" x1="1308.5" x2="1483.5" y1="856" y2="856"/></g><!--class FileHistoryWindowViewModel--><g id="elem_FileHistoryWindowViewModel"><rect codeLine="39" fill="#F1F1F1" height="48" id="FileHistoryWindowViewModel" rx="2.5" ry="2.5" style="stroke:#181818;stroke-width:0.5;" width="214" x="619" y="159"/><ellipse cx="634" cy="175" fill="#ADD1B2" rx="11" ry="11" style="stroke:#181818;stroke-width:1.0;"/><path d="M636.7656,170.875 Q636.9219,170.6563 637.1094,170.5469 Q637.2969,170.4375 637.5156,170.4375 Q637.8906,170.4375 638.125,170.7031 Q638.3594,170.9531 638.3594,171.5625 L638.3594,173.0156 Q638.3594,173.625 638.125,173.8906 Q637.8906,174.1563 637.5156,174.1563 Q637.1719,174.1563 636.9688,173.9531 Q636.7656,173.7656 636.6563,173.25 Q636.6094,172.8906 636.4219,172.7031 Q636.0938,172.3281 635.4844,172.1094 Q634.875,171.8906 634.25,171.8906 Q633.4844,171.8906 632.8438,172.2188 Q632.2188,172.5469 631.7188,173.2969 Q631.2344,174.0469 631.2344,175.0781 L631.2344,176.1719 Q631.2344,177.4063 632.125,178.2344 Q633.0156,179.0469 634.6094,179.0469 Q635.5469,179.0469 636.2031,178.7969 Q636.5938,178.6406 637.0156,178.2031 Q637.2813,177.9375 637.4219,177.8594 Q637.5781,177.7813 637.7813,177.7813 Q638.1094,177.7813 638.3594,178.0469 Q638.625,178.2969 638.625,178.6406 Q638.625,178.9844 638.2813,179.3906 Q637.7813,179.9688 636.9844,180.2969 Q635.9063,180.75 634.6094,180.75 Q633.0938,180.75 631.8906,180.125 Q630.9063,179.625 630.2188,178.5625 Q629.5313,177.4844 629.5313,176.2031 L629.5313,175.0469 Q629.5313,173.7188 630.1406,172.5781 Q630.7656,171.4219 631.8594,170.8125 Q632.9531,170.1875 634.1875,170.1875 Q634.9219,170.1875 635.5625,170.3594 Q636.2188,170.5156 636.7656,170.875 Z " fill="#000000"/><text fill="#000000" font-family="sans-serif" font-size="14" lengthAdjust="spacing" textLength="182" x="648" y="180.7285">FileHistoryWindowViewModel</text><line style="stroke:#181818;stroke-width:0.5;" x1="620" x2="832" y1="191" y2="191"/><line style="stroke:#181818;stroke-width:0.5;" x1="620" x2="832" y1="199" y2="199"/></g><!--class FileIndexTreeItemViewModel--><g id="elem_FileIndexTreeItemViewModel"><rect codeLine="40" fill="#F1F1F1" height="48" id="FileIndexTreeItemViewModel" rx="2.5" ry="2.5" style="stroke:#181818;stroke-width:0.5;" width="211" x="868.5" y="159"/><ellipse cx="883.5" cy="175" fill="#ADD1B2" rx="11" ry="11" style="stroke:#181818;stroke-width:1.0;"/><path d="M886.2656,170.875 Q886.4219,170.6563 886.6094,170.5469 Q886.7969,170.4375 887.0156,170.4375 Q887.3906,170.4375 887.625,170.7031 Q887.8594,170.9531 887.8594,171.5625 L887.8594,173.0156 Q887.8594,173.625 887.625,173.8906 Q887.3906,174.1563 887.0156,174.1563 Q886.6719,174.1563 886.4688,173.9531 Q886.2656,173.7656 886.1563,173.25 Q886.1094,172.8906 885.9219,172.7031 Q885.5938,172.3281 884.9844,172.1094 Q884.375,171.8906 883.75,171.8906 Q882.9844,171.8906 882.3438,172.2188 Q881.7188,172.5469 881.2188,173.2969 Q880.7344,174.0469 880.7344,175.0781 L880.7344,176.1719 Q880.7344,177.4063 881.625,178.2344 Q882.5156,179.0469 884.1094,179.0469 Q885.0469,179.0469 885.7031,178.7969 Q886.0938,178.6406 886.5156,178.2031 Q886.7813,177.9375 886.9219,177.8594 Q887.0781,177.7813 887.2813,177.7813 Q887.6094,177.7813 887.8594,178.0469 Q888.125,178.2969 888.125,178.6406 Q888.125,178.9844 887.7813,179.3906 Q887.2813,179.9688 886.4844,180.2969 Q885.4063,180.75 884.1094,180.75 Q882.5938,180.75 881.3906,180.125 Q880.4063,179.625 879.7188,178.5625 Q879.0313,177.4844 879.0313,176.2031 L879.0313,175.0469 Q879.0313,173.7188 879.6406,172.5781 Q880.2656,171.4219 881.3594,170.8125 Q882.4531,170.1875 883.6875,170.1875 Q884.4219,170.1875 885.0625,170.3594 Q885.7188,170.5156 886.2656,170.875 Z " fill="#000000"/><text fill="#000000" font-family="sans-serif" font-size="14" lengthAdjust="spacing" textLength="179" x="897.5" y="180.7285">FileIndexTreeItemViewModel</text><line style="stroke:#181818;stroke-width:0.5;" x1="869.5" x2="1078.5" y1="191" y2="191"/><line style="stroke:#181818;stroke-width:0.5;" x1="869.5" x2="1078.5" y1="199" y2="199"/></g><!--class FileIndexTreeViewModel--><g id="elem_FileIndexTreeViewModel"><rect codeLine="41" fill="#F1F1F1" height="48" id="FileIndexTreeViewModel" rx="2.5" ry="2.5" style="stroke:#181818;stroke-width:0.5;" width="185" x="1114.5" y="159"/><ellipse cx="1129.5" cy="175" fill="#ADD1B2" rx="11" ry="11" style="stroke:#181818;stroke-width:1.0;"/><path d="M1132.2656,170.875 Q1132.4219,170.6563 1132.6094,170.5469 Q1132.7969,170.4375 1133.0156,170.4375 Q1133.3906,170.4375 1133.625,170.7031 Q1133.8594,170.9531 1133.8594,171.5625 L1133.8594,173.0156 Q1133.8594,173.625 1133.625,173.8906 Q1133.3906,174.1563 1133.0156,174.1563 Q1132.6719,174.1563 1132.4688,173.9531 Q1132.2656,173.7656 1132.1563,173.25 Q1132.1094,172.8906 1131.9219,172.7031 Q1131.5938,172.3281 1130.9844,172.1094 Q1130.375,171.8906 1129.75,171.8906 Q1128.9844,171.8906 1128.3438,172.2188 Q1127.7188,172.5469 1127.2188,173.2969 Q1126.7344,174.0469 1126.7344,175.0781 L1126.7344,176.1719 Q1126.7344,177.4063 1127.625,178.2344 Q1128.5156,179.0469 1130.1094,179.0469 Q1131.0469,179.0469 1131.7031,178.7969 Q1132.0938,178.6406 1132.5156,178.2031 Q1132.7813,177.9375 1132.9219,177.8594 Q1133.0781,177.7813 1133.2813,177.7813 Q1133.6094,177.7813 1133.8594,178.0469 Q1134.125,178.2969 1134.125,178.6406 Q1134.125,178.9844 1133.7813,179.3906 Q1133.2813,179.9688 1132.4844,180.2969 Q1131.4063,180.75 1130.1094,180.75 Q1128.5938,180.75 1127.3906,180.125 Q1126.4063,179.625 1125.7188,178.5625 Q1125.0313,177.4844 1125.0313,176.2031 L1125.0313,175.0469 Q1125.0313,173.7188 1125.6406,172.5781 Q1126.2656,171.4219 1127.3594,170.8125 Q1128.4531,170.1875 1129.6875,170.1875 Q1130.4219,170.1875 1131.0625,170.3594 Q1131.7188,170.5156 1132.2656,170.875 Z " fill="#000000"/><text fill="#000000" font-family="sans-serif" font-size="14" lengthAdjust="spacing" textLength="153" x="1143.5" y="180.7285">FileIndexTreeViewModel</text><line style="stroke:#181818;stroke-width:0.5;" x1="1115.5" x2="1298.5" y1="191" y2="191"/><line style="stroke:#181818;stroke-width:0.5;" x1="1115.5" x2="1298.5" y1="199" y2="199"/></g><!--class FileVersionListItemViewModel--><g id="elem_FileVersionListItemViewModel"><rect codeLine="42" fill="#F1F1F1" height="48" id="FileVersionListItemViewModel" rx="2.5" ry="2.5" style="stroke:#181818;stroke-width:0.5;" width="218" x="619" y="267"/><ellipse cx="634" cy="283" fill="#ADD1B2" rx="11" ry="11" style="stroke:#181818;stroke-width:1.0;"/><path d="M636.7656,278.875 Q636.9219,278.6563 637.1094,278.5469 Q637.2969,278.4375 637.5156,278.4375 Q637.8906,278.4375 638.125,278.7031 Q638.3594,278.9531 638.3594,279.5625 L638.3594,281.0156 Q638.3594,281.625 638.125,281.8906 Q637.8906,282.1563 637.5156,282.1563 Q637.1719,282.1563 636.9688,281.9531 Q636.7656,281.7656 636.6563,281.25 Q636.6094,280.8906 636.4219,280.7031 Q636.0938,280.3281 635.4844,280.1094 Q634.875,279.8906 634.25,279.8906 Q633.4844,279.8906 632.8438,280.2188 Q632.2188,280.5469 631.7188,281.2969 Q631.2344,282.0469 631.2344,283.0781 L631.2344,284.1719 Q631.2344,285.4063 632.125,286.2344 Q633.0156,287.0469 634.6094,287.0469 Q635.5469,287.0469 636.2031,286.7969 Q636.5938,286.6406 637.0156,286.2031 Q637.2813,285.9375 637.4219,285.8594 Q637.5781,285.7813 637.7813,285.7813 Q638.1094,285.7813 638.3594,286.0469 Q638.625,286.2969 638.625,286.6406 Q638.625,286.9844 638.2813,287.3906 Q637.7813,287.9688 636.9844,288.2969 Q635.9063,288.75 634.6094,288.75 Q633.0938,288.75 631.8906,288.125 Q630.9063,287.625 630.2188,286.5625 Q629.5313,285.4844 629.5313,284.2031 L629.5313,283.0469 Q629.5313,281.7188 630.1406,280.5781 Q630.7656,279.4219 631.8594,278.8125 Q632.9531,278.1875 634.1875,278.1875 Q634.9219,278.1875 635.5625,278.3594 Q636.2188,278.5156 636.7656,278.875 Z " fill="#000000"/><text fill="#000000" font-family="sans-serif" font-size="14" lengthAdjust="spacing" textLength="186" x="648" y="288.7285">FileVersionListItemViewModel</text><line style="stroke:#181818;stroke-width:0.5;" x1="620" x2="836" y1="299" y2="299"/><line style="stroke:#181818;stroke-width:0.5;" x1="620" x2="836" y1="307" y2="307"/></g><!--class SettingsPageViewModel--><g id="elem_SettingsPageViewModel"><rect codeLine="43" fill="#F1F1F1" height="48" id="SettingsPageViewModel" rx="2.5" ry="2.5" style="stroke:#181818;stroke-width:0.5;" width="183" x="872.5" y="267"/><ellipse cx="887.5" cy="283" fill="#ADD1B2" rx="11" ry="11" style="stroke:#181818;stroke-width:1.0;"/><path d="M890.2656,278.875 Q890.4219,278.6563 890.6094,278.5469 Q890.7969,278.4375 891.0156,278.4375 Q891.3906,278.4375 891.625,278.7031 Q891.8594,278.9531 891.8594,279.5625 L891.8594,281.0156 Q891.8594,281.625 891.625,281.8906 Q891.3906,282.1563 891.0156,282.1563 Q890.6719,282.1563 890.4688,281.9531 Q890.2656,281.7656 890.1563,281.25 Q890.1094,280.8906 889.9219,280.7031 Q889.5938,280.3281 888.9844,280.1094 Q888.375,279.8906 887.75,279.8906 Q886.9844,279.8906 886.3438,280.2188 Q885.7188,280.5469 885.2188,281.2969 Q884.7344,282.0469 884.7344,283.0781 L884.7344,284.1719 Q884.7344,285.4063 885.625,286.2344 Q886.5156,287.0469 888.1094,287.0469 Q889.0469,287.0469 889.7031,286.7969 Q890.0938,286.6406 890.5156,286.2031 Q890.7813,285.9375 890.9219,285.8594 Q891.0781,285.7813 891.2813,285.7813 Q891.6094,285.7813 891.8594,286.0469 Q892.125,286.2969 892.125,286.6406 Q892.125,286.9844 891.7813,287.3906 Q891.2813,287.9688 890.4844,288.2969 Q889.4063,288.75 888.1094,288.75 Q886.5938,288.75 885.3906,288.125 Q884.4063,287.625 883.7188,286.5625 Q883.0313,285.4844 883.0313,284.2031 L883.0313,283.0469 Q883.0313,281.7188 883.6406,280.5781 Q884.2656,279.4219 885.3594,278.8125 Q886.4531,278.1875 887.6875,278.1875 Q888.4219,278.1875 889.0625,278.3594 Q889.7188,278.5156 890.2656,278.875 Z " fill="#000000"/><text fill="#000000" font-family="sans-serif" font-size="14" lengthAdjust="spacing" textLength="151" x="901.5" y="288.7285">SettingsPageViewModel</text><line style="stroke:#181818;stroke-width:0.5;" x1="873.5" x2="1054.5" y1="299" y2="299"/><line style="stroke:#181818;stroke-width:0.5;" x1="873.5" x2="1054.5" y1="307" y2="307"/></g><!--class StatusPageViewModel--><g id="elem_StatusPageViewModel"><rect codeLine="44" fill="#F1F1F1" height="48" id="StatusPageViewModel" rx="2.5" ry="2.5" style="stroke:#181818;stroke-width:0.5;" width="172" x="1091" y="267"/><ellipse cx="1106" cy="283" fill="#ADD1B2" rx="11" ry="11" style="stroke:#181818;stroke-width:1.0;"/><path d="M1108.7656,278.875 Q1108.9219,278.6563 1109.1094,278.5469 Q1109.2969,278.4375 1109.5156,278.4375 Q1109.8906,278.4375 1110.125,278.7031 Q1110.3594,278.9531 1110.3594,279.5625 L1110.3594,281.0156 Q1110.3594,281.625 1110.125,281.8906 Q1109.8906,282.1563 1109.5156,282.1563 Q1109.1719,282.1563 1108.9688,281.9531 Q1108.7656,281.7656 1108.6563,281.25 Q1108.6094,280.8906 1108.4219,280.7031 Q1108.0938,280.3281 1107.4844,280.1094 Q1106.875,279.8906 1106.25,279.8906 Q1105.4844,279.8906 1104.8438,280.2188 Q1104.2188,280.5469 1103.7188,281.2969 Q1103.2344,282.0469 1103.2344,283.0781 L1103.2344,284.1719 Q1103.2344,285.4063 1104.125,286.2344 Q1105.0156,287.0469 1106.6094,287.0469 Q1107.5469,287.0469 1108.2031,286.7969 Q1108.5938,286.6406 1109.0156,286.2031 Q1109.2813,285.9375 1109.4219,285.8594 Q1109.5781,285.7813 1109.7813,285.7813 Q1110.1094,285.7813 1110.3594,286.0469 Q1110.625,286.2969 1110.625,286.6406 Q1110.625,286.9844 1110.2813,287.3906 Q1109.7813,287.9688 1108.9844,288.2969 Q1107.9063,288.75 1106.6094,288.75 Q1105.0938,288.75 1103.8906,288.125 Q1102.9063,287.625 1102.2188,286.5625 Q1101.5313,285.4844 1101.5313,284.2031 L1101.5313,283.0469 Q1101.5313,281.7188 1102.1406,280.5781 Q1102.7656,279.4219 1103.8594,278.8125 Q1104.9531,278.1875 1106.1875,278.1875 Q1106.9219,278.1875 1107.5625,278.3594 Q1108.2188,278.5156 1108.7656,278.875 Z " fill="#000000"/><text fill="#000000" font-family="sans-serif" font-size="14" lengthAdjust="spacing" textLength="140" x="1120" y="288.7285">StatusPageViewModel</text><line style="stroke:#181818;stroke-width:0.5;" x1="1092" x2="1262" y1="299" y2="299"/><line style="stroke:#181818;stroke-width:0.5;" x1="1092" x2="1262" y1="307" y2="307"/></g><!--class FileHistoryWindow--><g id="elem_FileHistoryWindow"><rect codeLine="48" fill="#F1F1F1" height="48" id="FileHistoryWindow" rx="2.5" ry="2.5" style="stroke:#181818;stroke-width:0.5;" width="147" x="63.5" y="159"/><ellipse cx="78.5" cy="175" fill="#ADD1B2" rx="11" ry="11" style="stroke:#181818;stroke-width:1.0;"/><path d="M81.2656,170.875 Q81.4219,170.6563 81.6094,170.5469 Q81.7969,170.4375 82.0156,170.4375 Q82.3906,170.4375 82.625,170.7031 Q82.8594,170.9531 82.8594,171.5625 L82.8594,173.0156 Q82.8594,173.625 82.625,173.8906 Q82.3906,174.1563 82.0156,174.1563 Q81.6719,174.1563 81.4688,173.9531 Q81.2656,173.7656 81.1563,173.25 Q81.1094,172.8906 80.9219,172.7031 Q80.5938,172.3281 79.9844,172.1094 Q79.375,171.8906 78.75,171.8906 Q77.9844,171.8906 77.3438,172.2188 Q76.7188,172.5469 76.2188,173.2969 Q75.7344,174.0469 75.7344,175.0781 L75.7344,176.1719 Q75.7344,177.4063 76.625,178.2344 Q77.5156,179.0469 79.1094,179.0469 Q80.0469,179.0469 80.7031,178.7969 Q81.0938,178.6406 81.5156,178.2031 Q81.7813,177.9375 81.9219,177.8594 Q82.0781,177.7813 82.2813,177.7813 Q82.6094,177.7813 82.8594,178.0469 Q83.125,178.2969 83.125,178.6406 Q83.125,178.9844 82.7813,179.3906 Q82.2813,179.9688 81.4844,180.2969 Q80.4063,180.75 79.1094,180.75 Q77.5938,180.75 76.3906,180.125 Q75.4063,179.625 74.7188,178.5625 Q74.0313,177.4844 74.0313,176.2031 L74.0313,175.0469 Q74.0313,173.7188 74.6406,172.5781 Q75.2656,171.4219 76.3594,170.8125 Q77.4531,170.1875 78.6875,170.1875 Q79.4219,170.1875 80.0625,170.3594 Q80.7188,170.5156 81.2656,170.875 Z " fill="#000000"/><text fill="#000000" font-family="sans-serif" font-size="14" lengthAdjust="spacing" textLength="115" x="92.5" y="180.7285">FileHistoryWindow</text><line style="stroke:#181818;stroke-width:0.5;" x1="64.5" x2="209.5" y1="191" y2="191"/><line style="stroke:#181818;stroke-width:0.5;" x1="64.5" x2="209.5" y1="199" y2="199"/></g><!--class LoginPage--><g id="elem_LoginPage"><rect codeLine="49" fill="#F1F1F1" height="48" id="LoginPage" rx="2.5" ry="2.5" style="stroke:#181818;stroke-width:0.5;" width="100" x="246" y="159"/><ellipse cx="261" cy="175" fill="#ADD1B2" rx="11" ry="11" style="stroke:#181818;stroke-width:1.0;"/><path d="M263.7656,170.875 Q263.9219,170.6563 264.1094,170.5469 Q264.2969,170.4375 264.5156,170.4375 Q264.8906,170.4375 265.125,170.7031 Q265.3594,170.9531 265.3594,171.5625 L265.3594,173.0156 Q265.3594,173.625 265.125,173.8906 Q264.8906,174.1563 264.5156,174.1563 Q264.1719,174.1563 263.9688,173.9531 Q263.7656,173.7656 263.6563,173.25 Q263.6094,172.8906 263.4219,172.7031 Q263.0938,172.3281 262.4844,172.1094 Q261.875,171.8906 261.25,171.8906 Q260.4844,171.8906 259.8438,172.2188 Q259.2188,172.5469 258.7188,173.2969 Q258.2344,174.0469 258.2344,175.0781 L258.2344,176.1719 Q258.2344,177.4063 259.125,178.2344 Q260.0156,179.0469 261.6094,179.0469 Q262.5469,179.0469 263.2031,178.7969 Q263.5938,178.6406 264.0156,178.2031 Q264.2813,177.9375 264.4219,177.8594 Q264.5781,177.7813 264.7813,177.7813 Q265.1094,177.7813 265.3594,178.0469 Q265.625,178.2969 265.625,178.6406 Q265.625,178.9844 265.2813,179.3906 Q264.7813,179.9688 263.9844,180.2969 Q262.9063,180.75 261.6094,180.75 Q260.0938,180.75 258.8906,180.125 Q257.9063,179.625 257.2188,178.5625 Q256.5313,177.4844 256.5313,176.2031 L256.5313,175.0469 Q256.5313,173.7188 257.1406,172.5781 Q257.7656,171.4219 258.8594,170.8125 Q259.9531,170.1875 261.1875,170.1875 Q261.9219,170.1875 262.5625,170.3594 Q263.2188,170.5156 263.7656,170.875 Z " fill="#000000"/><text fill="#000000" font-family="sans-serif" font-size="14" lengthAdjust="spacing" textLength="68" x="275" y="180.7285">LoginPage</text><line style="stroke:#181818;stroke-width:0.5;" x1="247" x2="345" y1="191" y2="191"/><line style="stroke:#181818;stroke-width:0.5;" x1="247" x2="345" y1="199" y2="199"/></g><!--class MainWindow--><g id="elem_MainWindow"><rect codeLine="50" fill="#F1F1F1" height="48" id="MainWindow" rx="2.5" ry="2.5" style="stroke:#181818;stroke-width:0.5;" width="111" x="381.5" y="159"/><ellipse cx="396.5" cy="175" fill="#ADD1B2" rx="11" ry="11" style="stroke:#181818;stroke-width:1.0;"/><path d="M399.2656,170.875 Q399.4219,170.6563 399.6094,170.5469 Q399.7969,170.4375 400.0156,170.4375 Q400.3906,170.4375 400.625,170.7031 Q400.8594,170.9531 400.8594,171.5625 L400.8594,173.0156 Q400.8594,173.625 400.625,173.8906 Q400.3906,174.1563 400.0156,174.1563 Q399.6719,174.1563 399.4688,173.9531 Q399.2656,173.7656 399.1563,173.25 Q399.1094,172.8906 398.9219,172.7031 Q398.5938,172.3281 397.9844,172.1094 Q397.375,171.8906 396.75,171.8906 Q395.9844,171.8906 395.3438,172.2188 Q394.7188,172.5469 394.2188,173.2969 Q393.7344,174.0469 393.7344,175.0781 L393.7344,176.1719 Q393.7344,177.4063 394.625,178.2344 Q395.5156,179.0469 397.1094,179.0469 Q398.0469,179.0469 398.7031,178.7969 Q399.0938,178.6406 399.5156,178.2031 Q399.7813,177.9375 399.9219,177.8594 Q400.0781,177.7813 400.2813,177.7813 Q400.6094,177.7813 400.8594,178.0469 Q401.125,178.2969 401.125,178.6406 Q401.125,178.9844 400.7813,179.3906 Q400.2813,179.9688 399.4844,180.2969 Q398.4063,180.75 397.1094,180.75 Q395.5938,180.75 394.3906,180.125 Q393.4063,179.625 392.7188,178.5625 Q392.0313,177.4844 392.0313,176.2031 L392.0313,175.0469 Q392.0313,173.7188 392.6406,172.5781 Q393.2656,171.4219 394.3594,170.8125 Q395.4531,170.1875 396.6875,170.1875 Q397.4219,170.1875 398.0625,170.3594 Q398.7188,170.5156 399.2656,170.875 Z " fill="#000000"/><text fill="#000000" font-family="sans-serif" font-size="14" lengthAdjust="spacing" textLength="79" x="410.5" y="180.7285">MainWindow</text><line style="stroke:#181818;stroke-width:0.5;" x1="382.5" x2="491.5" y1="191" y2="191"/><line style="stroke:#181818;stroke-width:0.5;" x1="382.5" x2="491.5" y1="199" y2="199"/></g><!--class SettingsPage--><g id="elem_SettingsPage"><rect codeLine="51" fill="#F1F1F1" height="48" id="SettingsPage" rx="2.5" ry="2.5" style="stroke:#181818;stroke-width:0.5;" width="116" x="79" y="267"/><ellipse cx="94" cy="283" fill="#ADD1B2" rx="11" ry="11" style="stroke:#181818;stroke-width:1.0;"/><path d="M96.7656,278.875 Q96.9219,278.6563 97.1094,278.5469 Q97.2969,278.4375 97.5156,278.4375 Q97.8906,278.4375 98.125,278.7031 Q98.3594,278.9531 98.3594,279.5625 L98.3594,281.0156 Q98.3594,281.625 98.125,281.8906 Q97.8906,282.1563 97.5156,282.1563 Q97.1719,282.1563 96.9688,281.9531 Q96.7656,281.7656 96.6563,281.25 Q96.6094,280.8906 96.4219,280.7031 Q96.0938,280.3281 95.4844,280.1094 Q94.875,279.8906 94.25,279.8906 Q93.4844,279.8906 92.8438,280.2188 Q92.2188,280.5469 91.7188,281.2969 Q91.2344,282.0469 91.2344,283.0781 L91.2344,284.1719 Q91.2344,285.4063 92.125,286.2344 Q93.0156,287.0469 94.6094,287.0469 Q95.5469,287.0469 96.2031,286.7969 Q96.5938,286.6406 97.0156,286.2031 Q97.2813,285.9375 97.4219,285.8594 Q97.5781,285.7813 97.7813,285.7813 Q98.1094,285.7813 98.3594,286.0469 Q98.625,286.2969 98.625,286.6406 Q98.625,286.9844 98.2813,287.3906 Q97.7813,287.9688 96.9844,288.2969 Q95.9063,288.75 94.6094,288.75 Q93.0938,288.75 91.8906,288.125 Q90.9063,287.625 90.2188,286.5625 Q89.5313,285.4844 89.5313,284.2031 L89.5313,283.0469 Q89.5313,281.7188 90.1406,280.5781 Q90.7656,279.4219 91.8594,278.8125 Q92.9531,278.1875 94.1875,278.1875 Q94.9219,278.1875 95.5625,278.3594 Q96.2188,278.5156 96.7656,278.875 Z " fill="#000000"/><text fill="#000000" font-family="sans-serif" font-size="14" lengthAdjust="spacing" textLength="84" x="108" y="288.7285">SettingsPage</text><line style="stroke:#181818;stroke-width:0.5;" x1="80" x2="194" y1="299" y2="299"/><line style="stroke:#181818;stroke-width:0.5;" x1="80" x2="194" y1="307" y2="307"/></g><!--class StatusPage--><g id="elem_StatusPage"><rect codeLine="52" fill="#F1F1F1" height="48" id="StatusPage" rx="2.5" ry="2.5" style="stroke:#181818;stroke-width:0.5;" width="105" x="230.5" y="267"/><ellipse cx="245.5" cy="283" fill="#ADD1B2" rx="11" ry="11" style="stroke:#181818;stroke-width:1.0;"/><path d="M248.2656,278.875 Q248.4219,278.6563 248.6094,278.5469 Q248.7969,278.4375 249.0156,278.4375 Q249.3906,278.4375 249.625,278.7031 Q249.8594,278.9531 249.8594,279.5625 L249.8594,281.0156 Q249.8594,281.625 249.625,281.8906 Q249.3906,282.1563 249.0156,282.1563 Q248.6719,282.1563 248.4688,281.9531 Q248.2656,281.7656 248.1563,281.25 Q248.1094,280.8906 247.9219,280.7031 Q247.5938,280.3281 246.9844,280.1094 Q246.375,279.8906 245.75,279.8906 Q244.9844,279.8906 244.3438,280.2188 Q243.7188,280.5469 243.2188,281.2969 Q242.7344,282.0469 242.7344,283.0781 L242.7344,284.1719 Q242.7344,285.4063 243.625,286.2344 Q244.5156,287.0469 246.1094,287.0469 Q247.0469,287.0469 247.7031,286.7969 Q248.0938,286.6406 248.5156,286.2031 Q248.7813,285.9375 248.9219,285.8594 Q249.0781,285.7813 249.2813,285.7813 Q249.6094,285.7813 249.8594,286.0469 Q250.125,286.2969 250.125,286.6406 Q250.125,286.9844 249.7813,287.3906 Q249.2813,287.9688 248.4844,288.2969 Q247.4063,288.75 246.1094,288.75 Q244.5938,288.75 243.3906,288.125 Q242.4063,287.625 241.7188,286.5625 Q241.0313,285.4844 241.0313,284.2031 L241.0313,283.0469 Q241.0313,281.7188 241.6406,280.5781 Q242.2656,279.4219 243.3594,278.8125 Q244.4531,278.1875 245.6875,278.1875 Q246.4219,278.1875 247.0625,278.3594 Q247.7188,278.5156 248.2656,278.875 Z " fill="#000000"/><text fill="#000000" font-family="sans-serif" font-size="14" lengthAdjust="spacing" textLength="73" x="259.5" y="288.7285">StatusPage</text><line style="stroke:#181818;stroke-width:0.5;" x1="231.5" x2="334.5" y1="299" y2="299"/><line style="stroke:#181818;stroke-width:0.5;" x1="231.5" x2="334.5" y1="307" y2="307"/></g><!--reverse link App to CloudDrive.App.Views--><g id="link_App_CloudDrive.App.Views"><path codeLine="60" d="M528,103.07 C528,107.1038 528,99.4939 528,104.095 C528,106.3955 528,108.7488 528,111.1367 C528,112.3306 528,113.5331 528,114.742 " fill="none" id="App-backto-CloudDrive.App.Views" style="stroke:#181818;stroke-width:1.0;"/><polygon fill="#181818" points="528,91.07,524,97.07,528,103.07,532,97.07,528,91.07" style="stroke:#181818;stroke-width:1.0;"/></g><!--reverse link CloudDrive.App.Views to CloudDrive.App.ViewModels--><g id="link_CloudDrive.App.Views_CloudDrive.App.ViewModels"><path codeLine="62" d="M548.1904,183 C548.7646,183 538.1999,183 538.7741,183 C539.9225,183 541.0708,183 542.2192,183 C546.8128,183 551.4069,183 556.0013,183 C560.5956,183 565.1903,183 569.7852,183 C570.9339,183 572.0826,183 573.2313,183 C573.8057,183 574.38,183 574.9544,183 C575.2416,183 575.5288,183 575.816,183 C575.8519,183 575.8878,183 575.9237,183 " fill="none" id="CloudDrive.App.Views-backto-CloudDrive.App.ViewModels" style="stroke:#181818;stroke-width:1.0;"/><polygon fill="#181818" points="536.1904,183,542.1904,187,548.1904,183,542.1904,179,536.1904,183" style="stroke:#181818;stroke-width:1.0;"/></g><!--reverse link CloudDrive.App.Views to CloudDrive.App.Services--><g id="link_CloudDrive.App.Views_CloudDrive.App.Services"><path codeLine="63" d="M538.7071,246.683 C538.9566,247.7464 536.8935,238.7123 537.1574,239.7929 C538.213,244.1153 539.3856,248.5692 540.6875,253.1088 C551.1025,289.425 569.79,331.22 603,355 C664.47,399.02 888.25,330.82 942,384 C945.19,387.1563 947.7247,390.7652 949.716,394.6708 C950.2138,395.6472 950.6777,396.6422 951.1093,397.6533 C951.3252,398.1588 951.5329,398.6684 951.7329,399.1817 C951.8329,399.4383 951.9309,399.6959 952.0269,399.9544 " fill="none" id="CloudDrive.App.Views-backto-CloudDrive.App.Services" style="stroke:#181818;stroke-width:1.0;"/><polygon fill="none" points="536.0187,234.988,533.4646,241.7316,538.7071,246.683,541.2612,239.9393,536.0187,234.988" style="stroke:#181818;stroke-width:1.0;"/></g><!--reverse link CloudDrive.App.Services to CloudDrive.App.Model--><g id="link_CloudDrive.App.Services_CloudDrive.App.Model"><path codeLine="64" d="M970.3786,468 C973.1693,468 964.4831,468 967.2737,468 C972.855,468 978.4362,468 984.0173,468 C995.1797,468 1006.3419,468 1017.5037,468 C1028.6656,468 1039.8272,468 1050.9883,468 C1056.5688,468 1062.1493,468 1067.7296,468 C1070.5197,468 1073.3098,468 1076.0999,468 C1076.2743,468 1076.4486,468 1076.623,468 C1076.7102,468 1076.7974,468 1076.8846,468 " fill="none" id="CloudDrive.App.Services-backto-CloudDrive.App.Model" style="stroke:#181818;stroke-width:1.0;"/><polygon fill="#181818" points="958.3786,468,964.3786,472,970.3786,468,964.3786,464,958.3786,468" style="stroke:#181818;stroke-width:1.0;"/></g><!--reverse link CloudDrive.App.Services to WebApiClient--><g id="link_CloudDrive.App.Services_WebApiClient"><path codeLine="65" d="M942.9197,744.2317 C942.748,745.1845 944.4138,735.7504 944.2372,736.6997 C943.5311,740.497 942.7859,744.2656 942,748 C936.94,772.03 925.87,797.82 917.15,815.79 " fill="none" id="CloudDrive.App.Services-backto-WebApiClient" style="stroke:#181818;stroke-width:1.0;"/><polygon fill="none" points="945.0153,732.4161,940.029,737.6253,942.9197,744.2317,947.906,739.0224,945.0153,732.4161" style="stroke:#181818;stroke-width:1.0;"/></g><!--reverse link CloudDrive.App.Services to CloudDrive.App.Utils--><g id="link_CloudDrive.App.Services_CloudDrive.App.Utils"><path codeLine="66" d="M965.2937,488.8213 C965.8058,489.4926 959.4311,481.154 959.9793,481.8772 C961.0757,483.3237 962.2417,484.8714 963.4664,486.5097 C965.9158,489.7862 968.6,493.4247 971.4325,497.3388 C982.7625,512.995 996.465,533.06 1007,552 C1053.24,635.13 1015.09,693.42 1093,748 C1115.43,763.72 1192.24,742.36 1216,756 C1234.995,766.905 1248.8575,787.1825 1258.0388,804.965 C1259.1864,807.1878 1260.2609,809.3716 1261.2632,811.4933 C1261.7643,812.5541 1262.2473,813.5994 1262.7125,814.6263 C1262.945,815.1397 1263.1731,815.6485 1263.3967,816.1524 C1263.5084,816.4043 1263.6191,816.655 1263.7287,816.9044 C1263.7835,817.0291 1263.838,817.1534 1263.8922,817.2775 " fill="none" id="CloudDrive.App.Services-backto-CloudDrive.App.Utils" style="stroke:#181818;stroke-width:1.0;"/><polygon fill="none" points="958.0076,479.2865,958.4724,486.4826,965.2937,488.8213,964.8289,481.6252,958.0076,479.2865" style="stroke:#181818;stroke-width:1.0;"/></g><!--reverse link CloudDrive.App.Services to CloudDrive.App.Factories--><g id="link_CloudDrive.App.Services_CloudDrive.App.Factories"><path codeLine="67" d="M964.8989,489.8795 C965.1356,490.2216 958.8813,481.2238 959.125,481.5787 C960.0996,482.9985 961.1279,484.5195 962.1973,486.1319 C964.3359,489.3568 966.6388,492.9472 969.005,496.8238 C978.47,512.33 988.95,532.415 994,552 C1009.685,612.8 1011.1425,683.275 1008.5775,739.1725 C1008.2569,746.1597 1007.8734,752.9191 1007.447,759.4034 C1007.2338,762.6455 1007.0099,765.8189 1006.7777,768.9175 C1006.7197,769.6922 1006.6611,770.4622 1006.6021,771.2274 " fill="none" id="CloudDrive.App.Services-backto-CloudDrive.App.Factories" style="stroke:#181818;stroke-width:1.0;"/><polygon fill="none" points="958.0517,480.0247,958.1904,487.2345,964.8989,489.8795,964.7602,482.6698,958.0517,480.0247" style="stroke:#181818;stroke-width:1.0;"/></g><!--SRC=[dPNDJkCm4CVlUGgB2n9IU8TIGAr49TGKUlOwi-a8nuxiQQ52lFjE6jg4JUnaDwSe_ir_lXqF98mimLTIGGQLT9Ai4yOQI19boufV38chkRRx_DxX0MvdLNKbFXF1Jn2uVPIATH3y6JtXMdeljl1hLk5S8zirs55yVfsWhsH4TcLpq7t9Ep1gLqhtTXPgZnvHmzBayF5Wo1qpaWMQ8kEiU-IJLLBFRLaYGVxJB00l3KVASkDmiGBlPG4F1yvgvWhVXzPGMeAfabj9QjU4cHqzGVaiQJUvZ1cu0wgVpK53u7xp58ZbJF6PtzWtC0khSt1T_rrkJpOx6lKj5w0kpObZRIfDRY6dmssAQmztQyocMA2lftEKMuEM8rIWkt6ZyTg-U70ypCIQFaw-8hpNPQYtU-gOl13gWGLkes-sQG6wWkcgTIIdFGv8VrTzYoQtxnSuijaR1x3akPdAZd2lu3nQyyHXZAYUA__Ccnt3ID9-69fKh2br6hnqqDHE-qShYIPariqfbihV6VIkzXhe774ozHV-Lh_Tf6aWrUHQX83BhPK4gdIJEYnsbCP6BcHhqvJhOVx9RNkDShZyDDxJm5yhOjuwxrPmai7mplwNQVlFJlu0]--></g></svg>