<svg xmlns="http://www.w3.org/2000/svg" xmlns:xlink="http://www.w3.org/1999/xlink" contentStyleType="text/css" data-diagram-type="CLASS" height="997px" preserveAspectRatio="none" style="width:3771px;height:997px;background:#FFFFFF;" version="1.1" viewBox="0 0 3771 997" width="3771px" zoomAndPan="magnify"><defs/><g><!--cluster CloudDrive.App--><g class="cluster" data-entity="CloudDrive.App" data-source-line="3" data-uid="ent0002" id="cluster_CloudDrive.App"><rect fill="none" height="984" rx="2.5" ry="2.5" style="stroke:#181818;stroke-width:1;" width="3758" x="7" y="7"/><rect fill="none" height="10" style="stroke:#181818;stroke-width:1;" width="15" x="3745" y="12"/><rect fill="none" height="2" style="stroke:#181818;stroke-width:1;" width="4" x="3743" y="14"/><rect fill="none" height="2" style="stroke:#181818;stroke-width:1;" width="4" x="3743" y="18"/><text fill="#000000" font-family="sans-serif" font-size="14" font-weight="bold" lengthAdjust="spacing" textLength="122.8213" x="1824.5894" y="32.9951">CloudDrive.App</text></g><!--cluster CloudDrive.App.Factories--><g class="cluster" data-entity="CloudDrive.App.Factories" data-source-line="4" data-uid="ent0003" id="cluster_CloudDrive.App.Factories"><rect fill="none" height="115" rx="2.5" ry="2.5" style="stroke:#181818;stroke-width:1;" width="246" x="3184" y="844"/><rect fill="none" height="10" style="stroke:#181818;stroke-width:1;" width="15" x="3410" y="849"/><rect fill="none" height="2" style="stroke:#181818;stroke-width:1;" width="4" x="3408" y="851"/><rect fill="none" height="2" style="stroke:#181818;stroke-width:1;" width="4" x="3408" y="855"/><text fill="#000000" font-family="sans-serif" font-size="14" font-weight="bold" lengthAdjust="spacing" textLength="201.291" x="3206.3545" y="869.9951">CloudDrive.App.Factories</text></g><!--cluster CloudDrive.App.Model--><g class="cluster" data-entity="CloudDrive.App.Model" data-source-line="8" data-uid="ent0005" id="cluster_CloudDrive.App.Model"><rect fill="none" height="338" rx="2.5" ry="2.5" style="stroke:#181818;stroke-width:1;" width="802" x="39" y="398"/><rect fill="none" height="10" style="stroke:#181818;stroke-width:1;" width="15" x="821" y="403"/><rect fill="none" height="2" style="stroke:#181818;stroke-width:1;" width="4" x="819" y="405"/><rect fill="none" height="2" style="stroke:#181818;stroke-width:1;" width="4" x="819" y="409"/><text fill="#000000" font-family="sans-serif" font-size="14" font-weight="bold" lengthAdjust="spacing" textLength="176.0049" x="351.9976" y="423.9951">CloudDrive.App.Model</text></g><!--cluster CloudDrive.App.Services--><g class="cluster" data-entity="CloudDrive.App.Services" data-source-line="18" data-uid="ent0013" id="cluster_CloudDrive.App.Services"><rect fill="none" height="338" rx="2.5" ry="2.5" style="stroke:#181818;stroke-width:1;" width="989" x="894" y="398"/><rect fill="none" height="10" style="stroke:#181818;stroke-width:1;" width="15" x="1863" y="403"/><rect fill="none" height="2" style="stroke:#181818;stroke-width:1;" width="4" x="1861" y="405"/><rect fill="none" height="2" style="stroke:#181818;stroke-width:1;" width="4" x="1861" y="409"/><text fill="#000000" font-family="sans-serif" font-size="14" font-weight="bold" lengthAdjust="spacing" textLength="194.6738" x="1291.1631" y="423.9951">CloudDrive.App.Services</text></g><!--cluster CloudDrive.App.ServicesImpl--><g class="cluster" data-entity="CloudDrive.App.ServicesImpl" data-source-line="33" data-uid="ent0026" id="cluster_CloudDrive.App.ServicesImpl"><rect fill="none" height="446" rx="2.5" ry="2.5" style="stroke:#181818;stroke-width:1;" width="1087" x="1923" y="513"/><rect fill="none" height="10" style="stroke:#181818;stroke-width:1;" width="15" x="2990" y="518"/><rect fill="none" height="2" style="stroke:#181818;stroke-width:1;" width="4" x="2988" y="520"/><rect fill="none" height="2" style="stroke:#181818;stroke-width:1;" width="4" x="2988" y="524"/><text fill="#000000" font-family="sans-serif" font-size="14" font-weight="bold" lengthAdjust="spacing" textLength="229.291" x="2351.8545" y="538.9951">CloudDrive.App.ServicesImpl</text></g><!--cluster CloudDrive.App.Utils--><g class="cluster" data-entity="CloudDrive.App.Utils" data-source-line="49" data-uid="ent0040" id="cluster_CloudDrive.App.Utils"><rect fill="none" height="115" rx="2.5" ry="2.5" style="stroke:#181818;stroke-width:1;" width="263" x="3470" y="844"/><rect fill="none" height="10" style="stroke:#181818;stroke-width:1;" width="15" x="3713" y="849"/><rect fill="none" height="2" style="stroke:#181818;stroke-width:1;" width="4" x="3711" y="851"/><rect fill="none" height="2" style="stroke:#181818;stroke-width:1;" width="4" x="3711" y="855"/><text fill="#000000" font-family="sans-serif" font-size="14" font-weight="bold" lengthAdjust="spacing" textLength="164.1309" x="3519.4346" y="869.9951">CloudDrive.App.Utils</text></g><!--cluster CloudDrive.App.ViewModels--><g class="cluster" data-entity="CloudDrive.App.ViewModels" data-source-line="53" data-uid="ent0042" id="cluster_CloudDrive.App.ViewModels"><rect fill="none" height="223" rx="2.5" ry="2.5" style="stroke:#181818;stroke-width:1;" width="812" x="113" y="114"/><rect fill="none" height="10" style="stroke:#181818;stroke-width:1;" width="15" x="905" y="119"/><rect fill="none" height="2" style="stroke:#181818;stroke-width:1;" width="4" x="903" y="121"/><rect fill="none" height="2" style="stroke:#181818;stroke-width:1;" width="4" x="903" y="125"/><text fill="#000000" font-family="sans-serif" font-size="14" font-weight="bold" lengthAdjust="spacing" textLength="222.4004" x="407.7998" y="139.9951">CloudDrive.App.ViewModels</text></g><!--cluster CloudDrive.App.Views--><g class="cluster" data-entity="CloudDrive.App.Views" data-source-line="62" data-uid="ent0049" id="cluster_CloudDrive.App.Views"><rect fill="none" height="223" rx="2.5" ry="2.5" style="stroke:#181818;stroke-width:1;" width="525" x="965" y="114"/><rect fill="none" height="10" style="stroke:#181818;stroke-width:1;" width="15" x="1470" y="119"/><rect fill="none" height="2" style="stroke:#181818;stroke-width:1;" width="4" x="1468" y="121"/><rect fill="none" height="2" style="stroke:#181818;stroke-width:1;" width="4" x="1468" y="125"/><text fill="#000000" font-family="sans-serif" font-size="14" font-weight="bold" lengthAdjust="spacing" textLength="174.5352" x="1140.2324" y="139.9951">CloudDrive.App.Views</text></g><!--class WebApiClient--><g class="entity" data-entity="WebApiClient" data-source-line="70" data-uid="ent0055" id="entity_WebApiClient"><rect fill="#F1F1F1" height="48" rx="2.5" ry="2.5" style="stroke:#181818;stroke-width:0.5;" width="126.2266" x="3033.89" y="887"/><ellipse cx="3048.89" cy="903" fill="#ADD1B2" rx="11" ry="11" style="stroke:#181818;stroke-width:1;"/><path d="M3051.8588,908.6406 Q3051.2806,908.9375 3050.64,909.0781 Q3049.9994,909.2344 3049.2963,909.2344 Q3046.7963,909.2344 3045.4681,907.5938 Q3044.1556,905.9375 3044.1556,902.8125 Q3044.1556,899.6875 3045.4681,898.0313 Q3046.7963,896.375 3049.2963,896.375 Q3049.9994,896.375 3050.64,896.5313 Q3051.2963,896.6875 3051.8588,896.9844 L3051.8588,899.7031 Q3051.2338,899.125 3050.64,898.8594 Q3050.0463,898.5781 3049.4213,898.5781 Q3048.0775,898.5781 3047.39,899.6563 Q3046.7025,900.7188 3046.7025,902.8125 Q3046.7025,904.9063 3047.39,905.9844 Q3048.0775,907.0469 3049.4213,907.0469 Q3050.0463,907.0469 3050.64,906.7813 Q3051.2338,906.5 3051.8588,905.9219 L3051.8588,908.6406 Z " fill="#000000"/><text fill="#000000" font-family="sans-serif" font-size="14" lengthAdjust="spacing" textLength="94.2266" x="3062.89" y="907.8467">WebApiClient</text><line style="stroke:#181818;stroke-width:0.5;" x1="3034.89" x2="3159.1166" y1="919" y2="919"/><line style="stroke:#181818;stroke-width:0.5;" x1="3034.89" x2="3159.1166" y1="927" y2="927"/></g><!--class App--><g class="entity" data-entity="App" data-source-line="72" data-uid="ent0056" id="entity_App"><rect fill="#F1F1F1" height="48" rx="2.5" ry="2.5" style="stroke:#181818;stroke-width:0.5;" width="59.3506" x="1452.32" y="42"/><ellipse cx="1467.32" cy="58" fill="#ADD1B2" rx="11" ry="11" style="stroke:#181818;stroke-width:1;"/><path d="M1470.2888,63.6406 Q1469.7106,63.9375 1469.07,64.0781 Q1468.4294,64.2344 1467.7263,64.2344 Q1465.2263,64.2344 1463.8981,62.5938 Q1462.5856,60.9375 1462.5856,57.8125 Q1462.5856,54.6875 1463.8981,53.0313 Q1465.2263,51.375 1467.7263,51.375 Q1468.4294,51.375 1469.07,51.5313 Q1469.7263,51.6875 1470.2888,51.9844 L1470.2888,54.7031 Q1469.6638,54.125 1469.07,53.8594 Q1468.4763,53.5781 1467.8513,53.5781 Q1466.5075,53.5781 1465.82,54.6563 Q1465.1325,55.7188 1465.1325,57.8125 Q1465.1325,59.9063 1465.82,60.9844 Q1466.5075,62.0469 1467.8513,62.0469 Q1468.4763,62.0469 1469.07,61.7813 Q1469.6638,61.5 1470.2888,60.9219 L1470.2888,63.6406 Z " fill="#000000"/><text fill="#000000" font-family="sans-serif" font-size="14" lengthAdjust="spacing" textLength="27.3506" x="1481.32" y="62.8467">App</text><line style="stroke:#181818;stroke-width:0.5;" x1="1453.32" x2="1510.6706" y1="74" y2="74"/><line style="stroke:#181818;stroke-width:0.5;" x1="1453.32" x2="1510.6706" y1="82" y2="82"/></g><!--class WebApiClientFactory--><g class="entity" data-entity="WebApiClientFactory" data-source-line="5" data-uid="ent0004" id="entity_WebApiClientFactory"><rect fill="#F1F1F1" height="48" rx="2.5" ry="2.5" style="stroke:#181818;stroke-width:0.5;" width="178.6514" x="3207.67" y="887"/><ellipse cx="3222.67" cy="903" fill="#ADD1B2" rx="11" ry="11" style="stroke:#181818;stroke-width:1;"/><path d="M3225.6388,908.6406 Q3225.0606,908.9375 3224.42,909.0781 Q3223.7794,909.2344 3223.0763,909.2344 Q3220.5763,909.2344 3219.2481,907.5938 Q3217.9356,905.9375 3217.9356,902.8125 Q3217.9356,899.6875 3219.2481,898.0313 Q3220.5763,896.375 3223.0763,896.375 Q3223.7794,896.375 3224.42,896.5313 Q3225.0763,896.6875 3225.6388,896.9844 L3225.6388,899.7031 Q3225.0138,899.125 3224.42,898.8594 Q3223.8263,898.5781 3223.2013,898.5781 Q3221.8575,898.5781 3221.17,899.6563 Q3220.4825,900.7188 3220.4825,902.8125 Q3220.4825,904.9063 3221.17,905.9844 Q3221.8575,907.0469 3223.2013,907.0469 Q3223.8263,907.0469 3224.42,906.7813 Q3225.0138,906.5 3225.6388,905.9219 L3225.6388,908.6406 Z " fill="#000000"/><text fill="#000000" font-family="sans-serif" font-size="14" lengthAdjust="spacing" textLength="146.6514" x="3236.67" y="907.8467">WebApiClientFactory</text><line style="stroke:#181818;stroke-width:0.5;" x1="3208.67" x2="3385.3214" y1="919" y2="919"/><line style="stroke:#181818;stroke-width:0.5;" x1="3208.67" x2="3385.3214" y1="927" y2="927"/></g><!--class Benchmark--><g class="entity" data-entity="Benchmark" data-source-line="9" data-uid="ent0006" id="entity_Benchmark"><rect fill="#F1F1F1" height="48" rx="2.5" ry="2.5" style="stroke:#181818;stroke-width:0.5;" width="111.7412" x="134.13" y="441"/><ellipse cx="149.13" cy="457" fill="#ADD1B2" rx="11" ry="11" style="stroke:#181818;stroke-width:1;"/><path d="M152.0988,462.6406 Q151.5206,462.9375 150.88,463.0781 Q150.2394,463.2344 149.5363,463.2344 Q147.0363,463.2344 145.7081,461.5938 Q144.3956,459.9375 144.3956,456.8125 Q144.3956,453.6875 145.7081,452.0313 Q147.0363,450.375 149.5363,450.375 Q150.2394,450.375 150.88,450.5313 Q151.5363,450.6875 152.0988,450.9844 L152.0988,453.7031 Q151.4738,453.125 150.88,452.8594 Q150.2863,452.5781 149.6613,452.5781 Q148.3175,452.5781 147.63,453.6563 Q146.9425,454.7188 146.9425,456.8125 Q146.9425,458.9063 147.63,459.9844 Q148.3175,461.0469 149.6613,461.0469 Q150.2863,461.0469 150.88,460.7813 Q151.4738,460.5 152.0988,459.9219 L152.0988,462.6406 Z " fill="#000000"/><text fill="#000000" font-family="sans-serif" font-size="14" lengthAdjust="spacing" textLength="79.7412" x="163.13" y="461.8467">Benchmark</text><line style="stroke:#181818;stroke-width:0.5;" x1="135.13" x2="244.8712" y1="473" y2="473"/><line style="stroke:#181818;stroke-width:0.5;" x1="135.13" x2="244.8712" y1="481" y2="481"/></g><!--class FileIndexEntryStagingSet--><g class="entity" data-entity="FileIndexEntryStagingSet" data-source-line="10" data-uid="ent0007" id="entity_FileIndexEntryStagingSet"><rect fill="#F1F1F1" height="48" rx="2.5" ry="2.5" style="stroke:#181818;stroke-width:0.5;" width="208.9619" x="291.52" y="441"/><ellipse cx="306.52" cy="457" fill="#ADD1B2" rx="11" ry="11" style="stroke:#181818;stroke-width:1;"/><path d="M309.4888,462.6406 Q308.9106,462.9375 308.27,463.0781 Q307.6294,463.2344 306.9263,463.2344 Q304.4263,463.2344 303.0981,461.5938 Q301.7856,459.9375 301.7856,456.8125 Q301.7856,453.6875 303.0981,452.0313 Q304.4263,450.375 306.9263,450.375 Q307.6294,450.375 308.27,450.5313 Q308.9263,450.6875 309.4888,450.9844 L309.4888,453.7031 Q308.8638,453.125 308.27,452.8594 Q307.6763,452.5781 307.0513,452.5781 Q305.7075,452.5781 305.02,453.6563 Q304.3325,454.7188 304.3325,456.8125 Q304.3325,458.9063 305.02,459.9844 Q305.7075,461.0469 307.0513,461.0469 Q307.6763,461.0469 308.27,460.7813 Q308.8638,460.5 309.4888,459.9219 L309.4888,462.6406 Z " fill="#000000"/><text fill="#000000" font-family="sans-serif" font-size="14" lengthAdjust="spacing" textLength="176.9619" x="320.52" y="461.8467">FileIndexEntryStagingSet</text><line style="stroke:#181818;stroke-width:0.5;" x1="292.52" x2="499.4819" y1="473" y2="473"/><line style="stroke:#181818;stroke-width:0.5;" x1="292.52" x2="499.4819" y1="481" y2="481"/></g><!--class LocalCommitedFileIndexEntry--><g class="entity" data-entity="LocalCommitedFileIndexEntry" data-source-line="11" data-uid="ent0008" id="entity_LocalCommitedFileIndexEntry"><rect fill="#F1F1F1" height="48" rx="2.5" ry="2.5" style="stroke:#181818;stroke-width:0.5;" width="241.5078" x="556.25" y="441"/><ellipse cx="571.25" cy="457" fill="#ADD1B2" rx="11" ry="11" style="stroke:#181818;stroke-width:1;"/><path d="M574.2188,462.6406 Q573.6406,462.9375 573,463.0781 Q572.3594,463.2344 571.6563,463.2344 Q569.1563,463.2344 567.8281,461.5938 Q566.5156,459.9375 566.5156,456.8125 Q566.5156,453.6875 567.8281,452.0313 Q569.1563,450.375 571.6563,450.375 Q572.3594,450.375 573,450.5313 Q573.6563,450.6875 574.2188,450.9844 L574.2188,453.7031 Q573.5938,453.125 573,452.8594 Q572.4063,452.5781 571.7813,452.5781 Q570.4375,452.5781 569.75,453.6563 Q569.0625,454.7188 569.0625,456.8125 Q569.0625,458.9063 569.75,459.9844 Q570.4375,461.0469 571.7813,461.0469 Q572.4063,461.0469 573,460.7813 Q573.5938,460.5 574.2188,459.9219 L574.2188,462.6406 Z " fill="#000000"/><text fill="#000000" font-family="sans-serif" font-size="14" lengthAdjust="spacing" textLength="209.5078" x="585.25" y="461.8467">LocalCommitedFileIndexEntry</text><line style="stroke:#181818;stroke-width:0.5;" x1="557.25" x2="796.7578" y1="473" y2="473"/><line style="stroke:#181818;stroke-width:0.5;" x1="557.25" x2="796.7578" y1="481" y2="481"/></g><!--class LocalIncomingFileIndexEntry--><g class="entity" data-entity="LocalIncomingFileIndexEntry" data-source-line="12" data-uid="ent0009" id="entity_LocalIncomingFileIndexEntry"><rect fill="#F1F1F1" height="48" rx="2.5" ry="2.5" style="stroke:#181818;stroke-width:0.5;" width="233.5645" x="63.22" y="556"/><ellipse cx="78.22" cy="572" fill="#ADD1B2" rx="11" ry="11" style="stroke:#181818;stroke-width:1;"/><path d="M81.1888,577.6406 Q80.6106,577.9375 79.97,578.0781 Q79.3294,578.2344 78.6263,578.2344 Q76.1263,578.2344 74.7981,576.5938 Q73.4856,574.9375 73.4856,571.8125 Q73.4856,568.6875 74.7981,567.0313 Q76.1263,565.375 78.6263,565.375 Q79.3294,565.375 79.97,565.5313 Q80.6263,565.6875 81.1888,565.9844 L81.1888,568.7031 Q80.5638,568.125 79.97,567.8594 Q79.3763,567.5781 78.7513,567.5781 Q77.4075,567.5781 76.72,568.6563 Q76.0325,569.7188 76.0325,571.8125 Q76.0325,573.9063 76.72,574.9844 Q77.4075,576.0469 78.7513,576.0469 Q79.3763,576.0469 79.97,575.7813 Q80.5638,575.5 81.1888,574.9219 L81.1888,577.6406 Z " fill="#000000"/><text fill="#000000" font-family="sans-serif" font-size="14" lengthAdjust="spacing" textLength="201.5645" x="92.22" y="576.8467">LocalIncomingFileIndexEntry</text><line style="stroke:#181818;stroke-width:0.5;" x1="64.22" x2="295.7845" y1="588" y2="588"/><line style="stroke:#181818;stroke-width:0.5;" x1="64.22" x2="295.7845" y1="596" y2="596"/></g><!--class LogMessageEventArgs--><g class="entity" data-entity="LogMessageEventArgs" data-source-line="13" data-uid="ent0010" id="entity_LogMessageEventArgs"><rect fill="#F1F1F1" height="48" rx="2.5" ry="2.5" style="stroke:#181818;stroke-width:0.5;" width="190.2314" x="331.88" y="556"/><ellipse cx="346.88" cy="572" fill="#ADD1B2" rx="11" ry="11" style="stroke:#181818;stroke-width:1;"/><path d="M349.8488,577.6406 Q349.2706,577.9375 348.63,578.0781 Q347.9894,578.2344 347.2863,578.2344 Q344.7863,578.2344 343.4581,576.5938 Q342.1456,574.9375 342.1456,571.8125 Q342.1456,568.6875 343.4581,567.0313 Q344.7863,565.375 347.2863,565.375 Q347.9894,565.375 348.63,565.5313 Q349.2863,565.6875 349.8488,565.9844 L349.8488,568.7031 Q349.2238,568.125 348.63,567.8594 Q348.0363,567.5781 347.4113,567.5781 Q346.0675,567.5781 345.38,568.6563 Q344.6925,569.7188 344.6925,571.8125 Q344.6925,573.9063 345.38,574.9844 Q346.0675,576.0469 347.4113,576.0469 Q348.0363,576.0469 348.63,575.7813 Q349.2238,575.5 349.8488,574.9219 L349.8488,577.6406 Z " fill="#000000"/><text fill="#000000" font-family="sans-serif" font-size="14" lengthAdjust="spacing" textLength="158.2314" x="360.88" y="576.8467">LogMessageEventArgs</text><line style="stroke:#181818;stroke-width:0.5;" x1="332.88" x2="521.1114" y1="588" y2="588"/><line style="stroke:#181818;stroke-width:0.5;" x1="332.88" x2="521.1114" y1="596" y2="596"/></g><!--class RemoteIncomingFileIndexEntry--><g class="entity" data-entity="RemoteIncomingFileIndexEntry" data-source-line="14" data-uid="ent0011" id="entity_RemoteIncomingFileIndexEntry"><rect fill="#F1F1F1" height="48" rx="2.5" ry="2.5" style="stroke:#181818;stroke-width:0.5;" width="251.6797" x="557.16" y="556"/><ellipse cx="572.16" cy="572" fill="#ADD1B2" rx="11" ry="11" style="stroke:#181818;stroke-width:1;"/><path d="M575.1288,577.6406 Q574.5506,577.9375 573.91,578.0781 Q573.2694,578.2344 572.5663,578.2344 Q570.0663,578.2344 568.7381,576.5938 Q567.4256,574.9375 567.4256,571.8125 Q567.4256,568.6875 568.7381,567.0313 Q570.0663,565.375 572.5663,565.375 Q573.2694,565.375 573.91,565.5313 Q574.5663,565.6875 575.1288,565.9844 L575.1288,568.7031 Q574.5038,568.125 573.91,567.8594 Q573.3163,567.5781 572.6913,567.5781 Q571.3475,567.5781 570.66,568.6563 Q569.9725,569.7188 569.9725,571.8125 Q569.9725,573.9063 570.66,574.9844 Q571.3475,576.0469 572.6913,576.0469 Q573.3163,576.0469 573.91,575.7813 Q574.5038,575.5 575.1288,574.9219 L575.1288,577.6406 Z " fill="#000000"/><text fill="#000000" font-family="sans-serif" font-size="14" lengthAdjust="spacing" textLength="219.6797" x="586.16" y="576.8467">RemoteIncomingFileIndexEntry</text><line style="stroke:#181818;stroke-width:0.5;" x1="558.16" x2="807.8397" y1="588" y2="588"/><line style="stroke:#181818;stroke-width:0.5;" x1="558.16" x2="807.8397" y1="596" y2="596"/></g><!--class WatchedFileSystemPath--><g class="entity" data-entity="WatchedFileSystemPath" data-source-line="15" data-uid="ent0012" id="entity_WatchedFileSystemPath"><rect fill="#F1F1F1" height="48" rx="2.5" ry="2.5" style="stroke:#181818;stroke-width:0.5;" width="202.0166" x="342.99" y="664"/><ellipse cx="357.99" cy="680" fill="#ADD1B2" rx="11" ry="11" style="stroke:#181818;stroke-width:1;"/><path d="M360.9588,685.6406 Q360.3806,685.9375 359.74,686.0781 Q359.0994,686.2344 358.3963,686.2344 Q355.8963,686.2344 354.5681,684.5938 Q353.2556,682.9375 353.2556,679.8125 Q353.2556,676.6875 354.5681,675.0313 Q355.8963,673.375 358.3963,673.375 Q359.0994,673.375 359.74,673.5313 Q360.3963,673.6875 360.9588,673.9844 L360.9588,676.7031 Q360.3338,676.125 359.74,675.8594 Q359.1463,675.5781 358.5213,675.5781 Q357.1775,675.5781 356.49,676.6563 Q355.8025,677.7188 355.8025,679.8125 Q355.8025,681.9063 356.49,682.9844 Q357.1775,684.0469 358.5213,684.0469 Q359.1463,684.0469 359.74,683.7813 Q360.3338,683.5 360.9588,682.9219 L360.9588,685.6406 Z " fill="#000000"/><text fill="#000000" font-family="sans-serif" font-size="14" lengthAdjust="spacing" textLength="170.0166" x="371.99" y="684.8467">WatchedFileSystemPath</text><line style="stroke:#181818;stroke-width:0.5;" x1="343.99" x2="544.0066" y1="696" y2="696"/><line style="stroke:#181818;stroke-width:0.5;" x1="343.99" x2="544.0066" y1="704" y2="704"/></g><!--class IAccessTokenHolder--><g class="entity" data-entity="IAccessTokenHolder" data-source-line="19" data-uid="ent0014" id="entity_IAccessTokenHolder"><rect fill="#F1F1F1" height="48" rx="2.5" ry="2.5" style="stroke:#181818;stroke-width:0.5;" width="173.251" x="939.37" y="441"/><ellipse cx="954.37" cy="457" fill="#B4A7E5" rx="11" ry="11" style="stroke:#181818;stroke-width:1;"/><path d="M950.2919,452.7656 L950.2919,450.6094 L957.6825,450.6094 L957.6825,452.7656 L955.2138,452.7656 L955.2138,460.8438 L957.6825,460.8438 L957.6825,463 L950.2919,463 L950.2919,460.8438 L952.7606,460.8438 L952.7606,452.7656 L950.2919,452.7656 Z " fill="#000000"/><text fill="#000000" font-family="sans-serif" font-size="14" font-style="italic" lengthAdjust="spacing" textLength="141.251" x="968.37" y="461.8467">IAccessTokenHolder</text><line style="stroke:#181818;stroke-width:0.5;" x1="940.37" x2="1111.621" y1="473" y2="473"/><line style="stroke:#181818;stroke-width:0.5;" x1="940.37" x2="1111.621" y1="481" y2="481"/></g><!--class IAutoSyncService--><g class="entity" data-entity="IAutoSyncService" data-source-line="20" data-uid="ent0015" id="entity_IAutoSyncService"><rect fill="#F1F1F1" height="48" rx="2.5" ry="2.5" style="stroke:#181818;stroke-width:0.5;" width="154.1172" x="1211.94" y="441"/><ellipse cx="1226.94" cy="457" fill="#B4A7E5" rx="11" ry="11" style="stroke:#181818;stroke-width:1;"/><path d="M1222.8619,452.7656 L1222.8619,450.6094 L1230.2525,450.6094 L1230.2525,452.7656 L1227.7838,452.7656 L1227.7838,460.8438 L1230.2525,460.8438 L1230.2525,463 L1222.8619,463 L1222.8619,460.8438 L1225.3306,460.8438 L1225.3306,452.7656 L1222.8619,452.7656 Z " fill="#000000"/><text fill="#000000" font-family="sans-serif" font-size="14" font-style="italic" lengthAdjust="spacing" textLength="122.1172" x="1240.94" y="461.8467">IAutoSyncService</text><line style="stroke:#181818;stroke-width:0.5;" x1="1212.94" x2="1365.0572" y1="473" y2="473"/><line style="stroke:#181818;stroke-width:0.5;" x1="1212.94" x2="1365.0572" y1="481" y2="481"/></g><!--class IBenchmarkService--><g class="entity" data-entity="IBenchmarkService" data-source-line="21" data-uid="ent0016" id="entity_IBenchmarkService"><rect fill="#F1F1F1" height="48" rx="2.5" ry="2.5" style="stroke:#181818;stroke-width:0.5;" width="167.6113" x="1433.19" y="441"/><ellipse cx="1448.19" cy="457" fill="#B4A7E5" rx="11" ry="11" style="stroke:#181818;stroke-width:1;"/><path d="M1444.1119,452.7656 L1444.1119,450.6094 L1451.5025,450.6094 L1451.5025,452.7656 L1449.0338,452.7656 L1449.0338,460.8438 L1451.5025,460.8438 L1451.5025,463 L1444.1119,463 L1444.1119,460.8438 L1446.5806,460.8438 L1446.5806,452.7656 L1444.1119,452.7656 Z " fill="#000000"/><text fill="#000000" font-family="sans-serif" font-size="14" font-style="italic" lengthAdjust="spacing" textLength="135.6113" x="1462.19" y="461.8467">IBenchmarkService</text><line style="stroke:#181818;stroke-width:0.5;" x1="1434.19" x2="1599.8013" y1="473" y2="473"/><line style="stroke:#181818;stroke-width:0.5;" x1="1434.19" x2="1599.8013" y1="481" y2="481"/></g><!--class IFileSystemWatcher--><g class="entity" data-entity="IFileSystemWatcher" data-source-line="22" data-uid="ent0017" id="entity_IFileSystemWatcher"><rect fill="#F1F1F1" height="48" rx="2.5" ry="2.5" style="stroke:#181818;stroke-width:0.5;" width="171.6309" x="1652.18" y="441"/><ellipse cx="1667.18" cy="457" fill="#B4A7E5" rx="11" ry="11" style="stroke:#181818;stroke-width:1;"/><path d="M1663.1019,452.7656 L1663.1019,450.6094 L1670.4925,450.6094 L1670.4925,452.7656 L1668.0238,452.7656 L1668.0238,460.8438 L1670.4925,460.8438 L1670.4925,463 L1663.1019,463 L1663.1019,460.8438 L1665.5706,460.8438 L1665.5706,452.7656 L1663.1019,452.7656 Z " fill="#000000"/><text fill="#000000" font-family="sans-serif" font-size="14" font-style="italic" lengthAdjust="spacing" textLength="139.6309" x="1681.18" y="461.8467">IFileSystemWatcher</text><line style="stroke:#181818;stroke-width:0.5;" x1="1653.18" x2="1822.8109" y1="473" y2="473"/><line style="stroke:#181818;stroke-width:0.5;" x1="1653.18" x2="1822.8109" y1="481" y2="481"/></g><!--class ILocalCommitedFileIndexService--><g class="entity" data-entity="ILocalCommitedFileIndexService" data-source-line="23" data-uid="ent0018" id="entity_ILocalCommitedFileIndexService"><rect fill="#F1F1F1" height="48" rx="2.5" ry="2.5" style="stroke:#181818;stroke-width:0.5;" width="260.1289" x="917.94" y="556"/><ellipse cx="932.94" cy="572" fill="#B4A7E5" rx="11" ry="11" style="stroke:#181818;stroke-width:1;"/><path d="M928.8619,567.7656 L928.8619,565.6094 L936.2525,565.6094 L936.2525,567.7656 L933.7838,567.7656 L933.7838,575.8438 L936.2525,575.8438 L936.2525,578 L928.8619,578 L928.8619,575.8438 L931.3306,575.8438 L931.3306,567.7656 L928.8619,567.7656 Z " fill="#000000"/><text fill="#000000" font-family="sans-serif" font-size="14" font-style="italic" lengthAdjust="spacing" textLength="228.1289" x="946.94" y="576.8467">ILocalCommitedFileIndexService</text><line style="stroke:#181818;stroke-width:0.5;" x1="918.94" x2="1177.0689" y1="588" y2="588"/><line style="stroke:#181818;stroke-width:0.5;" x1="918.94" x2="1177.0689" y1="596" y2="596"/></g><!--class ILocalIncomingFileIndexService--><g class="entity" data-entity="ILocalIncomingFileIndexService" data-source-line="24" data-uid="ent0019" id="entity_ILocalIncomingFileIndexService"><rect fill="#F1F1F1" height="48" rx="2.5" ry="2.5" style="stroke:#181818;stroke-width:0.5;" width="252.1855" x="1212.91" y="556"/><ellipse cx="1227.91" cy="572" fill="#B4A7E5" rx="11" ry="11" style="stroke:#181818;stroke-width:1;"/><path d="M1223.8319,567.7656 L1223.8319,565.6094 L1231.2225,565.6094 L1231.2225,567.7656 L1228.7538,567.7656 L1228.7538,575.8438 L1231.2225,575.8438 L1231.2225,578 L1223.8319,578 L1223.8319,575.8438 L1226.3006,575.8438 L1226.3006,567.7656 L1223.8319,567.7656 Z " fill="#000000"/><text fill="#000000" font-family="sans-serif" font-size="14" font-style="italic" lengthAdjust="spacing" textLength="220.1855" x="1241.91" y="576.8467">ILocalIncomingFileIndexService</text><line style="stroke:#181818;stroke-width:0.5;" x1="1213.91" x2="1464.0955" y1="588" y2="588"/><line style="stroke:#181818;stroke-width:0.5;" x1="1213.91" x2="1464.0955" y1="596" y2="596"/></g><!--class ILogHistoryService--><g class="entity" data-entity="ILogHistoryService" data-source-line="25" data-uid="ent0020" id="entity_ILogHistoryService"><rect fill="#F1F1F1" height="48" rx="2.5" ry="2.5" style="stroke:#181818;stroke-width:0.5;" width="162.9287" x="1500.54" y="556"/><ellipse cx="1515.54" cy="572" fill="#B4A7E5" rx="11" ry="11" style="stroke:#181818;stroke-width:1;"/><path d="M1511.4619,567.7656 L1511.4619,565.6094 L1518.8525,565.6094 L1518.8525,567.7656 L1516.3838,567.7656 L1516.3838,575.8438 L1518.8525,575.8438 L1518.8525,578 L1511.4619,578 L1511.4619,575.8438 L1513.9306,575.8438 L1513.9306,567.7656 L1511.4619,567.7656 Z " fill="#000000"/><text fill="#000000" font-family="sans-serif" font-size="14" font-style="italic" lengthAdjust="spacing" textLength="130.9287" x="1529.54" y="576.8467">ILogHistoryService</text><line style="stroke:#181818;stroke-width:0.5;" x1="1501.54" x2="1662.4687" y1="588" y2="588"/><line style="stroke:#181818;stroke-width:0.5;" x1="1501.54" x2="1662.4687" y1="596" y2="596"/></g><!--class ILogRelayService--><g class="entity" data-entity="ILogRelayService" data-source-line="26" data-uid="ent0021" id="entity_ILogRelayService"><rect fill="#F1F1F1" height="48" rx="2.5" ry="2.5" style="stroke:#181818;stroke-width:0.5;" width="152.2168" x="1698.89" y="556"/><ellipse cx="1713.89" cy="572" fill="#B4A7E5" rx="11" ry="11" style="stroke:#181818;stroke-width:1;"/><path d="M1709.8119,567.7656 L1709.8119,565.6094 L1717.2025,565.6094 L1717.2025,567.7656 L1714.7338,567.7656 L1714.7338,575.8438 L1717.2025,575.8438 L1717.2025,578 L1709.8119,578 L1709.8119,575.8438 L1712.2806,575.8438 L1712.2806,567.7656 L1709.8119,567.7656 Z " fill="#000000"/><text fill="#000000" font-family="sans-serif" font-size="14" font-style="italic" lengthAdjust="spacing" textLength="120.2168" x="1727.89" y="576.8467">ILogRelayService</text><line style="stroke:#181818;stroke-width:0.5;" x1="1699.89" x2="1850.1068" y1="588" y2="588"/><line style="stroke:#181818;stroke-width:0.5;" x1="1699.89" x2="1850.1068" y1="596" y2="596"/></g><!--class IRemoteIncomingFileIndexService--><g class="entity" data-entity="IRemoteIncomingFileIndexService" data-source-line="27" data-uid="ent0022" id="entity_IRemoteIncomingFileIndexService"><rect fill="#F1F1F1" height="48" rx="2.5" ry="2.5" style="stroke:#181818;stroke-width:0.5;" width="270.3008" x="917.85" y="664"/><ellipse cx="932.85" cy="680" fill="#B4A7E5" rx="11" ry="11" style="stroke:#181818;stroke-width:1;"/><path d="M928.7719,675.7656 L928.7719,673.6094 L936.1625,673.6094 L936.1625,675.7656 L933.6938,675.7656 L933.6938,683.8438 L936.1625,683.8438 L936.1625,686 L928.7719,686 L928.7719,683.8438 L931.2406,683.8438 L931.2406,675.7656 L928.7719,675.7656 Z " fill="#000000"/><text fill="#000000" font-family="sans-serif" font-size="14" font-style="italic" lengthAdjust="spacing" textLength="238.3008" x="946.85" y="684.8467">IRemoteIncomingFileIndexService</text><line style="stroke:#181818;stroke-width:0.5;" x1="918.85" x2="1187.1508" y1="696" y2="696"/><line style="stroke:#181818;stroke-width:0.5;" x1="918.85" x2="1187.1508" y1="704" y2="704"/></g><!--class ISyncService--><g class="entity" data-entity="ISyncService" data-source-line="28" data-uid="ent0023" id="entity_ISyncService"><rect fill="#F1F1F1" height="48" rx="2.5" ry="2.5" style="stroke:#181818;stroke-width:0.5;" width="121.6123" x="1223.19" y="664"/><ellipse cx="1238.19" cy="680" fill="#B4A7E5" rx="11" ry="11" style="stroke:#181818;stroke-width:1;"/><path d="M1234.1119,675.7656 L1234.1119,673.6094 L1241.5025,673.6094 L1241.5025,675.7656 L1239.0338,675.7656 L1239.0338,683.8438 L1241.5025,683.8438 L1241.5025,686 L1234.1119,686 L1234.1119,683.8438 L1236.5806,683.8438 L1236.5806,675.7656 L1234.1119,675.7656 Z " fill="#000000"/><text fill="#000000" font-family="sans-serif" font-size="14" font-style="italic" lengthAdjust="spacing" textLength="89.6123" x="1252.19" y="684.8467">ISyncService</text><line style="stroke:#181818;stroke-width:0.5;" x1="1224.19" x2="1343.8023" y1="696" y2="696"/><line style="stroke:#181818;stroke-width:0.5;" x1="1224.19" x2="1343.8023" y1="704" y2="704"/></g><!--class IUserSettingsService--><g class="entity" data-entity="IUserSettingsService" data-source-line="29" data-uid="ent0024" id="entity_IUserSettingsService"><rect fill="#F1F1F1" height="48" rx="2.5" ry="2.5" style="stroke:#181818;stroke-width:0.5;" width="177.2021" x="1379.4" y="664"/><ellipse cx="1394.4" cy="680" fill="#B4A7E5" rx="11" ry="11" style="stroke:#181818;stroke-width:1;"/><path d="M1390.3219,675.7656 L1390.3219,673.6094 L1397.7125,673.6094 L1397.7125,675.7656 L1395.2438,675.7656 L1395.2438,683.8438 L1397.7125,683.8438 L1397.7125,686 L1390.3219,686 L1390.3219,683.8438 L1392.7906,683.8438 L1392.7906,675.7656 L1390.3219,675.7656 Z " fill="#000000"/><text fill="#000000" font-family="sans-serif" font-size="14" font-style="italic" lengthAdjust="spacing" textLength="145.2021" x="1408.4" y="684.8467">IUserSettingsService</text><line style="stroke:#181818;stroke-width:0.5;" x1="1380.4" x2="1555.6021" y1="696" y2="696"/><line style="stroke:#181818;stroke-width:0.5;" x1="1380.4" x2="1555.6021" y1="704" y2="704"/></g><!--class IViewLocator--><g class="entity" data-entity="IViewLocator" data-source-line="30" data-uid="ent0025" id="entity_IViewLocator"><rect fill="#F1F1F1" height="48" rx="2.5" ry="2.5" style="stroke:#181818;stroke-width:0.5;" width="122.1113" x="1591.94" y="664"/><ellipse cx="1606.94" cy="680" fill="#B4A7E5" rx="11" ry="11" style="stroke:#181818;stroke-width:1;"/><path d="M1602.8619,675.7656 L1602.8619,673.6094 L1610.2525,673.6094 L1610.2525,675.7656 L1607.7838,675.7656 L1607.7838,683.8438 L1610.2525,683.8438 L1610.2525,686 L1602.8619,686 L1602.8619,683.8438 L1605.3306,683.8438 L1605.3306,675.7656 L1602.8619,675.7656 Z " fill="#000000"/><text fill="#000000" font-family="sans-serif" font-size="14" font-style="italic" lengthAdjust="spacing" textLength="90.1113" x="1620.94" y="684.8467">IViewLocator</text><line style="stroke:#181818;stroke-width:0.5;" x1="1592.94" x2="1713.0513" y1="696" y2="696"/><line style="stroke:#181818;stroke-width:0.5;" x1="1592.94" x2="1713.0513" y1="704" y2="704"/></g><!--class AppDataUserSettingsService--><g class="entity" data-entity="AppDataUserSettingsService" data-source-line="34" data-uid="ent0027" id="entity_AppDataUserSettingsService"><rect fill="#F1F1F1" height="48" rx="2.5" ry="2.5" style="stroke:#181818;stroke-width:0.5;" width="233.8516" x="1947.07" y="556"/><ellipse cx="1962.07" cy="572" fill="#ADD1B2" rx="11" ry="11" style="stroke:#181818;stroke-width:1;"/><path d="M1965.0388,577.6406 Q1964.4606,577.9375 1963.82,578.0781 Q1963.1794,578.2344 1962.4763,578.2344 Q1959.9763,578.2344 1958.6481,576.5938 Q1957.3356,574.9375 1957.3356,571.8125 Q1957.3356,568.6875 1958.6481,567.0313 Q1959.9763,565.375 1962.4763,565.375 Q1963.1794,565.375 1963.82,565.5313 Q1964.4763,565.6875 1965.0388,565.9844 L1965.0388,568.7031 Q1964.4138,568.125 1963.82,567.8594 Q1963.2263,567.5781 1962.6013,567.5781 Q1961.2575,567.5781 1960.57,568.6563 Q1959.8825,569.7188 1959.8825,571.8125 Q1959.8825,573.9063 1960.57,574.9844 Q1961.2575,576.0469 1962.6013,576.0469 Q1963.2263,576.0469 1963.82,575.7813 Q1964.4138,575.5 1965.0388,574.9219 L1965.0388,577.6406 Z " fill="#000000"/><text fill="#000000" font-family="sans-serif" font-size="14" lengthAdjust="spacing" textLength="201.8516" x="1976.07" y="576.8467">AppDataUserSettingsService</text><line style="stroke:#181818;stroke-width:0.5;" x1="1948.07" x2="2179.9216" y1="588" y2="588"/><line style="stroke:#181818;stroke-width:0.5;" x1="1948.07" x2="2179.9216" y1="596" y2="596"/></g><!--class AutoSyncService--><g class="entity" data-entity="AutoSyncService" data-source-line="35" data-uid="ent0028" id="entity_AutoSyncService"><rect fill="#F1F1F1" height="48" rx="2.5" ry="2.5" style="stroke:#181818;stroke-width:0.5;" width="149.9883" x="2216.01" y="556"/><ellipse cx="2231.01" cy="572" fill="#ADD1B2" rx="11" ry="11" style="stroke:#181818;stroke-width:1;"/><path d="M2233.9788,577.6406 Q2233.4006,577.9375 2232.76,578.0781 Q2232.1194,578.2344 2231.4163,578.2344 Q2228.9163,578.2344 2227.5881,576.5938 Q2226.2756,574.9375 2226.2756,571.8125 Q2226.2756,568.6875 2227.5881,567.0313 Q2228.9163,565.375 2231.4163,565.375 Q2232.1194,565.375 2232.76,565.5313 Q2233.4163,565.6875 2233.9788,565.9844 L2233.9788,568.7031 Q2233.3538,568.125 2232.76,567.8594 Q2232.1663,567.5781 2231.5413,567.5781 Q2230.1975,567.5781 2229.51,568.6563 Q2228.8225,569.7188 2228.8225,571.8125 Q2228.8225,573.9063 2229.51,574.9844 Q2230.1975,576.0469 2231.5413,576.0469 Q2232.1663,576.0469 2232.76,575.7813 Q2233.3538,575.5 2233.9788,574.9219 L2233.9788,577.6406 Z " fill="#000000"/><text fill="#000000" font-family="sans-serif" font-size="14" lengthAdjust="spacing" textLength="117.9883" x="2245.01" y="576.8467">AutoSyncService</text><line style="stroke:#181818;stroke-width:0.5;" x1="2217.01" x2="2364.9983" y1="588" y2="588"/><line style="stroke:#181818;stroke-width:0.5;" x1="2217.01" x2="2364.9983" y1="596" y2="596"/></g><!--class BenchmarkService--><g class="entity" data-entity="BenchmarkService" data-source-line="36" data-uid="ent0029" id="entity_BenchmarkService"><rect fill="#F1F1F1" height="48" rx="2.5" ry="2.5" style="stroke:#181818;stroke-width:0.5;" width="163.4824" x="2401.26" y="556"/><ellipse cx="2416.26" cy="572" fill="#ADD1B2" rx="11" ry="11" style="stroke:#181818;stroke-width:1;"/><path d="M2419.2288,577.6406 Q2418.6506,577.9375 2418.01,578.0781 Q2417.3694,578.2344 2416.6663,578.2344 Q2414.1663,578.2344 2412.8381,576.5938 Q2411.5256,574.9375 2411.5256,571.8125 Q2411.5256,568.6875 2412.8381,567.0313 Q2414.1663,565.375 2416.6663,565.375 Q2417.3694,565.375 2418.01,565.5313 Q2418.6663,565.6875 2419.2288,565.9844 L2419.2288,568.7031 Q2418.6038,568.125 2418.01,567.8594 Q2417.4163,567.5781 2416.7913,567.5781 Q2415.4475,567.5781 2414.76,568.6563 Q2414.0725,569.7188 2414.0725,571.8125 Q2414.0725,573.9063 2414.76,574.9844 Q2415.4475,576.0469 2416.7913,576.0469 Q2417.4163,576.0469 2418.01,575.7813 Q2418.6038,575.5 2419.2288,574.9219 L2419.2288,577.6406 Z " fill="#000000"/><text fill="#000000" font-family="sans-serif" font-size="14" lengthAdjust="spacing" textLength="131.4824" x="2430.26" y="576.8467">BenchmarkService</text><line style="stroke:#181818;stroke-width:0.5;" x1="2402.26" x2="2563.7424" y1="588" y2="588"/><line style="stroke:#181818;stroke-width:0.5;" x1="2402.26" x2="2563.7424" y1="596" y2="596"/></g><!--class FileSystemSyncWatcher--><g class="entity" data-entity="FileSystemSyncWatcher" data-source-line="37" data-uid="ent0030" id="entity_FileSystemSyncWatcher"><rect fill="#F1F1F1" height="48" rx="2.5" ry="2.5" style="stroke:#181818;stroke-width:0.5;" width="201.2441" x="2599.38" y="556"/><ellipse cx="2614.38" cy="572" fill="#ADD1B2" rx="11" ry="11" style="stroke:#181818;stroke-width:1;"/><path d="M2617.3488,577.6406 Q2616.7706,577.9375 2616.13,578.0781 Q2615.4894,578.2344 2614.7863,578.2344 Q2612.2863,578.2344 2610.9581,576.5938 Q2609.6456,574.9375 2609.6456,571.8125 Q2609.6456,568.6875 2610.9581,567.0313 Q2612.2863,565.375 2614.7863,565.375 Q2615.4894,565.375 2616.13,565.5313 Q2616.7863,565.6875 2617.3488,565.9844 L2617.3488,568.7031 Q2616.7238,568.125 2616.13,567.8594 Q2615.5363,567.5781 2614.9113,567.5781 Q2613.5675,567.5781 2612.88,568.6563 Q2612.1925,569.7188 2612.1925,571.8125 Q2612.1925,573.9063 2612.88,574.9844 Q2613.5675,576.0469 2614.9113,576.0469 Q2615.5363,576.0469 2616.13,575.7813 Q2616.7238,575.5 2617.3488,574.9219 L2617.3488,577.6406 Z " fill="#000000"/><text fill="#000000" font-family="sans-serif" font-size="14" lengthAdjust="spacing" textLength="169.2441" x="2628.38" y="576.8467">FileSystemSyncWatcher</text><line style="stroke:#181818;stroke-width:0.5;" x1="2600.38" x2="2799.6241" y1="588" y2="588"/><line style="stroke:#181818;stroke-width:0.5;" x1="2600.38" x2="2799.6241" y1="596" y2="596"/></g><!--class InMemoryLogHistoryService--><g class="entity" data-entity="InMemoryLogHistoryService" data-source-line="38" data-uid="ent0031" id="entity_InMemoryLogHistoryService"><rect fill="#F1F1F1" height="48" rx="2.5" ry="2.5" style="stroke:#181818;stroke-width:0.5;" width="228.7383" x="1946.63" y="664"/><ellipse cx="1961.63" cy="680" fill="#ADD1B2" rx="11" ry="11" style="stroke:#181818;stroke-width:1;"/><path d="M1964.5988,685.6406 Q1964.0206,685.9375 1963.38,686.0781 Q1962.7394,686.2344 1962.0363,686.2344 Q1959.5363,686.2344 1958.2081,684.5938 Q1956.8956,682.9375 1956.8956,679.8125 Q1956.8956,676.6875 1958.2081,675.0313 Q1959.5363,673.375 1962.0363,673.375 Q1962.7394,673.375 1963.38,673.5313 Q1964.0363,673.6875 1964.5988,673.9844 L1964.5988,676.7031 Q1963.9738,676.125 1963.38,675.8594 Q1962.7863,675.5781 1962.1613,675.5781 Q1960.8175,675.5781 1960.13,676.6563 Q1959.4425,677.7188 1959.4425,679.8125 Q1959.4425,681.9063 1960.13,682.9844 Q1960.8175,684.0469 1962.1613,684.0469 Q1962.7863,684.0469 1963.38,683.7813 Q1963.9738,683.5 1964.5988,682.9219 L1964.5988,685.6406 Z " fill="#000000"/><text fill="#000000" font-family="sans-serif" font-size="14" lengthAdjust="spacing" textLength="196.7383" x="1975.63" y="684.8467">InMemoryLogHistoryService</text><line style="stroke:#181818;stroke-width:0.5;" x1="1947.63" x2="2174.3683" y1="696" y2="696"/><line style="stroke:#181818;stroke-width:0.5;" x1="1947.63" x2="2174.3683" y1="704" y2="704"/></g><!--class LiteDBLocalCommitedFileIndexService--><g class="entity" data-entity="LiteDBLocalCommitedFileIndexService" data-source-line="39" data-uid="ent0032" id="entity_LiteDBLocalCommitedFileIndexService"><rect fill="#F1F1F1" height="48" rx="2.5" ry="2.5" style="stroke:#181818;stroke-width:0.5;" width="302.1768" x="2209.91" y="664"/><ellipse cx="2224.91" cy="680" fill="#ADD1B2" rx="11" ry="11" style="stroke:#181818;stroke-width:1;"/><path d="M2227.8788,685.6406 Q2227.3006,685.9375 2226.66,686.0781 Q2226.0194,686.2344 2225.3163,686.2344 Q2222.8163,686.2344 2221.4881,684.5938 Q2220.1756,682.9375 2220.1756,679.8125 Q2220.1756,676.6875 2221.4881,675.0313 Q2222.8163,673.375 2225.3163,673.375 Q2226.0194,673.375 2226.66,673.5313 Q2227.3163,673.6875 2227.8788,673.9844 L2227.8788,676.7031 Q2227.2538,676.125 2226.66,675.8594 Q2226.0663,675.5781 2225.4413,675.5781 Q2224.0975,675.5781 2223.41,676.6563 Q2222.7225,677.7188 2222.7225,679.8125 Q2222.7225,681.9063 2223.41,682.9844 Q2224.0975,684.0469 2225.4413,684.0469 Q2226.0663,684.0469 2226.66,683.7813 Q2227.2538,683.5 2227.8788,682.9219 L2227.8788,685.6406 Z " fill="#000000"/><text fill="#000000" font-family="sans-serif" font-size="14" lengthAdjust="spacing" textLength="270.1768" x="2238.91" y="684.8467">LiteDBLocalCommitedFileIndexService</text><line style="stroke:#181818;stroke-width:0.5;" x1="2210.91" x2="2511.0868" y1="696" y2="696"/><line style="stroke:#181818;stroke-width:0.5;" x1="2210.91" x2="2511.0868" y1="704" y2="704"/></g><!--class LogRelayService--><g class="entity" data-entity="LogRelayService" data-source-line="40" data-uid="ent0033" id="entity_LogRelayService"><rect fill="#F1F1F1" height="48" rx="2.5" ry="2.5" style="stroke:#181818;stroke-width:0.5;" width="148.0879" x="2546.96" y="664"/><ellipse cx="2561.96" cy="680" fill="#ADD1B2" rx="11" ry="11" style="stroke:#181818;stroke-width:1;"/><path d="M2564.9288,685.6406 Q2564.3506,685.9375 2563.71,686.0781 Q2563.0694,686.2344 2562.3663,686.2344 Q2559.8663,686.2344 2558.5381,684.5938 Q2557.2256,682.9375 2557.2256,679.8125 Q2557.2256,676.6875 2558.5381,675.0313 Q2559.8663,673.375 2562.3663,673.375 Q2563.0694,673.375 2563.71,673.5313 Q2564.3663,673.6875 2564.9288,673.9844 L2564.9288,676.7031 Q2564.3038,676.125 2563.71,675.8594 Q2563.1163,675.5781 2562.4913,675.5781 Q2561.1475,675.5781 2560.46,676.6563 Q2559.7725,677.7188 2559.7725,679.8125 Q2559.7725,681.9063 2560.46,682.9844 Q2561.1475,684.0469 2562.4913,684.0469 Q2563.1163,684.0469 2563.71,683.7813 Q2564.3038,683.5 2564.9288,682.9219 L2564.9288,685.6406 Z " fill="#000000"/><text fill="#000000" font-family="sans-serif" font-size="14" lengthAdjust="spacing" textLength="116.0879" x="2575.96" y="684.8467">LogRelayService</text><line style="stroke:#181818;stroke-width:0.5;" x1="2547.96" x2="2694.0479" y1="696" y2="696"/><line style="stroke:#181818;stroke-width:0.5;" x1="2547.96" x2="2694.0479" y1="704" y2="704"/></g><!--class LocalIncomingFileIndexService--><g class="entity" data-entity="LocalIncomingFileIndexService" data-source-line="41" data-uid="ent0034" id="entity_LocalIncomingFileIndexService"><rect fill="#F1F1F1" height="48" rx="2.5" ry="2.5" style="stroke:#181818;stroke-width:0.5;" width="248.0566" x="2729.97" y="664"/><ellipse cx="2744.97" cy="680" fill="#ADD1B2" rx="11" ry="11" style="stroke:#181818;stroke-width:1;"/><path d="M2747.9388,685.6406 Q2747.3606,685.9375 2746.72,686.0781 Q2746.0794,686.2344 2745.3763,686.2344 Q2742.8763,686.2344 2741.5481,684.5938 Q2740.2356,682.9375 2740.2356,679.8125 Q2740.2356,676.6875 2741.5481,675.0313 Q2742.8763,673.375 2745.3763,673.375 Q2746.0794,673.375 2746.72,673.5313 Q2747.3763,673.6875 2747.9388,673.9844 L2747.9388,676.7031 Q2747.3138,676.125 2746.72,675.8594 Q2746.1263,675.5781 2745.5013,675.5781 Q2744.1575,675.5781 2743.47,676.6563 Q2742.7825,677.7188 2742.7825,679.8125 Q2742.7825,681.9063 2743.47,682.9844 Q2744.1575,684.0469 2745.5013,684.0469 Q2746.1263,684.0469 2746.72,683.7813 Q2747.3138,683.5 2747.9388,682.9219 L2747.9388,685.6406 Z " fill="#000000"/><text fill="#000000" font-family="sans-serif" font-size="14" lengthAdjust="spacing" textLength="216.0566" x="2758.97" y="684.8467">LocalIncomingFileIndexService</text><line style="stroke:#181818;stroke-width:0.5;" x1="2730.97" x2="2977.0266" y1="696" y2="696"/><line style="stroke:#181818;stroke-width:0.5;" x1="2730.97" x2="2977.0266" y1="704" y2="704"/></g><!--class RemoteIncomingFileIndexService--><g class="entity" data-entity="RemoteIncomingFileIndexService" data-source-line="42" data-uid="ent0035" id="entity_RemoteIncomingFileIndexService"><rect fill="#F1F1F1" height="48" rx="2.5" ry="2.5" style="stroke:#181818;stroke-width:0.5;" width="266.1719" x="1946.91" y="772"/><ellipse cx="1961.91" cy="788" fill="#ADD1B2" rx="11" ry="11" style="stroke:#181818;stroke-width:1;"/><path d="M1964.8788,793.6406 Q1964.3006,793.9375 1963.66,794.0781 Q1963.0194,794.2344 1962.3163,794.2344 Q1959.8163,794.2344 1958.4881,792.5938 Q1957.1756,790.9375 1957.1756,787.8125 Q1957.1756,784.6875 1958.4881,783.0313 Q1959.8163,781.375 1962.3163,781.375 Q1963.0194,781.375 1963.66,781.5313 Q1964.3163,781.6875 1964.8788,781.9844 L1964.8788,784.7031 Q1964.2538,784.125 1963.66,783.8594 Q1963.0663,783.5781 1962.4413,783.5781 Q1961.0975,783.5781 1960.41,784.6563 Q1959.7225,785.7188 1959.7225,787.8125 Q1959.7225,789.9063 1960.41,790.9844 Q1961.0975,792.0469 1962.4413,792.0469 Q1963.0663,792.0469 1963.66,791.7813 Q1964.2538,791.5 1964.8788,790.9219 L1964.8788,793.6406 Z " fill="#000000"/><text fill="#000000" font-family="sans-serif" font-size="14" lengthAdjust="spacing" textLength="234.1719" x="1975.91" y="792.8467">RemoteIncomingFileIndexService</text><line style="stroke:#181818;stroke-width:0.5;" x1="1947.91" x2="2212.0819" y1="804" y2="804"/><line style="stroke:#181818;stroke-width:0.5;" x1="1947.91" x2="2212.0819" y1="812" y2="812"/></g><!--class SimpleRelayLoggerProvider--><g class="entity" data-entity="SimpleRelayLoggerProvider" data-source-line="43" data-uid="ent0036" id="entity_SimpleRelayLoggerProvider"><rect fill="#F1F1F1" height="48" rx="2.5" ry="2.5" style="stroke:#181818;stroke-width:0.5;" width="225.6006" x="2248.2" y="772"/><ellipse cx="2263.2" cy="788" fill="#ADD1B2" rx="11" ry="11" style="stroke:#181818;stroke-width:1;"/><path d="M2266.1688,793.6406 Q2265.5906,793.9375 2264.95,794.0781 Q2264.3094,794.2344 2263.6063,794.2344 Q2261.1063,794.2344 2259.7781,792.5938 Q2258.4656,790.9375 2258.4656,787.8125 Q2258.4656,784.6875 2259.7781,783.0313 Q2261.1063,781.375 2263.6063,781.375 Q2264.3094,781.375 2264.95,781.5313 Q2265.6063,781.6875 2266.1688,781.9844 L2266.1688,784.7031 Q2265.5438,784.125 2264.95,783.8594 Q2264.3563,783.5781 2263.7313,783.5781 Q2262.3875,783.5781 2261.7,784.6563 Q2261.0125,785.7188 2261.0125,787.8125 Q2261.0125,789.9063 2261.7,790.9844 Q2262.3875,792.0469 2263.7313,792.0469 Q2264.3563,792.0469 2264.95,791.7813 Q2265.5438,791.5 2266.1688,790.9219 L2266.1688,793.6406 Z " fill="#000000"/><text fill="#000000" font-family="sans-serif" font-size="14" lengthAdjust="spacing" textLength="193.6006" x="2277.2" y="792.8467">SimpleRelayLoggerProvider</text><line style="stroke:#181818;stroke-width:0.5;" x1="2249.2" x2="2472.8006" y1="804" y2="804"/><line style="stroke:#181818;stroke-width:0.5;" x1="2249.2" x2="2472.8006" y1="812" y2="812"/></g><!--class SyncService--><g class="entity" data-entity="SyncService" data-source-line="44" data-uid="ent0037" id="entity_SyncService"><rect fill="#F1F1F1" height="48" rx="2.5" ry="2.5" style="stroke:#181818;stroke-width:0.5;" width="117.4834" x="2509.26" y="772"/><ellipse cx="2524.26" cy="788" fill="#ADD1B2" rx="11" ry="11" style="stroke:#181818;stroke-width:1;"/><path d="M2527.2288,793.6406 Q2526.6506,793.9375 2526.01,794.0781 Q2525.3694,794.2344 2524.6663,794.2344 Q2522.1663,794.2344 2520.8381,792.5938 Q2519.5256,790.9375 2519.5256,787.8125 Q2519.5256,784.6875 2520.8381,783.0313 Q2522.1663,781.375 2524.6663,781.375 Q2525.3694,781.375 2526.01,781.5313 Q2526.6663,781.6875 2527.2288,781.9844 L2527.2288,784.7031 Q2526.6038,784.125 2526.01,783.8594 Q2525.4163,783.5781 2524.7913,783.5781 Q2523.4475,783.5781 2522.76,784.6563 Q2522.0725,785.7188 2522.0725,787.8125 Q2522.0725,789.9063 2522.76,790.9844 Q2523.4475,792.0469 2524.7913,792.0469 Q2525.4163,792.0469 2526.01,791.7813 Q2526.6038,791.5 2527.2288,790.9219 L2527.2288,793.6406 Z " fill="#000000"/><text fill="#000000" font-family="sans-serif" font-size="14" lengthAdjust="spacing" textLength="85.4834" x="2538.26" y="792.8467">SyncService</text><line style="stroke:#181818;stroke-width:0.5;" x1="2510.26" x2="2625.7434" y1="804" y2="804"/><line style="stroke:#181818;stroke-width:0.5;" x1="2510.26" x2="2625.7434" y1="812" y2="812"/></g><!--class ViewLocator--><g class="entity" data-entity="ViewLocator" data-source-line="45" data-uid="ent0038" id="entity_ViewLocator"><rect fill="#F1F1F1" height="48" rx="2.5" ry="2.5" style="stroke:#181818;stroke-width:0.5;" width="117.9824" x="2662.01" y="772"/><ellipse cx="2677.01" cy="788" fill="#ADD1B2" rx="11" ry="11" style="stroke:#181818;stroke-width:1;"/><path d="M2679.9788,793.6406 Q2679.4006,793.9375 2678.76,794.0781 Q2678.1194,794.2344 2677.4163,794.2344 Q2674.9163,794.2344 2673.5881,792.5938 Q2672.2756,790.9375 2672.2756,787.8125 Q2672.2756,784.6875 2673.5881,783.0313 Q2674.9163,781.375 2677.4163,781.375 Q2678.1194,781.375 2678.76,781.5313 Q2679.4163,781.6875 2679.9788,781.9844 L2679.9788,784.7031 Q2679.3538,784.125 2678.76,783.8594 Q2678.1663,783.5781 2677.5413,783.5781 Q2676.1975,783.5781 2675.51,784.6563 Q2674.8225,785.7188 2674.8225,787.8125 Q2674.8225,789.9063 2675.51,790.9844 Q2676.1975,792.0469 2677.5413,792.0469 Q2678.1663,792.0469 2678.76,791.7813 Q2679.3538,791.5 2679.9788,790.9219 L2679.9788,793.6406 Z " fill="#000000"/><text fill="#000000" font-family="sans-serif" font-size="14" lengthAdjust="spacing" textLength="85.9824" x="2691.01" y="792.8467">ViewLocator</text><line style="stroke:#181818;stroke-width:0.5;" x1="2663.01" x2="2778.9924" y1="804" y2="804"/><line style="stroke:#181818;stroke-width:0.5;" x1="2663.01" x2="2778.9924" y1="812" y2="812"/></g><!--class WebAPIAccessTokenHolder--><g class="entity" data-entity="WebAPIAccessTokenHolder" data-source-line="46" data-uid="ent0039" id="entity_WebAPIAccessTokenHolder"><rect fill="#F1F1F1" height="48" rx="2.5" ry="2.5" style="stroke:#181818;stroke-width:0.5;" width="222.6133" x="1968.69" y="887"/><ellipse cx="1983.69" cy="903" fill="#ADD1B2" rx="11" ry="11" style="stroke:#181818;stroke-width:1;"/><path d="M1986.6588,908.6406 Q1986.0806,908.9375 1985.44,909.0781 Q1984.7994,909.2344 1984.0963,909.2344 Q1981.5963,909.2344 1980.2681,907.5938 Q1978.9556,905.9375 1978.9556,902.8125 Q1978.9556,899.6875 1980.2681,898.0313 Q1981.5963,896.375 1984.0963,896.375 Q1984.7994,896.375 1985.44,896.5313 Q1986.0963,896.6875 1986.6588,896.9844 L1986.6588,899.7031 Q1986.0338,899.125 1985.44,898.8594 Q1984.8463,898.5781 1984.2213,898.5781 Q1982.8775,898.5781 1982.19,899.6563 Q1981.5025,900.7188 1981.5025,902.8125 Q1981.5025,904.9063 1982.19,905.9844 Q1982.8775,907.0469 1984.2213,907.0469 Q1984.8463,907.0469 1985.44,906.7813 Q1986.0338,906.5 1986.6588,905.9219 L1986.6588,908.6406 Z " fill="#000000"/><text fill="#000000" font-family="sans-serif" font-size="14" lengthAdjust="spacing" textLength="190.6133" x="1997.69" y="907.8467">WebAPIAccessTokenHolder</text><line style="stroke:#181818;stroke-width:0.5;" x1="1969.69" x2="2190.3033" y1="919" y2="919"/><line style="stroke:#181818;stroke-width:0.5;" x1="1969.69" x2="2190.3033" y1="927" y2="927"/></g><!--class FileIndexStagingHelper--><g class="entity" data-entity="FileIndexStagingHelper" data-source-line="50" data-uid="ent0041" id="entity_FileIndexStagingHelper"><rect fill="#F1F1F1" height="48" rx="2.5" ry="2.5" style="stroke:#181818;stroke-width:0.5;" width="195.0098" x="3494.5" y="887"/><ellipse cx="3509.5" cy="903" fill="#ADD1B2" rx="11" ry="11" style="stroke:#181818;stroke-width:1;"/><path d="M3512.4688,908.6406 Q3511.8906,908.9375 3511.25,909.0781 Q3510.6094,909.2344 3509.9063,909.2344 Q3507.4063,909.2344 3506.0781,907.5938 Q3504.7656,905.9375 3504.7656,902.8125 Q3504.7656,899.6875 3506.0781,898.0313 Q3507.4063,896.375 3509.9063,896.375 Q3510.6094,896.375 3511.25,896.5313 Q3511.9063,896.6875 3512.4688,896.9844 L3512.4688,899.7031 Q3511.8438,899.125 3511.25,898.8594 Q3510.6563,898.5781 3510.0313,898.5781 Q3508.6875,898.5781 3508,899.6563 Q3507.3125,900.7188 3507.3125,902.8125 Q3507.3125,904.9063 3508,905.9844 Q3508.6875,907.0469 3510.0313,907.0469 Q3510.6563,907.0469 3511.25,906.7813 Q3511.8438,906.5 3512.4688,905.9219 L3512.4688,908.6406 Z " fill="#000000"/><text fill="#000000" font-family="sans-serif" font-size="14" lengthAdjust="spacing" textLength="163.0098" x="3523.5" y="907.8467">FileIndexStagingHelper</text><line style="stroke:#181818;stroke-width:0.5;" x1="3495.5" x2="3688.5098" y1="919" y2="919"/><line style="stroke:#181818;stroke-width:0.5;" x1="3495.5" x2="3688.5098" y1="927" y2="927"/></g><!--class FileHistoryWindowViewModel--><g class="entity" data-entity="FileHistoryWindowViewModel" data-source-line="54" data-uid="ent0043" id="entity_FileHistoryWindowViewModel"><rect fill="#F1F1F1" height="48" rx="2.5" ry="2.5" style="stroke:#181818;stroke-width:0.5;" width="237.3242" x="137.34" y="157"/><ellipse cx="152.34" cy="173" fill="#ADD1B2" rx="11" ry="11" style="stroke:#181818;stroke-width:1;"/><path d="M155.3088,178.6406 Q154.7306,178.9375 154.09,179.0781 Q153.4494,179.2344 152.7463,179.2344 Q150.2463,179.2344 148.9181,177.5938 Q147.6056,175.9375 147.6056,172.8125 Q147.6056,169.6875 148.9181,168.0313 Q150.2463,166.375 152.7463,166.375 Q153.4494,166.375 154.09,166.5313 Q154.7463,166.6875 155.3088,166.9844 L155.3088,169.7031 Q154.6838,169.125 154.09,168.8594 Q153.4963,168.5781 152.8713,168.5781 Q151.5275,168.5781 150.84,169.6563 Q150.1525,170.7188 150.1525,172.8125 Q150.1525,174.9063 150.84,175.9844 Q151.5275,177.0469 152.8713,177.0469 Q153.4963,177.0469 154.09,176.7813 Q154.6838,176.5 155.3088,175.9219 L155.3088,178.6406 Z " fill="#000000"/><text fill="#000000" font-family="sans-serif" font-size="14" lengthAdjust="spacing" textLength="205.3242" x="166.34" y="177.8467">FileHistoryWindowViewModel</text><line style="stroke:#181818;stroke-width:0.5;" x1="138.34" x2="373.6642" y1="189" y2="189"/><line style="stroke:#181818;stroke-width:0.5;" x1="138.34" x2="373.6642" y1="197" y2="197"/></g><!--class FileIndexTreeItemViewModel--><g class="entity" data-entity="FileIndexTreeItemViewModel" data-source-line="55" data-uid="ent0044" id="entity_FileIndexTreeItemViewModel"><rect fill="#F1F1F1" height="48" rx="2.5" ry="2.5" style="stroke:#181818;stroke-width:0.5;" width="234.2002" x="409.9" y="157"/><ellipse cx="424.9" cy="173" fill="#ADD1B2" rx="11" ry="11" style="stroke:#181818;stroke-width:1;"/><path d="M427.8688,178.6406 Q427.2906,178.9375 426.65,179.0781 Q426.0094,179.2344 425.3063,179.2344 Q422.8063,179.2344 421.4781,177.5938 Q420.1656,175.9375 420.1656,172.8125 Q420.1656,169.6875 421.4781,168.0313 Q422.8063,166.375 425.3063,166.375 Q426.0094,166.375 426.65,166.5313 Q427.3063,166.6875 427.8688,166.9844 L427.8688,169.7031 Q427.2438,169.125 426.65,168.8594 Q426.0563,168.5781 425.4313,168.5781 Q424.0875,168.5781 423.4,169.6563 Q422.7125,170.7188 422.7125,172.8125 Q422.7125,174.9063 423.4,175.9844 Q424.0875,177.0469 425.4313,177.0469 Q426.0563,177.0469 426.65,176.7813 Q427.2438,176.5 427.8688,175.9219 L427.8688,178.6406 Z " fill="#000000"/><text fill="#000000" font-family="sans-serif" font-size="14" lengthAdjust="spacing" textLength="202.2002" x="438.9" y="177.8467">FileIndexTreeItemViewModel</text><line style="stroke:#181818;stroke-width:0.5;" x1="410.9" x2="643.1002" y1="189" y2="189"/><line style="stroke:#181818;stroke-width:0.5;" x1="410.9" x2="643.1002" y1="197" y2="197"/></g><!--class FileIndexTreeViewModel--><g class="entity" data-entity="FileIndexTreeViewModel" data-source-line="56" data-uid="ent0045" id="entity_FileIndexTreeViewModel"><rect fill="#F1F1F1" height="48" rx="2.5" ry="2.5" style="stroke:#181818;stroke-width:0.5;" width="202.3311" x="678.83" y="157"/><ellipse cx="693.83" cy="173" fill="#ADD1B2" rx="11" ry="11" style="stroke:#181818;stroke-width:1;"/><path d="M696.7988,178.6406 Q696.2206,178.9375 695.58,179.0781 Q694.9394,179.2344 694.2363,179.2344 Q691.7363,179.2344 690.4081,177.5938 Q689.0956,175.9375 689.0956,172.8125 Q689.0956,169.6875 690.4081,168.0313 Q691.7363,166.375 694.2363,166.375 Q694.9394,166.375 695.58,166.5313 Q696.2363,166.6875 696.7988,166.9844 L696.7988,169.7031 Q696.1738,169.125 695.58,168.8594 Q694.9863,168.5781 694.3613,168.5781 Q693.0175,168.5781 692.33,169.6563 Q691.6425,170.7188 691.6425,172.8125 Q691.6425,174.9063 692.33,175.9844 Q693.0175,177.0469 694.3613,177.0469 Q694.9863,177.0469 695.58,176.7813 Q696.1738,176.5 696.7988,175.9219 L696.7988,178.6406 Z " fill="#000000"/><text fill="#000000" font-family="sans-serif" font-size="14" lengthAdjust="spacing" textLength="170.3311" x="707.83" y="177.8467">FileIndexTreeViewModel</text><line style="stroke:#181818;stroke-width:0.5;" x1="679.83" x2="880.1611" y1="189" y2="189"/><line style="stroke:#181818;stroke-width:0.5;" x1="679.83" x2="880.1611" y1="197" y2="197"/></g><!--class FileVersionListItemViewModel--><g class="entity" data-entity="FileVersionListItemViewModel" data-source-line="57" data-uid="ent0046" id="entity_FileVersionListItemViewModel"><rect fill="#F1F1F1" height="48" rx="2.5" ry="2.5" style="stroke:#181818;stroke-width:0.5;" width="240.9199" x="136.54" y="265"/><ellipse cx="151.54" cy="281" fill="#ADD1B2" rx="11" ry="11" style="stroke:#181818;stroke-width:1;"/><path d="M154.5088,286.6406 Q153.9306,286.9375 153.29,287.0781 Q152.6494,287.2344 151.9463,287.2344 Q149.4463,287.2344 148.1181,285.5938 Q146.8056,283.9375 146.8056,280.8125 Q146.8056,277.6875 148.1181,276.0313 Q149.4463,274.375 151.9463,274.375 Q152.6494,274.375 153.29,274.5313 Q153.9463,274.6875 154.5088,274.9844 L154.5088,277.7031 Q153.8838,277.125 153.29,276.8594 Q152.6963,276.5781 152.0713,276.5781 Q150.7275,276.5781 150.04,277.6563 Q149.3525,278.7188 149.3525,280.8125 Q149.3525,282.9063 150.04,283.9844 Q150.7275,285.0469 152.0713,285.0469 Q152.6963,285.0469 153.29,284.7813 Q153.8838,284.5 154.5088,283.9219 L154.5088,286.6406 Z " fill="#000000"/><text fill="#000000" font-family="sans-serif" font-size="14" lengthAdjust="spacing" textLength="208.9199" x="165.54" y="285.8467">FileVersionListItemViewModel</text><line style="stroke:#181818;stroke-width:0.5;" x1="137.54" x2="376.4599" y1="297" y2="297"/><line style="stroke:#181818;stroke-width:0.5;" x1="137.54" x2="376.4599" y1="305" y2="305"/></g><!--class SettingsPageViewModel--><g class="entity" data-entity="SettingsPageViewModel" data-source-line="58" data-uid="ent0047" id="entity_SettingsPageViewModel"><rect fill="#F1F1F1" height="48" rx="2.5" ry="2.5" style="stroke:#181818;stroke-width:0.5;" width="199.5078" x="412.25" y="265"/><ellipse cx="427.25" cy="281" fill="#ADD1B2" rx="11" ry="11" style="stroke:#181818;stroke-width:1;"/><path d="M430.2188,286.6406 Q429.6406,286.9375 429,287.0781 Q428.3594,287.2344 427.6563,287.2344 Q425.1563,287.2344 423.8281,285.5938 Q422.5156,283.9375 422.5156,280.8125 Q422.5156,277.6875 423.8281,276.0313 Q425.1563,274.375 427.6563,274.375 Q428.3594,274.375 429,274.5313 Q429.6563,274.6875 430.2188,274.9844 L430.2188,277.7031 Q429.5938,277.125 429,276.8594 Q428.4063,276.5781 427.7813,276.5781 Q426.4375,276.5781 425.75,277.6563 Q425.0625,278.7188 425.0625,280.8125 Q425.0625,282.9063 425.75,283.9844 Q426.4375,285.0469 427.7813,285.0469 Q428.4063,285.0469 429,284.7813 Q429.5938,284.5 430.2188,283.9219 L430.2188,286.6406 Z " fill="#000000"/><text fill="#000000" font-family="sans-serif" font-size="14" lengthAdjust="spacing" textLength="167.5078" x="441.25" y="285.8467">SettingsPageViewModel</text><line style="stroke:#181818;stroke-width:0.5;" x1="413.25" x2="610.7578" y1="297" y2="297"/><line style="stroke:#181818;stroke-width:0.5;" x1="413.25" x2="610.7578" y1="305" y2="305"/></g><!--class StatusPageViewModel--><g class="entity" data-entity="StatusPageViewModel" data-source-line="59" data-uid="ent0048" id="entity_StatusPageViewModel"><rect fill="#F1F1F1" height="48" rx="2.5" ry="2.5" style="stroke:#181818;stroke-width:0.5;" width="186.6973" x="646.65" y="265"/><ellipse cx="661.65" cy="281" fill="#ADD1B2" rx="11" ry="11" style="stroke:#181818;stroke-width:1;"/><path d="M664.6188,286.6406 Q664.0406,286.9375 663.4,287.0781 Q662.7594,287.2344 662.0563,287.2344 Q659.5563,287.2344 658.2281,285.5938 Q656.9156,283.9375 656.9156,280.8125 Q656.9156,277.6875 658.2281,276.0313 Q659.5563,274.375 662.0563,274.375 Q662.7594,274.375 663.4,274.5313 Q664.0563,274.6875 664.6188,274.9844 L664.6188,277.7031 Q663.9938,277.125 663.4,276.8594 Q662.8063,276.5781 662.1813,276.5781 Q660.8375,276.5781 660.15,277.6563 Q659.4625,278.7188 659.4625,280.8125 Q659.4625,282.9063 660.15,283.9844 Q660.8375,285.0469 662.1813,285.0469 Q662.8063,285.0469 663.4,284.7813 Q663.9938,284.5 664.6188,283.9219 L664.6188,286.6406 Z " fill="#000000"/><text fill="#000000" font-family="sans-serif" font-size="14" lengthAdjust="spacing" textLength="154.6973" x="675.65" y="285.8467">StatusPageViewModel</text><line style="stroke:#181818;stroke-width:0.5;" x1="647.65" x2="832.3473" y1="297" y2="297"/><line style="stroke:#181818;stroke-width:0.5;" x1="647.65" x2="832.3473" y1="305" y2="305"/></g><!--class FileHistoryWindow--><g class="entity" data-entity="FileHistoryWindow" data-source-line="63" data-uid="ent0050" id="entity_FileHistoryWindow"><rect fill="#F1F1F1" height="48" rx="2.5" ry="2.5" style="stroke:#181818;stroke-width:0.5;" width="161.7598" x="989.12" y="157"/><ellipse cx="1004.12" cy="173" fill="#ADD1B2" rx="11" ry="11" style="stroke:#181818;stroke-width:1;"/><path d="M1007.0888,178.6406 Q1006.5106,178.9375 1005.87,179.0781 Q1005.2294,179.2344 1004.5263,179.2344 Q1002.0263,179.2344 1000.6981,177.5938 Q999.3856,175.9375 999.3856,172.8125 Q999.3856,169.6875 1000.6981,168.0313 Q1002.0263,166.375 1004.5263,166.375 Q1005.2294,166.375 1005.87,166.5313 Q1006.5263,166.6875 1007.0888,166.9844 L1007.0888,169.7031 Q1006.4638,169.125 1005.87,168.8594 Q1005.2763,168.5781 1004.6513,168.5781 Q1003.3075,168.5781 1002.62,169.6563 Q1001.9325,170.7188 1001.9325,172.8125 Q1001.9325,174.9063 1002.62,175.9844 Q1003.3075,177.0469 1004.6513,177.0469 Q1005.2763,177.0469 1005.87,176.7813 Q1006.4638,176.5 1007.0888,175.9219 L1007.0888,178.6406 Z " fill="#000000"/><text fill="#000000" font-family="sans-serif" font-size="14" lengthAdjust="spacing" textLength="129.7598" x="1018.12" y="177.8467">FileHistoryWindow</text><line style="stroke:#181818;stroke-width:0.5;" x1="990.12" x2="1149.8798" y1="189" y2="189"/><line style="stroke:#181818;stroke-width:0.5;" x1="990.12" x2="1149.8798" y1="197" y2="197"/></g><!--class LoginPage--><g class="entity" data-entity="LoginPage" data-source-line="64" data-uid="ent0051" id="entity_LoginPage"><rect fill="#F1F1F1" height="48" rx="2.5" ry="2.5" style="stroke:#181818;stroke-width:0.5;" width="104.5361" x="1185.73" y="157"/><ellipse cx="1200.73" cy="173" fill="#ADD1B2" rx="11" ry="11" style="stroke:#181818;stroke-width:1;"/><path d="M1203.6988,178.6406 Q1203.1206,178.9375 1202.48,179.0781 Q1201.8394,179.2344 1201.1363,179.2344 Q1198.6363,179.2344 1197.3081,177.5938 Q1195.9956,175.9375 1195.9956,172.8125 Q1195.9956,169.6875 1197.3081,168.0313 Q1198.6363,166.375 1201.1363,166.375 Q1201.8394,166.375 1202.48,166.5313 Q1203.1363,166.6875 1203.6988,166.9844 L1203.6988,169.7031 Q1203.0738,169.125 1202.48,168.8594 Q1201.8863,168.5781 1201.2613,168.5781 Q1199.9175,168.5781 1199.23,169.6563 Q1198.5425,170.7188 1198.5425,172.8125 Q1198.5425,174.9063 1199.23,175.9844 Q1199.9175,177.0469 1201.2613,177.0469 Q1201.8863,177.0469 1202.48,176.7813 Q1203.0738,176.5 1203.6988,175.9219 L1203.6988,178.6406 Z " fill="#000000"/><text fill="#000000" font-family="sans-serif" font-size="14" lengthAdjust="spacing" textLength="72.5361" x="1214.73" y="177.8467">LoginPage</text><line style="stroke:#181818;stroke-width:0.5;" x1="1186.73" x2="1289.2661" y1="189" y2="189"/><line style="stroke:#181818;stroke-width:0.5;" x1="1186.73" x2="1289.2661" y1="197" y2="197"/></g><!--class MainWindow--><g class="entity" data-entity="MainWindow" data-source-line="65" data-uid="ent0052" id="entity_MainWindow"><rect fill="#F1F1F1" height="48" rx="2.5" ry="2.5" style="stroke:#181818;stroke-width:0.5;" width="120.9287" x="1325.54" y="157"/><ellipse cx="1340.54" cy="173" fill="#ADD1B2" rx="11" ry="11" style="stroke:#181818;stroke-width:1;"/><path d="M1343.5088,178.6406 Q1342.9306,178.9375 1342.29,179.0781 Q1341.6494,179.2344 1340.9463,179.2344 Q1338.4463,179.2344 1337.1181,177.5938 Q1335.8056,175.9375 1335.8056,172.8125 Q1335.8056,169.6875 1337.1181,168.0313 Q1338.4463,166.375 1340.9463,166.375 Q1341.6494,166.375 1342.29,166.5313 Q1342.9463,166.6875 1343.5088,166.9844 L1343.5088,169.7031 Q1342.8838,169.125 1342.29,168.8594 Q1341.6963,168.5781 1341.0713,168.5781 Q1339.7275,168.5781 1339.04,169.6563 Q1338.3525,170.7188 1338.3525,172.8125 Q1338.3525,174.9063 1339.04,175.9844 Q1339.7275,177.0469 1341.0713,177.0469 Q1341.6963,177.0469 1342.29,176.7813 Q1342.8838,176.5 1343.5088,175.9219 L1343.5088,178.6406 Z " fill="#000000"/><text fill="#000000" font-family="sans-serif" font-size="14" lengthAdjust="spacing" textLength="88.9287" x="1354.54" y="177.8467">MainWindow</text><line style="stroke:#181818;stroke-width:0.5;" x1="1326.54" x2="1445.4687" y1="189" y2="189"/><line style="stroke:#181818;stroke-width:0.5;" x1="1326.54" x2="1445.4687" y1="197" y2="197"/></g><!--class SettingsPage--><g class="entity" data-entity="SettingsPage" data-source-line="66" data-uid="ent0053" id="entity_SettingsPage"><rect fill="#F1F1F1" height="48" rx="2.5" ry="2.5" style="stroke:#181818;stroke-width:0.5;" width="123.9434" x="1008.03" y="265"/><ellipse cx="1023.03" cy="281" fill="#ADD1B2" rx="11" ry="11" style="stroke:#181818;stroke-width:1;"/><path d="M1025.9988,286.6406 Q1025.4206,286.9375 1024.78,287.0781 Q1024.1394,287.2344 1023.4363,287.2344 Q1020.9363,287.2344 1019.6081,285.5938 Q1018.2956,283.9375 1018.2956,280.8125 Q1018.2956,277.6875 1019.6081,276.0313 Q1020.9363,274.375 1023.4363,274.375 Q1024.1394,274.375 1024.78,274.5313 Q1025.4363,274.6875 1025.9988,274.9844 L1025.9988,277.7031 Q1025.3738,277.125 1024.78,276.8594 Q1024.1863,276.5781 1023.5613,276.5781 Q1022.2175,276.5781 1021.53,277.6563 Q1020.8425,278.7188 1020.8425,280.8125 Q1020.8425,282.9063 1021.53,283.9844 Q1022.2175,285.0469 1023.5613,285.0469 Q1024.1863,285.0469 1024.78,284.7813 Q1025.3738,284.5 1025.9988,283.9219 L1025.9988,286.6406 Z " fill="#000000"/><text fill="#000000" font-family="sans-serif" font-size="14" lengthAdjust="spacing" textLength="91.9434" x="1037.03" y="285.8467">SettingsPage</text><line style="stroke:#181818;stroke-width:0.5;" x1="1009.03" x2="1130.9734" y1="297" y2="297"/><line style="stroke:#181818;stroke-width:0.5;" x1="1009.03" x2="1130.9734" y1="305" y2="305"/></g><!--class StatusPage--><g class="entity" data-entity="StatusPage" data-source-line="67" data-uid="ent0054" id="entity_StatusPage"><rect fill="#F1F1F1" height="48" rx="2.5" ry="2.5" style="stroke:#181818;stroke-width:0.5;" width="111.1328" x="1167.43" y="265"/><ellipse cx="1182.43" cy="281" fill="#ADD1B2" rx="11" ry="11" style="stroke:#181818;stroke-width:1;"/><path d="M1185.3988,286.6406 Q1184.8206,286.9375 1184.18,287.0781 Q1183.5394,287.2344 1182.8363,287.2344 Q1180.3363,287.2344 1179.0081,285.5938 Q1177.6956,283.9375 1177.6956,280.8125 Q1177.6956,277.6875 1179.0081,276.0313 Q1180.3363,274.375 1182.8363,274.375 Q1183.5394,274.375 1184.18,274.5313 Q1184.8363,274.6875 1185.3988,274.9844 L1185.3988,277.7031 Q1184.7738,277.125 1184.18,276.8594 Q1183.5863,276.5781 1182.9613,276.5781 Q1181.6175,276.5781 1180.93,277.6563 Q1180.2425,278.7188 1180.2425,280.8125 Q1180.2425,282.9063 1180.93,283.9844 Q1181.6175,285.0469 1182.9613,285.0469 Q1183.5863,285.0469 1184.18,284.7813 Q1184.7738,284.5 1185.3988,283.9219 L1185.3988,286.6406 Z " fill="#000000"/><text fill="#000000" font-family="sans-serif" font-size="14" lengthAdjust="spacing" textLength="79.1328" x="1196.43" y="285.8467">StatusPage</text><line style="stroke:#181818;stroke-width:0.5;" x1="1168.43" x2="1277.5628" y1="297" y2="297"/><line style="stroke:#181818;stroke-width:0.5;" x1="1168.43" x2="1277.5628" y1="305" y2="305"/></g><!--reverse link App to CloudDrive.App.Views--><g class="link" data-entity-1="App" data-entity-2="CloudDrive.App.Views" data-source-line="75" data-uid="lnk57" id="link_App_CloudDrive.App.Views"><path codeLine="75" d="M1482,102.41 C1482,106.4187 1482,98.7703 1482,103.3229 C1482,105.5992 1482,107.9257 1482,110.2848 C1482,111.4643 1482,112.652 1482,113.8456" fill="none" id="App-backto-CloudDrive.App.Views" style="stroke:#181818;stroke-width:1;"/><polygon fill="#181818" points="1482,90.41,1478,96.41,1482,102.41,1486,96.41,1482,90.41" style="stroke:#181818;stroke-width:1;"/></g><!--reverse link CloudDrive.App.Views to CloudDrive.App.ViewModels--><g class="link" data-entity-1="CloudDrive.App.Views" data-entity-2="CloudDrive.App.ViewModels" data-source-line="77" data-uid="lnk58" id="link_CloudDrive.App.Views_CloudDrive.App.ViewModels"><path codeLine="77" d="M1467.9251,103.1557 C1467.8028,102.905 1472.6956,113.0938 1472.5704,112.8448 C1472.3199,112.3468 1472.0635,111.8522 1471.8011,111.3612 C1471.2763,110.3793 1470.7276,109.412 1470.1537,108.4615 C1467.8584,104.6595 1465.1625,101.1263 1462,98 C1456.33,92.39 1452.43,94.89 1444.5,94 C1419.44,91.17 1015.56,91.17 990.5,94 C982.57,94.89 979.58,93.49 973,98 C955.795,109.795 942.415,128.77 933.055,145.6013 C930.715,149.8091 928.6263,153.8829 926.7918,157.6771 C926.3332,158.6256 925.8905,159.5567 925.4637,160.468 C925.357,160.6958 925.2513,160.9224 925.1466,161.1477" fill="none" id="CloudDrive.App.Views-backto-CloudDrive.App.ViewModels" style="stroke:#181818;stroke-width:1;"/><polygon fill="#181818" points="1473.1242,113.971,1474.1297,106.8303,1467.9251,103.1557,1466.9196,110.2964,1473.1242,113.971" style="stroke:#181818;stroke-width:1;"/></g><!--reverse link CloudDrive.App.Views to CloudDrive.App.Services--><g class="link" data-entity-1="CloudDrive.App.Views" data-entity-2="CloudDrive.App.Services" data-source-line="78" data-uid="lnk59" id="link_CloudDrive.App.Views_CloudDrive.App.Services"><path codeLine="78" d="M1502.4191,185.4873 C1502.8446,185.5623 1492.0917,183.6812 1492.5445,183.7621 C1493.4501,183.924 1494.4098,184.0977 1495.422,184.2836 C1503.5192,185.771 1514.9728,188.0383 1528.9319,191.2366 C1556.85,197.6331 1594.79,207.7537 1635.945,222.8075 C1718.255,252.915 1813.425,302.755 1867,382 C1869.4837,385.6738 1871.4833,389.6602 1873.0795,393.8296 C1873.4785,394.872 1873.8523,395.9258 1874.2022,396.989 C1874.2897,397.2548 1874.3757,397.5212 1874.4602,397.7882" fill="none" id="CloudDrive.App.Views-backto-CloudDrive.App.Services" style="stroke:#181818;stroke-width:1;"/><polygon fill="none" points="1490.5988,183.4179,1495.8191,188.3927,1502.4191,185.4873,1497.1988,180.5125,1490.5988,183.4179" style="stroke:#181818;stroke-width:1;"/></g><!--link CloudDrive.App.Services to CloudDrive.App.ServicesImpl--><g class="link" data-entity-1="CloudDrive.App.Services" data-entity-2="CloudDrive.App.ServicesImpl" data-source-line="79" data-uid="lnk60" id="link_CloudDrive.App.Services_CloudDrive.App.ServicesImpl"><path codeLine="79" d="M1883.139,466.0754 C1884.7792,466.091 1886.6583,466.1089 1888.7682,466.1292 C1897.208,466.2104 1909.3402,466.33 1924.6413,466.4883 C1955.2436,466.805 1998.5215,467.2765 2050.2867,467.9061 C2153.8172,469.1653 2291.2969,471.0569 2429.2188,473.6063 C2705.0625,478.705 2982.675,486.435 2994,497 C2997.2425,500.025 2999.817,503.5198 3001.8378,507.3264 C3002.343,508.278 3002.8136,509.2491 3003.2514,510.2373 C3003.4702,510.7313 3003.6809,511.2296 3003.8836,511.7319 C3003.9849,511.983 3004.0843,512.2352 3004.1817,512.4882 C3004.2304,512.6147 3004.2786,512.7415 3004.3263,512.8685" fill="none" id="CloudDrive.App.Services-CloudDrive.App.ServicesImpl" style="stroke:#181818;stroke-width:1;"/></g><!--reverse link CloudDrive.App.Services to CloudDrive.App.Model--><g class="link" data-entity-1="CloudDrive.App.Services" data-entity-2="CloudDrive.App.Model" data-source-line="80" data-uid="lnk61" id="link_CloudDrive.App.Services_CloudDrive.App.Model"><path codeLine="80" d="M1871.9317,386.3377 C1871.7447,385.8323 1875.4991,396.2328 1875.2983,395.7337 C1874.8967,394.7354 1874.4672,393.7503 1874.0083,392.7802 C1872.1728,388.9002 1869.8675,385.2625 1867,382 C1861.73,376.01 1857.43,378.89 1849.5,378 C1823.83,375.1 945.17,375.1 919.5,378 C911.57,378.89 908.8,377.82 902,382 C882.84,393.77 866.4825,412.7425 854.51,429.5787 C851.5169,433.7878 848.7978,437.8634 846.3775,441.6595 C845.1674,443.5575 844.032,445.3857 842.9743,447.1258 C842.4455,447.9959 841.9361,448.8439 841.4466,449.6676 C841.3242,449.8736 841.203,450.078 841.0831,450.2808" fill="none" id="CloudDrive.App.Services-backto-CloudDrive.App.Model" style="stroke:#181818;stroke-width:1;"/><polygon fill="#181818" points="1876.0189,397.6202,1877.7361,390.6165,1871.9317,386.3377,1870.2145,393.3414,1876.0189,397.6202" style="stroke:#181818;stroke-width:1;"/></g><!--reverse link CloudDrive.App.ServicesImpl to WebApiClient--><g class="link" data-entity-1="CloudDrive.App.ServicesImpl" data-entity-2="WebApiClient" data-source-line="81" data-uid="lnk62" id="link_CloudDrive.App.ServicesImpl_WebApiClient"><path codeLine="81" d="M3013.4166,620.5324 C3013.6004,621.1693 3010.7319,611.2345 3010.9208,611.8887 C3011.6764,614.5054 3012.4716,617.2595 3013.3031,620.1395 C3019.9556,643.1797 3028.935,674.2781 3038.5475,707.5687 C3057.7725,774.15 3079.53,849.5 3090.27,886.69" fill="none" id="CloudDrive.App.ServicesImpl-backto-WebApiClient" style="stroke:#181818;stroke-width:1;"/><polygon fill="none" points="3010.0877,609.0034,3007.9091,615.8775,3013.4166,620.5324,3015.5952,613.6583,3010.0877,609.0034" style="stroke:#181818;stroke-width:1;"/></g><!--reverse link CloudDrive.App.ServicesImpl to CloudDrive.App.Utils--><g class="link" data-entity-1="CloudDrive.App.ServicesImpl" data-entity-2="CloudDrive.App.Utils" data-source-line="82" data-uid="lnk63" id="link_CloudDrive.App.ServicesImpl_CloudDrive.App.Utils"><path codeLine="82" d="M3021.7685,585.303 C3022.0926,585.3739 3011.1818,582.9896 3011.5232,583.0644 C3016.9857,584.262 3024.646,585.9614 3034.1039,588.1103 C3053.0197,592.4081 3079.1256,598.5038 3109.2188,605.9775 C3169.405,620.925 3245.54,641.385 3312,664 C3491.56,725.11 3583.51,683.18 3706,828 C3708.925,831.4588 3711.4202,835.2822 3713.5467,839.3313 C3714.0783,840.3436 3714.5869,841.3699 3715.0734,842.4083 C3715.3167,842.9274 3715.5544,843.4495 3715.7867,843.9744" fill="none" id="CloudDrive.App.ServicesImpl-backto-CloudDrive.App.Utils" style="stroke:#181818;stroke-width:1;"/><polygon fill="none" points="3010.0452,582.7409,3015.0528,587.9297,3021.7685,585.303,3016.7609,580.1142,3010.0452,582.7409" style="stroke:#181818;stroke-width:1;"/></g><!--reverse link CloudDrive.App.ServicesImpl to CloudDrive.App.Factories--><g class="link" data-entity-1="CloudDrive.App.ServicesImpl" data-entity-2="CloudDrive.App.Factories" data-source-line="83" data-uid="lnk64" id="link_CloudDrive.App.ServicesImpl_CloudDrive.App.Factories"><path codeLine="83" d="M3022.0696,583.9919 C3026.7631,584.7102 3021.4614,583.9581 3029.5059,585.4131 C3045.595,588.3231 3067.6213,592.8 3092.525,599.2175 C3142.3325,612.0525 3203.65,632.65 3252,664 C3334.88,717.74 3355.51,740.85 3402,828 C3404.1375,832.0075 3406.0506,836.2469 3407.7624,840.6032 C3408.1903,841.6923 3408.6056,842.7887 3409.0088,843.8906" fill="none" id="CloudDrive.App.ServicesImpl-backto-CloudDrive.App.Factories" style="stroke:#181818;stroke-width:1;"/><polygon fill="none" points="3010.2077,582.1766,3015.5335,587.0382,3022.0696,583.9919,3016.7438,579.1303,3010.2077,582.1766" style="stroke:#181818;stroke-width:1;"/></g><!--SRC=[dPRRRgCm48RlUGhKcvKgqNT8arP1QgIejCsr5sR9gCP6jfCMLNtt3f24fFX0bYi4tupdy7ji3IOMh09Tinmog9bYHgfOI05HbCkgfXTXufivbxjYeN0FTxEwlec_efWU9t3to7BoWw2FQ8TpfdMyWR-p6kSSoQx7clZhkuE-eu3RbIo0ZrtUWyYt5LFlHqV3hqVaa8e2FX-4KKrcM8cYp2Zh4VaaSyRdighGG75fve1JGP6Ikp1Sha1hLiB3dhAQgLAFeMUef86fBZVCvDi-pApH1gerCzl9PSn0xJ6_R0uA0-eVgI1EPpdzqo_o7SHIyWBK-VhdtCx8h17vmPs3EZN7ZmsfzBcv5hMtoU_RtgsGJRb4tQepo3q3Pm7AqLs_KRYshneKYTcGJ-qdtn0-sZAqk_jQcQHLRTbqH2oOOO4G3gnRARzsi9COzD4wicYanrAnebAhnjk-mxOa1Itk9-lfj9TTxVPD1YS-NHWzdo4r0xeGA9GIr5h9FHQsKdWBRj73vOXUkyT0K3Yl1hbbyW_PzMDu2Ro-mciRSdS0E5mV-hr1KSYF4-mv4buKG4g2cie6k3TG6gLueZ02Ne_xPKr7WWyppEpiqAHYJQcJLU4esaN7lrOCXSliF2TVAhyp6Dq9MY2w63Fj5_hMljqcYIFLw4_i0ax7NUIeqcsYiDoQn2SvbwrC4gg7k6hPuVprc7LJrsDAcTBJ1vuuRagHVwGFiPytOBAHVTl_j_bmP_m1]--></g></svg>