<svg xmlns="http://www.w3.org/2000/svg" xmlns:xlink="http://www.w3.org/1999/xlink" contentStyleType="text/css" data-diagram-type="STATE" height="1302px" preserveAspectRatio="none" style="width:1300px;height:1302px;background:#FFFFFF;" version="1.1" viewBox="0 0 1300 1302" width="1300px" zoomAndPan="magnify"><defs/><g><!--cluster NewFile--><g class="cluster" data-entity="NewFile" data-source-line="32" data-uid="ent0010" id="cluster_NewFile"><path d="M151.5,158.29 L665.5,158.29 A12.5,12.5 0 0 1 678,170.79 L678,179.5869 L139,179.5869 L139,170.79 A12.5,12.5 0 0 1 151.5,158.29" fill="#F1F1F1"/><rect fill="none" height="469.89" rx="12.5" ry="12.5" style="stroke:#181818;stroke-width:1;stroke-dasharray:1.0,3.0;" width="539" x="139" y="158.29"/><line style="stroke:#181818;stroke-width:1;stroke-dasharray:1.0,3.0;" x1="139" x2="678" y1="179.5869" y2="179.5869"/><text fill="#000000" font-family="sans-serif" font-size="14" lengthAdjust="spacing" textLength="96.2842" x="360.3579" y="175.2851">Dodanie pliku</text></g><!--cluster ModifiedFile--><g class="cluster" data-entity="ModifiedFile" data-source-line="54" data-uid="ent0031" id="cluster_ModifiedFile"><path d="M626.5,826.48 L1274.5,826.48 A12.5,12.5 0 0 1 1287,838.98 L1287,847.7769 L614,847.7769 L614,838.98 A12.5,12.5 0 0 1 626.5,826.48" fill="#F1F1F1"/><rect fill="none" height="469.89" rx="12.5" ry="12.5" style="stroke:#181818;stroke-width:1;stroke-dasharray:1.0,3.0;" width="673" x="614" y="826.48"/><line style="stroke:#181818;stroke-width:1;stroke-dasharray:1.0,3.0;" x1="614" x2="1287" y1="847.7769" y2="847.7769"/><text fill="#000000" font-family="sans-serif" font-size="14" lengthAdjust="spacing" textLength="121.584" x="889.708" y="843.4751">Modyfikacja pliku</text></g><!--cluster DeletedFile--><g class="cluster" data-entity="DeletedFile" data-source-line="80" data-uid="ent0056" id="cluster_DeletedFile"><path d="M55.5,826.48 L512.5,826.48 A12.5,12.5 0 0 1 525,838.98 L525,847.7769 L43,847.7769 L43,838.98 A12.5,12.5 0 0 1 55.5,826.48" fill="#F1F1F1"/><rect fill="none" height="469.89" rx="12.5" ry="12.5" style="stroke:#181818;stroke-width:1;stroke-dasharray:1.0,3.0;" width="482" x="43" y="826.48"/><line style="stroke:#181818;stroke-width:1;stroke-dasharray:1.0,3.0;" x1="43" x2="525" y1="847.7769" y2="847.7769"/><text fill="#000000" font-family="sans-serif" font-size="14" lengthAdjust="spacing" textLength="106.0869" x="230.9565" y="843.4751">Usuni&#281;cie pliku</text></g><path d="M167.5,193.29 L348.5,193.29 A12.5,12.5 0 0 1 361,205.79 L361,219.5869 L155,219.5869 L155,205.79 A12.5,12.5 0 0 1 167.5,193.29" fill="#F1F1F1"/><rect fill="none" height="88.2969" rx="12.5" ry="12.5" style="stroke:#181818;stroke-width:0.5;" width="206" x="155" y="193.29"/><line style="stroke:#181818;stroke-width:0.5;" x1="155" x2="361" y1="219.5869" y2="219.5869"/><text fill="#000000" font-family="sans-serif" font-size="14" lengthAdjust="spacing" textLength="122.6367" x="196.6816" y="211.2851">Nowy plik lokalny</text><rect fill="#FFFFFF" height="40" rx="12.5" ry="12.5" style="stroke:#181818;stroke-width:0.5;" width="50" x="167" y="231.5869"/><text fill="#000000" font-family="sans-serif" font-size="14" lengthAdjust="spacing" textLength="18.0469" x="182.9766" y="256.4336">UL</text><rect fill="#008000" height="40" rx="12.5" ry="12.5" style="stroke:#181818;stroke-width:0.5;" width="50" x="235" y="231.5869"/><text fill="#000000" font-family="sans-serif" font-size="14" lengthAdjust="spacing" textLength="17.377" x="251.3115" y="256.4336">AL</text><rect fill="#FFFFFF" height="40" rx="12.5" ry="12.5" style="stroke:#181818;stroke-width:0.5;" width="50" x="303" y="231.5869"/><text fill="#000000" font-family="sans-serif" font-size="14" lengthAdjust="spacing" textLength="19.168" x="318.416" y="256.4336">AZ</text><path d="M167.5,358.59 L348.5,358.59 A12.5,12.5 0 0 1 361,371.09 L361,384.8869 L155,384.8869 L155,371.09 A12.5,12.5 0 0 1 167.5,358.59" fill="#F1F1F1"/><rect fill="none" height="88.2969" rx="12.5" ry="12.5" style="stroke:#181818;stroke-width:1;stroke-dasharray:1.0,3.0;" width="206" x="155" y="358.59"/><line style="stroke:#181818;stroke-width:1;stroke-dasharray:1.0,3.0;" x1="155" x2="361" y1="384.8869" y2="384.8869"/><text fill="#000000" font-family="sans-serif" font-size="14" lengthAdjust="spacing" textLength="164.2061" x="175.897" y="376.5851">Zgodno&#347;&#263; klient-serwer</text><rect fill="#FFFFFF" height="40" rx="12.5" ry="12.5" style="stroke:#181818;stroke-width:0.5;" width="50" x="167" y="396.8869"/><text fill="#000000" font-family="sans-serif" font-size="14" lengthAdjust="spacing" textLength="18.0469" x="182.9766" y="421.7336">UL</text><rect fill="#D3D3D3" height="40" rx="12.5" ry="12.5" style="stroke:#181818;stroke-width:0.5;" width="50" x="235" y="396.8869"/><text fill="#000000" font-family="sans-serif" font-size="14" lengthAdjust="spacing" textLength="17.377" x="251.3115" y="421.7336">AL</text><rect fill="#008000" height="40" rx="12.5" ry="12.5" style="stroke:#181818;stroke-width:0.5;" width="50" x="303" y="396.8869"/><text fill="#000000" font-family="sans-serif" font-size="14" lengthAdjust="spacing" textLength="19.168" x="318.416" y="421.7336">AZ</text><path d="M392.5,523.89 L573.5,523.89 A12.5,12.5 0 0 1 586,536.39 L586,550.1869 L380,550.1869 L380,536.39 A12.5,12.5 0 0 1 392.5,523.89" fill="#F1F1F1"/><rect fill="none" height="88.2969" rx="12.5" ry="12.5" style="stroke:#181818;stroke-width:1;stroke-dasharray:1.0,3.0;" width="206" x="380" y="523.89"/><line style="stroke:#181818;stroke-width:1;stroke-dasharray:1.0,3.0;" x1="380" x2="586" y1="550.1869" y2="550.1869"/><text fill="#000000" font-family="sans-serif" font-size="14" lengthAdjust="spacing" textLength="141.9824" x="412.0088" y="541.8851">Utrwalony nowy plik</text><rect fill="#008000" height="40" rx="12.5" ry="12.5" style="stroke:#181818;stroke-width:0.5;" width="50" x="392" y="562.1869"/><text fill="#000000" font-family="sans-serif" font-size="14" lengthAdjust="spacing" textLength="18.0469" x="407.9766" y="587.0336">UL</text><rect fill="#D3D3D3" height="40" rx="12.5" ry="12.5" style="stroke:#181818;stroke-width:0.5;" width="50" x="460" y="562.1869"/><text fill="#000000" font-family="sans-serif" font-size="14" lengthAdjust="spacing" textLength="17.377" x="476.3115" y="587.0336">AL</text><rect fill="#D3D3D3" height="40" rx="12.5" ry="12.5" style="stroke:#181818;stroke-width:0.5;" width="50" x="528" y="562.1869"/><text fill="#000000" font-family="sans-serif" font-size="14" lengthAdjust="spacing" textLength="19.168" x="543.416" y="587.0336">AZ</text><path d="M408.5,193.29 L589.5,193.29 A12.5,12.5 0 0 1 602,205.79 L602,219.5869 L396,219.5869 L396,205.79 A12.5,12.5 0 0 1 408.5,193.29" fill="#F1F1F1"/><rect fill="none" height="88.2969" rx="12.5" ry="12.5" style="stroke:#181818;stroke-width:0.5;" width="206" x="396" y="193.29"/><line style="stroke:#181818;stroke-width:0.5;" x1="396" x2="602" y1="219.5869" y2="219.5869"/><text fill="#000000" font-family="sans-serif" font-size="14" lengthAdjust="spacing" textLength="149.1465" x="424.4268" y="211.2851">Nowy plik w chmurze</text><rect fill="#FFFFFF" height="40" rx="12.5" ry="12.5" style="stroke:#181818;stroke-width:0.5;" width="50" x="408" y="231.5869"/><text fill="#000000" font-family="sans-serif" font-size="14" lengthAdjust="spacing" textLength="18.0469" x="423.9766" y="256.4336">UL</text><rect fill="#FFFFFF" height="40" rx="12.5" ry="12.5" style="stroke:#181818;stroke-width:0.5;" width="50" x="476" y="231.5869"/><text fill="#000000" font-family="sans-serif" font-size="14" lengthAdjust="spacing" textLength="17.377" x="492.3115" y="256.4336">AL</text><rect fill="#008000" height="40" rx="12.5" ry="12.5" style="stroke:#181818;stroke-width:0.5;" width="50" x="544" y="231.5869"/><text fill="#000000" font-family="sans-serif" font-size="14" lengthAdjust="spacing" textLength="19.168" x="559.416" y="256.4336">AZ</text><path d="M408.5,358.59 L589.5,358.59 A12.5,12.5 0 0 1 602,371.09 L602,384.8869 L396,384.8869 L396,371.09 A12.5,12.5 0 0 1 408.5,358.59" fill="#F1F1F1"/><rect fill="none" height="88.2969" rx="12.5" ry="12.5" style="stroke:#181818;stroke-width:1;stroke-dasharray:1.0,3.0;" width="206" x="396" y="358.59"/><line style="stroke:#181818;stroke-width:1;stroke-dasharray:1.0,3.0;" x1="396" x2="602" y1="384.8869" y2="384.8869"/><text fill="#000000" font-family="sans-serif" font-size="14" lengthAdjust="spacing" textLength="164.2061" x="416.897" y="376.5851">Zgodno&#347;&#263; klient-serwer</text><rect fill="#FFFFFF" height="40" rx="12.5" ry="12.5" style="stroke:#181818;stroke-width:0.5;" width="50" x="408" y="396.8869"/><text fill="#000000" font-family="sans-serif" font-size="14" lengthAdjust="spacing" textLength="18.0469" x="423.9766" y="421.7336">UL</text><rect fill="#008000" height="40" rx="12.5" ry="12.5" style="stroke:#181818;stroke-width:0.5;" width="50" x="476" y="396.8869"/><text fill="#000000" font-family="sans-serif" font-size="14" lengthAdjust="spacing" textLength="17.377" x="492.3115" y="421.7336">AL</text><rect fill="#D3D3D3" height="40" rx="12.5" ry="12.5" style="stroke:#181818;stroke-width:0.5;" width="50" x="544" y="396.8869"/><text fill="#000000" font-family="sans-serif" font-size="14" lengthAdjust="spacing" textLength="19.168" x="559.416" y="421.7336">AZ</text><path d="M921.75,861.48 L1112.2578,861.48 A12.5,12.5 0 0 1 1124.7578,873.98 L1124.7578,887.7769 L909.25,887.7769 L909.25,873.98 A12.5,12.5 0 0 1 921.75,861.48" fill="#F1F1F1"/><rect fill="none" height="88.2969" rx="12.5" ry="12.5" style="stroke:#181818;stroke-width:0.5;" width="215.5078" x="909.25" y="861.48"/><line style="stroke:#181818;stroke-width:0.5;" x1="909.25" x2="1124.7578" y1="887.7769" y2="887.7769"/><text fill="#000000" font-family="sans-serif" font-size="14" lengthAdjust="spacing" textLength="195.5078" x="919.25" y="879.4751">Zmodyfikowany plik lokalny</text><rect fill="#D3D3D3" height="40" rx="12.5" ry="12.5" style="stroke:#181818;stroke-width:0.5;" width="50" x="921.25" y="899.7769"/><text fill="#000000" font-family="sans-serif" font-size="14" lengthAdjust="spacing" textLength="18.0469" x="937.2266" y="924.6236">UL</text><rect fill="#FFFF00" height="40" rx="12.5" ry="12.5" style="stroke:#181818;stroke-width:0.5;" width="50" x="989.25" y="899.7769"/><text fill="#000000" font-family="sans-serif" font-size="14" lengthAdjust="spacing" textLength="17.377" x="1005.5615" y="924.6236">AL</text><rect fill="#D3D3D3" height="40" rx="12.5" ry="12.5" style="stroke:#181818;stroke-width:0.5;" width="50" x="1057.25" y="899.7769"/><text fill="#000000" font-family="sans-serif" font-size="14" lengthAdjust="spacing" textLength="19.168" x="1072.666" y="924.6236">AZ</text><path d="M926.5,1026.78 L1107.5,1026.78 A12.5,12.5 0 0 1 1120,1039.28 L1120,1053.0769 L914,1053.0769 L914,1039.28 A12.5,12.5 0 0 1 926.5,1026.78" fill="#F1F1F1"/><rect fill="none" height="88.2969" rx="12.5" ry="12.5" style="stroke:#181818;stroke-width:1;stroke-dasharray:1.0,3.0;" width="206" x="914" y="1026.78"/><line style="stroke:#181818;stroke-width:1;stroke-dasharray:1.0,3.0;" x1="914" x2="1120" y1="1053.0769" y2="1053.0769"/><text fill="#000000" font-family="sans-serif" font-size="14" lengthAdjust="spacing" textLength="164.2061" x="934.897" y="1044.7751">Zgodno&#347;&#263; klient-serwer</text><rect fill="#D3D3D3" height="40" rx="12.5" ry="12.5" style="stroke:#181818;stroke-width:0.5;" width="50" x="926" y="1065.0769"/><text fill="#000000" font-family="sans-serif" font-size="14" lengthAdjust="spacing" textLength="18.0469" x="941.9766" y="1089.9236">UL</text><rect fill="#D3D3D3" height="40" rx="12.5" ry="12.5" style="stroke:#181818;stroke-width:0.5;" width="50" x="994" y="1065.0769"/><text fill="#000000" font-family="sans-serif" font-size="14" lengthAdjust="spacing" textLength="17.377" x="1010.3115" y="1089.9236">AL</text><rect fill="#FFFF00" height="40" rx="12.5" ry="12.5" style="stroke:#181818;stroke-width:0.5;" width="50" x="1062" y="1065.0769"/><text fill="#000000" font-family="sans-serif" font-size="14" lengthAdjust="spacing" textLength="19.168" x="1077.416" y="1089.9236">AZ</text><path d="M956.39,1192.07 L1165.6009,1192.07 A12.5,12.5 0 0 1 1178.1009,1204.57 L1178.1009,1218.3669 L943.89,1218.3669 L943.89,1204.57 A12.5,12.5 0 0 1 956.39,1192.07" fill="#F1F1F1"/><rect fill="none" height="88.2969" rx="12.5" ry="12.5" style="stroke:#181818;stroke-width:1;stroke-dasharray:1.0,3.0;" width="234.2109" x="943.89" y="1192.07"/><line style="stroke:#181818;stroke-width:1;stroke-dasharray:1.0,3.0;" x1="943.89" x2="1178.1009" y1="1218.3669" y2="1218.3669"/><text fill="#000000" font-family="sans-serif" font-size="14" lengthAdjust="spacing" textLength="214.2109" x="953.89" y="1210.0651">Utrwalony zmodyfikowany plik</text><rect fill="#FFFF00" height="40" rx="12.5" ry="12.5" style="stroke:#181818;stroke-width:0.5;" width="50" x="955.89" y="1230.3669"/><text fill="#000000" font-family="sans-serif" font-size="14" lengthAdjust="spacing" textLength="18.0469" x="971.8666" y="1255.2136">UL</text><rect fill="#D3D3D3" height="40" rx="12.5" ry="12.5" style="stroke:#181818;stroke-width:0.5;" width="50" x="1023.89" y="1230.3669"/><text fill="#000000" font-family="sans-serif" font-size="14" lengthAdjust="spacing" textLength="17.377" x="1040.2015" y="1255.2136">AL</text><rect fill="#D3D3D3" height="40" rx="12.5" ry="12.5" style="stroke:#181818;stroke-width:0.5;" width="50" x="1091.89" y="1230.3669"/><text fill="#000000" font-family="sans-serif" font-size="14" lengthAdjust="spacing" textLength="19.168" x="1107.306" y="1255.2136">AZ</text><path d="M644.49,861.48 L861.5076,861.48 A12.5,12.5 0 0 1 874.0076,873.98 L874.0076,887.7769 L631.99,887.7769 L631.99,873.98 A12.5,12.5 0 0 1 644.49,861.48" fill="#F1F1F1"/><rect fill="none" height="88.2969" rx="12.5" ry="12.5" style="stroke:#181818;stroke-width:0.5;" width="242.0176" x="631.99" y="861.48"/><line style="stroke:#181818;stroke-width:0.5;" x1="631.99" x2="874.0076" y1="887.7769" y2="887.7769"/><text fill="#000000" font-family="sans-serif" font-size="14" lengthAdjust="spacing" textLength="222.0176" x="641.99" y="879.4751">Zmodyfikowany plik w chmurze</text><rect fill="#D3D3D3" height="40" rx="12.5" ry="12.5" style="stroke:#181818;stroke-width:0.5;" width="50" x="643.99" y="899.7769"/><text fill="#000000" font-family="sans-serif" font-size="14" lengthAdjust="spacing" textLength="18.0469" x="659.9666" y="924.6236">UL</text><rect fill="#D3D3D3" height="40" rx="12.5" ry="12.5" style="stroke:#181818;stroke-width:0.5;" width="50" x="711.99" y="899.7769"/><text fill="#000000" font-family="sans-serif" font-size="14" lengthAdjust="spacing" textLength="17.377" x="728.3015" y="924.6236">AL</text><rect fill="#FFFF00" height="40" rx="12.5" ry="12.5" style="stroke:#181818;stroke-width:0.5;" width="50" x="779.99" y="899.7769"/><text fill="#000000" font-family="sans-serif" font-size="14" lengthAdjust="spacing" textLength="19.168" x="795.406" y="924.6236">AZ</text><path d="M651.5,1026.78 L832.5,1026.78 A12.5,12.5 0 0 1 845,1039.28 L845,1053.0769 L639,1053.0769 L639,1039.28 A12.5,12.5 0 0 1 651.5,1026.78" fill="#F1F1F1"/><rect fill="none" height="88.2969" rx="12.5" ry="12.5" style="stroke:#181818;stroke-width:1;stroke-dasharray:1.0,3.0;" width="206" x="639" y="1026.78"/><line style="stroke:#181818;stroke-width:1;stroke-dasharray:1.0,3.0;" x1="639" x2="845" y1="1053.0769" y2="1053.0769"/><text fill="#000000" font-family="sans-serif" font-size="14" lengthAdjust="spacing" textLength="164.2061" x="659.897" y="1044.7751">Zgodno&#347;&#263; klient-serwer</text><rect fill="#D3D3D3" height="40" rx="12.5" ry="12.5" style="stroke:#181818;stroke-width:0.5;" width="50" x="651" y="1065.0769"/><text fill="#000000" font-family="sans-serif" font-size="14" lengthAdjust="spacing" textLength="18.0469" x="666.9766" y="1089.9236">UL</text><rect fill="#FFFF00" height="40" rx="12.5" ry="12.5" style="stroke:#181818;stroke-width:0.5;" width="50" x="719" y="1065.0769"/><text fill="#000000" font-family="sans-serif" font-size="14" lengthAdjust="spacing" textLength="17.377" x="735.3115" y="1089.9236">AL</text><rect fill="#D3D3D3" height="40" rx="12.5" ry="12.5" style="stroke:#181818;stroke-width:0.5;" width="50" x="787" y="1065.0769"/><text fill="#000000" font-family="sans-serif" font-size="14" lengthAdjust="spacing" textLength="19.168" x="802.416" y="1089.9236">AZ</text><path d="M642.39,1192.07 L851.6009,1192.07 A12.5,12.5 0 0 1 864.1009,1204.57 L864.1009,1218.3669 L629.89,1218.3669 L629.89,1204.57 A12.5,12.5 0 0 1 642.39,1192.07" fill="#F1F1F1"/><rect fill="none" height="88.2969" rx="12.5" ry="12.5" style="stroke:#181818;stroke-width:1;stroke-dasharray:1.0,3.0;" width="234.2109" x="629.89" y="1192.07"/><line style="stroke:#181818;stroke-width:1;stroke-dasharray:1.0,3.0;" x1="629.89" x2="864.1009" y1="1218.3669" y2="1218.3669"/><text fill="#000000" font-family="sans-serif" font-size="14" lengthAdjust="spacing" textLength="214.2109" x="639.89" y="1210.0651">Utrwalony zmodyfikowany plik</text><rect fill="#FFFF00" height="40" rx="12.5" ry="12.5" style="stroke:#181818;stroke-width:0.5;" width="50" x="641.89" y="1230.3669"/><text fill="#000000" font-family="sans-serif" font-size="14" lengthAdjust="spacing" textLength="18.0469" x="657.8666" y="1255.2136">UL</text><rect fill="#D3D3D3" height="40" rx="12.5" ry="12.5" style="stroke:#181818;stroke-width:0.5;" width="50" x="709.89" y="1230.3669"/><text fill="#000000" font-family="sans-serif" font-size="14" lengthAdjust="spacing" textLength="17.377" x="726.2015" y="1255.2136">AL</text><rect fill="#D3D3D3" height="40" rx="12.5" ry="12.5" style="stroke:#181818;stroke-width:0.5;" width="50" x="777.89" y="1230.3669"/><text fill="#000000" font-family="sans-serif" font-size="14" lengthAdjust="spacing" textLength="19.168" x="793.306" y="1255.2136">AZ</text><path d="M312.5,861.48 L493.5,861.48 A12.5,12.5 0 0 1 506,873.98 L506,887.7769 L300,887.7769 L300,873.98 A12.5,12.5 0 0 1 312.5,861.48" fill="#F1F1F1"/><rect fill="none" height="88.2969" rx="12.5" ry="12.5" style="stroke:#181818;stroke-width:0.5;" width="206" x="300" y="861.48"/><line style="stroke:#181818;stroke-width:0.5;" x1="300" x2="506" y1="887.7769" y2="887.7769"/><text fill="#000000" font-family="sans-serif" font-size="14" lengthAdjust="spacing" textLength="145.4277" x="330.2861" y="879.4751">Usuni&#281;ty plik lokalny</text><rect fill="#D3D3D3" height="40" rx="12.5" ry="12.5" style="stroke:#181818;stroke-width:0.5;" width="50" x="312" y="899.7769"/><text fill="#000000" font-family="sans-serif" font-size="14" lengthAdjust="spacing" textLength="18.0469" x="327.9766" y="924.6236">UL</text><rect fill="#FF0000" height="40" rx="12.5" ry="12.5" style="stroke:#181818;stroke-width:0.5;" width="50" x="380" y="899.7769"/><text fill="#000000" font-family="sans-serif" font-size="14" lengthAdjust="spacing" textLength="17.377" x="396.3115" y="924.6236">AL</text><rect fill="#D3D3D3" height="40" rx="12.5" ry="12.5" style="stroke:#181818;stroke-width:0.5;" width="50" x="448" y="899.7769"/><text fill="#000000" font-family="sans-serif" font-size="14" lengthAdjust="spacing" textLength="19.168" x="463.416" y="924.6236">AZ</text><path d="M312.5,1026.78 L493.5,1026.78 A12.5,12.5 0 0 1 506,1039.28 L506,1053.0769 L300,1053.0769 L300,1039.28 A12.5,12.5 0 0 1 312.5,1026.78" fill="#F1F1F1"/><rect fill="none" height="88.2969" rx="12.5" ry="12.5" style="stroke:#181818;stroke-width:1;stroke-dasharray:1.0,3.0;" width="206" x="300" y="1026.78"/><line style="stroke:#181818;stroke-width:1;stroke-dasharray:1.0,3.0;" x1="300" x2="506" y1="1053.0769" y2="1053.0769"/><text fill="#000000" font-family="sans-serif" font-size="14" lengthAdjust="spacing" textLength="164.2061" x="320.897" y="1044.7751">Zgodno&#347;&#263; klient-serwer</text><rect fill="#D3D3D3" height="40" rx="12.5" ry="12.5" style="stroke:#181818;stroke-width:0.5;" width="50" x="312" y="1065.0769"/><text fill="#000000" font-family="sans-serif" font-size="14" lengthAdjust="spacing" textLength="18.0469" x="327.9766" y="1089.9236">UL</text><rect fill="#FFFFFF" height="40" rx="12.5" ry="12.5" style="stroke:#181818;stroke-width:0.5;" width="50" x="380" y="1065.0769"/><text fill="#000000" font-family="sans-serif" font-size="14" lengthAdjust="spacing" textLength="17.377" x="396.3115" y="1089.9236">AL</text><rect fill="#FF0000" height="40" rx="12.5" ry="12.5" style="stroke:#181818;stroke-width:0.5;" width="50" x="448" y="1065.0769"/><text fill="#000000" font-family="sans-serif" font-size="14" lengthAdjust="spacing" textLength="19.168" x="463.416" y="1089.9236">AZ</text><path d="M71.5,1192.07 L252.5,1192.07 A12.5,12.5 0 0 1 265,1204.57 L265,1218.3669 L59,1218.3669 L59,1204.57 A12.5,12.5 0 0 1 71.5,1192.07" fill="#F1F1F1"/><rect fill="none" height="88.2969" rx="12.5" ry="12.5" style="stroke:#181818;stroke-width:1;stroke-dasharray:1.0,3.0;" width="206" x="59" y="1192.07"/><line style="stroke:#181818;stroke-width:1;stroke-dasharray:1.0,3.0;" x1="59" x2="265" y1="1218.3669" y2="1218.3669"/><text fill="#000000" font-family="sans-serif" font-size="14" lengthAdjust="spacing" textLength="180.626" x="71.687" y="1210.0651">Utrwalone usuni&#281;cie pliku</text><rect fill="#FF0000" height="40" rx="12.5" ry="12.5" style="stroke:#181818;stroke-width:0.5;" width="50" x="71" y="1230.3669"/><text fill="#000000" font-family="sans-serif" font-size="14" lengthAdjust="spacing" textLength="18.0469" x="86.9766" y="1255.2136">UL</text><rect fill="#FFFFFF" height="40" rx="12.5" ry="12.5" style="stroke:#181818;stroke-width:0.5;" width="50" x="139" y="1230.3669"/><text fill="#000000" font-family="sans-serif" font-size="14" lengthAdjust="spacing" textLength="17.377" x="155.3115" y="1255.2136">AL</text><rect fill="#FFFFFF" height="40" rx="12.5" ry="12.5" style="stroke:#181818;stroke-width:0.5;" width="50" x="207" y="1230.3669"/><text fill="#000000" font-family="sans-serif" font-size="14" lengthAdjust="spacing" textLength="19.168" x="222.416" y="1255.2136">AZ</text><path d="M71.5,861.48 L252.5,861.48 A12.5,12.5 0 0 1 265,873.98 L265,887.7769 L59,887.7769 L59,873.98 A12.5,12.5 0 0 1 71.5,861.48" fill="#F1F1F1"/><rect fill="none" height="88.2969" rx="12.5" ry="12.5" style="stroke:#181818;stroke-width:0.5;" width="206" x="59" y="861.48"/><line style="stroke:#181818;stroke-width:0.5;" x1="59" x2="265" y1="887.7769" y2="887.7769"/><text fill="#000000" font-family="sans-serif" font-size="14" lengthAdjust="spacing" textLength="171.9375" x="76.0313" y="879.4751">Usuni&#281;ty plik w chmurze</text><rect fill="#D3D3D3" height="40" rx="12.5" ry="12.5" style="stroke:#181818;stroke-width:0.5;" width="50" x="71" y="899.7769"/><text fill="#000000" font-family="sans-serif" font-size="14" lengthAdjust="spacing" textLength="18.0469" x="86.9766" y="924.6236">UL</text><rect fill="#D3D3D3" height="40" rx="12.5" ry="12.5" style="stroke:#181818;stroke-width:0.5;" width="50" x="139" y="899.7769"/><text fill="#000000" font-family="sans-serif" font-size="14" lengthAdjust="spacing" textLength="17.377" x="155.3115" y="924.6236">AL</text><rect fill="#FF0000" height="40" rx="12.5" ry="12.5" style="stroke:#181818;stroke-width:0.5;" width="50" x="207" y="899.7769"/><text fill="#000000" font-family="sans-serif" font-size="14" lengthAdjust="spacing" textLength="19.168" x="222.416" y="924.6236">AZ</text><path d="M71.5,1026.78 L252.5,1026.78 A12.5,12.5 0 0 1 265,1039.28 L265,1053.0769 L59,1053.0769 L59,1039.28 A12.5,12.5 0 0 1 71.5,1026.78" fill="#F1F1F1"/><rect fill="none" height="88.2969" rx="12.5" ry="12.5" style="stroke:#181818;stroke-width:1;stroke-dasharray:1.0,3.0;" width="206" x="59" y="1026.78"/><line style="stroke:#181818;stroke-width:1;stroke-dasharray:1.0,3.0;" x1="59" x2="265" y1="1053.0769" y2="1053.0769"/><text fill="#000000" font-family="sans-serif" font-size="14" lengthAdjust="spacing" textLength="164.2061" x="79.897" y="1044.7751">Zgodno&#347;&#263; klient-serwer</text><rect fill="#D3D3D3" height="40" rx="12.5" ry="12.5" style="stroke:#181818;stroke-width:0.5;" width="50" x="71" y="1065.0769"/><text fill="#000000" font-family="sans-serif" font-size="14" lengthAdjust="spacing" textLength="18.0469" x="86.9766" y="1089.9236">UL</text><rect fill="#FF0000" height="40" rx="12.5" ry="12.5" style="stroke:#181818;stroke-width:0.5;" width="50" x="139" y="1065.0769"/><text fill="#000000" font-family="sans-serif" font-size="14" lengthAdjust="spacing" textLength="17.377" x="155.3115" y="1089.9236">AL</text><rect fill="#FFFFFF" height="40" rx="12.5" ry="12.5" style="stroke:#181818;stroke-width:0.5;" width="50" x="207" y="1065.0769"/><text fill="#000000" font-family="sans-serif" font-size="14" lengthAdjust="spacing" textLength="19.168" x="222.416" y="1089.9236">AZ</text><path d="M167.5,7 L348.5,7 A12.5,12.5 0 0 1 361,19.5 L361,33.2969 L155,33.2969 L155,19.5 A12.5,12.5 0 0 1 167.5,7" fill="#F1F1F1"/><rect fill="none" height="88.2969" rx="12.5" ry="12.5" style="stroke:#181818;stroke-width:0.5;" width="206" x="155" y="7"/><line style="stroke:#181818;stroke-width:0.5;" x1="155" x2="361" y1="33.2969" y2="33.2969"/><text fill="#000000" font-family="sans-serif" font-size="14" lengthAdjust="spacing" textLength="86.2969" x="214.8516" y="24.9951">Stan zerowy</text><rect fill="#FFFFFF" height="40" rx="12.5" ry="12.5" style="stroke:#181818;stroke-width:0.5;" width="50" x="167" y="45.2969"/><text fill="#000000" font-family="sans-serif" font-size="14" lengthAdjust="spacing" textLength="18.0469" x="182.9766" y="70.1436">UL</text><rect fill="#FFFFFF" height="40" rx="12.5" ry="12.5" style="stroke:#181818;stroke-width:0.5;" width="50" x="235" y="45.2969"/><text fill="#000000" font-family="sans-serif" font-size="14" lengthAdjust="spacing" textLength="17.377" x="251.3115" y="70.1436">AL</text><rect fill="#FFFFFF" height="40" rx="12.5" ry="12.5" style="stroke:#181818;stroke-width:0.5;" width="50" x="303" y="45.2969"/><text fill="#000000" font-family="sans-serif" font-size="14" lengthAdjust="spacing" textLength="19.168" x="318.416" y="70.1436">AZ</text><path d="M488.5,675.18 L669.5,675.18 A12.5,12.5 0 0 1 682,687.68 L682,701.4769 L476,701.4769 L476,687.68 A12.5,12.5 0 0 1 488.5,675.18" fill="#F1F1F1"/><rect fill="none" height="88.2969" rx="12.5" ry="12.5" style="stroke:#181818;stroke-width:0.5;" width="206" x="476" y="675.18"/><line style="stroke:#181818;stroke-width:0.5;" x1="476" x2="682" y1="701.4769" y2="701.4769"/><text fill="#000000" font-family="sans-serif" font-size="14" lengthAdjust="spacing" textLength="109.0537" x="524.4731" y="693.1751">Pe&#322;na zgodno&#347;&#263;</text><rect fill="#D3D3D3" height="40" rx="12.5" ry="12.5" style="stroke:#181818;stroke-width:0.5;" width="50" x="488" y="713.4769"/><text fill="#000000" font-family="sans-serif" font-size="14" lengthAdjust="spacing" textLength="18.0469" x="503.9766" y="738.3236">UL</text><rect fill="#D3D3D3" height="40" rx="12.5" ry="12.5" style="stroke:#181818;stroke-width:0.5;" width="50" x="556" y="713.4769"/><text fill="#000000" font-family="sans-serif" font-size="14" lengthAdjust="spacing" textLength="17.377" x="572.3115" y="738.3236">AL</text><rect fill="#D3D3D3" height="40" rx="12.5" ry="12.5" style="stroke:#181818;stroke-width:0.5;" width="50" x="624" y="713.4769"/><text fill="#000000" font-family="sans-serif" font-size="14" lengthAdjust="spacing" textLength="19.168" x="639.416" y="738.3236">AZ</text><g class="entity" data-entity="GMN2" data-source-line="23" data-uid="ent0003" id="entity_GMN2"><path d="M396.21,23.44 L396.21,47.14 L361.37,51.14 L396.21,55.14 L396.21,78.8384 A0,0 0 0 0 396.21,78.8384 L699.7886,78.8384 A0,0 0 0 0 699.7886,78.8384 L699.7886,33.44 L689.7886,23.44 L396.21,23.44 A0,0 0 0 0 396.21,23.44" fill="#FEFFDD" style="stroke:#181818;stroke-width:0.5;"/><path d="M689.7886,23.44 L689.7886,33.44 L699.7886,33.44 L689.7886,23.44" fill="#FEFFDD" style="stroke:#181818;stroke-width:0.5;"/><text fill="#000000" font-family="sans-serif" font-size="13" lengthAdjust="spacing" textLength="282.5786" x="402.21" y="40.5069">UL - utrwalony/zatwierdzony indeks lokalny</text><text fill="#000000" font-family="sans-serif" font-size="13" lengthAdjust="spacing" textLength="182.7046" x="402.21" y="55.6397">AL - aktualny indeks lokalny</text><text fill="#000000" font-family="sans-serif" font-size="13" lengthAdjust="spacing" textLength="180.3496" x="402.21" y="70.7725">AZ - aktualny indeks zdalny</text></g><!--link Init to NewLocal--><g class="link" data-entity-1="Init" data-entity-2="NewLocal" data-source-line="34" data-uid="lnk2" id="link_Init_NewLocal"><path d="M258,95.35 C258,124.72 258,157.42 258,186.86" fill="none" id="Init-to-NewLocal" style="stroke:#181818;stroke-width:1;"/><polygon fill="#181818" points="258,192.86,262,183.86,258,187.86,254,183.86,258,192.86" style="stroke:#181818;stroke-width:1;"/><text fill="#000000" font-family="sans-serif" font-size="13" lengthAdjust="spacing" textLength="161.9858" x="259" y="138.3569">Lokalne utworzenie pliku</text></g><!--link NewLocal to NewLocalUploaded--><g class="link" data-entity-1="NewLocal" data-entity-2="NewLocalUploaded" data-source-line="37" data-uid="lnk3" id="link_NewLocal_NewLocalUploaded"><path d="M205.63,282.03 C198.03,290.97 191.32,300.93 187,311.59 C180.26,328.2 183.1852,339.6821 194.8052,353.5421" fill="none" id="NewLocal-to-NewLocalUploaded" style="stroke:#181818;stroke-width:1;"/><polygon fill="#181818" points="198.66,358.14,195.9431,348.6733,195.4477,354.3084,189.8126,353.813,198.66,358.14" style="stroke:#181818;stroke-width:1;"/><text fill="#000000" font-family="sans-serif" font-size="13" lengthAdjust="spacing" textLength="216.6138" x="188" y="324.6569">Wys&#322;anie nowego pliku lokalnego</text></g><!--link NewLocalUploaded to NewLocalPersisted--><g class="link" data-entity-1="NewLocalUploaded" data-entity-2="NewLocalPersisted" data-source-line="40" data-uid="lnk4" id="link_NewLocalUploaded_NewLocalPersisted"><path d="M272.23,447.34 C279.34,463.67 289.39,481.29 303,493.89 C324.66,513.94 346.9679,526.6048 374.2879,537.5148" fill="none" id="NewLocalUploaded-to-NewLocalPersisted" style="stroke:#181818;stroke-width:1;"/><polygon fill="#181818" points="379.86,539.74,372.9853,532.6875,375.2166,537.8857,370.0184,540.117,379.86,539.74" style="stroke:#181818;stroke-width:1;"/><text fill="#000000" font-family="sans-serif" font-size="13" lengthAdjust="spacing" textLength="177.709" x="304" y="489.9569">Utrwalenie stanu lokalnego</text></g><!--link NewLocalPersisted to FullSync--><g class="link" data-entity-1="NewLocalPersisted" data-entity-2="FullSync" data-source-line="42" data-uid="lnk5" id="link_NewLocalPersisted_FullSync"><path d="M511.03,612.62 C523.59,632.16 535.1239,650.1039 547.6939,669.6439" fill="none" id="NewLocalPersisted-to-FullSync" style="stroke:#181818;stroke-width:1;"/><polygon fill="#181818" points="550.94,674.69,549.4349,664.9568,548.2349,670.4849,542.7068,669.285,550.94,674.69" style="stroke:#181818;stroke-width:1;"/></g><!--link Init to NewRemote--><g class="link" data-entity-1="Init" data-entity-2="NewRemote" data-source-line="46" data-uid="lnk6" id="link_Init_NewRemote"><path d="M361.08,90.36 C390.22,102.43 417.21,115.23 429,125.29 C450.51,143.65 464.8009,164.9929 476.7209,187.5929" fill="none" id="Init-to-NewRemote" style="stroke:#181818;stroke-width:1;"/><polygon fill="#181818" points="479.52,192.9,478.8594,183.0733,477.1874,188.4774,471.7833,186.8055,479.52,192.9" style="stroke:#181818;stroke-width:1;"/><text fill="#000000" font-family="sans-serif" font-size="13" lengthAdjust="spacing" textLength="225.7607" x="445" y="138.3569">Wykrycie nowego pliku w chmurze</text></g><!--link NewRemote to NewRemoteDownloaded--><g class="link" data-entity-1="NewRemote" data-entity-2="NewRemoteDownloaded" data-source-line="49" data-uid="lnk7" id="link_NewRemote_NewRemoteDownloaded"><path d="M499,281.77 C499,305.39 499,328.55 499,352.2" fill="none" id="NewRemote-to-NewRemoteDownloaded" style="stroke:#181818;stroke-width:1;"/><polygon fill="#181818" points="499,358.2,503,349.2,499,353.2,495,349.2,499,358.2" style="stroke:#181818;stroke-width:1;"/><text fill="#000000" font-family="sans-serif" font-size="13" lengthAdjust="spacing" textLength="212.1577" x="500" y="324.6569">Pobranie nowego pliku z chmury</text></g><!--link NewRemoteDownloaded to NewLocalPersisted--><g class="link" data-entity-1="NewRemoteDownloaded" data-entity-2="NewLocalPersisted" data-source-line="51" data-uid="lnk8" id="link_NewRemoteDownloaded_NewLocalPersisted"><path d="M494.75,447.07 C492.44,470.69 490.1633,493.8784 487.8533,517.5284" fill="none" id="NewRemoteDownloaded-to-NewLocalPersisted" style="stroke:#181818;stroke-width:1;"/><polygon fill="#181818" points="487.27,523.5,492.126,514.9315,487.7561,518.5237,484.1639,514.1538,487.27,523.5" style="stroke:#181818;stroke-width:1;"/><text fill="#000000" font-family="sans-serif" font-size="13" lengthAdjust="spacing" textLength="177.709" x="492" y="489.9569">Utrwalenie stanu lokalnego</text></g><!--link FullSync to ModifiedLocal--><g class="link" data-entity-1="FullSync" data-entity-2="ModifiedLocal" data-source-line="56" data-uid="lnk9" id="link_FullSync_ModifiedLocal"><path d="M682.15,725.65 C752.91,733.19 846.72,751.12 919,793.48 C947.19,810 967.9646,832.6543 985.3346,856.1643" fill="none" id="FullSync-to-ModifiedLocal" style="stroke:#181818;stroke-width:1;"/><polygon fill="#181818" points="988.9,860.99,986.769,851.3744,985.9288,856.9686,980.3347,856.1283,988.9,860.99" style="stroke:#181818;stroke-width:1;"/><text fill="#000000" font-family="sans-serif" font-size="13" lengthAdjust="spacing" textLength="168.9873" x="942" y="806.5469">Lokalna modyfikacja pliku</text></g><!--link ModifiedLocal to ModifiedLocalUploaded--><g class="link" data-entity-1="ModifiedLocal" data-entity-2="ModifiedLocalUploaded" data-source-line="59" data-uid="lnk10" id="link_ModifiedLocal_ModifiedLocalUploaded"><path d="M993.1,950.02 C988.92,959.56 985.21,969.79 983,979.78 C979.53,995.46 981.0915,1006.533 987.3415,1021.153" fill="none" id="ModifiedLocal-to-ModifiedLocalUploaded" style="stroke:#181818;stroke-width:1;"/><polygon fill="#181818" points="989.7,1026.67,989.8403,1016.8221,987.7346,1022.0725,982.4842,1019.9668,989.7,1026.67" style="stroke:#181818;stroke-width:1;"/><text fill="#000000" font-family="sans-serif" font-size="13" lengthAdjust="spacing" textLength="283.6831" x="984" y="992.8469">Wys&#322;anie zmodyfikowanego pliku lokalnego</text></g><!--link ModifiedLocalUploaded to ModifiedLocalPersisted--><g class="link" data-entity-1="ModifiedLocalUploaded" data-entity-2="ModifiedLocalPersisted" data-source-line="62" data-uid="lnk11" id="link_ModifiedLocalUploaded_ModifiedLocalPersisted"><path d="M1028.68,1115.26 C1035.04,1138.88 1041.3402,1162.2363 1047.7102,1185.8963" fill="none" id="ModifiedLocalUploaded-to-ModifiedLocalPersisted" style="stroke:#181818;stroke-width:1;"/><polygon fill="#181818" points="1049.27,1191.69,1050.7927,1181.9596,1047.9701,1186.8619,1043.0678,1184.0394,1049.27,1191.69" style="stroke:#181818;stroke-width:1;"/><text fill="#000000" font-family="sans-serif" font-size="13" lengthAdjust="spacing" textLength="177.709" x="1041" y="1158.1369">Utrwalenie stanu lokalnego</text></g><!--reverse link FullSync to ModifiedLocalPersisted--><g class="link" data-entity-1="FullSync" data-entity-2="ModifiedLocalPersisted" data-source-line="64" data-uid="lnk13" id="link_FullSync_ModifiedLocalPersisted"><path d="M688.3173,726.3908 C823.2973,735.2008 1045.13,754.95 1119,793.48 C1132.39,800.46 1132.15,807.04 1142,818.48 C1206,892.78 1284.99,899.57 1272,996.78 C1261.91,1072.24 1276.67,1104.37 1227,1162.07 C1213.75,1177.47 1196.63,1189.75 1178.45,1199.51" fill="none" id="FullSync-backto-ModifiedLocalPersisted" style="stroke:#181818;stroke-width:1;"/><polygon fill="#181818" points="682.33,726,691.0504,730.5777,687.3194,726.3257,691.5714,722.5947,682.33,726" style="stroke:#181818;stroke-width:1;"/></g><!--link FullSync to ModifiedRemote--><g class="link" data-entity-1="FullSync" data-entity-2="ModifiedRemote" data-source-line="68" data-uid="lnk14" id="link_FullSync_ModifiedRemote"><path d="M619.8,763.54 C647.52,792.9 679.9406,827.2476 707.7406,856.6876" fill="none" id="FullSync-to-ModifiedRemote" style="stroke:#181818;stroke-width:1;"/><polygon fill="#181818" points="711.86,861.05,708.5892,851.7601,708.4272,857.4147,702.7726,857.2527,711.86,861.05" style="stroke:#181818;stroke-width:1;"/><text fill="#000000" font-family="sans-serif" font-size="13" lengthAdjust="spacing" textLength="249.3486" x="661" y="806.5469">Wykrycie modyfikacji pliku w chmurze</text></g><!--link ModifiedRemote to ModifiedRemoteDownloaded--><g class="link" data-entity-1="ModifiedRemote" data-entity-2="ModifiedRemoteDownloaded" data-source-line="71" data-uid="lnk15" id="link_ModifiedRemote_ModifiedRemoteDownloaded"><path d="M708.82,949.93 C701.93,959.09 695.83,969.2 692,979.78 C686.27,995.59 688.3308,1006.8491 697.2308,1021.2191" fill="none" id="ModifiedRemote-to-ModifiedRemoteDownloaded" style="stroke:#181818;stroke-width:1;"/><polygon fill="#181818" points="700.39,1026.32,699.0518,1016.5625,697.7573,1022.0692,692.2506,1020.7748,700.39,1026.32" style="stroke:#181818;stroke-width:1;"/><text fill="#000000" font-family="sans-serif" font-size="13" lengthAdjust="spacing" textLength="279.2271" x="693" y="992.8469">Pobranie zmodyfikowanego pliku z chmury</text></g><!--link ModifiedRemoteDownloaded to ModifiedRemotePersisted--><g class="link" data-entity-1="ModifiedRemoteDownloaded" data-entity-2="ModifiedRemotePersisted" data-source-line="74" data-uid="lnk16" id="link_ModifiedRemoteDownloaded_ModifiedRemotePersisted"><path d="M743.33,1115.26 C744.05,1138.88 744.755,1162.0329 745.485,1185.6929" fill="none" id="ModifiedRemoteDownloaded-to-ModifiedRemotePersisted" style="stroke:#181818;stroke-width:1;"/><polygon fill="#181818" points="745.67,1191.69,749.3905,1182.5709,745.5158,1186.6924,741.3944,1182.8176,745.67,1191.69" style="stroke:#181818;stroke-width:1;"/><text fill="#000000" font-family="sans-serif" font-size="13" lengthAdjust="spacing" textLength="177.709" x="745" y="1158.1369">Utrwalenie stanu lokalnego</text></g><!--reverse link FullSync to ModifiedRemotePersisted--><g class="link" data-entity-1="FullSync" data-entity-2="ModifiedRemotePersisted" data-source-line="76" data-uid="lnk18" id="link_FullSync_ModifiedRemotePersisted"><path d="M573.9674,769.8514 C567.9874,845.5314 564.68,998.45 622,1115.07 C636.67,1144.92 661.97,1171.39 685.98,1191.83" fill="none" id="FullSync-backto-ModifiedRemotePersisted" style="stroke:#181818;stroke-width:1;"/><polygon fill="#181818" points="574.44,763.87,569.7435,772.5269,574.0461,768.8545,577.7186,773.1571,574.44,763.87" style="stroke:#181818;stroke-width:1;"/></g><!--link FullSync to DeletedLocal--><g class="link" data-entity-1="FullSync" data-entity-2="DeletedLocal" data-source-line="82" data-uid="lnk19" id="link_FullSync_DeletedLocal"><path d="M475.82,739.66 C446.4,750.46 417.59,767.28 400,793.48 C386.87,813.03 385.9567,833.2711 389.6167,855.3011" fill="none" id="FullSync-to-DeletedLocal" style="stroke:#181818;stroke-width:1;"/><polygon fill="#181818" points="390.6,861.22,393.0709,851.6861,389.7805,856.2876,385.1791,852.9973,390.6,861.22" style="stroke:#181818;stroke-width:1;"/><text fill="#000000" font-family="sans-serif" font-size="13" lengthAdjust="spacing" textLength="151.9058" x="401" y="806.5469">Lokalne usuni&#281;cie pliku</text></g><!--link DeletedLocal to DeletedLocalUpload--><g class="link" data-entity-1="DeletedLocal" data-entity-2="DeletedLocalUpload" data-source-line="85" data-uid="lnk20" id="link_DeletedLocal_DeletedLocalUpload"><path d="M344.88,949.85 C333.19,963.81 326.28,980.04 333,996.78 C337.32,1007.54 340.1975,1013.037 347.8275,1022.067" fill="none" id="DeletedLocal-to-DeletedLocalUpload" style="stroke:#181818;stroke-width:1;"/><polygon fill="#181818" points="351.7,1026.65,348.9466,1017.1938,348.4729,1022.8308,342.836,1022.3571,351.7,1026.65" style="stroke:#181818;stroke-width:1;"/><text fill="#000000" font-family="sans-serif" font-size="13" lengthAdjust="spacing" textLength="218.6895" x="334" y="992.8469">&#379;&#261;danie usuni&#281;cia pliku z chmury</text></g><!--link DeletedLocalUpload to DeletedLocalPersisted--><g class="link" data-entity-1="DeletedLocalUpload" data-entity-2="DeletedLocalPersisted" data-source-line="88" data-uid="lnk21" id="link_DeletedLocalUpload_DeletedLocalPersisted"><path d="M352.48,1115.47 C333.68,1130.89 311.85,1147.91 291,1162.07 C275.99,1172.27 264.6489,1179.3874 248.5789,1188.7174" fill="none" id="DeletedLocalUpload-to-DeletedLocalPersisted" style="stroke:#181818;stroke-width:1;"/><polygon fill="#181818" points="243.39,1191.73,253.1817,1190.6704,247.7141,1189.2195,249.1649,1183.7519,243.39,1191.73" style="stroke:#181818;stroke-width:1;"/><text fill="#000000" font-family="sans-serif" font-size="13" lengthAdjust="spacing" textLength="177.709" x="314" y="1158.1369">Utrwalenie stanu lokalnego</text></g><!--reverse link Init to DeletedLocalPersisted--><g class="link" data-entity-1="Init" data-entity-2="DeletedLocalPersisted" data-source-line="90" data-uid="lnk23" id="link_Init_DeletedLocalPersisted"><path d="M149.1926,84.782 C79.6026,112.382 6,158.66 6,236.44 C6,236.44 6,236.44 6,1071.92 C6,1122.5 45.61,1163.57 84.91,1191.87" fill="none" id="Init-backto-DeletedLocalPersisted" style="stroke:#181818;stroke-width:1;"/><polygon fill="#181818" points="154.77,82.57,144.9293,82.1698,150.1222,84.4134,147.8786,89.6063,154.77,82.57" style="stroke:#181818;stroke-width:1;"/></g><!--link FullSync to DeletedRemote--><g class="link" data-entity-1="FullSync" data-entity-2="DeletedRemote" data-source-line="94" data-uid="lnk24" id="link_FullSync_DeletedRemote"><path d="M475.79,724.72 C368.21,731.65 209.81,749.25 170,793.48 C153.82,811.45 151.0452,832.4004 152.9352,855.2404" fill="none" id="FullSync-to-DeletedRemote" style="stroke:#181818;stroke-width:1;"/><polygon fill="#181818" points="153.43,861.22,156.6742,851.9208,153.0177,856.237,148.7014,852.5805,153.43,861.22" style="stroke:#181818;stroke-width:1;"/><text fill="#000000" font-family="sans-serif" font-size="13" lengthAdjust="spacing" textLength="212.0625" x="171" y="806.5469">Wykrycie braku pliku w chmurze</text></g><!--link DeletedRemote to DeletedRemoteDownload--><g class="link" data-entity-1="DeletedRemote" data-entity-2="DeletedRemoteDownload" data-source-line="97" data-uid="lnk25" id="link_DeletedRemote_DeletedRemoteDownload"><path d="M162,949.96 C162,973.58 162,996.74 162,1020.39" fill="none" id="DeletedRemote-to-DeletedRemoteDownload" style="stroke:#181818;stroke-width:1;"/><polygon fill="#181818" points="162,1026.39,166,1017.39,162,1021.39,158,1017.39,162,1026.39" style="stroke:#181818;stroke-width:1;"/><text fill="#000000" font-family="sans-serif" font-size="13" lengthAdjust="spacing" textLength="153.1626" x="163" y="992.8469">Usuni&#281;cie pliku lokalnie</text></g><!--link DeletedRemoteDownload to DeletedLocalPersisted--><g class="link" data-entity-1="DeletedRemoteDownload" data-entity-2="DeletedLocalPersisted" data-source-line="99" data-uid="lnk26" id="link_DeletedRemoteDownload_DeletedLocalPersisted"><path d="M123.1,1115.43 C116.9,1124.64 111.41,1134.73 108,1145.07 C102.7,1161.19 105.0678,1172.4804 114.4478,1186.7104" fill="none" id="DeletedRemoteDownload-to-DeletedLocalPersisted" style="stroke:#181818;stroke-width:1;"/><polygon fill="#181818" points="117.75,1191.72,116.1365,1182.0042,114.9982,1187.5454,109.4571,1186.4071,117.75,1191.72" style="stroke:#181818;stroke-width:1;"/><text fill="#000000" font-family="sans-serif" font-size="13" lengthAdjust="spacing" textLength="177.709" x="109" y="1158.1369">Utrwalenie stanu lokalnego</text></g><!--SRC=[pLR1Yjim4BtxAxJE7hgmflSU2WlBGY6xX6v38QK7hJMRg76a8DiOk-IoKFeDfP_Iw-v_LP9jMRALn6afD8SaZcUUtxnvCz6A4a2msMOb8f36WcupobaGd6q5Zu7a0j0jfkm-mncyEcTu0vVeFC4FaCZFNBrX_LPT14Y-KXM7mZeYH3X5EWTzrNUjYFcqkpkPpAPe8j7wGLTEq9KAmiEWXHEqK46L3je5Py28ASGfweF0BAMgrhyjRJBvH7YM0VdydrGPT0rxnsXsYK9vmL05WXTbU8cA5St0_RW80iRbOmHThZB47v5ArEZpAOfGdea29voLhokS5HG4gUG5eep0EaK9N-E4bJhyIeNZTPQhNxm12qz0HVHzMGPID9mIRl8akIzPBCkOmSiJmwXQSiBuoy_dxxAOH35U2bpwlyh2WaR1Qqumeu2s2LtdMimxA6veukbWztGPCkMnya5u9zNJoMqzdPHB0S2Cb0f1wOUYw2rg0T0RDDLf8DKikAZ0S0bqHj-GRU9yct1CW4W62rCuMYSKM1Qb80eG7H5B0isf9cCus8HQN4diOvc-F6bj62zWoMjQJPdo-Z316OYKffbcE6-Def1gjK8ZZxy_Da73oIPgy2NJ6bzB9xlA1Xo7EGgfjL0G3Blx7ZPSAMUrjq3nQfFB3WrcnTBKRd2DeOLSYpBkwsZmzkfO0rppWftGwxwgHig6ZaEkmvOqP_n13DjTrJJBmCMnCl-WApipVhUSb8zqZUCls1f1-Ijzf42EpM4RrmxZObF3yGApmLHQHYiXINWnKAbr18g8B4-MvU2RMSLeqsVjxw6JFcvY_OkhvbkJT3b5VPRU0QuiNKPFiWFh7-Tge7Ve4NUWiv_me9HJHdnFOfHl3qrwcsN6tMCWU-wFTsUlXORRe3CH7RSINAYnU-6uxNiKem5h_vhmcyhT5uTB-2UcykwdFSyzmLZzp9wpTjs9OfxcZ3x_Y9r3nJKaa1rVQ4rOkyyQgEpGBXDAlcEBpCQrpnmzglwcsSdrj8vsNFEd93dMn1mUKOzOZItflVnw_bQVoWn1FCfUDfhFNCEAmqP0zzZRfzemwnC-nKV-lDf5-bWT-ArWLbFF2yVNaX5zdnk6AqbEjjHur39oCDff6-sBJdD7R6i3UV6Lphq6DZfJ28P09kqF6xVx3G00]--></g></svg>