<svg xmlns="http://www.w3.org/2000/svg" xmlns:xlink="http://www.w3.org/1999/xlink" contentStyleType="text/css" data-diagram-type="SEQUENCE" height="743px" preserveAspectRatio="none" style="width:1104px;height:743px;background:#FFFFFF;" version="1.1" viewBox="0 0 1104 743" width="1104px" zoomAndPan="magnify"><defs/><g><g><title>Klient1</title><rect fill="#000000" fill-opacity="0.00000" height="671.7891" width="8" x="385.4214" y="36.2969"/><line style="stroke:#181818;stroke-width:0.5;stroke-dasharray:5.0,5.0;" x1="389" x2="389" y1="36.2969" y2="708.0859"/></g><g><title>Serwer</title><rect fill="#000000" fill-opacity="0.00000" height="671.7891" width="8" x="652.5493" y="36.2969"/><line style="stroke:#181818;stroke-width:0.5;stroke-dasharray:5.0,5.0;" x1="656.0117" x2="656.0117" y1="36.2969" y2="708.0859"/></g><g><title>Klient2</title><rect fill="#000000" fill-opacity="0.00000" height="671.7891" width="8" x="944.5918" y="36.2969"/><line style="stroke:#181818;stroke-width:0.5;stroke-dasharray:5.0,5.0;" x1="948.1704" x2="948.1704" y1="36.2969" y2="708.0859"/></g><g class="participant participant-head" data-participant="Klient1"><rect fill="#E2E2F0" height="30.2969" rx="2.5" ry="2.5" style="stroke:#181818;stroke-width:0.5;" width="62.8428" x="358" y="5"/><text fill="#000000" font-family="sans-serif" font-size="14" lengthAdjust="spacing" textLength="48.8428" x="365" y="24.9951">Klient1</text></g><g class="participant participant-tail" data-participant="Klient1"><rect fill="#E2E2F0" height="30.2969" rx="2.5" ry="2.5" style="stroke:#181818;stroke-width:0.5;" width="62.8428" x="358" y="707.0859"/><text fill="#000000" font-family="sans-serif" font-size="14" lengthAdjust="spacing" textLength="48.8428" x="365" y="727.0811">Klient1</text></g><g class="participant participant-head" data-participant="Serwer"><rect fill="#E2E2F0" height="30.2969" rx="2.5" ry="2.5" style="stroke:#181818;stroke-width:0.5;" width="63.0752" x="625.0117" y="5"/><text fill="#000000" font-family="sans-serif" font-size="14" lengthAdjust="spacing" textLength="49.0752" x="632.0117" y="24.9951">Serwer</text></g><g class="participant participant-tail" data-participant="Serwer"><rect fill="#E2E2F0" height="30.2969" rx="2.5" ry="2.5" style="stroke:#181818;stroke-width:0.5;" width="63.0752" x="625.0117" y="707.0859"/><text fill="#000000" font-family="sans-serif" font-size="14" lengthAdjust="spacing" textLength="49.0752" x="632.0117" y="727.0811">Serwer</text></g><g class="participant participant-head" data-participant="Klient2"><rect fill="#E2E2F0" height="30.2969" rx="2.5" ry="2.5" style="stroke:#181818;stroke-width:0.5;" width="62.8428" x="917.1704" y="5"/><text fill="#000000" font-family="sans-serif" font-size="14" lengthAdjust="spacing" textLength="48.8428" x="924.1704" y="24.9951">Klient2</text></g><g class="participant participant-tail" data-participant="Klient2"><rect fill="#E2E2F0" height="30.2969" rx="2.5" ry="2.5" style="stroke:#181818;stroke-width:0.5;" width="62.8428" x="917.1704" y="707.0859"/><text fill="#000000" font-family="sans-serif" font-size="14" lengthAdjust="spacing" textLength="48.8428" x="924.1704" y="727.0811">Klient2</text></g><path d="M308,51.2969 L308,76.2969 L470,76.2969 L470,61.2969 L460,51.2969 L308,51.2969" fill="#FEFFDD" style="stroke:#181818;stroke-width:0.5;"/><path d="M460,51.2969 L460,61.2969 L470,61.2969 L460,51.2969" fill="#FEFFDD" style="stroke:#181818;stroke-width:0.5;"/><text fill="#000000" font-family="sans-serif" font-size="13" lengthAdjust="spacing" textLength="141.7305" x="314" y="68.3638">W&#322;&#261;czenie urz&#261;dzenia</text><g class="message" data-participant-1="Klient1" data-participant-2="Serwer"><polygon fill="#181818" points="644.5493,98.5625,654.5493,102.5625,644.5493,106.5625,648.5493,102.5625" style="stroke:#181818;stroke-width:1;"/><line style="stroke:#181818;stroke-width:1;" x1="389.4214" x2="650.5493" y1="102.5625" y2="102.5625"/><text fill="#000000" font-family="sans-serif" font-size="13" lengthAdjust="spacing" textLength="243.1279" x="401.4214" y="97.4966">Pobranie obecnego stanu - GET /sync</text></g><g class="message" data-participant-1="Serwer" data-participant-2="Klient1"><polygon fill="#181818" points="400.4214,127.6953,390.4214,131.6953,400.4214,135.6953,396.4214,131.6953" style="stroke:#181818;stroke-width:1;"/><line style="stroke:#181818;stroke-width:1;stroke-dasharray:2.0,2.0;" x1="394.4214" x2="655.5493" y1="131.6953" y2="131.6953"/><text fill="#000000" font-family="sans-serif" font-size="13" lengthAdjust="spacing" textLength="81.6563" x="482.1572" y="126.6294">FileVersion[]</text></g><path d="M191,144.6953 L191,169.6953 L587,169.6953 L587,154.6953 L577,144.6953 L191,144.6953" fill="#FEFFDD" style="stroke:#181818;stroke-width:0.5;"/><path d="M577,144.6953 L577,154.6953 L587,154.6953 L577,144.6953" fill="#FEFFDD" style="stroke:#181818;stroke-width:0.5;"/><text fill="#000000" font-family="sans-serif" font-size="13" lengthAdjust="spacing" textLength="375.1528" x="197" y="161.7622">Skan plik&#243;w - wykryto lokalny plik nieb&#281;d&#261;cy na serwerze</text><g class="message" data-participant-1="Klient1" data-participant-2="Serwer"><polygon fill="#181818" points="644.5493,191.9609,654.5493,195.9609,644.5493,199.9609,648.5493,195.9609" style="stroke:#181818;stroke-width:1;"/><line style="stroke:#181818;stroke-width:1;" x1="389.4214" x2="650.5493" y1="195.9609" y2="195.9609"/><text fill="#000000" font-family="sans-serif" font-size="13" lengthAdjust="spacing" textLength="224.8975" x="410.5366" y="190.895">Wys&#322;anie nowego pliku - POST /file</text></g><g class="message" data-participant-1="Serwer" data-participant-2="Klient1"><polygon fill="#181818" points="400.4214,221.0938,390.4214,225.0938,400.4214,229.0938,396.4214,225.0938" style="stroke:#181818;stroke-width:1;"/><line style="stroke:#181818;stroke-width:1;stroke-dasharray:2.0,2.0;" x1="394.4214" x2="655.5493" y1="225.0938" y2="225.0938"/><text fill="#000000" font-family="sans-serif" font-size="13" lengthAdjust="spacing" textLength="71.5127" x="487.229" y="220.0278">FileVersion</text></g><path d="M304,238.0938 L304,263.0938 L474,263.0938 L474,248.0938 L464,238.0938 L304,238.0938" fill="#FEFFDD" style="stroke:#181818;stroke-width:0.5;"/><path d="M464,238.0938 L464,248.0938 L474,248.0938 L464,238.0938" fill="#FEFFDD" style="stroke:#181818;stroke-width:0.5;"/><text fill="#000000" font-family="sans-serif" font-size="13" lengthAdjust="spacing" textLength="149.4238" x="310" y="255.1606">Wy&#322;&#261;czenie urz&#261;dzenia</text><path d="M867,273.2266 L867,298.2266 L1029,298.2266 L1029,283.2266 L1019,273.2266 L867,273.2266" fill="#FEFFDD" style="stroke:#181818;stroke-width:0.5;"/><path d="M1019,273.2266 L1019,283.2266 L1029,283.2266 L1019,273.2266" fill="#FEFFDD" style="stroke:#181818;stroke-width:0.5;"/><text fill="#000000" font-family="sans-serif" font-size="13" lengthAdjust="spacing" textLength="141.7305" x="873" y="290.2935">W&#322;&#261;czenie urz&#261;dzenia</text><g class="message" data-participant-1="Klient2" data-participant-2="Serwer"><polygon fill="#181818" points="667.5493,320.4922,657.5493,324.4922,667.5493,328.4922,663.5493,324.4922" style="stroke:#181818;stroke-width:1;"/><line style="stroke:#181818;stroke-width:1;" x1="661.5493" x2="947.5918" y1="324.4922" y2="324.4922"/><text fill="#000000" font-family="sans-serif" font-size="13" lengthAdjust="spacing" textLength="243.1279" x="681.0066" y="319.4263">Pobranie obecnego stanu - GET /sync</text></g><g class="message" data-participant-1="Serwer" data-participant-2="Klient2"><polygon fill="#181818" points="936.5918,349.625,946.5918,353.625,936.5918,357.625,940.5918,353.625" style="stroke:#181818;stroke-width:1;"/><line style="stroke:#181818;stroke-width:1;stroke-dasharray:2.0,2.0;" x1="656.5493" x2="942.5918" y1="353.625" y2="353.625"/><text fill="#000000" font-family="sans-serif" font-size="13" lengthAdjust="spacing" textLength="81.6563" x="761.7424" y="348.5591">FileVersion[]</text></g><path d="M800,366.625 L800,391.625 L1097,391.625 L1097,376.625 L1087,366.625 L800,366.625" fill="#FEFFDD" style="stroke:#181818;stroke-width:0.5;"/><path d="M1087,366.625 L1087,376.625 L1097,376.625 L1087,366.625" fill="#FEFFDD" style="stroke:#181818;stroke-width:0.5;"/><text fill="#000000" font-family="sans-serif" font-size="13" lengthAdjust="spacing" textLength="276.1484" x="806" y="383.6919">Skan plik&#243;w - nie wykryto lokalnych zmian</text><g class="message" data-participant-1="Klient2" data-participant-2="Serwer"><polygon fill="#181818" points="667.5493,413.8906,657.5493,417.8906,667.5493,421.8906,663.5493,417.8906" style="stroke:#181818;stroke-width:1;"/><line style="stroke:#181818;stroke-width:1;" x1="661.5493" x2="947.5918" y1="417.8906" y2="417.8906"/><text fill="#000000" font-family="sans-serif" font-size="13" lengthAdjust="spacing" textLength="268.0425" x="668.5493" y="412.8247">Pobranie nowego pliku - GET /file/{fileId}</text></g><g class="message" data-participant-1="Serwer" data-participant-2="Klient2"><polygon fill="#181818" points="936.5918,443.0234,946.5918,447.0234,936.5918,451.0234,940.5918,447.0234" style="stroke:#181818;stroke-width:1;"/><line style="stroke:#181818;stroke-width:1;stroke-dasharray:2.0,2.0;" x1="656.5493" x2="942.5918" y1="447.0234" y2="447.0234"/><text fill="#000000" font-family="sans-serif" font-size="13" lengthAdjust="spacing" textLength="85.7188" x="759.7112" y="441.9575">FileResponse</text></g><path d="M816,460.0234 L816,485.0234 L1080,485.0234 L1080,470.0234 L1070,460.0234 L816,460.0234" fill="#FEFFDD" style="stroke:#181818;stroke-width:0.5;"/><path d="M1070,460.0234 L1070,470.0234 L1080,470.0234 L1070,460.0234" fill="#FEFFDD" style="stroke:#181818;stroke-width:0.5;"/><text fill="#000000" font-family="sans-serif" font-size="13" lengthAdjust="spacing" textLength="243.9722" x="822" y="477.0903">Skan plik&#243;w - wykryto usuni&#281;cie pliku</text><g class="message" data-participant-1="Klient2" data-participant-2="Serwer"><polygon fill="#181818" points="667.5493,507.2891,657.5493,511.2891,667.5493,515.2891,663.5493,511.2891" style="stroke:#181818;stroke-width:1;"/><line style="stroke:#181818;stroke-width:1;" x1="661.5493" x2="947.5918" y1="511.2891" y2="511.2891"/><text fill="#000000" font-family="sans-serif" font-size="13" lengthAdjust="spacing" textLength="242.417" x="681.3621" y="506.2231">Usuni&#281;cie pliku - DELETE /file/{fileId}</text></g><path d="M308,524.2891 L308,549.2891 L470,549.2891 L470,534.2891 L460,524.2891 L308,524.2891" fill="#FEFFDD" style="stroke:#181818;stroke-width:0.5;"/><path d="M460,524.2891 L460,534.2891 L470,534.2891 L460,524.2891" fill="#FEFFDD" style="stroke:#181818;stroke-width:0.5;"/><text fill="#000000" font-family="sans-serif" font-size="13" lengthAdjust="spacing" textLength="141.7305" x="314" y="541.356">W&#322;&#261;czenie urz&#261;dzenia</text><g class="message" data-participant-1="Klient1" data-participant-2="Serwer"><polygon fill="#181818" points="644.5493,571.5547,654.5493,575.5547,644.5493,579.5547,648.5493,575.5547" style="stroke:#181818;stroke-width:1;"/><line style="stroke:#181818;stroke-width:1;" x1="389.4214" x2="650.5493" y1="575.5547" y2="575.5547"/><text fill="#000000" font-family="sans-serif" font-size="13" lengthAdjust="spacing" textLength="175.2017" x="435.3845" y="570.4888">Pobranie stanu - GET /sync</text></g><g class="message" data-participant-1="Serwer" data-participant-2="Klient1"><polygon fill="#181818" points="400.4214,600.6875,390.4214,604.6875,400.4214,608.6875,396.4214,604.6875" style="stroke:#181818;stroke-width:1;"/><line style="stroke:#181818;stroke-width:1;stroke-dasharray:2.0,2.0;" x1="394.4214" x2="655.5493" y1="604.6875" y2="604.6875"/><text fill="#000000" font-family="sans-serif" font-size="13" lengthAdjust="spacing" textLength="81.6563" x="482.1572" y="599.6216">FileVersion[]</text></g><path d="M208,617.6875 L208,657.6875 L570,657.6875 L570,627.6875 L560,617.6875 L208,617.6875" fill="#FEFFDD" style="stroke:#181818;stroke-width:0.5;"/><path d="M560,617.6875 L560,627.6875 L570,627.6875 L560,617.6875" fill="#FEFFDD" style="stroke:#181818;stroke-width:0.5;"/><text fill="#000000" font-family="sans-serif" font-size="13" lengthAdjust="spacing" textLength="341.7261" x="214" y="634.7544">Skan plik&#243;w - plik nadal znajduje si&#281; na komputerze,</text><text fill="#000000" font-family="sans-serif" font-size="13" lengthAdjust="spacing" textLength="172.0405" x="214" y="649.8872">ale nie ma go na serwerze</text><g class="message" data-participant-1="Klient1" data-participant-2="Serwer"><polygon fill="#181818" points="644.5493,683.0859,654.5493,687.0859,644.5493,691.0859,648.5493,687.0859" style="stroke:#181818;stroke-width:1;"/><line style="stroke:#181818;stroke-width:1;" x1="389.4214" x2="650.5493" y1="687.0859" y2="687.0859"/><text fill="#000000" font-family="sans-serif" font-size="13" lengthAdjust="spacing" textLength="6.8999" x="519.5354" y="682.02">?</text></g><path d="M5,667.9531 L5,692.9531 L385,692.9531 L385,677.9531 L375,667.9531 L5,667.9531" fill="#FEFFDD" style="stroke:#181818;stroke-width:0.5;"/><path d="M375,667.9531 L375,677.9531 L385,677.9531 L375,667.9531" fill="#FEFFDD" style="stroke:#181818;stroke-width:0.5;"/><text fill="#000000" font-family="sans-serif" font-size="13" lengthAdjust="spacing" textLength="359.0679" x="11" y="685.02">Czy mam nowy plik czy plik do usuni&#281;cia z komputera?</text><!--SRC=[hPF1Ji9048RlVOfv00cHep4IesYC6ecW78o7eHrmwNOMTrj9QxoGy10yXuzWUIztQo6a4Y66IxFfplppxR__cb3m63L6OEWr8VRfbep18PrACMJmYMFIdkUnYWdK6scubiB-FFHwYsa-ypDYGP3eB9y5ReqUSG2ksZQLfL0xWGxfYMq-WhRgQtGzgay-qr21YP4JgC5bgmjraxBlQOeJpN0X93sIDaBnq_CcX4w836Cfmg_FYHMOfA5EOmLIXIWvBNR0Zkhdyy2Yfi1eJ-auCbh3t4JPIyrYMc2ocZX8f-KWstSTIpcmP1ieDzgKRlVfLrjZ1tTBrkFQicUlvZQgvZhLYi7-2sIHGDuLgc9bWUIShB-xxrNmiSvsJsQisD0EQ4kin2GiyhblHnKpjd0zLCgjqddhfjLjLQd-6Vy_qx-tqF-470EKa36EWcHanUsnNDX35OsJsCNzm4D9nHr62FOETdy9pP91qY3sphBK2aJk9ildvMVb8bZp7o5RpSRcQi0t]--></g></svg>