<svg xmlns="http://www.w3.org/2000/svg" xmlns:xlink="http://www.w3.org/1999/xlink" contentStyleType="text/css" data-diagram-type="SEQUENCE" height="319px" preserveAspectRatio="none" style="width:964px;height:319px;background:#FFFFFF;" version="1.1" viewBox="0 0 964 319" width="964px" zoomAndPan="magnify"><defs/><g><g><title>Klient1</title><rect fill="#000000" fill-opacity="0.00000" height="247.9297" width="8" x="155.8267" y="36.2969"/><line style="stroke:#181818;stroke-width:0.5;stroke-dasharray:5.0,5.0;" x1="159.4053" x2="159.4053" y1="36.2969" y2="284.2266"/></g><g><title>Serwer</title><rect fill="#000000" fill-opacity="0.00000" height="247.9297" width="8" x="475.48" y="36.2969"/><line style="stroke:#181818;stroke-width:0.5;stroke-dasharray:5.0,5.0;" x1="478.9424" x2="478.9424" y1="36.2969" y2="284.2266"/></g><g><title>Klient2</title><rect fill="#000000" fill-opacity="0.00000" height="247.9297" width="8" x="795.1333" y="36.2969"/><line style="stroke:#181818;stroke-width:0.5;stroke-dasharray:5.0,5.0;" x1="798.7119" x2="798.7119" y1="36.2969" y2="284.2266"/></g><g class="participant participant-head" data-participant="Klient1"><rect fill="#E2E2F0" height="30.2969" rx="2.5" ry="2.5" style="stroke:#181818;stroke-width:0.5;" width="62.8428" x="128.4053" y="5"/><text fill="#000000" font-family="sans-serif" font-size="14" lengthAdjust="spacing" textLength="48.8428" x="135.4053" y="24.9951">Klient1</text></g><g class="participant participant-tail" data-participant="Klient1"><rect fill="#E2E2F0" height="30.2969" rx="2.5" ry="2.5" style="stroke:#181818;stroke-width:0.5;" width="62.8428" x="128.4053" y="283.2266"/><text fill="#000000" font-family="sans-serif" font-size="14" lengthAdjust="spacing" textLength="48.8428" x="135.4053" y="303.2217">Klient1</text></g><g class="participant participant-head" data-participant="Serwer"><rect fill="#E2E2F0" height="30.2969" rx="2.5" ry="2.5" style="stroke:#181818;stroke-width:0.5;" width="63.0752" x="447.9424" y="5"/><text fill="#000000" font-family="sans-serif" font-size="14" lengthAdjust="spacing" textLength="49.0752" x="454.9424" y="24.9951">Serwer</text></g><g class="participant participant-tail" data-participant="Serwer"><rect fill="#E2E2F0" height="30.2969" rx="2.5" ry="2.5" style="stroke:#181818;stroke-width:0.5;" width="63.0752" x="447.9424" y="283.2266"/><text fill="#000000" font-family="sans-serif" font-size="14" lengthAdjust="spacing" textLength="49.0752" x="454.9424" y="303.2217">Serwer</text></g><g class="participant participant-head" data-participant="Klient2"><rect fill="#E2E2F0" height="30.2969" rx="2.5" ry="2.5" style="stroke:#181818;stroke-width:0.5;" width="62.8428" x="767.7119" y="5"/><text fill="#000000" font-family="sans-serif" font-size="14" lengthAdjust="spacing" textLength="48.8428" x="774.7119" y="24.9951">Klient2</text></g><g class="participant participant-tail" data-participant="Klient2"><rect fill="#E2E2F0" height="30.2969" rx="2.5" ry="2.5" style="stroke:#181818;stroke-width:0.5;" width="62.8428" x="767.7119" y="283.2266"/><text fill="#000000" font-family="sans-serif" font-size="14" lengthAdjust="spacing" textLength="48.8428" x="774.7119" y="303.2217">Klient2</text></g><path d="M5,51.2969 L5,76.2969 L314,76.2969 L314,61.2969 L304,51.2969 L5,51.2969" fill="#FEFFDD" style="stroke:#181818;stroke-width:0.5;"/><path d="M304,51.2969 L304,61.2969 L314,61.2969 L304,51.2969" fill="#FEFFDD" style="stroke:#181818;stroke-width:0.5;"/><text fill="#000000" font-family="sans-serif" font-size="13" lengthAdjust="spacing" textLength="288.6533" x="11" y="68.3638">Data systemowa - 2025-04-30 12:00 UTC+0</text><path d="M324,51.2969 L324,76.2969 L633,76.2969 L633,61.2969 L623,51.2969 L324,51.2969" fill="#FEFFDD" style="stroke:#181818;stroke-width:0.5;"/><path d="M623,51.2969 L623,61.2969 L633,61.2969 L623,51.2969" fill="#FEFFDD" style="stroke:#181818;stroke-width:0.5;"/><text fill="#000000" font-family="sans-serif" font-size="13" lengthAdjust="spacing" textLength="288.6533" x="330" y="68.3638">Data systemowa - 2025-04-30 12:00 UTC+0</text><path d="M644,51.2969 L644,76.2969 L953,76.2969 L953,61.2969 L943,51.2969 L644,51.2969" fill="#FEFFDD" style="stroke:#181818;stroke-width:0.5;"/><path d="M943,51.2969 L943,61.2969 L953,61.2969 L943,51.2969" fill="#FEFFDD" style="stroke:#181818;stroke-width:0.5;"/><text fill="#000000" font-family="sans-serif" font-size="13" lengthAdjust="spacing" textLength="288.6533" x="650" y="68.3638">Data systemowa - 2025-04-30 13:00 UTC+0</text><g class="message" data-participant-1="Klient1" data-participant-2="Serwer"><polygon fill="#181818" points="467.48,98.5625,477.48,102.5625,467.48,106.5625,471.48,102.5625" style="stroke:#181818;stroke-width:1;"/><line style="stroke:#181818;stroke-width:1;" x1="159.8267" x2="473.48" y1="102.5625" y2="102.5625"/><text fill="#000000" font-family="sans-serif" font-size="13" lengthAdjust="spacing" textLength="178.877" x="230.2148" y="97.4966">Wys&#322;anie nowej wersji pliku</text></g><path d="M290,115.5625 L290,140.5625 L667,140.5625 L667,125.5625 L657,115.5625 L290,115.5625" fill="#FEFFDD" style="stroke:#181818;stroke-width:0.5;"/><path d="M657,115.5625 L657,125.5625 L667,125.5625 L657,115.5625" fill="#FEFFDD" style="stroke:#181818;stroke-width:0.5;"/><text fill="#000000" font-family="sans-serif" font-size="13" lengthAdjust="spacing" textLength="356.2813" x="296" y="132.6294">Zapisanie wersji pliku z dat&#261; 2025-04-30 12:01 UTC+0</text><path d="M705,150.6953 L705,175.6953 L892,175.6953 L892,160.6953 L882,150.6953 L705,150.6953" fill="#FEFFDD" style="stroke:#181818;stroke-width:0.5;"/><path d="M882,150.6953 L882,160.6953 L892,160.6953 L882,150.6953" fill="#FEFFDD" style="stroke:#181818;stroke-width:0.5;"/><text fill="#000000" font-family="sans-serif" font-size="13" lengthAdjust="spacing" textLength="166.9751" x="711" y="167.7622">2025-04-30 13:01 UTC+0</text><g class="message" data-participant-1="Serwer" data-participant-2="Klient2"><polygon fill="#181818" points="787.1333,197.9609,797.1333,201.9609,787.1333,205.9609,791.1333,201.9609" style="stroke:#181818;stroke-width:1;"/><line style="stroke:#181818;stroke-width:1;" x1="479.48" x2="793.1333" y1="201.9609" y2="201.9609"/><text fill="#000000" font-family="sans-serif" font-size="13" lengthAdjust="spacing" textLength="97.6523" x="590.4805" y="196.895">Pobranie stanu</text></g><path d="M639,214.9609 L639,239.9609 L957,239.9609 L957,224.9609 L947,214.9609 L639,214.9609" fill="#FEFFDD" style="stroke:#181818;stroke-width:0.5;"/><path d="M947,214.9609 L947,224.9609 L957,224.9609 L947,214.9609" fill="#FEFFDD" style="stroke:#181818;stroke-width:0.5;"/><text fill="#000000" font-family="sans-serif" font-size="13" lengthAdjust="spacing" textLength="297.4067" x="645" y="232.0278">Plik na serwerze jest wci&#261;&#380; starszy od mojego</text><g class="message" data-participant-1="Klient2" data-participant-2="Serwer"><polygon fill="#181818" points="490.48,262.2266,480.48,266.2266,490.48,270.2266,486.48,266.2266" style="stroke:#181818;stroke-width:1;"/><line style="stroke:#181818;stroke-width:1;" x1="484.48" x2="798.1333" y1="266.2266" y2="266.2266"/><text fill="#000000" font-family="sans-serif" font-size="13" lengthAdjust="spacing" textLength="250.9927" x="513.8103" y="261.1606">Wys&#322;anie starej wersji pliku jako nowej</text></g><!--SRC=[fP1FIyD05CJl-odcBi4arKiHGVGcGa55yBOcZxBvinltRGp9KUYtyjX-BpTfe24fNhm-PkRzPZXNkf9Mbc3wh4adz4JCSajtXTfg9AGTMI64DevWliZYiL3-68a7wIIuPKUbQIG2n65y7OHNmIf45A_34AylznUX89sYTujBd4AUoJO-zryPHv3uxv3LcH0nLa1mEu9WZRUM3zzIA_AQXZBuAsSALQ7oUbf_97-NbU91FXMYGohTVZVl4IqGbZLcr4lBYEgXHukdtfWFEr2maxe-5xlnND1-eC7T4J9YXoPH-ztXfxTPxbgO5AN9Q6kM_sw2oR_JIhrpDXCocPlZVBy0]--></g></svg>