<?xml version="1.0" encoding="us-ascii" standalone="no"?><svg xmlns="http://www.w3.org/2000/svg" xmlns:xlink="http://www.w3.org/1999/xlink" contentStyleType="text/css" height="1568px" preserveAspectRatio="none" style="width:1347px;height:1568px;background:#FFFFFF;" version="1.1" viewBox="0 0 1347 1568" width="1347px" zoomAndPan="magnify"><defs/><g><!--cluster CloudDrive.Core--><g id="cluster_CloudDrive.Core"><rect fill="none" height="565" rx="2.5" ry="2.5" style="stroke:#181818;stroke-width:1.0;" width="1334" x="7" y="7"/><rect fill="none" height="10" style="stroke:#181818;stroke-width:1.0;" width="15" x="1321" y="12"/><rect fill="none" height="2" style="stroke:#181818;stroke-width:1.0;" width="4" x="1319" y="14"/><rect fill="none" height="2" style="stroke:#181818;stroke-width:1.0;" width="4" x="1319" y="18"/><text fill="#000000" font-family="sans-serif" font-size="14" font-weight="bold" lengthAdjust="spacing" textLength="117" x="615.5" y="34.5332">CloudDrive.Core</text></g><!--cluster CloudDrive.Core.Domain.Entites--><g id="cluster_CloudDrive.Core.Domain.Entites"><rect fill="none" height="183" rx="2.5" ry="2.5" style="stroke:#181818;stroke-width:1.0;" width="381" x="54" y="59"/><rect fill="none" height="10" style="stroke:#181818;stroke-width:1.0;" width="15" x="415" y="64"/><rect fill="none" height="2" style="stroke:#181818;stroke-width:1.0;" width="4" x="413" y="66"/><rect fill="none" height="2" style="stroke:#181818;stroke-width:1.0;" width="4" x="413" y="70"/><text fill="#000000" font-family="sans-serif" font-size="14" font-weight="bold" lengthAdjust="spacing" textLength="226" x="131.5" y="86.5332">CloudDrive.Core.Domain.Entites</text></g><!--cluster CloudDrive.Core.DTO--><g id="cluster_CloudDrive.Core.DTO"><rect fill="none" height="183" rx="2.5" ry="2.5" style="stroke:#181818;stroke-width:1.0;" width="411" x="39" y="266"/><rect fill="none" height="10" style="stroke:#181818;stroke-width:1.0;" width="15" x="430" y="271"/><rect fill="none" height="2" style="stroke:#181818;stroke-width:1.0;" width="4" x="428" y="273"/><rect fill="none" height="2" style="stroke:#181818;stroke-width:1.0;" width="4" x="428" y="277"/><text fill="#000000" font-family="sans-serif" font-size="14" font-weight="bold" lengthAdjust="spacing" textLength="150" x="169.5" y="293.5332">CloudDrive.Core.DTO</text></g><!--cluster CloudDrive.Core.Mappers--><g id="cluster_CloudDrive.Core.Mappers"><rect fill="none" height="183" rx="2.5" ry="2.5" style="stroke:#181818;stroke-width:1.0;" width="403.5" x="643.5" y="59"/><rect fill="none" height="10" style="stroke:#181818;stroke-width:1.0;" width="15" x="1027" y="64"/><rect fill="none" height="2" style="stroke:#181818;stroke-width:1.0;" width="4" x="1025" y="66"/><rect fill="none" height="2" style="stroke:#181818;stroke-width:1.0;" width="4" x="1025" y="70"/><text fill="#000000" font-family="sans-serif" font-size="14" font-weight="bold" lengthAdjust="spacing" textLength="183" x="753.75" y="86.5332">CloudDrive.Core.Mappers</text></g><!--cluster CloudDrive.Core.Services--><g id="cluster_CloudDrive.Core.Services"><rect fill="none" height="266" rx="2.5" ry="2.5" style="stroke:#181818;stroke-width:1.0;" width="677" x="632" y="266"/><rect fill="none" height="10" style="stroke:#181818;stroke-width:1.0;" width="15" x="1289" y="271"/><rect fill="none" height="2" style="stroke:#181818;stroke-width:1.0;" width="4" x="1287" y="273"/><rect fill="none" height="2" style="stroke:#181818;stroke-width:1.0;" width="4" x="1287" y="277"/><text fill="#000000" font-family="sans-serif" font-size="14" font-weight="bold" lengthAdjust="spacing" textLength="183" x="879" y="293.5332">CloudDrive.Core.Services</text></g><!--cluster CloudDrive.Infrastructure--><g id="cluster_CloudDrive.Infrastructure"><rect fill="none" height="482" rx="2.5" ry="2.5" style="stroke:#181818;stroke-width:1.0;" width="907" x="212" y="612"/><rect fill="none" height="10" style="stroke:#181818;stroke-width:1.0;" width="15" x="1099" y="617"/><rect fill="none" height="2" style="stroke:#181818;stroke-width:1.0;" width="4" x="1097" y="619"/><rect fill="none" height="2" style="stroke:#181818;stroke-width:1.0;" width="4" x="1097" y="623"/><text fill="#000000" font-family="sans-serif" font-size="14" font-weight="bold" lengthAdjust="spacing" textLength="180" x="575.5" y="639.5332">CloudDrive.Infrastructure</text></g><!--cluster CloudDrive.Infrastructure.Services--><g id="cluster_CloudDrive.Infrastructure.Services"><rect fill="none" height="266" rx="2.5" ry="2.5" style="stroke:#181818;stroke-width:1.0;" width="809" x="278" y="664"/><rect fill="none" height="10" style="stroke:#181818;stroke-width:1.0;" width="15" x="1067" y="669"/><rect fill="none" height="2" style="stroke:#181818;stroke-width:1.0;" width="4" x="1065" y="671"/><rect fill="none" height="2" style="stroke:#181818;stroke-width:1.0;" width="4" x="1065" y="675"/><text fill="#000000" font-family="sans-serif" font-size="14" font-weight="bold" lengthAdjust="spacing" textLength="246" x="559.5" y="691.5332">CloudDrive.Infrastructure.Services</text></g><!--cluster CloudDrive.Infrastructure.Repositories--><g id="cluster_CloudDrive.Infrastructure.Repositories"><rect fill="none" height="100" rx="2.5" ry="2.5" style="stroke:#181818;stroke-width:1.0;" width="290" x="244" y="954"/><rect fill="none" height="10" style="stroke:#181818;stroke-width:1.0;" width="15" x="514" y="959"/><rect fill="none" height="2" style="stroke:#181818;stroke-width:1.0;" width="4" x="512" y="961"/><rect fill="none" height="2" style="stroke:#181818;stroke-width:1.0;" width="4" x="512" y="965"/><text fill="#000000" font-family="sans-serif" font-size="14" font-weight="bold" lengthAdjust="spacing" textLength="274" x="252" y="981.5332">CloudDrive.Infrastructure.Repositories</text></g><!--cluster CloudDrive.WebAPI--><g id="cluster_CloudDrive.WebAPI"><rect fill="none" height="428" rx="2.5" ry="2.5" style="stroke:#181818;stroke-width:1.0;" width="721.5" x="606" y="1134"/><rect fill="none" height="10" style="stroke:#181818;stroke-width:1.0;" width="15" x="1307.5" y="1139"/><rect fill="none" height="2" style="stroke:#181818;stroke-width:1.0;" width="4" x="1305.5" y="1141"/><rect fill="none" height="2" style="stroke:#181818;stroke-width:1.0;" width="4" x="1305.5" y="1145"/><text fill="#000000" font-family="sans-serif" font-size="14" font-weight="bold" lengthAdjust="spacing" textLength="136" x="898.75" y="1161.5332">CloudDrive.WebAPI</text></g><!--cluster CloudDrive.WebAPI.Controllers--><g id="cluster_CloudDrive.WebAPI.Controllers"><rect fill="none" height="266" rx="2.5" ry="2.5" style="stroke:#181818;stroke-width:1.0;" width="657.5" x="638" y="1186"/><rect fill="none" height="10" style="stroke:#181818;stroke-width:1.0;" width="15" x="1275.5" y="1191"/><rect fill="none" height="2" style="stroke:#181818;stroke-width:1.0;" width="4" x="1273.5" y="1193"/><rect fill="none" height="2" style="stroke:#181818;stroke-width:1.0;" width="4" x="1273.5" y="1197"/><text fill="#000000" font-family="sans-serif" font-size="14" font-weight="bold" lengthAdjust="spacing" textLength="219" x="857.25" y="1213.5332">CloudDrive.WebAPI.Controllers</text></g><!--class File--><g id="elem_File"><rect codeLine="7" fill="#F1F1F1" height="48" id="File" rx="2.5" ry="2.5" style="stroke:#181818;stroke-width:0.5;" width="55" x="94" y="178"/><ellipse cx="109" cy="194" fill="#ADD1B2" rx="11" ry="11" style="stroke:#181818;stroke-width:1.0;"/><path d="M111.7656,189.875 Q111.9219,189.6563 112.1094,189.5469 Q112.2969,189.4375 112.5156,189.4375 Q112.8906,189.4375 113.125,189.7031 Q113.3594,189.9531 113.3594,190.5625 L113.3594,192.0156 Q113.3594,192.625 113.125,192.8906 Q112.8906,193.1563 112.5156,193.1563 Q112.1719,193.1563 111.9688,192.9531 Q111.7656,192.7656 111.6563,192.25 Q111.6094,191.8906 111.4219,191.7031 Q111.0938,191.3281 110.4844,191.1094 Q109.875,190.8906 109.25,190.8906 Q108.4844,190.8906 107.8438,191.2188 Q107.2188,191.5469 106.7188,192.2969 Q106.2344,193.0469 106.2344,194.0781 L106.2344,195.1719 Q106.2344,196.4063 107.125,197.2344 Q108.0156,198.0469 109.6094,198.0469 Q110.5469,198.0469 111.2031,197.7969 Q111.5938,197.6406 112.0156,197.2031 Q112.2813,196.9375 112.4219,196.8594 Q112.5781,196.7813 112.7813,196.7813 Q113.1094,196.7813 113.3594,197.0469 Q113.625,197.2969 113.625,197.6406 Q113.625,197.9844 113.2813,198.3906 Q112.7813,198.9688 111.9844,199.2969 Q110.9063,199.75 109.6094,199.75 Q108.0938,199.75 106.8906,199.125 Q105.9063,198.625 105.2188,197.5625 Q104.5313,196.4844 104.5313,195.2031 L104.5313,194.0469 Q104.5313,192.7188 105.1406,191.5781 Q105.7656,190.4219 106.8594,189.8125 Q107.9531,189.1875 109.1875,189.1875 Q109.9219,189.1875 110.5625,189.3594 Q111.2188,189.5156 111.7656,189.875 Z " fill="#000000"/><text fill="#000000" font-family="sans-serif" font-size="14" lengthAdjust="spacing" textLength="23" x="123" y="199.7285">File</text><line style="stroke:#181818;stroke-width:0.5;" x1="95" x2="148" y1="210" y2="210"/><line style="stroke:#181818;stroke-width:0.5;" x1="95" x2="148" y1="218" y2="218"/></g><!--class FileVersion--><g id="elem_FileVersion"><rect codeLine="8" fill="#F1F1F1" height="48" id="FileVersion" rx="2.5" ry="2.5" style="stroke:#181818;stroke-width:0.5;" width="103" x="70" y="95"/><ellipse cx="85" cy="111" fill="#ADD1B2" rx="11" ry="11" style="stroke:#181818;stroke-width:1.0;"/><path d="M87.7656,106.875 Q87.9219,106.6563 88.1094,106.5469 Q88.2969,106.4375 88.5156,106.4375 Q88.8906,106.4375 89.125,106.7031 Q89.3594,106.9531 89.3594,107.5625 L89.3594,109.0156 Q89.3594,109.625 89.125,109.8906 Q88.8906,110.1563 88.5156,110.1563 Q88.1719,110.1563 87.9688,109.9531 Q87.7656,109.7656 87.6563,109.25 Q87.6094,108.8906 87.4219,108.7031 Q87.0938,108.3281 86.4844,108.1094 Q85.875,107.8906 85.25,107.8906 Q84.4844,107.8906 83.8438,108.2188 Q83.2188,108.5469 82.7188,109.2969 Q82.2344,110.0469 82.2344,111.0781 L82.2344,112.1719 Q82.2344,113.4063 83.125,114.2344 Q84.0156,115.0469 85.6094,115.0469 Q86.5469,115.0469 87.2031,114.7969 Q87.5938,114.6406 88.0156,114.2031 Q88.2813,113.9375 88.4219,113.8594 Q88.5781,113.7813 88.7813,113.7813 Q89.1094,113.7813 89.3594,114.0469 Q89.625,114.2969 89.625,114.6406 Q89.625,114.9844 89.2813,115.3906 Q88.7813,115.9688 87.9844,116.2969 Q86.9063,116.75 85.6094,116.75 Q84.0938,116.75 82.8906,116.125 Q81.9063,115.625 81.2188,114.5625 Q80.5313,113.4844 80.5313,112.2031 L80.5313,111.0469 Q80.5313,109.7188 81.1406,108.5781 Q81.7656,107.4219 82.8594,106.8125 Q83.9531,106.1875 85.1875,106.1875 Q85.9219,106.1875 86.5625,106.3594 Q87.2188,106.5156 87.7656,106.875 Z " fill="#000000"/><text fill="#000000" font-family="sans-serif" font-size="14" lengthAdjust="spacing" textLength="71" x="99" y="116.7285">FileVersion</text><line style="stroke:#181818;stroke-width:0.5;" x1="71" x2="172" y1="127" y2="127"/><line style="stroke:#181818;stroke-width:0.5;" x1="71" x2="172" y1="135" y2="135"/></g><!--class User--><g id="elem_User"><rect codeLine="9" fill="#F1F1F1" height="48" id="User" rx="2.5" ry="2.5" style="stroke:#181818;stroke-width:0.5;" width="61" x="358" y="178"/><ellipse cx="373" cy="194" fill="#ADD1B2" rx="11" ry="11" style="stroke:#181818;stroke-width:1.0;"/><path d="M375.7656,189.875 Q375.9219,189.6563 376.1094,189.5469 Q376.2969,189.4375 376.5156,189.4375 Q376.8906,189.4375 377.125,189.7031 Q377.3594,189.9531 377.3594,190.5625 L377.3594,192.0156 Q377.3594,192.625 377.125,192.8906 Q376.8906,193.1563 376.5156,193.1563 Q376.1719,193.1563 375.9688,192.9531 Q375.7656,192.7656 375.6563,192.25 Q375.6094,191.8906 375.4219,191.7031 Q375.0938,191.3281 374.4844,191.1094 Q373.875,190.8906 373.25,190.8906 Q372.4844,190.8906 371.8438,191.2188 Q371.2188,191.5469 370.7188,192.2969 Q370.2344,193.0469 370.2344,194.0781 L370.2344,195.1719 Q370.2344,196.4063 371.125,197.2344 Q372.0156,198.0469 373.6094,198.0469 Q374.5469,198.0469 375.2031,197.7969 Q375.5938,197.6406 376.0156,197.2031 Q376.2813,196.9375 376.4219,196.8594 Q376.5781,196.7813 376.7813,196.7813 Q377.1094,196.7813 377.3594,197.0469 Q377.625,197.2969 377.625,197.6406 Q377.625,197.9844 377.2813,198.3906 Q376.7813,198.9688 375.9844,199.2969 Q374.9063,199.75 373.6094,199.75 Q372.0938,199.75 370.8906,199.125 Q369.9063,198.625 369.2188,197.5625 Q368.5313,196.4844 368.5313,195.2031 L368.5313,194.0469 Q368.5313,192.7188 369.1406,191.5781 Q369.7656,190.4219 370.8594,189.8125 Q371.9531,189.1875 373.1875,189.1875 Q373.9219,189.1875 374.5625,189.3594 Q375.2188,189.5156 375.7656,189.875 Z " fill="#000000"/><text fill="#000000" font-family="sans-serif" font-size="14" lengthAdjust="spacing" textLength="29" x="387" y="199.7285">User</text><line style="stroke:#181818;stroke-width:0.5;" x1="359" x2="418" y1="210" y2="210"/><line style="stroke:#181818;stroke-width:0.5;" x1="359" x2="418" y1="218" y2="218"/></g><!--class FileDTO--><g id="elem_FileDTO"><rect codeLine="13" fill="#F1F1F1" height="48" id="FileDTO" rx="2.5" ry="2.5" style="stroke:#181818;stroke-width:0.5;" width="85" x="79" y="385"/><ellipse cx="94" cy="401" fill="#ADD1B2" rx="11" ry="11" style="stroke:#181818;stroke-width:1.0;"/><path d="M96.7656,396.875 Q96.9219,396.6563 97.1094,396.5469 Q97.2969,396.4375 97.5156,396.4375 Q97.8906,396.4375 98.125,396.7031 Q98.3594,396.9531 98.3594,397.5625 L98.3594,399.0156 Q98.3594,399.625 98.125,399.8906 Q97.8906,400.1563 97.5156,400.1563 Q97.1719,400.1563 96.9688,399.9531 Q96.7656,399.7656 96.6563,399.25 Q96.6094,398.8906 96.4219,398.7031 Q96.0938,398.3281 95.4844,398.1094 Q94.875,397.8906 94.25,397.8906 Q93.4844,397.8906 92.8438,398.2188 Q92.2188,398.5469 91.7188,399.2969 Q91.2344,400.0469 91.2344,401.0781 L91.2344,402.1719 Q91.2344,403.4063 92.125,404.2344 Q93.0156,405.0469 94.6094,405.0469 Q95.5469,405.0469 96.2031,404.7969 Q96.5938,404.6406 97.0156,404.2031 Q97.2813,403.9375 97.4219,403.8594 Q97.5781,403.7813 97.7813,403.7813 Q98.1094,403.7813 98.3594,404.0469 Q98.625,404.2969 98.625,404.6406 Q98.625,404.9844 98.2813,405.3906 Q97.7813,405.9688 96.9844,406.2969 Q95.9063,406.75 94.6094,406.75 Q93.0938,406.75 91.8906,406.125 Q90.9063,405.625 90.2188,404.5625 Q89.5313,403.4844 89.5313,402.2031 L89.5313,401.0469 Q89.5313,399.7188 90.1406,398.5781 Q90.7656,397.4219 91.8594,396.8125 Q92.9531,396.1875 94.1875,396.1875 Q94.9219,396.1875 95.5625,396.3594 Q96.2188,396.5156 96.7656,396.875 Z " fill="#000000"/><text fill="#000000" font-family="sans-serif" font-size="14" lengthAdjust="spacing" textLength="53" x="108" y="406.7285">FileDTO</text><line style="stroke:#181818;stroke-width:0.5;" x1="80" x2="163" y1="417" y2="417"/><line style="stroke:#181818;stroke-width:0.5;" x1="80" x2="163" y1="425" y2="425"/></g><!--class FileVersionDTO--><g id="elem_FileVersionDTO"><rect codeLine="14" fill="#F1F1F1" height="48" id="FileVersionDTO" rx="2.5" ry="2.5" style="stroke:#181818;stroke-width:0.5;" width="133" x="55" y="302"/><ellipse cx="70" cy="318" fill="#ADD1B2" rx="11" ry="11" style="stroke:#181818;stroke-width:1.0;"/><path d="M72.7656,313.875 Q72.9219,313.6563 73.1094,313.5469 Q73.2969,313.4375 73.5156,313.4375 Q73.8906,313.4375 74.125,313.7031 Q74.3594,313.9531 74.3594,314.5625 L74.3594,316.0156 Q74.3594,316.625 74.125,316.8906 Q73.8906,317.1563 73.5156,317.1563 Q73.1719,317.1563 72.9688,316.9531 Q72.7656,316.7656 72.6563,316.25 Q72.6094,315.8906 72.4219,315.7031 Q72.0938,315.3281 71.4844,315.1094 Q70.875,314.8906 70.25,314.8906 Q69.4844,314.8906 68.8438,315.2188 Q68.2188,315.5469 67.7188,316.2969 Q67.2344,317.0469 67.2344,318.0781 L67.2344,319.1719 Q67.2344,320.4063 68.125,321.2344 Q69.0156,322.0469 70.6094,322.0469 Q71.5469,322.0469 72.2031,321.7969 Q72.5938,321.6406 73.0156,321.2031 Q73.2813,320.9375 73.4219,320.8594 Q73.5781,320.7813 73.7813,320.7813 Q74.1094,320.7813 74.3594,321.0469 Q74.625,321.2969 74.625,321.6406 Q74.625,321.9844 74.2813,322.3906 Q73.7813,322.9688 72.9844,323.2969 Q71.9063,323.75 70.6094,323.75 Q69.0938,323.75 67.8906,323.125 Q66.9063,322.625 66.2188,321.5625 Q65.5313,320.4844 65.5313,319.2031 L65.5313,318.0469 Q65.5313,316.7188 66.1406,315.5781 Q66.7656,314.4219 67.8594,313.8125 Q68.9531,313.1875 70.1875,313.1875 Q70.9219,313.1875 71.5625,313.3594 Q72.2188,313.5156 72.7656,313.875 Z " fill="#000000"/><text fill="#000000" font-family="sans-serif" font-size="14" lengthAdjust="spacing" textLength="101" x="84" y="323.7285">FileVersionDTO</text><line style="stroke:#181818;stroke-width:0.5;" x1="56" x2="187" y1="334" y2="334"/><line style="stroke:#181818;stroke-width:0.5;" x1="56" x2="187" y1="342" y2="342"/></g><!--class UserDTO--><g id="elem_UserDTO"><rect codeLine="15" fill="#F1F1F1" height="48" id="UserDTO" rx="2.5" ry="2.5" style="stroke:#181818;stroke-width:0.5;" width="91" x="343" y="385"/><ellipse cx="358" cy="401" fill="#ADD1B2" rx="11" ry="11" style="stroke:#181818;stroke-width:1.0;"/><path d="M360.7656,396.875 Q360.9219,396.6563 361.1094,396.5469 Q361.2969,396.4375 361.5156,396.4375 Q361.8906,396.4375 362.125,396.7031 Q362.3594,396.9531 362.3594,397.5625 L362.3594,399.0156 Q362.3594,399.625 362.125,399.8906 Q361.8906,400.1563 361.5156,400.1563 Q361.1719,400.1563 360.9688,399.9531 Q360.7656,399.7656 360.6563,399.25 Q360.6094,398.8906 360.4219,398.7031 Q360.0938,398.3281 359.4844,398.1094 Q358.875,397.8906 358.25,397.8906 Q357.4844,397.8906 356.8438,398.2188 Q356.2188,398.5469 355.7188,399.2969 Q355.2344,400.0469 355.2344,401.0781 L355.2344,402.1719 Q355.2344,403.4063 356.125,404.2344 Q357.0156,405.0469 358.6094,405.0469 Q359.5469,405.0469 360.2031,404.7969 Q360.5938,404.6406 361.0156,404.2031 Q361.2813,403.9375 361.4219,403.8594 Q361.5781,403.7813 361.7813,403.7813 Q362.1094,403.7813 362.3594,404.0469 Q362.625,404.2969 362.625,404.6406 Q362.625,404.9844 362.2813,405.3906 Q361.7813,405.9688 360.9844,406.2969 Q359.9063,406.75 358.6094,406.75 Q357.0938,406.75 355.8906,406.125 Q354.9063,405.625 354.2188,404.5625 Q353.5313,403.4844 353.5313,402.2031 L353.5313,401.0469 Q353.5313,399.7188 354.1406,398.5781 Q354.7656,397.4219 355.8594,396.8125 Q356.9531,396.1875 358.1875,396.1875 Q358.9219,396.1875 359.5625,396.3594 Q360.2188,396.5156 360.7656,396.875 Z " fill="#000000"/><text fill="#000000" font-family="sans-serif" font-size="14" lengthAdjust="spacing" textLength="59" x="372" y="406.7285">UserDTO</text><line style="stroke:#181818;stroke-width:0.5;" x1="344" x2="433" y1="417" y2="417"/><line style="stroke:#181818;stroke-width:0.5;" x1="344" x2="433" y1="425" y2="425"/></g><!--class FileMapper--><g id="elem_FileMapper"><rect codeLine="19" fill="#F1F1F1" height="48" id="FileMapper" rx="2.5" ry="2.5" style="stroke:#181818;stroke-width:0.5;" width="103" x="683.5" y="178"/><ellipse cx="698.5" cy="194" fill="#ADD1B2" rx="11" ry="11" style="stroke:#181818;stroke-width:1.0;"/><path d="M701.2656,189.875 Q701.4219,189.6563 701.6094,189.5469 Q701.7969,189.4375 702.0156,189.4375 Q702.3906,189.4375 702.625,189.7031 Q702.8594,189.9531 702.8594,190.5625 L702.8594,192.0156 Q702.8594,192.625 702.625,192.8906 Q702.3906,193.1563 702.0156,193.1563 Q701.6719,193.1563 701.4688,192.9531 Q701.2656,192.7656 701.1563,192.25 Q701.1094,191.8906 700.9219,191.7031 Q700.5938,191.3281 699.9844,191.1094 Q699.375,190.8906 698.75,190.8906 Q697.9844,190.8906 697.3438,191.2188 Q696.7188,191.5469 696.2188,192.2969 Q695.7344,193.0469 695.7344,194.0781 L695.7344,195.1719 Q695.7344,196.4063 696.625,197.2344 Q697.5156,198.0469 699.1094,198.0469 Q700.0469,198.0469 700.7031,197.7969 Q701.0938,197.6406 701.5156,197.2031 Q701.7813,196.9375 701.9219,196.8594 Q702.0781,196.7813 702.2813,196.7813 Q702.6094,196.7813 702.8594,197.0469 Q703.125,197.2969 703.125,197.6406 Q703.125,197.9844 702.7813,198.3906 Q702.2813,198.9688 701.4844,199.2969 Q700.4063,199.75 699.1094,199.75 Q697.5938,199.75 696.3906,199.125 Q695.4063,198.625 694.7188,197.5625 Q694.0313,196.4844 694.0313,195.2031 L694.0313,194.0469 Q694.0313,192.7188 694.6406,191.5781 Q695.2656,190.4219 696.3594,189.8125 Q697.4531,189.1875 698.6875,189.1875 Q699.4219,189.1875 700.0625,189.3594 Q700.7188,189.5156 701.2656,189.875 Z " fill="#000000"/><text fill="#000000" font-family="sans-serif" font-size="14" lengthAdjust="spacing" textLength="71" x="712.5" y="199.7285">FileMapper</text><line style="stroke:#181818;stroke-width:0.5;" x1="684.5" x2="785.5" y1="210" y2="210"/><line style="stroke:#181818;stroke-width:0.5;" x1="684.5" x2="785.5" y1="218" y2="218"/></g><!--class FileVersionMapper--><g id="elem_FileVersionMapper"><rect codeLine="20" fill="#F1F1F1" height="48" id="FileVersionMapper" rx="2.5" ry="2.5" style="stroke:#181818;stroke-width:0.5;" width="151" x="659.5" y="95"/><ellipse cx="674.5" cy="111" fill="#ADD1B2" rx="11" ry="11" style="stroke:#181818;stroke-width:1.0;"/><path d="M677.2656,106.875 Q677.4219,106.6563 677.6094,106.5469 Q677.7969,106.4375 678.0156,106.4375 Q678.3906,106.4375 678.625,106.7031 Q678.8594,106.9531 678.8594,107.5625 L678.8594,109.0156 Q678.8594,109.625 678.625,109.8906 Q678.3906,110.1563 678.0156,110.1563 Q677.6719,110.1563 677.4688,109.9531 Q677.2656,109.7656 677.1563,109.25 Q677.1094,108.8906 676.9219,108.7031 Q676.5938,108.3281 675.9844,108.1094 Q675.375,107.8906 674.75,107.8906 Q673.9844,107.8906 673.3438,108.2188 Q672.7188,108.5469 672.2188,109.2969 Q671.7344,110.0469 671.7344,111.0781 L671.7344,112.1719 Q671.7344,113.4063 672.625,114.2344 Q673.5156,115.0469 675.1094,115.0469 Q676.0469,115.0469 676.7031,114.7969 Q677.0938,114.6406 677.5156,114.2031 Q677.7813,113.9375 677.9219,113.8594 Q678.0781,113.7813 678.2813,113.7813 Q678.6094,113.7813 678.8594,114.0469 Q679.125,114.2969 679.125,114.6406 Q679.125,114.9844 678.7813,115.3906 Q678.2813,115.9688 677.4844,116.2969 Q676.4063,116.75 675.1094,116.75 Q673.5938,116.75 672.3906,116.125 Q671.4063,115.625 670.7188,114.5625 Q670.0313,113.4844 670.0313,112.2031 L670.0313,111.0469 Q670.0313,109.7188 670.6406,108.5781 Q671.2656,107.4219 672.3594,106.8125 Q673.4531,106.1875 674.6875,106.1875 Q675.4219,106.1875 676.0625,106.3594 Q676.7188,106.5156 677.2656,106.875 Z " fill="#000000"/><text fill="#000000" font-family="sans-serif" font-size="14" lengthAdjust="spacing" textLength="119" x="688.5" y="116.7285">FileVersionMapper</text><line style="stroke:#181818;stroke-width:0.5;" x1="660.5" x2="809.5" y1="127" y2="127"/><line style="stroke:#181818;stroke-width:0.5;" x1="660.5" x2="809.5" y1="135" y2="135"/></g><!--class UserMapper--><g id="elem_UserMapper"><rect codeLine="21" fill="#F1F1F1" height="48" id="UserMapper" rx="2.5" ry="2.5" style="stroke:#181818;stroke-width:0.5;" width="109" x="922" y="178"/><ellipse cx="937" cy="194" fill="#ADD1B2" rx="11" ry="11" style="stroke:#181818;stroke-width:1.0;"/><path d="M939.7656,189.875 Q939.9219,189.6563 940.1094,189.5469 Q940.2969,189.4375 940.5156,189.4375 Q940.8906,189.4375 941.125,189.7031 Q941.3594,189.9531 941.3594,190.5625 L941.3594,192.0156 Q941.3594,192.625 941.125,192.8906 Q940.8906,193.1563 940.5156,193.1563 Q940.1719,193.1563 939.9688,192.9531 Q939.7656,192.7656 939.6563,192.25 Q939.6094,191.8906 939.4219,191.7031 Q939.0938,191.3281 938.4844,191.1094 Q937.875,190.8906 937.25,190.8906 Q936.4844,190.8906 935.8438,191.2188 Q935.2188,191.5469 934.7188,192.2969 Q934.2344,193.0469 934.2344,194.0781 L934.2344,195.1719 Q934.2344,196.4063 935.125,197.2344 Q936.0156,198.0469 937.6094,198.0469 Q938.5469,198.0469 939.2031,197.7969 Q939.5938,197.6406 940.0156,197.2031 Q940.2813,196.9375 940.4219,196.8594 Q940.5781,196.7813 940.7813,196.7813 Q941.1094,196.7813 941.3594,197.0469 Q941.625,197.2969 941.625,197.6406 Q941.625,197.9844 941.2813,198.3906 Q940.7813,198.9688 939.9844,199.2969 Q938.9063,199.75 937.6094,199.75 Q936.0938,199.75 934.8906,199.125 Q933.9063,198.625 933.2188,197.5625 Q932.5313,196.4844 932.5313,195.2031 L932.5313,194.0469 Q932.5313,192.7188 933.1406,191.5781 Q933.7656,190.4219 934.8594,189.8125 Q935.9531,189.1875 937.1875,189.1875 Q937.9219,189.1875 938.5625,189.3594 Q939.2188,189.5156 939.7656,189.875 Z " fill="#000000"/><text fill="#000000" font-family="sans-serif" font-size="14" lengthAdjust="spacing" textLength="77" x="951" y="199.7285">UserMapper</text><line style="stroke:#181818;stroke-width:0.5;" x1="923" x2="1030" y1="210" y2="210"/><line style="stroke:#181818;stroke-width:0.5;" x1="923" x2="1030" y1="218" y2="218"/></g><!--class IAccessTokenProvider--><g id="elem_IAccessTokenProvider"><rect codeLine="25" fill="#F1F1F1" height="48" id="IAccessTokenProvider" rx="2.5" ry="2.5" style="stroke:#181818;stroke-width:0.5;" width="174" x="648" y="468"/><ellipse cx="663" cy="484" fill="#B4A7E5" rx="11" ry="11" style="stroke:#181818;stroke-width:1.0;"/><path d="M663.9531,480.6406 L663.9531,487.2969 L665.6719,487.2969 Q666.2813,487.2969 666.5469,487.5313 Q666.8125,487.7656 666.8125,488.1563 Q666.8125,488.5313 666.5469,488.7656 Q666.2813,489 665.6719,489 L660.5313,489 Q659.9219,489 659.6563,488.7656 Q659.3906,488.5313 659.3906,488.1406 Q659.3906,487.7656 659.6563,487.5313 Q659.9219,487.2969 660.5313,487.2969 L662.25,487.2969 L662.25,480.6406 L660.5313,480.6406 Q659.9219,480.6406 659.6563,480.4063 Q659.3906,480.1719 659.3906,479.7813 Q659.3906,479.4063 659.6563,479.1719 Q659.9219,478.9375 660.5313,478.9375 L665.6719,478.9375 Q666.2813,478.9375 666.5469,479.1719 Q666.8125,479.4063 666.8125,479.7813 Q666.8125,480.1719 666.5469,480.4063 Q666.2813,480.6406 665.6719,480.6406 L663.9531,480.6406 Z " fill="#000000"/><text fill="#000000" font-family="sans-serif" font-size="14" font-style="italic" lengthAdjust="spacing" textLength="142" x="677" y="489.7285">IAccessTokenProvider</text><line style="stroke:#181818;stroke-width:0.5;" x1="649" x2="821" y1="500" y2="500"/><line style="stroke:#181818;stroke-width:0.5;" x1="649" x2="821" y1="508" y2="508"/></g><!--class IAuthService--><g id="elem_IAuthService"><rect codeLine="26" fill="#F1F1F1" height="48" id="IAuthService" rx="2.5" ry="2.5" style="stroke:#181818;stroke-width:0.5;" width="111" x="679.5" y="385"/><ellipse cx="694.5" cy="401" fill="#B4A7E5" rx="11" ry="11" style="stroke:#181818;stroke-width:1.0;"/><path d="M695.4531,397.6406 L695.4531,404.2969 L697.1719,404.2969 Q697.7813,404.2969 698.0469,404.5313 Q698.3125,404.7656 698.3125,405.1563 Q698.3125,405.5313 698.0469,405.7656 Q697.7813,406 697.1719,406 L692.0313,406 Q691.4219,406 691.1563,405.7656 Q690.8906,405.5313 690.8906,405.1406 Q690.8906,404.7656 691.1563,404.5313 Q691.4219,404.2969 692.0313,404.2969 L693.75,404.2969 L693.75,397.6406 L692.0313,397.6406 Q691.4219,397.6406 691.1563,397.4063 Q690.8906,397.1719 690.8906,396.7813 Q690.8906,396.4063 691.1563,396.1719 Q691.4219,395.9375 692.0313,395.9375 L697.1719,395.9375 Q697.7813,395.9375 698.0469,396.1719 Q698.3125,396.4063 698.3125,396.7813 Q698.3125,397.1719 698.0469,397.4063 Q697.7813,397.6406 697.1719,397.6406 L695.4531,397.6406 Z " fill="#000000"/><text fill="#000000" font-family="sans-serif" font-size="14" font-style="italic" lengthAdjust="spacing" textLength="79" x="708.5" y="406.7285">IAuthService</text><line style="stroke:#181818;stroke-width:0.5;" x1="680.5" x2="789.5" y1="417" y2="417"/><line style="stroke:#181818;stroke-width:0.5;" x1="680.5" x2="789.5" y1="425" y2="425"/></g><!--class IFileInfoService--><g id="elem_IFileInfoService"><rect codeLine="27" fill="#F1F1F1" height="48" id="IFileInfoService" rx="2.5" ry="2.5" style="stroke:#181818;stroke-width:0.5;" width="129" x="670.5" y="302"/><ellipse cx="685.5" cy="318" fill="#B4A7E5" rx="11" ry="11" style="stroke:#181818;stroke-width:1.0;"/><path d="M686.4531,314.6406 L686.4531,321.2969 L688.1719,321.2969 Q688.7813,321.2969 689.0469,321.5313 Q689.3125,321.7656 689.3125,322.1563 Q689.3125,322.5313 689.0469,322.7656 Q688.7813,323 688.1719,323 L683.0313,323 Q682.4219,323 682.1563,322.7656 Q681.8906,322.5313 681.8906,322.1406 Q681.8906,321.7656 682.1563,321.5313 Q682.4219,321.2969 683.0313,321.2969 L684.75,321.2969 L684.75,314.6406 L683.0313,314.6406 Q682.4219,314.6406 682.1563,314.4063 Q681.8906,314.1719 681.8906,313.7813 Q681.8906,313.4063 682.1563,313.1719 Q682.4219,312.9375 683.0313,312.9375 L688.1719,312.9375 Q688.7813,312.9375 689.0469,313.1719 Q689.3125,313.4063 689.3125,313.7813 Q689.3125,314.1719 689.0469,314.4063 Q688.7813,314.6406 688.1719,314.6406 L686.4531,314.6406 Z " fill="#000000"/><text fill="#000000" font-family="sans-serif" font-size="14" font-style="italic" lengthAdjust="spacing" textLength="97" x="699.5" y="323.7285">IFileInfoService</text><line style="stroke:#181818;stroke-width:0.5;" x1="671.5" x2="798.5" y1="334" y2="334"/><line style="stroke:#181818;stroke-width:0.5;" x1="671.5" x2="798.5" y1="342" y2="342"/></g><!--class IFileManagerService--><g id="elem_IFileManagerService"><rect codeLine="28" fill="#F1F1F1" height="48" id="IFileManagerService" rx="2.5" ry="2.5" style="stroke:#181818;stroke-width:0.5;" width="162" x="895.5" y="468"/><ellipse cx="910.5" cy="484" fill="#B4A7E5" rx="11" ry="11" style="stroke:#181818;stroke-width:1.0;"/><path d="M911.4531,480.6406 L911.4531,487.2969 L913.1719,487.2969 Q913.7813,487.2969 914.0469,487.5313 Q914.3125,487.7656 914.3125,488.1563 Q914.3125,488.5313 914.0469,488.7656 Q913.7813,489 913.1719,489 L908.0313,489 Q907.4219,489 907.1563,488.7656 Q906.8906,488.5313 906.8906,488.1406 Q906.8906,487.7656 907.1563,487.5313 Q907.4219,487.2969 908.0313,487.2969 L909.75,487.2969 L909.75,480.6406 L908.0313,480.6406 Q907.4219,480.6406 907.1563,480.4063 Q906.8906,480.1719 906.8906,479.7813 Q906.8906,479.4063 907.1563,479.1719 Q907.4219,478.9375 908.0313,478.9375 L913.1719,478.9375 Q913.7813,478.9375 914.0469,479.1719 Q914.3125,479.4063 914.3125,479.7813 Q914.3125,480.1719 914.0469,480.4063 Q913.7813,480.6406 913.1719,480.6406 L911.4531,480.6406 Z " fill="#000000"/><text fill="#000000" font-family="sans-serif" font-size="14" font-style="italic" lengthAdjust="spacing" textLength="130" x="924.5" y="489.7285">IFileManagerService</text><line style="stroke:#181818;stroke-width:0.5;" x1="896.5" x2="1056.5" y1="500" y2="500"/><line style="stroke:#181818;stroke-width:0.5;" x1="896.5" x2="1056.5" y1="508" y2="508"/></g><!--class IFileSystemService--><g id="elem_IFileSystemService"><rect codeLine="29" fill="#F1F1F1" height="48" id="IFileSystemService" rx="2.5" ry="2.5" style="stroke:#181818;stroke-width:0.5;" width="151" x="901" y="385"/><ellipse cx="916" cy="401" fill="#B4A7E5" rx="11" ry="11" style="stroke:#181818;stroke-width:1.0;"/><path d="M916.9531,397.6406 L916.9531,404.2969 L918.6719,404.2969 Q919.2813,404.2969 919.5469,404.5313 Q919.8125,404.7656 919.8125,405.1563 Q919.8125,405.5313 919.5469,405.7656 Q919.2813,406 918.6719,406 L913.5313,406 Q912.9219,406 912.6563,405.7656 Q912.3906,405.5313 912.3906,405.1406 Q912.3906,404.7656 912.6563,404.5313 Q912.9219,404.2969 913.5313,404.2969 L915.25,404.2969 L915.25,397.6406 L913.5313,397.6406 Q912.9219,397.6406 912.6563,397.4063 Q912.3906,397.1719 912.3906,396.7813 Q912.3906,396.4063 912.6563,396.1719 Q912.9219,395.9375 913.5313,395.9375 L918.6719,395.9375 Q919.2813,395.9375 919.5469,396.1719 Q919.8125,396.4063 919.8125,396.7813 Q919.8125,397.1719 919.5469,397.4063 Q919.2813,397.6406 918.6719,397.6406 L916.9531,397.6406 Z " fill="#000000"/><text fill="#000000" font-family="sans-serif" font-size="14" font-style="italic" lengthAdjust="spacing" textLength="119" x="930" y="406.7285">IFileSystemService</text><line style="stroke:#181818;stroke-width:0.5;" x1="902" x2="1051" y1="417" y2="417"/><line style="stroke:#181818;stroke-width:0.5;" x1="902" x2="1051" y1="425" y2="425"/></g><!--class IFileVersionInfoService--><g id="elem_IFileVersionInfoService"><rect codeLine="30" fill="#F1F1F1" height="48" id="IFileVersionInfoService" rx="2.5" ry="2.5" style="stroke:#181818;stroke-width:0.5;" width="177" x="888" y="302"/><ellipse cx="903" cy="318" fill="#B4A7E5" rx="11" ry="11" style="stroke:#181818;stroke-width:1.0;"/><path d="M903.9531,314.6406 L903.9531,321.2969 L905.6719,321.2969 Q906.2813,321.2969 906.5469,321.5313 Q906.8125,321.7656 906.8125,322.1563 Q906.8125,322.5313 906.5469,322.7656 Q906.2813,323 905.6719,323 L900.5313,323 Q899.9219,323 899.6563,322.7656 Q899.3906,322.5313 899.3906,322.1406 Q899.3906,321.7656 899.6563,321.5313 Q899.9219,321.2969 900.5313,321.2969 L902.25,321.2969 L902.25,314.6406 L900.5313,314.6406 Q899.9219,314.6406 899.6563,314.4063 Q899.3906,314.1719 899.3906,313.7813 Q899.3906,313.4063 899.6563,313.1719 Q899.9219,312.9375 900.5313,312.9375 L905.6719,312.9375 Q906.2813,312.9375 906.5469,313.1719 Q906.8125,313.4063 906.8125,313.7813 Q906.8125,314.1719 906.5469,314.4063 Q906.2813,314.6406 905.6719,314.6406 L903.9531,314.6406 Z " fill="#000000"/><text fill="#000000" font-family="sans-serif" font-size="14" font-style="italic" lengthAdjust="spacing" textLength="145" x="917" y="323.7285">IFileVersionInfoService</text><line style="stroke:#181818;stroke-width:0.5;" x1="889" x2="1064" y1="334" y2="334"/><line style="stroke:#181818;stroke-width:0.5;" x1="889" x2="1064" y1="342" y2="342"/></g><!--class IPasswordEncoder--><g id="elem_IPasswordEncoder"><rect codeLine="31" fill="#F1F1F1" height="48" id="IPasswordEncoder" rx="2.5" ry="2.5" style="stroke:#181818;stroke-width:0.5;" width="150" x="1143" y="468"/><ellipse cx="1158" cy="484" fill="#B4A7E5" rx="11" ry="11" style="stroke:#181818;stroke-width:1.0;"/><path d="M1158.9531,480.6406 L1158.9531,487.2969 L1160.6719,487.2969 Q1161.2813,487.2969 1161.5469,487.5313 Q1161.8125,487.7656 1161.8125,488.1563 Q1161.8125,488.5313 1161.5469,488.7656 Q1161.2813,489 1160.6719,489 L1155.5313,489 Q1154.9219,489 1154.6563,488.7656 Q1154.3906,488.5313 1154.3906,488.1406 Q1154.3906,487.7656 1154.6563,487.5313 Q1154.9219,487.2969 1155.5313,487.2969 L1157.25,487.2969 L1157.25,480.6406 L1155.5313,480.6406 Q1154.9219,480.6406 1154.6563,480.4063 Q1154.3906,480.1719 1154.3906,479.7813 Q1154.3906,479.4063 1154.6563,479.1719 Q1154.9219,478.9375 1155.5313,478.9375 L1160.6719,478.9375 Q1161.2813,478.9375 1161.5469,479.1719 Q1161.8125,479.4063 1161.8125,479.7813 Q1161.8125,480.1719 1161.5469,480.4063 Q1161.2813,480.6406 1160.6719,480.6406 L1158.9531,480.6406 Z " fill="#000000"/><text fill="#000000" font-family="sans-serif" font-size="14" font-style="italic" lengthAdjust="spacing" textLength="118" x="1172" y="489.7285">IPasswordEncoder</text><line style="stroke:#181818;stroke-width:0.5;" x1="1144" x2="1292" y1="500" y2="500"/><line style="stroke:#181818;stroke-width:0.5;" x1="1144" x2="1292" y1="508" y2="508"/></g><!--class IUserService--><g id="elem_IUserService"><rect codeLine="32" fill="#F1F1F1" height="48" id="IUserService" rx="2.5" ry="2.5" style="stroke:#181818;stroke-width:0.5;" width="112" x="1162" y="385"/><ellipse cx="1177" cy="401" fill="#B4A7E5" rx="11" ry="11" style="stroke:#181818;stroke-width:1.0;"/><path d="M1177.9531,397.6406 L1177.9531,404.2969 L1179.6719,404.2969 Q1180.2813,404.2969 1180.5469,404.5313 Q1180.8125,404.7656 1180.8125,405.1563 Q1180.8125,405.5313 1180.5469,405.7656 Q1180.2813,406 1179.6719,406 L1174.5313,406 Q1173.9219,406 1173.6563,405.7656 Q1173.3906,405.5313 1173.3906,405.1406 Q1173.3906,404.7656 1173.6563,404.5313 Q1173.9219,404.2969 1174.5313,404.2969 L1176.25,404.2969 L1176.25,397.6406 L1174.5313,397.6406 Q1173.9219,397.6406 1173.6563,397.4063 Q1173.3906,397.1719 1173.3906,396.7813 Q1173.3906,396.4063 1173.6563,396.1719 Q1173.9219,395.9375 1174.5313,395.9375 L1179.6719,395.9375 Q1180.2813,395.9375 1180.5469,396.1719 Q1180.8125,396.4063 1180.8125,396.7813 Q1180.8125,397.1719 1180.5469,397.4063 Q1180.2813,397.6406 1179.6719,397.6406 L1177.9531,397.6406 Z " fill="#000000"/><text fill="#000000" font-family="sans-serif" font-size="14" font-style="italic" lengthAdjust="spacing" textLength="80" x="1191" y="406.7285">IUserService</text><line style="stroke:#181818;stroke-width:0.5;" x1="1163" x2="1273" y1="417" y2="417"/><line style="stroke:#181818;stroke-width:0.5;" x1="1163" x2="1273" y1="425" y2="425"/></g><!--class AuthService--><g id="elem_AuthService"><rect codeLine="38" fill="#F1F1F1" height="48" id="AuthService" rx="2.5" ry="2.5" style="stroke:#181818;stroke-width:0.5;" width="108" x="334.5" y="866"/><ellipse cx="349.5" cy="882" fill="#ADD1B2" rx="11" ry="11" style="stroke:#181818;stroke-width:1.0;"/><path d="M352.2656,877.875 Q352.4219,877.6563 352.6094,877.5469 Q352.7969,877.4375 353.0156,877.4375 Q353.3906,877.4375 353.625,877.7031 Q353.8594,877.9531 353.8594,878.5625 L353.8594,880.0156 Q353.8594,880.625 353.625,880.8906 Q353.3906,881.1563 353.0156,881.1563 Q352.6719,881.1563 352.4688,880.9531 Q352.2656,880.7656 352.1563,880.25 Q352.1094,879.8906 351.9219,879.7031 Q351.5938,879.3281 350.9844,879.1094 Q350.375,878.8906 349.75,878.8906 Q348.9844,878.8906 348.3438,879.2188 Q347.7188,879.5469 347.2188,880.2969 Q346.7344,881.0469 346.7344,882.0781 L346.7344,883.1719 Q346.7344,884.4063 347.625,885.2344 Q348.5156,886.0469 350.1094,886.0469 Q351.0469,886.0469 351.7031,885.7969 Q352.0938,885.6406 352.5156,885.2031 Q352.7813,884.9375 352.9219,884.8594 Q353.0781,884.7813 353.2813,884.7813 Q353.6094,884.7813 353.8594,885.0469 Q354.125,885.2969 354.125,885.6406 Q354.125,885.9844 353.7813,886.3906 Q353.2813,886.9688 352.4844,887.2969 Q351.4063,887.75 350.1094,887.75 Q348.5938,887.75 347.3906,887.125 Q346.4063,886.625 345.7188,885.5625 Q345.0313,884.4844 345.0313,883.2031 L345.0313,882.0469 Q345.0313,880.7188 345.6406,879.5781 Q346.2656,878.4219 347.3594,877.8125 Q348.4531,877.1875 349.6875,877.1875 Q350.4219,877.1875 351.0625,877.3594 Q351.7188,877.5156 352.2656,877.875 Z " fill="#000000"/><text fill="#000000" font-family="sans-serif" font-size="14" lengthAdjust="spacing" textLength="76" x="363.5" y="887.7285">AuthService</text><line style="stroke:#181818;stroke-width:0.5;" x1="335.5" x2="441.5" y1="898" y2="898"/><line style="stroke:#181818;stroke-width:0.5;" x1="335.5" x2="441.5" y1="906" y2="906"/></g><!--class BCryptPasswordEncoder--><g id="elem_BCryptPasswordEncoder"><rect codeLine="39" fill="#F1F1F1" height="48" id="BCryptPasswordEncoder" rx="2.5" ry="2.5" style="stroke:#181818;stroke-width:0.5;" width="189" x="294" y="783"/><ellipse cx="309" cy="799" fill="#ADD1B2" rx="11" ry="11" style="stroke:#181818;stroke-width:1.0;"/><path d="M311.7656,794.875 Q311.9219,794.6563 312.1094,794.5469 Q312.2969,794.4375 312.5156,794.4375 Q312.8906,794.4375 313.125,794.7031 Q313.3594,794.9531 313.3594,795.5625 L313.3594,797.0156 Q313.3594,797.625 313.125,797.8906 Q312.8906,798.1563 312.5156,798.1563 Q312.1719,798.1563 311.9688,797.9531 Q311.7656,797.7656 311.6563,797.25 Q311.6094,796.8906 311.4219,796.7031 Q311.0938,796.3281 310.4844,796.1094 Q309.875,795.8906 309.25,795.8906 Q308.4844,795.8906 307.8438,796.2188 Q307.2188,796.5469 306.7188,797.2969 Q306.2344,798.0469 306.2344,799.0781 L306.2344,800.1719 Q306.2344,801.4063 307.125,802.2344 Q308.0156,803.0469 309.6094,803.0469 Q310.5469,803.0469 311.2031,802.7969 Q311.5938,802.6406 312.0156,802.2031 Q312.2813,801.9375 312.4219,801.8594 Q312.5781,801.7813 312.7813,801.7813 Q313.1094,801.7813 313.3594,802.0469 Q313.625,802.2969 313.625,802.6406 Q313.625,802.9844 313.2813,803.3906 Q312.7813,803.9688 311.9844,804.2969 Q310.9063,804.75 309.6094,804.75 Q308.0938,804.75 306.8906,804.125 Q305.9063,803.625 305.2188,802.5625 Q304.5313,801.4844 304.5313,800.2031 L304.5313,799.0469 Q304.5313,797.7188 305.1406,796.5781 Q305.7656,795.4219 306.8594,794.8125 Q307.9531,794.1875 309.1875,794.1875 Q309.9219,794.1875 310.5625,794.3594 Q311.2188,794.5156 311.7656,794.875 Z " fill="#000000"/><text fill="#000000" font-family="sans-serif" font-size="14" lengthAdjust="spacing" textLength="157" x="323" y="804.7285">BCryptPasswordEncoder</text><line style="stroke:#181818;stroke-width:0.5;" x1="295" x2="482" y1="815" y2="815"/><line style="stroke:#181818;stroke-width:0.5;" x1="295" x2="482" y1="823" y2="823"/></g><!--class FileInfoService--><g id="elem_FileInfoService"><rect codeLine="40" fill="#F1F1F1" height="48" id="FileInfoService" rx="2.5" ry="2.5" style="stroke:#181818;stroke-width:0.5;" width="125" x="326" y="700"/><ellipse cx="341" cy="716" fill="#ADD1B2" rx="11" ry="11" style="stroke:#181818;stroke-width:1.0;"/><path d="M343.7656,711.875 Q343.9219,711.6563 344.1094,711.5469 Q344.2969,711.4375 344.5156,711.4375 Q344.8906,711.4375 345.125,711.7031 Q345.3594,711.9531 345.3594,712.5625 L345.3594,714.0156 Q345.3594,714.625 345.125,714.8906 Q344.8906,715.1563 344.5156,715.1563 Q344.1719,715.1563 343.9688,714.9531 Q343.7656,714.7656 343.6563,714.25 Q343.6094,713.8906 343.4219,713.7031 Q343.0938,713.3281 342.4844,713.1094 Q341.875,712.8906 341.25,712.8906 Q340.4844,712.8906 339.8438,713.2188 Q339.2188,713.5469 338.7188,714.2969 Q338.2344,715.0469 338.2344,716.0781 L338.2344,717.1719 Q338.2344,718.4063 339.125,719.2344 Q340.0156,720.0469 341.6094,720.0469 Q342.5469,720.0469 343.2031,719.7969 Q343.5938,719.6406 344.0156,719.2031 Q344.2813,718.9375 344.4219,718.8594 Q344.5781,718.7813 344.7813,718.7813 Q345.1094,718.7813 345.3594,719.0469 Q345.625,719.2969 345.625,719.6406 Q345.625,719.9844 345.2813,720.3906 Q344.7813,720.9688 343.9844,721.2969 Q342.9063,721.75 341.6094,721.75 Q340.0938,721.75 338.8906,721.125 Q337.9063,720.625 337.2188,719.5625 Q336.5313,718.4844 336.5313,717.2031 L336.5313,716.0469 Q336.5313,714.7188 337.1406,713.5781 Q337.7656,712.4219 338.8594,711.8125 Q339.9531,711.1875 341.1875,711.1875 Q341.9219,711.1875 342.5625,711.3594 Q343.2188,711.5156 343.7656,711.875 Z " fill="#000000"/><text fill="#000000" font-family="sans-serif" font-size="14" lengthAdjust="spacing" textLength="93" x="355" y="721.7285">FileInfoService</text><line style="stroke:#181818;stroke-width:0.5;" x1="327" x2="450" y1="732" y2="732"/><line style="stroke:#181818;stroke-width:0.5;" x1="327" x2="450" y1="740" y2="740"/></g><!--class FileManagerService--><g id="elem_FileManagerService"><rect codeLine="41" fill="#F1F1F1" height="48" id="FileManagerService" rx="2.5" ry="2.5" style="stroke:#181818;stroke-width:0.5;" width="158" x="656" y="866"/><ellipse cx="671" cy="882" fill="#ADD1B2" rx="11" ry="11" style="stroke:#181818;stroke-width:1.0;"/><path d="M673.7656,877.875 Q673.9219,877.6563 674.1094,877.5469 Q674.2969,877.4375 674.5156,877.4375 Q674.8906,877.4375 675.125,877.7031 Q675.3594,877.9531 675.3594,878.5625 L675.3594,880.0156 Q675.3594,880.625 675.125,880.8906 Q674.8906,881.1563 674.5156,881.1563 Q674.1719,881.1563 673.9688,880.9531 Q673.7656,880.7656 673.6563,880.25 Q673.6094,879.8906 673.4219,879.7031 Q673.0938,879.3281 672.4844,879.1094 Q671.875,878.8906 671.25,878.8906 Q670.4844,878.8906 669.8438,879.2188 Q669.2188,879.5469 668.7188,880.2969 Q668.2344,881.0469 668.2344,882.0781 L668.2344,883.1719 Q668.2344,884.4063 669.125,885.2344 Q670.0156,886.0469 671.6094,886.0469 Q672.5469,886.0469 673.2031,885.7969 Q673.5938,885.6406 674.0156,885.2031 Q674.2813,884.9375 674.4219,884.8594 Q674.5781,884.7813 674.7813,884.7813 Q675.1094,884.7813 675.3594,885.0469 Q675.625,885.2969 675.625,885.6406 Q675.625,885.9844 675.2813,886.3906 Q674.7813,886.9688 673.9844,887.2969 Q672.9063,887.75 671.6094,887.75 Q670.0938,887.75 668.8906,887.125 Q667.9063,886.625 667.2188,885.5625 Q666.5313,884.4844 666.5313,883.2031 L666.5313,882.0469 Q666.5313,880.7188 667.1406,879.5781 Q667.7656,878.4219 668.8594,877.8125 Q669.9531,877.1875 671.1875,877.1875 Q671.9219,877.1875 672.5625,877.3594 Q673.2188,877.5156 673.7656,877.875 Z " fill="#000000"/><text fill="#000000" font-family="sans-serif" font-size="14" lengthAdjust="spacing" textLength="126" x="685" y="887.7285">FileManagerService</text><line style="stroke:#181818;stroke-width:0.5;" x1="657" x2="813" y1="898" y2="898"/><line style="stroke:#181818;stroke-width:0.5;" x1="657" x2="813" y1="906" y2="906"/></g><!--class FileSystemService--><g id="elem_FileSystemService"><rect codeLine="42" fill="#F1F1F1" height="48" id="FileSystemService" rx="2.5" ry="2.5" style="stroke:#181818;stroke-width:0.5;" width="148" x="661" y="783"/><ellipse cx="676" cy="799" fill="#ADD1B2" rx="11" ry="11" style="stroke:#181818;stroke-width:1.0;"/><path d="M678.7656,794.875 Q678.9219,794.6563 679.1094,794.5469 Q679.2969,794.4375 679.5156,794.4375 Q679.8906,794.4375 680.125,794.7031 Q680.3594,794.9531 680.3594,795.5625 L680.3594,797.0156 Q680.3594,797.625 680.125,797.8906 Q679.8906,798.1563 679.5156,798.1563 Q679.1719,798.1563 678.9688,797.9531 Q678.7656,797.7656 678.6563,797.25 Q678.6094,796.8906 678.4219,796.7031 Q678.0938,796.3281 677.4844,796.1094 Q676.875,795.8906 676.25,795.8906 Q675.4844,795.8906 674.8438,796.2188 Q674.2188,796.5469 673.7188,797.2969 Q673.2344,798.0469 673.2344,799.0781 L673.2344,800.1719 Q673.2344,801.4063 674.125,802.2344 Q675.0156,803.0469 676.6094,803.0469 Q677.5469,803.0469 678.2031,802.7969 Q678.5938,802.6406 679.0156,802.2031 Q679.2813,801.9375 679.4219,801.8594 Q679.5781,801.7813 679.7813,801.7813 Q680.1094,801.7813 680.3594,802.0469 Q680.625,802.2969 680.625,802.6406 Q680.625,802.9844 680.2813,803.3906 Q679.7813,803.9688 678.9844,804.2969 Q677.9063,804.75 676.6094,804.75 Q675.0938,804.75 673.8906,804.125 Q672.9063,803.625 672.2188,802.5625 Q671.5313,801.4844 671.5313,800.2031 L671.5313,799.0469 Q671.5313,797.7188 672.1406,796.5781 Q672.7656,795.4219 673.8594,794.8125 Q674.9531,794.1875 676.1875,794.1875 Q676.9219,794.1875 677.5625,794.3594 Q678.2188,794.5156 678.7656,794.875 Z " fill="#000000"/><text fill="#000000" font-family="sans-serif" font-size="14" lengthAdjust="spacing" textLength="116" x="690" y="804.7285">FileSystemService</text><line style="stroke:#181818;stroke-width:0.5;" x1="662" x2="808" y1="815" y2="815"/><line style="stroke:#181818;stroke-width:0.5;" x1="662" x2="808" y1="823" y2="823"/></g><!--class FileVersionInfoService--><g id="elem_FileVersionInfoService"><rect codeLine="43" fill="#F1F1F1" height="48" id="FileVersionInfoService" rx="2.5" ry="2.5" style="stroke:#181818;stroke-width:0.5;" width="173" x="648.5" y="700"/><ellipse cx="663.5" cy="716" fill="#ADD1B2" rx="11" ry="11" style="stroke:#181818;stroke-width:1.0;"/><path d="M666.2656,711.875 Q666.4219,711.6563 666.6094,711.5469 Q666.7969,711.4375 667.0156,711.4375 Q667.3906,711.4375 667.625,711.7031 Q667.8594,711.9531 667.8594,712.5625 L667.8594,714.0156 Q667.8594,714.625 667.625,714.8906 Q667.3906,715.1563 667.0156,715.1563 Q666.6719,715.1563 666.4688,714.9531 Q666.2656,714.7656 666.1563,714.25 Q666.1094,713.8906 665.9219,713.7031 Q665.5938,713.3281 664.9844,713.1094 Q664.375,712.8906 663.75,712.8906 Q662.9844,712.8906 662.3438,713.2188 Q661.7188,713.5469 661.2188,714.2969 Q660.7344,715.0469 660.7344,716.0781 L660.7344,717.1719 Q660.7344,718.4063 661.625,719.2344 Q662.5156,720.0469 664.1094,720.0469 Q665.0469,720.0469 665.7031,719.7969 Q666.0938,719.6406 666.5156,719.2031 Q666.7813,718.9375 666.9219,718.8594 Q667.0781,718.7813 667.2813,718.7813 Q667.6094,718.7813 667.8594,719.0469 Q668.125,719.2969 668.125,719.6406 Q668.125,719.9844 667.7813,720.3906 Q667.2813,720.9688 666.4844,721.2969 Q665.4063,721.75 664.1094,721.75 Q662.5938,721.75 661.3906,721.125 Q660.4063,720.625 659.7188,719.5625 Q659.0313,718.4844 659.0313,717.2031 L659.0313,716.0469 Q659.0313,714.7188 659.6406,713.5781 Q660.2656,712.4219 661.3594,711.8125 Q662.4531,711.1875 663.6875,711.1875 Q664.4219,711.1875 665.0625,711.3594 Q665.7188,711.5156 666.2656,711.875 Z " fill="#000000"/><text fill="#000000" font-family="sans-serif" font-size="14" lengthAdjust="spacing" textLength="141" x="677.5" y="721.7285">FileVersionInfoService</text><line style="stroke:#181818;stroke-width:0.5;" x1="649.5" x2="820.5" y1="732" y2="732"/><line style="stroke:#181818;stroke-width:0.5;" x1="649.5" x2="820.5" y1="740" y2="740"/></g><!--class JwtAccessTokenProvider--><g id="elem_JwtAccessTokenProvider"><rect codeLine="44" fill="#F1F1F1" height="48" id="JwtAccessTokenProvider" rx="2.5" ry="2.5" style="stroke:#181818;stroke-width:0.5;" width="189" x="882" y="866"/><ellipse cx="897" cy="882" fill="#ADD1B2" rx="11" ry="11" style="stroke:#181818;stroke-width:1.0;"/><path d="M899.7656,877.875 Q899.9219,877.6563 900.1094,877.5469 Q900.2969,877.4375 900.5156,877.4375 Q900.8906,877.4375 901.125,877.7031 Q901.3594,877.9531 901.3594,878.5625 L901.3594,880.0156 Q901.3594,880.625 901.125,880.8906 Q900.8906,881.1563 900.5156,881.1563 Q900.1719,881.1563 899.9688,880.9531 Q899.7656,880.7656 899.6563,880.25 Q899.6094,879.8906 899.4219,879.7031 Q899.0938,879.3281 898.4844,879.1094 Q897.875,878.8906 897.25,878.8906 Q896.4844,878.8906 895.8438,879.2188 Q895.2188,879.5469 894.7188,880.2969 Q894.2344,881.0469 894.2344,882.0781 L894.2344,883.1719 Q894.2344,884.4063 895.125,885.2344 Q896.0156,886.0469 897.6094,886.0469 Q898.5469,886.0469 899.2031,885.7969 Q899.5938,885.6406 900.0156,885.2031 Q900.2813,884.9375 900.4219,884.8594 Q900.5781,884.7813 900.7813,884.7813 Q901.1094,884.7813 901.3594,885.0469 Q901.625,885.2969 901.625,885.6406 Q901.625,885.9844 901.2813,886.3906 Q900.7813,886.9688 899.9844,887.2969 Q898.9063,887.75 897.6094,887.75 Q896.0938,887.75 894.8906,887.125 Q893.9063,886.625 893.2188,885.5625 Q892.5313,884.4844 892.5313,883.2031 L892.5313,882.0469 Q892.5313,880.7188 893.1406,879.5781 Q893.7656,878.4219 894.8594,877.8125 Q895.9531,877.1875 897.1875,877.1875 Q897.9219,877.1875 898.5625,877.3594 Q899.2188,877.5156 899.7656,877.875 Z " fill="#000000"/><text fill="#000000" font-family="sans-serif" font-size="14" lengthAdjust="spacing" textLength="157" x="911" y="887.7285">JwtAccessTokenProvider</text><line style="stroke:#181818;stroke-width:0.5;" x1="883" x2="1070" y1="898" y2="898"/><line style="stroke:#181818;stroke-width:0.5;" x1="883" x2="1070" y1="906" y2="906"/></g><!--class UserService--><g id="elem_UserService"><rect codeLine="45" fill="#F1F1F1" height="48" id="UserService" rx="2.5" ry="2.5" style="stroke:#181818;stroke-width:0.5;" width="108" x="922.5" y="783"/><ellipse cx="937.5" cy="799" fill="#ADD1B2" rx="11" ry="11" style="stroke:#181818;stroke-width:1.0;"/><path d="M940.2656,794.875 Q940.4219,794.6563 940.6094,794.5469 Q940.7969,794.4375 941.0156,794.4375 Q941.3906,794.4375 941.625,794.7031 Q941.8594,794.9531 941.8594,795.5625 L941.8594,797.0156 Q941.8594,797.625 941.625,797.8906 Q941.3906,798.1563 941.0156,798.1563 Q940.6719,798.1563 940.4688,797.9531 Q940.2656,797.7656 940.1563,797.25 Q940.1094,796.8906 939.9219,796.7031 Q939.5938,796.3281 938.9844,796.1094 Q938.375,795.8906 937.75,795.8906 Q936.9844,795.8906 936.3438,796.2188 Q935.7188,796.5469 935.2188,797.2969 Q934.7344,798.0469 934.7344,799.0781 L934.7344,800.1719 Q934.7344,801.4063 935.625,802.2344 Q936.5156,803.0469 938.1094,803.0469 Q939.0469,803.0469 939.7031,802.7969 Q940.0938,802.6406 940.5156,802.2031 Q940.7813,801.9375 940.9219,801.8594 Q941.0781,801.7813 941.2813,801.7813 Q941.6094,801.7813 941.8594,802.0469 Q942.125,802.2969 942.125,802.6406 Q942.125,802.9844 941.7813,803.3906 Q941.2813,803.9688 940.4844,804.2969 Q939.4063,804.75 938.1094,804.75 Q936.5938,804.75 935.3906,804.125 Q934.4063,803.625 933.7188,802.5625 Q933.0313,801.4844 933.0313,800.2031 L933.0313,799.0469 Q933.0313,797.7188 933.6406,796.5781 Q934.2656,795.4219 935.3594,794.8125 Q936.4531,794.1875 937.6875,794.1875 Q938.4219,794.1875 939.0625,794.3594 Q939.7188,794.5156 940.2656,794.875 Z " fill="#000000"/><text fill="#000000" font-family="sans-serif" font-size="14" lengthAdjust="spacing" textLength="76" x="951.5" y="804.7285">UserService</text><line style="stroke:#181818;stroke-width:0.5;" x1="923.5" x2="1029.5" y1="815" y2="815"/><line style="stroke:#181818;stroke-width:0.5;" x1="923.5" x2="1029.5" y1="823" y2="823"/></g><!--class AppDbContext--><g id="elem_AppDbContext"><rect codeLine="49" fill="#F1F1F1" height="48" id="AppDbContext" rx="2.5" ry="2.5" style="stroke:#181818;stroke-width:0.5;" width="123" x="327" y="990"/><ellipse cx="342" cy="1006" fill="#ADD1B2" rx="11" ry="11" style="stroke:#181818;stroke-width:1.0;"/><path d="M344.7656,1001.875 Q344.9219,1001.6563 345.1094,1001.5469 Q345.2969,1001.4375 345.5156,1001.4375 Q345.8906,1001.4375 346.125,1001.7031 Q346.3594,1001.9531 346.3594,1002.5625 L346.3594,1004.0156 Q346.3594,1004.625 346.125,1004.8906 Q345.8906,1005.1563 345.5156,1005.1563 Q345.1719,1005.1563 344.9688,1004.9531 Q344.7656,1004.7656 344.6563,1004.25 Q344.6094,1003.8906 344.4219,1003.7031 Q344.0938,1003.3281 343.4844,1003.1094 Q342.875,1002.8906 342.25,1002.8906 Q341.4844,1002.8906 340.8438,1003.2188 Q340.2188,1003.5469 339.7188,1004.2969 Q339.2344,1005.0469 339.2344,1006.0781 L339.2344,1007.1719 Q339.2344,1008.4063 340.125,1009.2344 Q341.0156,1010.0469 342.6094,1010.0469 Q343.5469,1010.0469 344.2031,1009.7969 Q344.5938,1009.6406 345.0156,1009.2031 Q345.2813,1008.9375 345.4219,1008.8594 Q345.5781,1008.7813 345.7813,1008.7813 Q346.1094,1008.7813 346.3594,1009.0469 Q346.625,1009.2969 346.625,1009.6406 Q346.625,1009.9844 346.2813,1010.3906 Q345.7813,1010.9688 344.9844,1011.2969 Q343.9063,1011.75 342.6094,1011.75 Q341.0938,1011.75 339.8906,1011.125 Q338.9063,1010.625 338.2188,1009.5625 Q337.5313,1008.4844 337.5313,1007.2031 L337.5313,1006.0469 Q337.5313,1004.7188 338.1406,1003.5781 Q338.7656,1002.4219 339.8594,1001.8125 Q340.9531,1001.1875 342.1875,1001.1875 Q342.9219,1001.1875 343.5625,1001.3594 Q344.2188,1001.5156 344.7656,1001.875 Z " fill="#000000"/><text fill="#000000" font-family="sans-serif" font-size="14" lengthAdjust="spacing" textLength="91" x="356" y="1011.7285">AppDbContext</text><line style="stroke:#181818;stroke-width:0.5;" x1="328" x2="449" y1="1022" y2="1022"/><line style="stroke:#181818;stroke-width:0.5;" x1="328" x2="449" y1="1030" y2="1030"/></g><!--class Program--><g id="elem_Program"><rect codeLine="64" fill="#F1F1F1" height="48" id="Program" rx="2.5" ry="2.5" style="stroke:#181818;stroke-width:0.5;" width="86" x="692" y="1471"/><ellipse cx="707" cy="1487" fill="#ADD1B2" rx="11" ry="11" style="stroke:#181818;stroke-width:1.0;"/><path d="M709.7656,1482.875 Q709.9219,1482.6563 710.1094,1482.5469 Q710.2969,1482.4375 710.5156,1482.4375 Q710.8906,1482.4375 711.125,1482.7031 Q711.3594,1482.9531 711.3594,1483.5625 L711.3594,1485.0156 Q711.3594,1485.625 711.125,1485.8906 Q710.8906,1486.1563 710.5156,1486.1563 Q710.1719,1486.1563 709.9688,1485.9531 Q709.7656,1485.7656 709.6563,1485.25 Q709.6094,1484.8906 709.4219,1484.7031 Q709.0938,1484.3281 708.4844,1484.1094 Q707.875,1483.8906 707.25,1483.8906 Q706.4844,1483.8906 705.8438,1484.2188 Q705.2188,1484.5469 704.7188,1485.2969 Q704.2344,1486.0469 704.2344,1487.0781 L704.2344,1488.1719 Q704.2344,1489.4063 705.125,1490.2344 Q706.0156,1491.0469 707.6094,1491.0469 Q708.5469,1491.0469 709.2031,1490.7969 Q709.5938,1490.6406 710.0156,1490.2031 Q710.2813,1489.9375 710.4219,1489.8594 Q710.5781,1489.7813 710.7813,1489.7813 Q711.1094,1489.7813 711.3594,1490.0469 Q711.625,1490.2969 711.625,1490.6406 Q711.625,1490.9844 711.2813,1491.3906 Q710.7813,1491.9688 709.9844,1492.2969 Q708.9063,1492.75 707.6094,1492.75 Q706.0938,1492.75 704.8906,1492.125 Q703.9063,1491.625 703.2188,1490.5625 Q702.5313,1489.4844 702.5313,1488.2031 L702.5313,1487.0469 Q702.5313,1485.7188 703.1406,1484.5781 Q703.7656,1483.4219 704.8594,1482.8125 Q705.9531,1482.1875 707.1875,1482.1875 Q707.9219,1482.1875 708.5625,1482.3594 Q709.2188,1482.5156 709.7656,1482.875 Z " fill="#000000"/><text fill="#000000" font-family="sans-serif" font-size="14" lengthAdjust="spacing" textLength="54" x="721" y="1492.7285">Program</text><line style="stroke:#181818;stroke-width:0.5;" x1="693" x2="777" y1="1503" y2="1503"/><line style="stroke:#181818;stroke-width:0.5;" x1="693" x2="777" y1="1511" y2="1511"/></g><!--class AuthController--><g id="elem_AuthController"><rect codeLine="55" fill="#F1F1F1" height="48" id="AuthController" rx="2.5" ry="2.5" style="stroke:#181818;stroke-width:0.5;" width="123" x="673.5" y="1388"/><ellipse cx="688.5" cy="1404" fill="#ADD1B2" rx="11" ry="11" style="stroke:#181818;stroke-width:1.0;"/><path d="M691.2656,1399.875 Q691.4219,1399.6563 691.6094,1399.5469 Q691.7969,1399.4375 692.0156,1399.4375 Q692.3906,1399.4375 692.625,1399.7031 Q692.8594,1399.9531 692.8594,1400.5625 L692.8594,1402.0156 Q692.8594,1402.625 692.625,1402.8906 Q692.3906,1403.1563 692.0156,1403.1563 Q691.6719,1403.1563 691.4688,1402.9531 Q691.2656,1402.7656 691.1563,1402.25 Q691.1094,1401.8906 690.9219,1401.7031 Q690.5938,1401.3281 689.9844,1401.1094 Q689.375,1400.8906 688.75,1400.8906 Q687.9844,1400.8906 687.3438,1401.2188 Q686.7188,1401.5469 686.2188,1402.2969 Q685.7344,1403.0469 685.7344,1404.0781 L685.7344,1405.1719 Q685.7344,1406.4063 686.625,1407.2344 Q687.5156,1408.0469 689.1094,1408.0469 Q690.0469,1408.0469 690.7031,1407.7969 Q691.0938,1407.6406 691.5156,1407.2031 Q691.7813,1406.9375 691.9219,1406.8594 Q692.0781,1406.7813 692.2813,1406.7813 Q692.6094,1406.7813 692.8594,1407.0469 Q693.125,1407.2969 693.125,1407.6406 Q693.125,1407.9844 692.7813,1408.3906 Q692.2813,1408.9688 691.4844,1409.2969 Q690.4063,1409.75 689.1094,1409.75 Q687.5938,1409.75 686.3906,1409.125 Q685.4063,1408.625 684.7188,1407.5625 Q684.0313,1406.4844 684.0313,1405.2031 L684.0313,1404.0469 Q684.0313,1402.7188 684.6406,1401.5781 Q685.2656,1400.4219 686.3594,1399.8125 Q687.4531,1399.1875 688.6875,1399.1875 Q689.4219,1399.1875 690.0625,1399.3594 Q690.7188,1399.5156 691.2656,1399.875 Z " fill="#000000"/><text fill="#000000" font-family="sans-serif" font-size="14" lengthAdjust="spacing" textLength="91" x="702.5" y="1409.7285">AuthController</text><line style="stroke:#181818;stroke-width:0.5;" x1="674.5" x2="795.5" y1="1420" y2="1420"/><line style="stroke:#181818;stroke-width:0.5;" x1="674.5" x2="795.5" y1="1428" y2="1428"/></g><!--class DirectoriesController--><g id="elem_DirectoriesController"><rect codeLine="56" fill="#F1F1F1" height="48" id="DirectoriesController" rx="2.5" ry="2.5" style="stroke:#181818;stroke-width:0.5;" width="162" x="654" y="1305"/><ellipse cx="669" cy="1321" fill="#ADD1B2" rx="11" ry="11" style="stroke:#181818;stroke-width:1.0;"/><path d="M671.7656,1316.875 Q671.9219,1316.6563 672.1094,1316.5469 Q672.2969,1316.4375 672.5156,1316.4375 Q672.8906,1316.4375 673.125,1316.7031 Q673.3594,1316.9531 673.3594,1317.5625 L673.3594,1319.0156 Q673.3594,1319.625 673.125,1319.8906 Q672.8906,1320.1563 672.5156,1320.1563 Q672.1719,1320.1563 671.9688,1319.9531 Q671.7656,1319.7656 671.6563,1319.25 Q671.6094,1318.8906 671.4219,1318.7031 Q671.0938,1318.3281 670.4844,1318.1094 Q669.875,1317.8906 669.25,1317.8906 Q668.4844,1317.8906 667.8438,1318.2188 Q667.2188,1318.5469 666.7188,1319.2969 Q666.2344,1320.0469 666.2344,1321.0781 L666.2344,1322.1719 Q666.2344,1323.4063 667.125,1324.2344 Q668.0156,1325.0469 669.6094,1325.0469 Q670.5469,1325.0469 671.2031,1324.7969 Q671.5938,1324.6406 672.0156,1324.2031 Q672.2813,1323.9375 672.4219,1323.8594 Q672.5781,1323.7813 672.7813,1323.7813 Q673.1094,1323.7813 673.3594,1324.0469 Q673.625,1324.2969 673.625,1324.6406 Q673.625,1324.9844 673.2813,1325.3906 Q672.7813,1325.9688 671.9844,1326.2969 Q670.9063,1326.75 669.6094,1326.75 Q668.0938,1326.75 666.8906,1326.125 Q665.9063,1325.625 665.2188,1324.5625 Q664.5313,1323.4844 664.5313,1322.2031 L664.5313,1321.0469 Q664.5313,1319.7188 665.1406,1318.5781 Q665.7656,1317.4219 666.8594,1316.8125 Q667.9531,1316.1875 669.1875,1316.1875 Q669.9219,1316.1875 670.5625,1316.3594 Q671.2188,1316.5156 671.7656,1316.875 Z " fill="#000000"/><text fill="#000000" font-family="sans-serif" font-size="14" lengthAdjust="spacing" textLength="130" x="683" y="1326.7285">DirectoriesController</text><line style="stroke:#181818;stroke-width:0.5;" x1="655" x2="815" y1="1337" y2="1337"/><line style="stroke:#181818;stroke-width:0.5;" x1="655" x2="815" y1="1345" y2="1345"/></g><!--class FileInfoController--><g id="elem_FileInfoController"><rect codeLine="57" fill="#F1F1F1" height="48" id="FileInfoController" rx="2.5" ry="2.5" style="stroke:#181818;stroke-width:0.5;" width="140" x="665" y="1222"/><ellipse cx="680" cy="1238" fill="#ADD1B2" rx="11" ry="11" style="stroke:#181818;stroke-width:1.0;"/><path d="M682.7656,1233.875 Q682.9219,1233.6563 683.1094,1233.5469 Q683.2969,1233.4375 683.5156,1233.4375 Q683.8906,1233.4375 684.125,1233.7031 Q684.3594,1233.9531 684.3594,1234.5625 L684.3594,1236.0156 Q684.3594,1236.625 684.125,1236.8906 Q683.8906,1237.1563 683.5156,1237.1563 Q683.1719,1237.1563 682.9688,1236.9531 Q682.7656,1236.7656 682.6563,1236.25 Q682.6094,1235.8906 682.4219,1235.7031 Q682.0938,1235.3281 681.4844,1235.1094 Q680.875,1234.8906 680.25,1234.8906 Q679.4844,1234.8906 678.8438,1235.2188 Q678.2188,1235.5469 677.7188,1236.2969 Q677.2344,1237.0469 677.2344,1238.0781 L677.2344,1239.1719 Q677.2344,1240.4063 678.125,1241.2344 Q679.0156,1242.0469 680.6094,1242.0469 Q681.5469,1242.0469 682.2031,1241.7969 Q682.5938,1241.6406 683.0156,1241.2031 Q683.2813,1240.9375 683.4219,1240.8594 Q683.5781,1240.7813 683.7813,1240.7813 Q684.1094,1240.7813 684.3594,1241.0469 Q684.625,1241.2969 684.625,1241.6406 Q684.625,1241.9844 684.2813,1242.3906 Q683.7813,1242.9688 682.9844,1243.2969 Q681.9063,1243.75 680.6094,1243.75 Q679.0938,1243.75 677.8906,1243.125 Q676.9063,1242.625 676.2188,1241.5625 Q675.5313,1240.4844 675.5313,1239.2031 L675.5313,1238.0469 Q675.5313,1236.7188 676.1406,1235.5781 Q676.7656,1234.4219 677.8594,1233.8125 Q678.9531,1233.1875 680.1875,1233.1875 Q680.9219,1233.1875 681.5625,1233.3594 Q682.2188,1233.5156 682.7656,1233.875 Z " fill="#000000"/><text fill="#000000" font-family="sans-serif" font-size="14" lengthAdjust="spacing" textLength="108" x="694" y="1243.7285">FileInfoController</text><line style="stroke:#181818;stroke-width:0.5;" x1="666" x2="804" y1="1254" y2="1254"/><line style="stroke:#181818;stroke-width:0.5;" x1="666" x2="804" y1="1262" y2="1262"/></g><!--class FileVersionInfoController--><g id="elem_FileVersionInfoController"><rect codeLine="58" fill="#F1F1F1" height="48" id="FileVersionInfoController" rx="2.5" ry="2.5" style="stroke:#181818;stroke-width:0.5;" width="188" x="882.5" y="1388"/><ellipse cx="897.5" cy="1404" fill="#ADD1B2" rx="11" ry="11" style="stroke:#181818;stroke-width:1.0;"/><path d="M900.2656,1399.875 Q900.4219,1399.6563 900.6094,1399.5469 Q900.7969,1399.4375 901.0156,1399.4375 Q901.3906,1399.4375 901.625,1399.7031 Q901.8594,1399.9531 901.8594,1400.5625 L901.8594,1402.0156 Q901.8594,1402.625 901.625,1402.8906 Q901.3906,1403.1563 901.0156,1403.1563 Q900.6719,1403.1563 900.4688,1402.9531 Q900.2656,1402.7656 900.1563,1402.25 Q900.1094,1401.8906 899.9219,1401.7031 Q899.5938,1401.3281 898.9844,1401.1094 Q898.375,1400.8906 897.75,1400.8906 Q896.9844,1400.8906 896.3438,1401.2188 Q895.7188,1401.5469 895.2188,1402.2969 Q894.7344,1403.0469 894.7344,1404.0781 L894.7344,1405.1719 Q894.7344,1406.4063 895.625,1407.2344 Q896.5156,1408.0469 898.1094,1408.0469 Q899.0469,1408.0469 899.7031,1407.7969 Q900.0938,1407.6406 900.5156,1407.2031 Q900.7813,1406.9375 900.9219,1406.8594 Q901.0781,1406.7813 901.2813,1406.7813 Q901.6094,1406.7813 901.8594,1407.0469 Q902.125,1407.2969 902.125,1407.6406 Q902.125,1407.9844 901.7813,1408.3906 Q901.2813,1408.9688 900.4844,1409.2969 Q899.4063,1409.75 898.1094,1409.75 Q896.5938,1409.75 895.3906,1409.125 Q894.4063,1408.625 893.7188,1407.5625 Q893.0313,1406.4844 893.0313,1405.2031 L893.0313,1404.0469 Q893.0313,1402.7188 893.6406,1401.5781 Q894.2656,1400.4219 895.3594,1399.8125 Q896.4531,1399.1875 897.6875,1399.1875 Q898.4219,1399.1875 899.0625,1399.3594 Q899.7188,1399.5156 900.2656,1399.875 Z " fill="#000000"/><text fill="#000000" font-family="sans-serif" font-size="14" lengthAdjust="spacing" textLength="156" x="911.5" y="1409.7285">FileVersionInfoController</text><line style="stroke:#181818;stroke-width:0.5;" x1="883.5" x2="1069.5" y1="1420" y2="1420"/><line style="stroke:#181818;stroke-width:0.5;" x1="883.5" x2="1069.5" y1="1428" y2="1428"/></g><!--class RegularFilesController--><g id="elem_RegularFilesController"><rect codeLine="59" fill="#F1F1F1" height="48" id="RegularFilesController" rx="2.5" ry="2.5" style="stroke:#181818;stroke-width:0.5;" width="174" x="889.5" y="1305"/><ellipse cx="904.5" cy="1321" fill="#ADD1B2" rx="11" ry="11" style="stroke:#181818;stroke-width:1.0;"/><path d="M907.2656,1316.875 Q907.4219,1316.6563 907.6094,1316.5469 Q907.7969,1316.4375 908.0156,1316.4375 Q908.3906,1316.4375 908.625,1316.7031 Q908.8594,1316.9531 908.8594,1317.5625 L908.8594,1319.0156 Q908.8594,1319.625 908.625,1319.8906 Q908.3906,1320.1563 908.0156,1320.1563 Q907.6719,1320.1563 907.4688,1319.9531 Q907.2656,1319.7656 907.1563,1319.25 Q907.1094,1318.8906 906.9219,1318.7031 Q906.5938,1318.3281 905.9844,1318.1094 Q905.375,1317.8906 904.75,1317.8906 Q903.9844,1317.8906 903.3438,1318.2188 Q902.7188,1318.5469 902.2188,1319.2969 Q901.7344,1320.0469 901.7344,1321.0781 L901.7344,1322.1719 Q901.7344,1323.4063 902.625,1324.2344 Q903.5156,1325.0469 905.1094,1325.0469 Q906.0469,1325.0469 906.7031,1324.7969 Q907.0938,1324.6406 907.5156,1324.2031 Q907.7813,1323.9375 907.9219,1323.8594 Q908.0781,1323.7813 908.2813,1323.7813 Q908.6094,1323.7813 908.8594,1324.0469 Q909.125,1324.2969 909.125,1324.6406 Q909.125,1324.9844 908.7813,1325.3906 Q908.2813,1325.9688 907.4844,1326.2969 Q906.4063,1326.75 905.1094,1326.75 Q903.5938,1326.75 902.3906,1326.125 Q901.4063,1325.625 900.7188,1324.5625 Q900.0313,1323.4844 900.0313,1322.2031 L900.0313,1321.0469 Q900.0313,1319.7188 900.6406,1318.5781 Q901.2656,1317.4219 902.3594,1316.8125 Q903.4531,1316.1875 904.6875,1316.1875 Q905.4219,1316.1875 906.0625,1316.3594 Q906.7188,1316.5156 907.2656,1316.875 Z " fill="#000000"/><text fill="#000000" font-family="sans-serif" font-size="14" lengthAdjust="spacing" textLength="142" x="918.5" y="1326.7285">RegularFilesController</text><line style="stroke:#181818;stroke-width:0.5;" x1="890.5" x2="1062.5" y1="1337" y2="1337"/><line style="stroke:#181818;stroke-width:0.5;" x1="890.5" x2="1062.5" y1="1345" y2="1345"/></g><!--class SyncController--><g id="elem_SyncController"><rect codeLine="60" fill="#F1F1F1" height="48" id="SyncController" rx="2.5" ry="2.5" style="stroke:#181818;stroke-width:0.5;" width="125" x="914" y="1222"/><ellipse cx="929" cy="1238" fill="#ADD1B2" rx="11" ry="11" style="stroke:#181818;stroke-width:1.0;"/><path d="M931.7656,1233.875 Q931.9219,1233.6563 932.1094,1233.5469 Q932.2969,1233.4375 932.5156,1233.4375 Q932.8906,1233.4375 933.125,1233.7031 Q933.3594,1233.9531 933.3594,1234.5625 L933.3594,1236.0156 Q933.3594,1236.625 933.125,1236.8906 Q932.8906,1237.1563 932.5156,1237.1563 Q932.1719,1237.1563 931.9688,1236.9531 Q931.7656,1236.7656 931.6563,1236.25 Q931.6094,1235.8906 931.4219,1235.7031 Q931.0938,1235.3281 930.4844,1235.1094 Q929.875,1234.8906 929.25,1234.8906 Q928.4844,1234.8906 927.8438,1235.2188 Q927.2188,1235.5469 926.7188,1236.2969 Q926.2344,1237.0469 926.2344,1238.0781 L926.2344,1239.1719 Q926.2344,1240.4063 927.125,1241.2344 Q928.0156,1242.0469 929.6094,1242.0469 Q930.5469,1242.0469 931.2031,1241.7969 Q931.5938,1241.6406 932.0156,1241.2031 Q932.2813,1240.9375 932.4219,1240.8594 Q932.5781,1240.7813 932.7813,1240.7813 Q933.1094,1240.7813 933.3594,1241.0469 Q933.625,1241.2969 933.625,1241.6406 Q933.625,1241.9844 933.2813,1242.3906 Q932.7813,1242.9688 931.9844,1243.2969 Q930.9063,1243.75 929.6094,1243.75 Q928.0938,1243.75 926.8906,1243.125 Q925.9063,1242.625 925.2188,1241.5625 Q924.5313,1240.4844 924.5313,1239.2031 L924.5313,1238.0469 Q924.5313,1236.7188 925.1406,1235.5781 Q925.7656,1234.4219 926.8594,1233.8125 Q927.9531,1233.1875 929.1875,1233.1875 Q929.9219,1233.1875 930.5625,1233.3594 Q931.2188,1233.5156 931.7656,1233.875 Z " fill="#000000"/><text fill="#000000" font-family="sans-serif" font-size="14" lengthAdjust="spacing" textLength="93" x="943" y="1243.7285">SyncController</text><line style="stroke:#181818;stroke-width:0.5;" x1="915" x2="1038" y1="1254" y2="1254"/><line style="stroke:#181818;stroke-width:0.5;" x1="915" x2="1038" y1="1262" y2="1262"/></g><!--class UserController--><g id="elem_UserController"><rect codeLine="61" fill="#F1F1F1" height="48" id="UserController" rx="2.5" ry="2.5" style="stroke:#181818;stroke-width:0.5;" width="123" x="1156.5" y="1388"/><ellipse cx="1171.5" cy="1404" fill="#ADD1B2" rx="11" ry="11" style="stroke:#181818;stroke-width:1.0;"/><path d="M1174.2656,1399.875 Q1174.4219,1399.6563 1174.6094,1399.5469 Q1174.7969,1399.4375 1175.0156,1399.4375 Q1175.3906,1399.4375 1175.625,1399.7031 Q1175.8594,1399.9531 1175.8594,1400.5625 L1175.8594,1402.0156 Q1175.8594,1402.625 1175.625,1402.8906 Q1175.3906,1403.1563 1175.0156,1403.1563 Q1174.6719,1403.1563 1174.4688,1402.9531 Q1174.2656,1402.7656 1174.1563,1402.25 Q1174.1094,1401.8906 1173.9219,1401.7031 Q1173.5938,1401.3281 1172.9844,1401.1094 Q1172.375,1400.8906 1171.75,1400.8906 Q1170.9844,1400.8906 1170.3438,1401.2188 Q1169.7188,1401.5469 1169.2188,1402.2969 Q1168.7344,1403.0469 1168.7344,1404.0781 L1168.7344,1405.1719 Q1168.7344,1406.4063 1169.625,1407.2344 Q1170.5156,1408.0469 1172.1094,1408.0469 Q1173.0469,1408.0469 1173.7031,1407.7969 Q1174.0938,1407.6406 1174.5156,1407.2031 Q1174.7813,1406.9375 1174.9219,1406.8594 Q1175.0781,1406.7813 1175.2813,1406.7813 Q1175.6094,1406.7813 1175.8594,1407.0469 Q1176.125,1407.2969 1176.125,1407.6406 Q1176.125,1407.9844 1175.7813,1408.3906 Q1175.2813,1408.9688 1174.4844,1409.2969 Q1173.4063,1409.75 1172.1094,1409.75 Q1170.5938,1409.75 1169.3906,1409.125 Q1168.4063,1408.625 1167.7188,1407.5625 Q1167.0313,1406.4844 1167.0313,1405.2031 L1167.0313,1404.0469 Q1167.0313,1402.7188 1167.6406,1401.5781 Q1168.2656,1400.4219 1169.3594,1399.8125 Q1170.4531,1399.1875 1171.6875,1399.1875 Q1172.4219,1399.1875 1173.0625,1399.3594 Q1173.7188,1399.5156 1174.2656,1399.875 Z " fill="#000000"/><text fill="#000000" font-family="sans-serif" font-size="14" lengthAdjust="spacing" textLength="91" x="1185.5" y="1409.7285">UserController</text><line style="stroke:#181818;stroke-width:0.5;" x1="1157.5" x2="1278.5" y1="1420" y2="1420"/><line style="stroke:#181818;stroke-width:0.5;" x1="1157.5" x2="1278.5" y1="1428" y2="1428"/></g><!--link CloudDrive.Core to CloudDrive.Infrastructure--><g id="link_CloudDrive.Core_CloudDrive.Infrastructure"><path codeLine="68" d="M122.4728,572.5217 C122.4725,573.5264 122.4732,574.6148 122.4749,575.784 C122.4785,578.1224 122.4867,580.7842 122.5021,583.7472 C122.5635,595.5995 122.7395,612.2715 123.1914,632.343 C124.0953,672.4859 126.1031,726.2269 130.5063,782.2038 C139.3125,894.1575 157.7,1015.055 196,1054 C199.7225,1057.785 203.7118,1061.2254 207.921,1064.3492 C208.9733,1065.1302 210.0393,1065.8914 211.1183,1066.6332 C211.3881,1066.8187 211.6587,1067.0029 211.9301,1067.186 " fill="none" id="CloudDrive.Core-CloudDrive.Infrastructure" style="stroke:#181818;stroke-width:1.0;"/></g><!--link CloudDrive.Core to CloudDrive.WebAPI--><g id="link_CloudDrive.Core_CloudDrive.WebAPI"><path codeLine="69" d="M122.9461,572.1295 C122.9604,572.3809 122.9751,572.6378 122.9901,572.9002 C123.0502,573.9499 123.1158,575.0873 123.1869,576.3096 C123.3292,578.7541 123.4936,581.5383 123.6804,584.6397 C124.4276,597.0455 125.5323,614.5282 127.0066,635.6608 C129.955,677.9259 134.3813,734.7906 140.38,794.8388 C152.3775,914.935 170.665,1047.765 196,1102 C306.12,1337.74 359.44,1414.42 590,1535 C593.5194,1536.8406 597.1507,1538.5267 600.867,1540.0702 C601.7961,1540.4561 602.7304,1540.8331 603.6697,1541.2013 C604.1393,1541.3855 604.6102,1541.5674 605.0822,1541.7472 C605.3182,1541.8371 605.5545,1541.9265 605.7911,1542.0153 " fill="none" id="CloudDrive.Core-CloudDrive.WebAPI" style="stroke:#181818;stroke-width:1.0;"/></g><!--link CloudDrive.Infrastructure to CloudDrive.WebAPI--><g id="link_CloudDrive.Infrastructure_CloudDrive.WebAPI"><path codeLine="70" d="M396.3366,1094.1031 C396.7719,1094.627 397.2261,1095.1747 397.6986,1095.7459 C398.6434,1096.8881 399.6613,1098.124 400.7474,1099.4499 C402.9196,1102.1016 405.365,1105.1131 408.0463,1108.4552 C418.7712,1121.8234 433.27,1140.4806 449.155,1162.5537 C480.925,1206.7 518.24,1264.51 542,1321 C579.79,1410.85 518.06,1469.23 590,1535 C592.9312,1537.68 596.0469,1540.1021 599.3131,1542.288 C600.9462,1543.381 602.617,1544.4148 604.3211,1545.3923 C604.7472,1545.6367 605.1753,1545.8776 605.6055,1546.115 " fill="none" id="CloudDrive.Infrastructure-CloudDrive.WebAPI" style="stroke:#181818;stroke-width:1.0;"/></g><!--SRC=[ZLN1Ri8m3BttAwBTuHyOPHAJq12mxHnQKwArIUIuC8JuzoKKLBes2JrLUSzvjf_Tbh0ZHegXAFR4Se6GaL0oCK1CyWgCvXciGNFaf9199I59CbLf-oA9lKnBLUSfYWECfmhXXPqJPXy_OvogYWivdaaI1EOUS0qgkJ7iJPJ0pfU1qoz0OtFhWvy6y7vwIQ89R3w6LIqG51x4dVO349TVSAtjVSCfD60m2n_59TB5uhci0GyYwxeW907khEjiFiaiPZRg1-GIrK7aNTr7PatxssKUXgjWBdSgpbfmoGl0E75zCWHLd7ThN5nzQVjuL9ZFPARyjRf6_xldabnyMs5LaHl2EgCwjXzTxg0xZTUUTZVWwnHFcWArj2FbQSdZFFgyQ3bU6tgZ6vHxFr9atjevxxN_-QQkG2iZxBTC33PMwtGxLTRiNth2t6_OJfRpiAaDP-mkHLMMWwll_6m9_PhJwtVvcdE8ThSqndcm8qHTGL6N75r4K7Pzaba8TuxryRjfLugrkq1UESoU9_tVocWKsgfumCsf9BIQdf0_]--></g></svg>