<svg xmlns="http://www.w3.org/2000/svg" xmlns:xlink="http://www.w3.org/1999/xlink" contentStyleType="text/css" data-diagram-type="CLASS" height="1557px" preserveAspectRatio="none" style="width:1423px;height:1557px;background:#FFFFFF;" version="1.1" viewBox="0 0 1423 1557" width="1423px" zoomAndPan="magnify"><defs/><g><!--cluster CloudDrive.Core--><g class="cluster" data-entity="CloudDrive.Core" data-source-line="4" data-uid="ent0002" id="cluster_CloudDrive.Core"><rect fill="none" height="562" rx="2.5" ry="2.5" style="stroke:#181818;stroke-width:1;" width="1410.1" x="7" y="7"/><rect fill="none" height="10" style="stroke:#181818;stroke-width:1;" width="15" x="1397.1" y="12"/><rect fill="none" height="2" style="stroke:#181818;stroke-width:1;" width="4" x="1395.1" y="14"/><rect fill="none" height="2" style="stroke:#181818;stroke-width:1;" width="4" x="1395.1" y="18"/><text fill="#000000" font-family="sans-serif" font-size="14" font-weight="bold" lengthAdjust="spacing" textLength="128.2354" x="647.9323" y="32.9951">CloudDrive.Core</text></g><!--cluster CloudDrive.Core.Domain.Entites--><g class="cluster" data-entity="CloudDrive.Core.Domain.Entites" data-source-line="5" data-uid="ent0003" id="cluster_CloudDrive.Core.Domain.Entites"><rect fill="none" height="182" rx="2.5" ry="2.5" style="stroke:#181818;stroke-width:1;" width="404.79" x="54.18" y="347"/><rect fill="none" height="10" style="stroke:#181818;stroke-width:1;" width="15" x="438.97" y="352"/><rect fill="none" height="2" style="stroke:#181818;stroke-width:1;" width="4" x="436.97" y="354"/><rect fill="none" height="2" style="stroke:#181818;stroke-width:1;" width="4" x="436.97" y="358"/><text fill="#000000" font-family="sans-serif" font-size="14" font-weight="bold" lengthAdjust="spacing" textLength="254.4541" x="129.3479" y="372.9951">CloudDrive.Core.Domain.Entites</text></g><!--cluster CloudDrive.Core.DTO--><g class="cluster" data-entity="CloudDrive.Core.DTO" data-source-line="11" data-uid="ent0007" id="cluster_CloudDrive.Core.DTO"><rect fill="none" height="182" rx="2.5" ry="2.5" style="stroke:#181818;stroke-width:1;" width="435.15" x="39" y="141"/><rect fill="none" height="10" style="stroke:#181818;stroke-width:1;" width="15" x="454.15" y="146"/><rect fill="none" height="2" style="stroke:#181818;stroke-width:1;" width="4" x="452.15" y="148"/><rect fill="none" height="2" style="stroke:#181818;stroke-width:1;" width="4" x="452.15" y="152"/><text fill="#000000" font-family="sans-serif" font-size="14" font-weight="bold" lengthAdjust="spacing" textLength="166.626" x="173.262" y="166.9951">CloudDrive.Core.DTO</text></g><!--cluster CloudDrive.Core.Mappers--><g class="cluster" data-entity="CloudDrive.Core.Mappers" data-source-line="17" data-uid="ent0011" id="cluster_CloudDrive.Core.Mappers"><rect fill="none" height="182" rx="2.5" ry="2.5" style="stroke:#181818;stroke-width:1;" width="427.23" x="683.52" y="347"/><rect fill="none" height="10" style="stroke:#181818;stroke-width:1;" width="15" x="1090.75" y="352"/><rect fill="none" height="2" style="stroke:#181818;stroke-width:1;" width="4" x="1088.75" y="354"/><rect fill="none" height="2" style="stroke:#181818;stroke-width:1;" width="4" x="1088.75" y="358"/><text fill="#000000" font-family="sans-serif" font-size="14" font-weight="bold" lengthAdjust="spacing" textLength="201.708" x="796.281" y="372.9951">CloudDrive.Core.Mappers</text></g><!--cluster CloudDrive.Core.Services--><g class="cluster" data-entity="CloudDrive.Core.Services" data-source-line="23" data-uid="ent0015" id="cluster_CloudDrive.Core.Services"><rect fill="none" height="265" rx="2.5" ry="2.5" style="stroke:#181818;stroke-width:1;" width="713.28" x="671.82" y="58"/><rect fill="none" height="10" style="stroke:#181818;stroke-width:1;" width="15" x="1365.1" y="63"/><rect fill="none" height="2" style="stroke:#181818;stroke-width:1;" width="4" x="1363.1" y="65"/><rect fill="none" height="2" style="stroke:#181818;stroke-width:1;" width="4" x="1363.1" y="69"/><text fill="#000000" font-family="sans-serif" font-size="14" font-weight="bold" lengthAdjust="spacing" textLength="200.0879" x="928.4161" y="83.9951">CloudDrive.Core.Services</text></g><!--cluster CloudDrive.Infrastructure--><g class="cluster" data-entity="CloudDrive.Infrastructure" data-source-line="35" data-uid="ent0024" id="cluster_CloudDrive.Infrastructure"><rect fill="none" height="479" rx="2.5" ry="2.5" style="stroke:#181818;stroke-width:1;" width="967.51" x="217.96" y="609"/><rect fill="none" height="10" style="stroke:#181818;stroke-width:1;" width="15" x="1165.47" y="614"/><rect fill="none" height="2" style="stroke:#181818;stroke-width:1;" width="4" x="1163.47" y="616"/><rect fill="none" height="2" style="stroke:#181818;stroke-width:1;" width="4" x="1163.47" y="620"/><text fill="#000000" font-family="sans-serif" font-size="14" font-weight="bold" lengthAdjust="spacing" textLength="202.8154" x="600.3073" y="634.9951">CloudDrive.Infrastructure</text></g><!--cluster CloudDrive.Infrastructure.Services--><g class="cluster" data-entity="CloudDrive.Infrastructure.Services" data-source-line="36" data-uid="ent0025" id="cluster_CloudDrive.Infrastructure.Services"><rect fill="none" height="265" rx="2.5" ry="2.5" style="stroke:#181818;stroke-width:1;" width="860.1" x="293.37" y="783"/><rect fill="none" height="10" style="stroke:#181818;stroke-width:1;" width="15" x="1133.47" y="788"/><rect fill="none" height="2" style="stroke:#181818;stroke-width:1;" width="4" x="1131.47" y="790"/><rect fill="none" height="2" style="stroke:#181818;stroke-width:1;" width="4" x="1131.47" y="794"/><text fill="#000000" font-family="sans-serif" font-size="14" font-weight="bold" lengthAdjust="spacing" textLength="274.668" x="586.086" y="808.9951">CloudDrive.Infrastructure.Services</text></g><!--cluster CloudDrive.Infrastructure.Repositories--><g class="cluster" data-entity="CloudDrive.Infrastructure.Repositories" data-source-line="47" data-uid="ent0034" id="cluster_CloudDrive.Infrastructure.Repositories"><rect fill="none" height="99" rx="2.5" ry="2.5" style="stroke:#181818;stroke-width:1;" width="322.11" x="249.96" y="660"/><rect fill="none" height="10" style="stroke:#181818;stroke-width:1;" width="15" x="552.07" y="665"/><rect fill="none" height="2" style="stroke:#181818;stroke-width:1;" width="4" x="550.07" y="667"/><rect fill="none" height="2" style="stroke:#181818;stroke-width:1;" width="4" x="550.07" y="671"/><text fill="#000000" font-family="sans-serif" font-size="14" font-weight="bold" lengthAdjust="spacing" textLength="307.0225" x="257.5038" y="685.9951">CloudDrive.Infrastructure.Repositories</text></g><!--cluster CloudDrive.WebAPI--><g class="cluster" data-entity="CloudDrive.WebAPI" data-source-line="52" data-uid="ent0036" id="cluster_CloudDrive.WebAPI"><rect fill="none" height="423" rx="2.5" ry="2.5" style="stroke:#181818;stroke-width:1;" width="760.15" x="643.67" y="1128"/><rect fill="none" height="10" style="stroke:#181818;stroke-width:1;" width="15" x="1383.82" y="1133"/><rect fill="none" height="2" style="stroke:#181818;stroke-width:1;" width="4" x="1381.82" y="1135"/><rect fill="none" height="2" style="stroke:#181818;stroke-width:1;" width="4" x="1381.82" y="1139"/><text fill="#000000" font-family="sans-serif" font-size="14" font-weight="bold" lengthAdjust="spacing" textLength="153.207" x="947.1415" y="1153.9951">CloudDrive.WebAPI</text></g><!--cluster CloudDrive.WebAPI.Controllers--><g class="cluster" data-entity="CloudDrive.WebAPI.Controllers" data-source-line="53" data-uid="ent0037" id="cluster_CloudDrive.WebAPI.Controllers"><rect fill="none" height="265" rx="2.5" ry="2.5" style="stroke:#181818;stroke-width:1;" width="696.15" x="675.67" y="1254"/><rect fill="none" height="10" style="stroke:#181818;stroke-width:1;" width="15" x="1351.82" y="1259"/><rect fill="none" height="2" style="stroke:#181818;stroke-width:1;" width="4" x="1349.82" y="1261"/><rect fill="none" height="2" style="stroke:#181818;stroke-width:1;" width="4" x="1349.82" y="1265"/><text fill="#000000" font-family="sans-serif" font-size="14" font-weight="bold" lengthAdjust="spacing" textLength="245.9297" x="900.7802" y="1279.9951">CloudDrive.WebAPI.Controllers</text></g><!--class File--><g class="entity" data-entity="File" data-source-line="6" data-uid="ent0004" id="entity_File"><rect fill="#F1F1F1" height="48" rx="2.5" ry="2.5" style="stroke:#181818;stroke-width:0.5;" width="56.4453" x="96.46" y="465"/><ellipse cx="111.46" cy="481" fill="#ADD1B2" rx="11" ry="11" style="stroke:#181818;stroke-width:1;"/><path d="M114.4288,486.6406 Q113.8506,486.9375 113.21,487.0781 Q112.5694,487.2344 111.8663,487.2344 Q109.3663,487.2344 108.0381,485.5938 Q106.7256,483.9375 106.7256,480.8125 Q106.7256,477.6875 108.0381,476.0313 Q109.3663,474.375 111.8663,474.375 Q112.5694,474.375 113.21,474.5313 Q113.8663,474.6875 114.4288,474.9844 L114.4288,477.7031 Q113.8038,477.125 113.21,476.8594 Q112.6163,476.5781 111.9913,476.5781 Q110.6475,476.5781 109.96,477.6563 Q109.2725,478.7188 109.2725,480.8125 Q109.2725,482.9063 109.96,483.9844 Q110.6475,485.0469 111.9913,485.0469 Q112.6163,485.0469 113.21,484.7813 Q113.8038,484.5 114.4288,483.9219 L114.4288,486.6406 Z " fill="#000000"/><text fill="#000000" font-family="sans-serif" font-size="14" lengthAdjust="spacing" textLength="24.4453" x="125.46" y="485.8467">File</text><line style="stroke:#181818;stroke-width:0.5;" x1="97.46" x2="151.9053" y1="497" y2="497"/><line style="stroke:#181818;stroke-width:0.5;" x1="97.46" x2="151.9053" y1="505" y2="505"/></g><!--class FileVersion--><g class="entity" data-entity="FileVersion" data-source-line="7" data-uid="ent0005" id="entity_FileVersion"><rect fill="#F1F1F1" height="48" rx="2.5" ry="2.5" style="stroke:#181818;stroke-width:0.5;" width="109.0137" x="70.18" y="382"/><ellipse cx="85.18" cy="398" fill="#ADD1B2" rx="11" ry="11" style="stroke:#181818;stroke-width:1;"/><path d="M88.1488,403.6406 Q87.5706,403.9375 86.93,404.0781 Q86.2894,404.2344 85.5863,404.2344 Q83.0863,404.2344 81.7581,402.5938 Q80.4456,400.9375 80.4456,397.8125 Q80.4456,394.6875 81.7581,393.0313 Q83.0863,391.375 85.5863,391.375 Q86.2894,391.375 86.93,391.5313 Q87.5863,391.6875 88.1488,391.9844 L88.1488,394.7031 Q87.5238,394.125 86.93,393.8594 Q86.3363,393.5781 85.7113,393.5781 Q84.3675,393.5781 83.68,394.6563 Q82.9925,395.7188 82.9925,397.8125 Q82.9925,399.9063 83.68,400.9844 Q84.3675,402.0469 85.7113,402.0469 Q86.3363,402.0469 86.93,401.7813 Q87.5238,401.5 88.1488,400.9219 L88.1488,403.6406 Z " fill="#000000"/><text fill="#000000" font-family="sans-serif" font-size="14" lengthAdjust="spacing" textLength="77.0137" x="99.18" y="402.8467">FileVersion</text><line style="stroke:#181818;stroke-width:0.5;" x1="71.18" x2="178.1937" y1="414" y2="414"/><line style="stroke:#181818;stroke-width:0.5;" x1="71.18" x2="178.1937" y1="422" y2="422"/></g><!--class User--><g class="entity" data-entity="User" data-source-line="8" data-uid="ent0006" id="entity_User"><rect fill="#F1F1F1" height="48" rx="2.5" ry="2.5" style="stroke:#181818;stroke-width:0.5;" width="63.9102" x="379.06" y="465"/><ellipse cx="394.06" cy="481" fill="#ADD1B2" rx="11" ry="11" style="stroke:#181818;stroke-width:1;"/><path d="M397.0288,486.6406 Q396.4506,486.9375 395.81,487.0781 Q395.1694,487.2344 394.4663,487.2344 Q391.9663,487.2344 390.6381,485.5938 Q389.3256,483.9375 389.3256,480.8125 Q389.3256,477.6875 390.6381,476.0313 Q391.9663,474.375 394.4663,474.375 Q395.1694,474.375 395.81,474.5313 Q396.4663,474.6875 397.0288,474.9844 L397.0288,477.7031 Q396.4038,477.125 395.81,476.8594 Q395.2163,476.5781 394.5913,476.5781 Q393.2475,476.5781 392.56,477.6563 Q391.8725,478.7188 391.8725,480.8125 Q391.8725,482.9063 392.56,483.9844 Q393.2475,485.0469 394.5913,485.0469 Q395.2163,485.0469 395.81,484.7813 Q396.4038,484.5 397.0288,483.9219 L397.0288,486.6406 Z " fill="#000000"/><text fill="#000000" font-family="sans-serif" font-size="14" lengthAdjust="spacing" textLength="31.9102" x="408.06" y="485.8467">User</text><line style="stroke:#181818;stroke-width:0.5;" x1="380.06" x2="441.9702" y1="497" y2="497"/><line style="stroke:#181818;stroke-width:0.5;" x1="380.06" x2="441.9702" y1="505" y2="505"/></g><!--class FileDTO--><g class="entity" data-entity="FileDTO" data-source-line="12" data-uid="ent0008" id="entity_FileDTO"><rect fill="#F1F1F1" height="48" rx="2.5" ry="2.5" style="stroke:#181818;stroke-width:0.5;" width="86.7969" x="81.28" y="259"/><ellipse cx="96.28" cy="275" fill="#ADD1B2" rx="11" ry="11" style="stroke:#181818;stroke-width:1;"/><path d="M99.2488,280.6406 Q98.6706,280.9375 98.03,281.0781 Q97.3894,281.2344 96.6863,281.2344 Q94.1863,281.2344 92.8581,279.5938 Q91.5456,277.9375 91.5456,274.8125 Q91.5456,271.6875 92.8581,270.0313 Q94.1863,268.375 96.6863,268.375 Q97.3894,268.375 98.03,268.5313 Q98.6863,268.6875 99.2488,268.9844 L99.2488,271.7031 Q98.6238,271.125 98.03,270.8594 Q97.4363,270.5781 96.8113,270.5781 Q95.4675,270.5781 94.78,271.6563 Q94.0925,272.7188 94.0925,274.8125 Q94.0925,276.9063 94.78,277.9844 Q95.4675,279.0469 96.8113,279.0469 Q97.4363,279.0469 98.03,278.7813 Q98.6238,278.5 99.2488,277.9219 L99.2488,280.6406 Z " fill="#000000"/><text fill="#000000" font-family="sans-serif" font-size="14" lengthAdjust="spacing" textLength="54.7969" x="110.28" y="279.8467">FileDTO</text><line style="stroke:#181818;stroke-width:0.5;" x1="82.28" x2="167.0769" y1="291" y2="291"/><line style="stroke:#181818;stroke-width:0.5;" x1="82.28" x2="167.0769" y1="299" y2="299"/></g><!--class FileVersionDTO--><g class="entity" data-entity="FileVersionDTO" data-source-line="13" data-uid="ent0009" id="entity_FileVersionDTO"><rect fill="#F1F1F1" height="48" rx="2.5" ry="2.5" style="stroke:#181818;stroke-width:0.5;" width="139.3652" x="55" y="176"/><ellipse cx="70" cy="192" fill="#ADD1B2" rx="11" ry="11" style="stroke:#181818;stroke-width:1;"/><path d="M72.9688,197.6406 Q72.3906,197.9375 71.75,198.0781 Q71.1094,198.2344 70.4063,198.2344 Q67.9063,198.2344 66.5781,196.5938 Q65.2656,194.9375 65.2656,191.8125 Q65.2656,188.6875 66.5781,187.0313 Q67.9063,185.375 70.4063,185.375 Q71.1094,185.375 71.75,185.5313 Q72.4063,185.6875 72.9688,185.9844 L72.9688,188.7031 Q72.3438,188.125 71.75,187.8594 Q71.1563,187.5781 70.5313,187.5781 Q69.1875,187.5781 68.5,188.6563 Q67.8125,189.7188 67.8125,191.8125 Q67.8125,193.9063 68.5,194.9844 Q69.1875,196.0469 70.5313,196.0469 Q71.1563,196.0469 71.75,195.7813 Q72.3438,195.5 72.9688,194.9219 L72.9688,197.6406 Z " fill="#000000"/><text fill="#000000" font-family="sans-serif" font-size="14" lengthAdjust="spacing" textLength="107.3652" x="84" y="196.8467">FileVersionDTO</text><line style="stroke:#181818;stroke-width:0.5;" x1="56" x2="193.3652" y1="208" y2="208"/><line style="stroke:#181818;stroke-width:0.5;" x1="56" x2="193.3652" y1="216" y2="216"/></g><!--class UserDTO--><g class="entity" data-entity="UserDTO" data-source-line="14" data-uid="ent0010" id="entity_UserDTO"><rect fill="#F1F1F1" height="48" rx="2.5" ry="2.5" style="stroke:#181818;stroke-width:0.5;" width="94.2617" x="363.89" y="259"/><ellipse cx="378.89" cy="275" fill="#ADD1B2" rx="11" ry="11" style="stroke:#181818;stroke-width:1;"/><path d="M381.8588,280.6406 Q381.2806,280.9375 380.64,281.0781 Q379.9994,281.2344 379.2963,281.2344 Q376.7963,281.2344 375.4681,279.5938 Q374.1556,277.9375 374.1556,274.8125 Q374.1556,271.6875 375.4681,270.0313 Q376.7963,268.375 379.2963,268.375 Q379.9994,268.375 380.64,268.5313 Q381.2963,268.6875 381.8588,268.9844 L381.8588,271.7031 Q381.2338,271.125 380.64,270.8594 Q380.0463,270.5781 379.4213,270.5781 Q378.0775,270.5781 377.39,271.6563 Q376.7025,272.7188 376.7025,274.8125 Q376.7025,276.9063 377.39,277.9844 Q378.0775,279.0469 379.4213,279.0469 Q380.0463,279.0469 380.64,278.7813 Q381.2338,278.5 381.8588,277.9219 L381.8588,280.6406 Z " fill="#000000"/><text fill="#000000" font-family="sans-serif" font-size="14" lengthAdjust="spacing" textLength="62.2617" x="392.89" y="279.8467">UserDTO</text><line style="stroke:#181818;stroke-width:0.5;" x1="364.89" x2="457.1517" y1="291" y2="291"/><line style="stroke:#181818;stroke-width:0.5;" x1="364.89" x2="457.1517" y1="299" y2="299"/></g><!--class FileMapper--><g class="entity" data-entity="FileMapper" data-source-line="18" data-uid="ent0012" id="entity_FileMapper"><rect fill="#F1F1F1" height="48" rx="2.5" ry="2.5" style="stroke:#181818;stroke-width:0.5;" width="109.2461" x="725.8" y="465"/><ellipse cx="740.8" cy="481" fill="#ADD1B2" rx="11" ry="11" style="stroke:#181818;stroke-width:1;"/><path d="M743.7688,486.6406 Q743.1906,486.9375 742.55,487.0781 Q741.9094,487.2344 741.2063,487.2344 Q738.7063,487.2344 737.3781,485.5938 Q736.0656,483.9375 736.0656,480.8125 Q736.0656,477.6875 737.3781,476.0313 Q738.7063,474.375 741.2063,474.375 Q741.9094,474.375 742.55,474.5313 Q743.2063,474.6875 743.7688,474.9844 L743.7688,477.7031 Q743.1438,477.125 742.55,476.8594 Q741.9563,476.5781 741.3313,476.5781 Q739.9875,476.5781 739.3,477.6563 Q738.6125,478.7188 738.6125,480.8125 Q738.6125,482.9063 739.3,483.9844 Q739.9875,485.0469 741.3313,485.0469 Q741.9563,485.0469 742.55,484.7813 Q743.1438,484.5 743.7688,483.9219 L743.7688,486.6406 Z " fill="#000000"/><text fill="#000000" font-family="sans-serif" font-size="14" lengthAdjust="spacing" textLength="77.2461" x="754.8" y="485.8467">FileMapper</text><line style="stroke:#181818;stroke-width:0.5;" x1="726.8" x2="834.0461" y1="497" y2="497"/><line style="stroke:#181818;stroke-width:0.5;" x1="726.8" x2="834.0461" y1="505" y2="505"/></g><!--class FileVersionMapper--><g class="entity" data-entity="FileVersionMapper" data-source-line="19" data-uid="ent0013" id="entity_FileVersionMapper"><rect fill="#F1F1F1" height="48" rx="2.5" ry="2.5" style="stroke:#181818;stroke-width:0.5;" width="161.8145" x="699.52" y="382"/><ellipse cx="714.52" cy="398" fill="#ADD1B2" rx="11" ry="11" style="stroke:#181818;stroke-width:1;"/><path d="M717.4888,403.6406 Q716.9106,403.9375 716.27,404.0781 Q715.6294,404.2344 714.9263,404.2344 Q712.4263,404.2344 711.0981,402.5938 Q709.7856,400.9375 709.7856,397.8125 Q709.7856,394.6875 711.0981,393.0313 Q712.4263,391.375 714.9263,391.375 Q715.6294,391.375 716.27,391.5313 Q716.9263,391.6875 717.4888,391.9844 L717.4888,394.7031 Q716.8638,394.125 716.27,393.8594 Q715.6763,393.5781 715.0513,393.5781 Q713.7075,393.5781 713.02,394.6563 Q712.3325,395.7188 712.3325,397.8125 Q712.3325,399.9063 713.02,400.9844 Q713.7075,402.0469 715.0513,402.0469 Q715.6763,402.0469 716.27,401.7813 Q716.8638,401.5 717.4888,400.9219 L717.4888,403.6406 Z " fill="#000000"/><text fill="#000000" font-family="sans-serif" font-size="14" lengthAdjust="spacing" textLength="129.8145" x="728.52" y="402.8467">FileVersionMapper</text><line style="stroke:#181818;stroke-width:0.5;" x1="700.52" x2="860.3345" y1="414" y2="414"/><line style="stroke:#181818;stroke-width:0.5;" x1="700.52" x2="860.3345" y1="422" y2="422"/></g><!--class UserMapper--><g class="entity" data-entity="UserMapper" data-source-line="20" data-uid="ent0014" id="entity_UserMapper"><rect fill="#F1F1F1" height="48" rx="2.5" ry="2.5" style="stroke:#181818;stroke-width:0.5;" width="116.7109" x="978.04" y="465"/><ellipse cx="993.04" cy="481" fill="#ADD1B2" rx="11" ry="11" style="stroke:#181818;stroke-width:1;"/><path d="M996.0088,486.6406 Q995.4306,486.9375 994.79,487.0781 Q994.1494,487.2344 993.4463,487.2344 Q990.9463,487.2344 989.6181,485.5938 Q988.3056,483.9375 988.3056,480.8125 Q988.3056,477.6875 989.6181,476.0313 Q990.9463,474.375 993.4463,474.375 Q994.1494,474.375 994.79,474.5313 Q995.4463,474.6875 996.0088,474.9844 L996.0088,477.7031 Q995.3838,477.125 994.79,476.8594 Q994.1963,476.5781 993.5713,476.5781 Q992.2275,476.5781 991.54,477.6563 Q990.8525,478.7188 990.8525,480.8125 Q990.8525,482.9063 991.54,483.9844 Q992.2275,485.0469 993.5713,485.0469 Q994.1963,485.0469 994.79,484.7813 Q995.3838,484.5 996.0088,483.9219 L996.0088,486.6406 Z " fill="#000000"/><text fill="#000000" font-family="sans-serif" font-size="14" lengthAdjust="spacing" textLength="84.7109" x="1007.04" y="485.8467">UserMapper</text><line style="stroke:#181818;stroke-width:0.5;" x1="979.04" x2="1093.7509" y1="497" y2="497"/><line style="stroke:#181818;stroke-width:0.5;" x1="979.04" x2="1093.7509" y1="505" y2="505"/></g><!--class IAccessTokenProvider--><g class="entity" data-entity="IAccessTokenProvider" data-source-line="24" data-uid="ent0016" id="entity_IAccessTokenProvider"><rect fill="#F1F1F1" height="48" rx="2.5" ry="2.5" style="stroke:#181818;stroke-width:0.5;" width="185.207" x="687.82" y="259"/><ellipse cx="702.82" cy="275" fill="#B4A7E5" rx="11" ry="11" style="stroke:#181818;stroke-width:1;"/><path d="M698.7419,270.7656 L698.7419,268.6094 L706.1325,268.6094 L706.1325,270.7656 L703.6638,270.7656 L703.6638,278.8438 L706.1325,278.8438 L706.1325,281 L698.7419,281 L698.7419,278.8438 L701.2106,278.8438 L701.2106,270.7656 L698.7419,270.7656 Z " fill="#000000"/><text fill="#000000" font-family="sans-serif" font-size="14" font-style="italic" lengthAdjust="spacing" textLength="153.207" x="716.82" y="279.8467">IAccessTokenProvider</text><line style="stroke:#181818;stroke-width:0.5;" x1="688.82" x2="872.027" y1="291" y2="291"/><line style="stroke:#181818;stroke-width:0.5;" x1="688.82" x2="872.027" y1="299" y2="299"/></g><!--class IAuthService--><g class="entity" data-entity="IAuthService" data-source-line="25" data-uid="ent0017" id="entity_IAuthService"><rect fill="#F1F1F1" height="48" rx="2.5" ry="2.5" style="stroke:#181818;stroke-width:0.5;" width="120.6826" x="720.08" y="176"/><ellipse cx="735.08" cy="192" fill="#B4A7E5" rx="11" ry="11" style="stroke:#181818;stroke-width:1;"/><path d="M731.0019,187.7656 L731.0019,185.6094 L738.3925,185.6094 L738.3925,187.7656 L735.9238,187.7656 L735.9238,195.8438 L738.3925,195.8438 L738.3925,198 L731.0019,198 L731.0019,195.8438 L733.4706,195.8438 L733.4706,187.7656 L731.0019,187.7656 Z " fill="#000000"/><text fill="#000000" font-family="sans-serif" font-size="14" font-style="italic" lengthAdjust="spacing" textLength="88.6826" x="749.08" y="196.8467">IAuthService</text><line style="stroke:#181818;stroke-width:0.5;" x1="721.08" x2="839.7626" y1="208" y2="208"/><line style="stroke:#181818;stroke-width:0.5;" x1="721.08" x2="839.7626" y1="216" y2="216"/></g><!--class IFileInfoService--><g class="entity" data-entity="IFileInfoService" data-source-line="26" data-uid="ent0018" id="entity_IFileInfoService"><rect fill="#F1F1F1" height="48" rx="2.5" ry="2.5" style="stroke:#181818;stroke-width:0.5;" width="138.8115" x="711.02" y="93"/><ellipse cx="726.02" cy="109" fill="#B4A7E5" rx="11" ry="11" style="stroke:#181818;stroke-width:1;"/><path d="M721.9419,104.7656 L721.9419,102.6094 L729.3325,102.6094 L729.3325,104.7656 L726.8638,104.7656 L726.8638,112.8438 L729.3325,112.8438 L729.3325,115 L721.9419,115 L721.9419,112.8438 L724.4106,112.8438 L724.4106,104.7656 L721.9419,104.7656 Z " fill="#000000"/><text fill="#000000" font-family="sans-serif" font-size="14" font-style="italic" lengthAdjust="spacing" textLength="106.8115" x="740.02" y="113.8467">IFileInfoService</text><line style="stroke:#181818;stroke-width:0.5;" x1="712.02" x2="848.8315" y1="125" y2="125"/><line style="stroke:#181818;stroke-width:0.5;" x1="712.02" x2="848.8315" y1="133" y2="133"/></g><!--class IFileManagerService--><g class="entity" data-entity="IFileManagerService" data-source-line="27" data-uid="ent0019" id="entity_IFileManagerService"><rect fill="#F1F1F1" height="48" rx="2.5" ry="2.5" style="stroke:#181818;stroke-width:0.5;" width="173.6816" x="949.55" y="259"/><ellipse cx="964.55" cy="275" fill="#B4A7E5" rx="11" ry="11" style="stroke:#181818;stroke-width:1;"/><path d="M960.4719,270.7656 L960.4719,268.6094 L967.8625,268.6094 L967.8625,270.7656 L965.3938,270.7656 L965.3938,278.8438 L967.8625,278.8438 L967.8625,281 L960.4719,281 L960.4719,278.8438 L962.9406,278.8438 L962.9406,270.7656 L960.4719,270.7656 Z " fill="#000000"/><text fill="#000000" font-family="sans-serif" font-size="14" font-style="italic" lengthAdjust="spacing" textLength="141.6816" x="978.55" y="279.8467">IFileManagerService</text><line style="stroke:#181818;stroke-width:0.5;" x1="950.55" x2="1122.2316" y1="291" y2="291"/><line style="stroke:#181818;stroke-width:0.5;" x1="950.55" x2="1122.2316" y1="299" y2="299"/></g><!--class IFileSystemService--><g class="entity" data-entity="IFileSystemService" data-source-line="28" data-uid="ent0020" id="entity_IFileSystemService"><rect fill="#F1F1F1" height="48" rx="2.5" ry="2.5" style="stroke:#181818;stroke-width:0.5;" width="164.5215" x="954.13" y="176"/><ellipse cx="969.13" cy="192" fill="#B4A7E5" rx="11" ry="11" style="stroke:#181818;stroke-width:1;"/><path d="M965.0519,187.7656 L965.0519,185.6094 L972.4425,185.6094 L972.4425,187.7656 L969.9738,187.7656 L969.9738,195.8438 L972.4425,195.8438 L972.4425,198 L965.0519,198 L965.0519,195.8438 L967.5206,195.8438 L967.5206,187.7656 L965.0519,187.7656 Z " fill="#000000"/><text fill="#000000" font-family="sans-serif" font-size="14" font-style="italic" lengthAdjust="spacing" textLength="132.5215" x="983.13" y="196.8467">IFileSystemService</text><line style="stroke:#181818;stroke-width:0.5;" x1="955.13" x2="1117.6515" y1="208" y2="208"/><line style="stroke:#181818;stroke-width:0.5;" x1="955.13" x2="1117.6515" y1="216" y2="216"/></g><!--class IFileVersionInfoService--><g class="entity" data-entity="IFileVersionInfoService" data-source-line="29" data-uid="ent0021" id="entity_IFileVersionInfoService"><rect fill="#F1F1F1" height="48" rx="2.5" ry="2.5" style="stroke:#181818;stroke-width:0.5;" width="191.3799" x="940.7" y="93"/><ellipse cx="955.7" cy="109" fill="#B4A7E5" rx="11" ry="11" style="stroke:#181818;stroke-width:1;"/><path d="M951.6219,104.7656 L951.6219,102.6094 L959.0125,102.6094 L959.0125,104.7656 L956.5438,104.7656 L956.5438,112.8438 L959.0125,112.8438 L959.0125,115 L951.6219,115 L951.6219,112.8438 L954.0906,112.8438 L954.0906,104.7656 L951.6219,104.7656 Z " fill="#000000"/><text fill="#000000" font-family="sans-serif" font-size="14" font-style="italic" lengthAdjust="spacing" textLength="159.3799" x="969.7" y="113.8467">IFileVersionInfoService</text><line style="stroke:#181818;stroke-width:0.5;" x1="941.7" x2="1131.0799" y1="125" y2="125"/><line style="stroke:#181818;stroke-width:0.5;" x1="941.7" x2="1131.0799" y1="133" y2="133"/></g><!--class IPasswordEncoder--><g class="entity" data-entity="IPasswordEncoder" data-source-line="30" data-uid="ent0022" id="entity_IPasswordEncoder"><rect fill="#F1F1F1" height="48" rx="2.5" ry="2.5" style="stroke:#181818;stroke-width:0.5;" width="159.6338" x="1209.47" y="259"/><ellipse cx="1224.47" cy="275" fill="#B4A7E5" rx="11" ry="11" style="stroke:#181818;stroke-width:1;"/><path d="M1220.3919,270.7656 L1220.3919,268.6094 L1227.7825,268.6094 L1227.7825,270.7656 L1225.3138,270.7656 L1225.3138,278.8438 L1227.7825,278.8438 L1227.7825,281 L1220.3919,281 L1220.3919,278.8438 L1222.8606,278.8438 L1222.8606,270.7656 L1220.3919,270.7656 Z " fill="#000000"/><text fill="#000000" font-family="sans-serif" font-size="14" font-style="italic" lengthAdjust="spacing" textLength="127.6338" x="1238.47" y="279.8467">IPasswordEncoder</text><line style="stroke:#181818;stroke-width:0.5;" x1="1210.47" x2="1368.1038" y1="291" y2="291"/><line style="stroke:#181818;stroke-width:0.5;" x1="1210.47" x2="1368.1038" y1="299" y2="299"/></g><!--class IUserService--><g class="entity" data-entity="IUserService" data-source-line="31" data-uid="ent0023" id="entity_IUserService"><rect fill="#F1F1F1" height="48" rx="2.5" ry="2.5" style="stroke:#181818;stroke-width:0.5;" width="119.7803" x="1229.39" y="176"/><ellipse cx="1244.39" cy="192" fill="#B4A7E5" rx="11" ry="11" style="stroke:#181818;stroke-width:1;"/><path d="M1240.3119,187.7656 L1240.3119,185.6094 L1247.7025,185.6094 L1247.7025,187.7656 L1245.2338,187.7656 L1245.2338,195.8438 L1247.7025,195.8438 L1247.7025,198 L1240.3119,198 L1240.3119,195.8438 L1242.7806,195.8438 L1242.7806,187.7656 L1240.3119,187.7656 Z " fill="#000000"/><text fill="#000000" font-family="sans-serif" font-size="14" font-style="italic" lengthAdjust="spacing" textLength="87.7803" x="1258.39" y="196.8467">IUserService</text><line style="stroke:#181818;stroke-width:0.5;" x1="1230.39" x2="1348.1703" y1="208" y2="208"/><line style="stroke:#181818;stroke-width:0.5;" x1="1230.39" x2="1348.1703" y1="216" y2="216"/></g><!--class AuthService--><g class="entity" data-entity="AuthService" data-source-line="37" data-uid="ent0026" id="entity_AuthService"><rect fill="#F1F1F1" height="48" rx="2.5" ry="2.5" style="stroke:#181818;stroke-width:0.5;" width="116.5537" x="352.74" y="984"/><ellipse cx="367.74" cy="1000" fill="#ADD1B2" rx="11" ry="11" style="stroke:#181818;stroke-width:1;"/><path d="M370.7088,1005.6406 Q370.1306,1005.9375 369.49,1006.0781 Q368.8494,1006.2344 368.1463,1006.2344 Q365.6463,1006.2344 364.3181,1004.5938 Q363.0056,1002.9375 363.0056,999.8125 Q363.0056,996.6875 364.3181,995.0313 Q365.6463,993.375 368.1463,993.375 Q368.8494,993.375 369.49,993.5313 Q370.1463,993.6875 370.7088,993.9844 L370.7088,996.7031 Q370.0838,996.125 369.49,995.8594 Q368.8963,995.5781 368.2713,995.5781 Q366.9275,995.5781 366.24,996.6563 Q365.5525,997.7188 365.5525,999.8125 Q365.5525,1001.9063 366.24,1002.9844 Q366.9275,1004.0469 368.2713,1004.0469 Q368.8963,1004.0469 369.49,1003.7813 Q370.0838,1003.5 370.7088,1002.9219 L370.7088,1005.6406 Z " fill="#000000"/><text fill="#000000" font-family="sans-serif" font-size="14" lengthAdjust="spacing" textLength="84.5537" x="381.74" y="1004.8467">AuthService</text><line style="stroke:#181818;stroke-width:0.5;" x1="353.74" x2="468.2937" y1="1016" y2="1016"/><line style="stroke:#181818;stroke-width:0.5;" x1="353.74" x2="468.2937" y1="1024" y2="1024"/></g><!--class BCryptPasswordEncoder--><g class="entity" data-entity="BCryptPasswordEncoder" data-source-line="38" data-uid="ent0027" id="entity_BCryptPasswordEncoder"><rect fill="#F1F1F1" height="48" rx="2.5" ry="2.5" style="stroke:#181818;stroke-width:0.5;" width="203.3018" x="309.37" y="901"/><ellipse cx="324.37" cy="917" fill="#ADD1B2" rx="11" ry="11" style="stroke:#181818;stroke-width:1;"/><path d="M327.3388,922.6406 Q326.7606,922.9375 326.12,923.0781 Q325.4794,923.2344 324.7763,923.2344 Q322.2763,923.2344 320.9481,921.5938 Q319.6356,919.9375 319.6356,916.8125 Q319.6356,913.6875 320.9481,912.0313 Q322.2763,910.375 324.7763,910.375 Q325.4794,910.375 326.12,910.5313 Q326.7763,910.6875 327.3388,910.9844 L327.3388,913.7031 Q326.7138,913.125 326.12,912.8594 Q325.5263,912.5781 324.9013,912.5781 Q323.5575,912.5781 322.87,913.6563 Q322.1825,914.7188 322.1825,916.8125 Q322.1825,918.9063 322.87,919.9844 Q323.5575,921.0469 324.9013,921.0469 Q325.5263,921.0469 326.12,920.7813 Q326.7138,920.5 327.3388,919.9219 L327.3388,922.6406 Z " fill="#000000"/><text fill="#000000" font-family="sans-serif" font-size="14" lengthAdjust="spacing" textLength="171.3018" x="338.37" y="921.8467">BCryptPasswordEncoder</text><line style="stroke:#181818;stroke-width:0.5;" x1="310.37" x2="511.6718" y1="933" y2="933"/><line style="stroke:#181818;stroke-width:0.5;" x1="310.37" x2="511.6718" y1="941" y2="941"/></g><!--class FileInfoService--><g class="entity" data-entity="FileInfoService" data-source-line="39" data-uid="ent0028" id="entity_FileInfoService"><rect fill="#F1F1F1" height="48" rx="2.5" ry="2.5" style="stroke:#181818;stroke-width:0.5;" width="134.6826" x="343.67" y="818"/><ellipse cx="358.67" cy="834" fill="#ADD1B2" rx="11" ry="11" style="stroke:#181818;stroke-width:1;"/><path d="M361.6388,839.6406 Q361.0606,839.9375 360.42,840.0781 Q359.7794,840.2344 359.0763,840.2344 Q356.5763,840.2344 355.2481,838.5938 Q353.9356,836.9375 353.9356,833.8125 Q353.9356,830.6875 355.2481,829.0313 Q356.5763,827.375 359.0763,827.375 Q359.7794,827.375 360.42,827.5313 Q361.0763,827.6875 361.6388,827.9844 L361.6388,830.7031 Q361.0138,830.125 360.42,829.8594 Q359.8263,829.5781 359.2013,829.5781 Q357.8575,829.5781 357.17,830.6563 Q356.4825,831.7188 356.4825,833.8125 Q356.4825,835.9063 357.17,836.9844 Q357.8575,838.0469 359.2013,838.0469 Q359.8263,838.0469 360.42,837.7813 Q361.0138,837.5 361.6388,836.9219 L361.6388,839.6406 Z " fill="#000000"/><text fill="#000000" font-family="sans-serif" font-size="14" lengthAdjust="spacing" textLength="102.6826" x="372.67" y="838.8467">FileInfoService</text><line style="stroke:#181818;stroke-width:0.5;" x1="344.67" x2="477.3526" y1="850" y2="850"/><line style="stroke:#181818;stroke-width:0.5;" x1="344.67" x2="477.3526" y1="858" y2="858"/></g><!--class FileManagerService--><g class="entity" data-entity="FileManagerService" data-source-line="40" data-uid="ent0029" id="entity_FileManagerService"><rect fill="#F1F1F1" height="48" rx="2.5" ry="2.5" style="stroke:#181818;stroke-width:0.5;" width="169.5527" x="695.65" y="984"/><ellipse cx="710.65" cy="1000" fill="#ADD1B2" rx="11" ry="11" style="stroke:#181818;stroke-width:1;"/><path d="M713.6188,1005.6406 Q713.0406,1005.9375 712.4,1006.0781 Q711.7594,1006.2344 711.0563,1006.2344 Q708.5563,1006.2344 707.2281,1004.5938 Q705.9156,1002.9375 705.9156,999.8125 Q705.9156,996.6875 707.2281,995.0313 Q708.5563,993.375 711.0563,993.375 Q711.7594,993.375 712.4,993.5313 Q713.0563,993.6875 713.6188,993.9844 L713.6188,996.7031 Q712.9938,996.125 712.4,995.8594 Q711.8063,995.5781 711.1813,995.5781 Q709.8375,995.5781 709.15,996.6563 Q708.4625,997.7188 708.4625,999.8125 Q708.4625,1001.9063 709.15,1002.9844 Q709.8375,1004.0469 711.1813,1004.0469 Q711.8063,1004.0469 712.4,1003.7813 Q712.9938,1003.5 713.6188,1002.9219 L713.6188,1005.6406 Z " fill="#000000"/><text fill="#000000" font-family="sans-serif" font-size="14" lengthAdjust="spacing" textLength="137.5527" x="724.65" y="1004.8467">FileManagerService</text><line style="stroke:#181818;stroke-width:0.5;" x1="696.65" x2="864.2027" y1="1016" y2="1016"/><line style="stroke:#181818;stroke-width:0.5;" x1="696.65" x2="864.2027" y1="1024" y2="1024"/></g><!--class FileSystemService--><g class="entity" data-entity="FileSystemService" data-source-line="41" data-uid="ent0030" id="entity_FileSystemService"><rect fill="#F1F1F1" height="48" rx="2.5" ry="2.5" style="stroke:#181818;stroke-width:0.5;" width="160.3926" x="700.23" y="901"/><ellipse cx="715.23" cy="917" fill="#ADD1B2" rx="11" ry="11" style="stroke:#181818;stroke-width:1;"/><path d="M718.1988,922.6406 Q717.6206,922.9375 716.98,923.0781 Q716.3394,923.2344 715.6363,923.2344 Q713.1363,923.2344 711.8081,921.5938 Q710.4956,919.9375 710.4956,916.8125 Q710.4956,913.6875 711.8081,912.0313 Q713.1363,910.375 715.6363,910.375 Q716.3394,910.375 716.98,910.5313 Q717.6363,910.6875 718.1988,910.9844 L718.1988,913.7031 Q717.5738,913.125 716.98,912.8594 Q716.3863,912.5781 715.7613,912.5781 Q714.4175,912.5781 713.73,913.6563 Q713.0425,914.7188 713.0425,916.8125 Q713.0425,918.9063 713.73,919.9844 Q714.4175,921.0469 715.7613,921.0469 Q716.3863,921.0469 716.98,920.7813 Q717.5738,920.5 718.1988,919.9219 L718.1988,922.6406 Z " fill="#000000"/><text fill="#000000" font-family="sans-serif" font-size="14" lengthAdjust="spacing" textLength="128.3926" x="729.23" y="921.8467">FileSystemService</text><line style="stroke:#181818;stroke-width:0.5;" x1="701.23" x2="859.6226" y1="933" y2="933"/><line style="stroke:#181818;stroke-width:0.5;" x1="701.23" x2="859.6226" y1="941" y2="941"/></g><!--class FileVersionInfoService--><g class="entity" data-entity="FileVersionInfoService" data-source-line="42" data-uid="ent0031" id="entity_FileVersionInfoService"><rect fill="#F1F1F1" height="48" rx="2.5" ry="2.5" style="stroke:#181818;stroke-width:0.5;" width="187.251" x="686.8" y="818"/><ellipse cx="701.8" cy="834" fill="#ADD1B2" rx="11" ry="11" style="stroke:#181818;stroke-width:1;"/><path d="M704.7688,839.6406 Q704.1906,839.9375 703.55,840.0781 Q702.9094,840.2344 702.2063,840.2344 Q699.7063,840.2344 698.3781,838.5938 Q697.0656,836.9375 697.0656,833.8125 Q697.0656,830.6875 698.3781,829.0313 Q699.7063,827.375 702.2063,827.375 Q702.9094,827.375 703.55,827.5313 Q704.2063,827.6875 704.7688,827.9844 L704.7688,830.7031 Q704.1438,830.125 703.55,829.8594 Q702.9563,829.5781 702.3313,829.5781 Q700.9875,829.5781 700.3,830.6563 Q699.6125,831.7188 699.6125,833.8125 Q699.6125,835.9063 700.3,836.9844 Q700.9875,838.0469 702.3313,838.0469 Q702.9563,838.0469 703.55,837.7813 Q704.1438,837.5 704.7688,836.9219 L704.7688,839.6406 Z " fill="#000000"/><text fill="#000000" font-family="sans-serif" font-size="14" lengthAdjust="spacing" textLength="155.251" x="715.8" y="838.8467">FileVersionInfoService</text><line style="stroke:#181818;stroke-width:0.5;" x1="687.8" x2="873.051" y1="850" y2="850"/><line style="stroke:#181818;stroke-width:0.5;" x1="687.8" x2="873.051" y1="858" y2="858"/></g><!--class JwtAccessTokenProvider--><g class="entity" data-entity="JwtAccessTokenProvider" data-source-line="43" data-uid="ent0032" id="entity_JwtAccessTokenProvider"><rect fill="#F1F1F1" height="48" rx="2.5" ry="2.5" style="stroke:#181818;stroke-width:0.5;" width="202.1465" x="935.32" y="984"/><ellipse cx="950.32" cy="1000" fill="#ADD1B2" rx="11" ry="11" style="stroke:#181818;stroke-width:1;"/><path d="M953.2888,1005.6406 Q952.7106,1005.9375 952.07,1006.0781 Q951.4294,1006.2344 950.7263,1006.2344 Q948.2263,1006.2344 946.8981,1004.5938 Q945.5856,1002.9375 945.5856,999.8125 Q945.5856,996.6875 946.8981,995.0313 Q948.2263,993.375 950.7263,993.375 Q951.4294,993.375 952.07,993.5313 Q952.7263,993.6875 953.2888,993.9844 L953.2888,996.7031 Q952.6638,996.125 952.07,995.8594 Q951.4763,995.5781 950.8513,995.5781 Q949.5075,995.5781 948.82,996.6563 Q948.1325,997.7188 948.1325,999.8125 Q948.1325,1001.9063 948.82,1002.9844 Q949.5075,1004.0469 950.8513,1004.0469 Q951.4763,1004.0469 952.07,1003.7813 Q952.6638,1003.5 953.2888,1002.9219 L953.2888,1005.6406 Z " fill="#000000"/><text fill="#000000" font-family="sans-serif" font-size="14" lengthAdjust="spacing" textLength="170.1465" x="964.32" y="1004.8467">JwtAccessTokenProvider</text><line style="stroke:#181818;stroke-width:0.5;" x1="936.32" x2="1136.4665" y1="1016" y2="1016"/><line style="stroke:#181818;stroke-width:0.5;" x1="936.32" x2="1136.4665" y1="1024" y2="1024"/></g><!--class UserService--><g class="entity" data-entity="UserService" data-source-line="44" data-uid="ent0033" id="entity_UserService"><rect fill="#F1F1F1" height="48" rx="2.5" ry="2.5" style="stroke:#181818;stroke-width:0.5;" width="115.6514" x="978.57" y="901"/><ellipse cx="993.57" cy="917" fill="#ADD1B2" rx="11" ry="11" style="stroke:#181818;stroke-width:1;"/><path d="M996.5388,922.6406 Q995.9606,922.9375 995.32,923.0781 Q994.6794,923.2344 993.9763,923.2344 Q991.4763,923.2344 990.1481,921.5938 Q988.8356,919.9375 988.8356,916.8125 Q988.8356,913.6875 990.1481,912.0313 Q991.4763,910.375 993.9763,910.375 Q994.6794,910.375 995.32,910.5313 Q995.9763,910.6875 996.5388,910.9844 L996.5388,913.7031 Q995.9138,913.125 995.32,912.8594 Q994.7263,912.5781 994.1013,912.5781 Q992.7575,912.5781 992.07,913.6563 Q991.3825,914.7188 991.3825,916.8125 Q991.3825,918.9063 992.07,919.9844 Q992.7575,921.0469 994.1013,921.0469 Q994.7263,921.0469 995.32,920.7813 Q995.9138,920.5 996.5388,919.9219 L996.5388,922.6406 Z " fill="#000000"/><text fill="#000000" font-family="sans-serif" font-size="14" lengthAdjust="spacing" textLength="83.6514" x="1007.57" y="921.8467">UserService</text><line style="stroke:#181818;stroke-width:0.5;" x1="979.57" x2="1093.2214" y1="933" y2="933"/><line style="stroke:#181818;stroke-width:0.5;" x1="979.57" x2="1093.2214" y1="941" y2="941"/></g><!--class AppDbContext--><g class="entity" data-entity="AppDbContext" data-source-line="48" data-uid="ent0035" id="entity_AppDbContext"><rect fill="#F1F1F1" height="48" rx="2.5" ry="2.5" style="stroke:#181818;stroke-width:0.5;" width="134.1084" x="343.96" y="695"/><ellipse cx="358.96" cy="711" fill="#ADD1B2" rx="11" ry="11" style="stroke:#181818;stroke-width:1;"/><path d="M361.9288,716.6406 Q361.3506,716.9375 360.71,717.0781 Q360.0694,717.2344 359.3663,717.2344 Q356.8663,717.2344 355.5381,715.5938 Q354.2256,713.9375 354.2256,710.8125 Q354.2256,707.6875 355.5381,706.0313 Q356.8663,704.375 359.3663,704.375 Q360.0694,704.375 360.71,704.5313 Q361.3663,704.6875 361.9288,704.9844 L361.9288,707.7031 Q361.3038,707.125 360.71,706.8594 Q360.1163,706.5781 359.4913,706.5781 Q358.1475,706.5781 357.46,707.6563 Q356.7725,708.7188 356.7725,710.8125 Q356.7725,712.9063 357.46,713.9844 Q358.1475,715.0469 359.4913,715.0469 Q360.1163,715.0469 360.71,714.7813 Q361.3038,714.5 361.9288,713.9219 L361.9288,716.6406 Z " fill="#000000"/><text fill="#000000" font-family="sans-serif" font-size="14" lengthAdjust="spacing" textLength="102.1084" x="372.96" y="715.8467">AppDbContext</text><line style="stroke:#181818;stroke-width:0.5;" x1="344.96" x2="477.0684" y1="727" y2="727"/><line style="stroke:#181818;stroke-width:0.5;" x1="344.96" x2="477.0684" y1="735" y2="735"/></g><!--class Program--><g class="entity" data-entity="Program" data-source-line="63" data-uid="ent0045" id="entity_Program"><rect fill="#F1F1F1" height="48" rx="2.5" ry="2.5" style="stroke:#181818;stroke-width:0.5;" width="91.623" x="734.61" y="1190"/><ellipse cx="749.61" cy="1206" fill="#ADD1B2" rx="11" ry="11" style="stroke:#181818;stroke-width:1;"/><path d="M752.5788,1211.6406 Q752.0006,1211.9375 751.36,1212.0781 Q750.7194,1212.2344 750.0163,1212.2344 Q747.5163,1212.2344 746.1881,1210.5938 Q744.8756,1208.9375 744.8756,1205.8125 Q744.8756,1202.6875 746.1881,1201.0313 Q747.5163,1199.375 750.0163,1199.375 Q750.7194,1199.375 751.36,1199.5313 Q752.0163,1199.6875 752.5788,1199.9844 L752.5788,1202.7031 Q751.9538,1202.125 751.36,1201.8594 Q750.7663,1201.5781 750.1413,1201.5781 Q748.7975,1201.5781 748.11,1202.6563 Q747.4225,1203.7188 747.4225,1205.8125 Q747.4225,1207.9063 748.11,1208.9844 Q748.7975,1210.0469 750.1413,1210.0469 Q750.7663,1210.0469 751.36,1209.7813 Q751.9538,1209.5 752.5788,1208.9219 L752.5788,1211.6406 Z " fill="#000000"/><text fill="#000000" font-family="sans-serif" font-size="14" lengthAdjust="spacing" textLength="59.623" x="763.61" y="1210.8467">Program</text><line style="stroke:#181818;stroke-width:0.5;" x1="735.61" x2="825.233" y1="1222" y2="1222"/><line style="stroke:#181818;stroke-width:0.5;" x1="735.61" x2="825.233" y1="1230" y2="1230"/></g><!--class AuthController--><g class="entity" data-entity="AuthController" data-source-line="54" data-uid="ent0038" id="entity_AuthController"><rect fill="#F1F1F1" height="48" rx="2.5" ry="2.5" style="stroke:#181818;stroke-width:0.5;" width="133.9854" x="713.43" y="1455"/><ellipse cx="728.43" cy="1471" fill="#ADD1B2" rx="11" ry="11" style="stroke:#181818;stroke-width:1;"/><path d="M731.3988,1476.6406 Q730.8206,1476.9375 730.18,1477.0781 Q729.5394,1477.2344 728.8363,1477.2344 Q726.3363,1477.2344 725.0081,1475.5938 Q723.6956,1473.9375 723.6956,1470.8125 Q723.6956,1467.6875 725.0081,1466.0313 Q726.3363,1464.375 728.8363,1464.375 Q729.5394,1464.375 730.18,1464.5313 Q730.8363,1464.6875 731.3988,1464.9844 L731.3988,1467.7031 Q730.7738,1467.125 730.18,1466.8594 Q729.5863,1466.5781 728.9613,1466.5781 Q727.6175,1466.5781 726.93,1467.6563 Q726.2425,1468.7188 726.2425,1470.8125 Q726.2425,1472.9063 726.93,1473.9844 Q727.6175,1475.0469 728.9613,1475.0469 Q729.5863,1475.0469 730.18,1474.7813 Q730.7738,1474.5 731.3988,1473.9219 L731.3988,1476.6406 Z " fill="#000000"/><text fill="#000000" font-family="sans-serif" font-size="14" lengthAdjust="spacing" textLength="101.9854" x="742.43" y="1475.8467">AuthController</text><line style="stroke:#181818;stroke-width:0.5;" x1="714.43" x2="846.4154" y1="1487" y2="1487"/><line style="stroke:#181818;stroke-width:0.5;" x1="714.43" x2="846.4154" y1="1495" y2="1495"/></g><!--class DirectoriesController--><g class="entity" data-entity="DirectoriesController" data-source-line="55" data-uid="ent0039" id="entity_DirectoriesController"><rect fill="#F1F1F1" height="48" rx="2.5" ry="2.5" style="stroke:#181818;stroke-width:0.5;" width="177.5166" x="691.67" y="1372"/><ellipse cx="706.67" cy="1388" fill="#ADD1B2" rx="11" ry="11" style="stroke:#181818;stroke-width:1;"/><path d="M709.6388,1393.6406 Q709.0606,1393.9375 708.42,1394.0781 Q707.7794,1394.2344 707.0763,1394.2344 Q704.5763,1394.2344 703.2481,1392.5938 Q701.9356,1390.9375 701.9356,1387.8125 Q701.9356,1384.6875 703.2481,1383.0313 Q704.5763,1381.375 707.0763,1381.375 Q707.7794,1381.375 708.42,1381.5313 Q709.0763,1381.6875 709.6388,1381.9844 L709.6388,1384.7031 Q709.0138,1384.125 708.42,1383.8594 Q707.8263,1383.5781 707.2013,1383.5781 Q705.8575,1383.5781 705.17,1384.6563 Q704.4825,1385.7188 704.4825,1387.8125 Q704.4825,1389.9063 705.17,1390.9844 Q705.8575,1392.0469 707.2013,1392.0469 Q707.8263,1392.0469 708.42,1391.7813 Q709.0138,1391.5 709.6388,1390.9219 L709.6388,1393.6406 Z " fill="#000000"/><text fill="#000000" font-family="sans-serif" font-size="14" lengthAdjust="spacing" textLength="145.5166" x="720.67" y="1392.8467">DirectoriesController</text><line style="stroke:#181818;stroke-width:0.5;" x1="692.67" x2="868.1866" y1="1404" y2="1404"/><line style="stroke:#181818;stroke-width:0.5;" x1="692.67" x2="868.1866" y1="1412" y2="1412"/></g><!--class FileInfoController--><g class="entity" data-entity="FileInfoController" data-source-line="56" data-uid="ent0040" id="entity_FileInfoController"><rect fill="#F1F1F1" height="48" rx="2.5" ry="2.5" style="stroke:#181818;stroke-width:0.5;" width="152.1143" x="704.37" y="1289"/><ellipse cx="719.37" cy="1305" fill="#ADD1B2" rx="11" ry="11" style="stroke:#181818;stroke-width:1;"/><path d="M722.3388,1310.6406 Q721.7606,1310.9375 721.12,1311.0781 Q720.4794,1311.2344 719.7763,1311.2344 Q717.2763,1311.2344 715.9481,1309.5938 Q714.6356,1307.9375 714.6356,1304.8125 Q714.6356,1301.6875 715.9481,1300.0313 Q717.2763,1298.375 719.7763,1298.375 Q720.4794,1298.375 721.12,1298.5313 Q721.7763,1298.6875 722.3388,1298.9844 L722.3388,1301.7031 Q721.7138,1301.125 721.12,1300.8594 Q720.5263,1300.5781 719.9013,1300.5781 Q718.5575,1300.5781 717.87,1301.6563 Q717.1825,1302.7188 717.1825,1304.8125 Q717.1825,1306.9063 717.87,1307.9844 Q718.5575,1309.0469 719.9013,1309.0469 Q720.5263,1309.0469 721.12,1308.7813 Q721.7138,1308.5 722.3388,1307.9219 L722.3388,1310.6406 Z " fill="#000000"/><text fill="#000000" font-family="sans-serif" font-size="14" lengthAdjust="spacing" textLength="120.1143" x="733.37" y="1309.8467">FileInfoController</text><line style="stroke:#181818;stroke-width:0.5;" x1="705.37" x2="855.4843" y1="1321" y2="1321"/><line style="stroke:#181818;stroke-width:0.5;" x1="705.37" x2="855.4843" y1="1329" y2="1329"/></g><!--class FileVersionInfoController--><g class="entity" data-entity="FileVersionInfoController" data-source-line="57" data-uid="ent0041" id="entity_FileVersionInfoController"><rect fill="#F1F1F1" height="48" rx="2.5" ry="2.5" style="stroke:#181818;stroke-width:0.5;" width="204.6826" x="934.05" y="1455"/><ellipse cx="949.05" cy="1471" fill="#ADD1B2" rx="11" ry="11" style="stroke:#181818;stroke-width:1;"/><path d="M952.0188,1476.6406 Q951.4406,1476.9375 950.8,1477.0781 Q950.1594,1477.2344 949.4563,1477.2344 Q946.9563,1477.2344 945.6281,1475.5938 Q944.3156,1473.9375 944.3156,1470.8125 Q944.3156,1467.6875 945.6281,1466.0313 Q946.9563,1464.375 949.4563,1464.375 Q950.1594,1464.375 950.8,1464.5313 Q951.4563,1464.6875 952.0188,1464.9844 L952.0188,1467.7031 Q951.3938,1467.125 950.8,1466.8594 Q950.2063,1466.5781 949.5813,1466.5781 Q948.2375,1466.5781 947.55,1467.6563 Q946.8625,1468.7188 946.8625,1470.8125 Q946.8625,1472.9063 947.55,1473.9844 Q948.2375,1475.0469 949.5813,1475.0469 Q950.2063,1475.0469 950.8,1474.7813 Q951.3938,1474.5 952.0188,1473.9219 L952.0188,1476.6406 Z " fill="#000000"/><text fill="#000000" font-family="sans-serif" font-size="14" lengthAdjust="spacing" textLength="172.6826" x="963.05" y="1475.8467">FileVersionInfoController</text><line style="stroke:#181818;stroke-width:0.5;" x1="935.05" x2="1137.7326" y1="1487" y2="1487"/><line style="stroke:#181818;stroke-width:0.5;" x1="935.05" x2="1137.7326" y1="1495" y2="1495"/></g><!--class RegularFilesController--><g class="entity" data-entity="RegularFilesController" data-source-line="58" data-uid="ent0042" id="entity_RegularFilesController"><rect fill="#F1F1F1" height="48" rx="2.5" ry="2.5" style="stroke:#181818;stroke-width:0.5;" width="187.2373" x="942.77" y="1372"/><ellipse cx="957.77" cy="1388" fill="#ADD1B2" rx="11" ry="11" style="stroke:#181818;stroke-width:1;"/><path d="M960.7388,1393.6406 Q960.1606,1393.9375 959.52,1394.0781 Q958.8794,1394.2344 958.1763,1394.2344 Q955.6763,1394.2344 954.3481,1392.5938 Q953.0356,1390.9375 953.0356,1387.8125 Q953.0356,1384.6875 954.3481,1383.0313 Q955.6763,1381.375 958.1763,1381.375 Q958.8794,1381.375 959.52,1381.5313 Q960.1763,1381.6875 960.7388,1381.9844 L960.7388,1384.7031 Q960.1138,1384.125 959.52,1383.8594 Q958.9263,1383.5781 958.3013,1383.5781 Q956.9575,1383.5781 956.27,1384.6563 Q955.5825,1385.7188 955.5825,1387.8125 Q955.5825,1389.9063 956.27,1390.9844 Q956.9575,1392.0469 958.3013,1392.0469 Q958.9263,1392.0469 959.52,1391.7813 Q960.1138,1391.5 960.7388,1390.9219 L960.7388,1393.6406 Z " fill="#000000"/><text fill="#000000" font-family="sans-serif" font-size="14" lengthAdjust="spacing" textLength="155.2373" x="971.77" y="1392.8467">RegularFilesController</text><line style="stroke:#181818;stroke-width:0.5;" x1="943.77" x2="1129.0073" y1="1404" y2="1404"/><line style="stroke:#181818;stroke-width:0.5;" x1="943.77" x2="1129.0073" y1="1412" y2="1412"/></g><!--class SyncController--><g class="entity" data-entity="SyncController" data-source-line="59" data-uid="ent0043" id="entity_SyncController"><rect fill="#F1F1F1" height="48" rx="2.5" ry="2.5" style="stroke:#181818;stroke-width:0.5;" width="134.915" x="968.93" y="1289"/><ellipse cx="983.93" cy="1305" fill="#ADD1B2" rx="11" ry="11" style="stroke:#181818;stroke-width:1;"/><path d="M986.8988,1310.6406 Q986.3206,1310.9375 985.68,1311.0781 Q985.0394,1311.2344 984.3363,1311.2344 Q981.8363,1311.2344 980.5081,1309.5938 Q979.1956,1307.9375 979.1956,1304.8125 Q979.1956,1301.6875 980.5081,1300.0313 Q981.8363,1298.375 984.3363,1298.375 Q985.0394,1298.375 985.68,1298.5313 Q986.3363,1298.6875 986.8988,1298.9844 L986.8988,1301.7031 Q986.2738,1301.125 985.68,1300.8594 Q985.0863,1300.5781 984.4613,1300.5781 Q983.1175,1300.5781 982.43,1301.6563 Q981.7425,1302.7188 981.7425,1304.8125 Q981.7425,1306.9063 982.43,1307.9844 Q983.1175,1309.0469 984.4613,1309.0469 Q985.0863,1309.0469 985.68,1308.7813 Q986.2738,1308.5 986.8988,1307.9219 L986.8988,1310.6406 Z " fill="#000000"/><text fill="#000000" font-family="sans-serif" font-size="14" lengthAdjust="spacing" textLength="102.915" x="997.93" y="1309.8467">SyncController</text><line style="stroke:#181818;stroke-width:0.5;" x1="969.93" x2="1102.845" y1="1321" y2="1321"/><line style="stroke:#181818;stroke-width:0.5;" x1="969.93" x2="1102.845" y1="1329" y2="1329"/></g><!--class UserController--><g class="entity" data-entity="UserController" data-source-line="60" data-uid="ent0044" id="entity_UserController"><rect fill="#F1F1F1" height="48" rx="2.5" ry="2.5" style="stroke:#181818;stroke-width:0.5;" width="133.083" x="1222.74" y="1455"/><ellipse cx="1237.74" cy="1471" fill="#ADD1B2" rx="11" ry="11" style="stroke:#181818;stroke-width:1;"/><path d="M1240.7088,1476.6406 Q1240.1306,1476.9375 1239.49,1477.0781 Q1238.8494,1477.2344 1238.1463,1477.2344 Q1235.6463,1477.2344 1234.3181,1475.5938 Q1233.0056,1473.9375 1233.0056,1470.8125 Q1233.0056,1467.6875 1234.3181,1466.0313 Q1235.6463,1464.375 1238.1463,1464.375 Q1238.8494,1464.375 1239.49,1464.5313 Q1240.1463,1464.6875 1240.7088,1464.9844 L1240.7088,1467.7031 Q1240.0838,1467.125 1239.49,1466.8594 Q1238.8963,1466.5781 1238.2713,1466.5781 Q1236.9275,1466.5781 1236.24,1467.6563 Q1235.5525,1468.7188 1235.5525,1470.8125 Q1235.5525,1472.9063 1236.24,1473.9844 Q1236.9275,1475.0469 1238.2713,1475.0469 Q1238.8963,1475.0469 1239.49,1474.7813 Q1240.0838,1474.5 1240.7088,1473.9219 L1240.7088,1476.6406 Z " fill="#000000"/><text fill="#000000" font-family="sans-serif" font-size="14" lengthAdjust="spacing" textLength="101.083" x="1251.74" y="1475.8467">UserController</text><line style="stroke:#181818;stroke-width:0.5;" x1="1223.74" x2="1354.823" y1="1487" y2="1487"/><line style="stroke:#181818;stroke-width:0.5;" x1="1223.74" x2="1354.823" y1="1495" y2="1495"/></g><!--link CloudDrive.Core to CloudDrive.Infrastructure--><g class="link" data-entity-1="CloudDrive.Core" data-entity-2="CloudDrive.Infrastructure" data-source-line="67" data-uid="lnk46" id="link_CloudDrive.Core_CloudDrive.Infrastructure"><path codeLine="67" d="M125.7029,569.4829 C125.7086,570.483 125.7156,571.5663 125.7243,572.7301 C125.7416,575.0577 125.7655,577.7072 125.7982,580.6565 C125.9293,592.4536 126.2029,609.0472 126.772,629.0219 C127.9103,668.9712 130.2306,722.445 134.9563,778.12 C144.4075,889.47 163.48,1009.625 201.96,1048 C234.565,1080.515 285.475,1088.775 328.7725,1088.7788 C334.1847,1088.7792 339.4779,1088.6507 344.6016,1088.4244 C347.1634,1088.3112 349.6829,1088.1737 352.1536,1088.0155" fill="none" id="CloudDrive.Core-CloudDrive.Infrastructure" style="stroke:#181818;stroke-width:1;"/></g><!--link CloudDrive.Core to CloudDrive.WebAPI--><g class="link" data-entity-1="CloudDrive.Core" data-entity-2="CloudDrive.WebAPI" data-source-line="68" data-uid="lnk47" id="link_CloudDrive.Core_CloudDrive.WebAPI"><path codeLine="68" d="M125.5352,569.5474 C125.5315,569.8116 125.5277,570.0816 125.5239,570.3572 C125.5088,571.46 125.4934,572.6545 125.4781,573.9377 C125.4475,576.5041 125.4174,579.4253 125.3909,582.6769 C125.2852,595.6831 125.2381,613.975 125.4544,635.9875 C125.8869,680.0125 127.3725,738.92 131.5475,800.19 C139.8975,922.73 159.005,1054.72 201.96,1096 C248.1,1140.34 390.58,1155.2075 522.4575,1158.9325 C555.4269,1159.8638 587.7336,1160.0986 617.7067,1159.9234 C625.2,1159.8796 632.5474,1159.8102 639.7228,1159.7197 C640.6198,1159.7083 641.514,1159.6967 642.4055,1159.6847" fill="none" id="CloudDrive.Core-CloudDrive.WebAPI" style="stroke:#181818;stroke-width:1;"/></g><!--link CloudDrive.Infrastructure to CloudDrive.WebAPI--><g class="link" data-entity-1="CloudDrive.Infrastructure" data-entity-2="CloudDrive.WebAPI" data-source-line="69" data-uid="lnk48" id="link_CloudDrive.Infrastructure_CloudDrive.WebAPI"><path codeLine="69" d="M451.622,1088.0838 C452.0807,1088.1775 452.5427,1088.2718 453.0078,1088.3667 C454.8684,1088.7466 456.7797,1089.1368 458.7392,1089.5368 C462.6582,1090.3368 466.7697,1091.1762 471.0523,1092.0505 C505.3134,1099.0447 550.5269,1108.2744 595.7388,1117.5038 C607.0417,1119.8111 618.3446,1122.1184 629.4762,1124.3908 C635.042,1125.527 640.565,1126.6544 646.0238,1127.7688 C646.365,1127.8384 646.7059,1127.908 647.0466,1127.9775" fill="none" id="CloudDrive.Infrastructure-CloudDrive.WebAPI" style="stroke:#181818;stroke-width:1;"/></g><!--SRC=[ZLN1Ri8m3BttAwBTuHyOPHAJq12mxHnQKwArIUIuC8JuzoKKLBes2JrLUSzvjf_Tbh0ZHegXAFR4Se6GaL0oCK1CyWgCvXciGNFaf9199I59CbLf-oA9lKnBLUSfYWECfmhXXPqJPXy_OvogYWivdaaI1EOUS0qgkJ7iJPJ0pfU1qoz0OtFhWvy6y7vwIQ89R3w6LIqG51x4dVO349TVSAtjVSCfD60m2n_59TB5uhci0GyYwxeW907khEjiFiaiPZRg1-GIrK7aNTr7PatxssKUXgjWBdSgpbfmoGl0E75zCWHLd7ThN5nzQVjuL9ZFPARyjRf6_xldabnyMs5LaHl2EgCwjXzTxg0xZTUUTZVWwnHFcWArj2FbQSdZFFgyQ3bU6tgZ6vHxFr9atjevxxN_-QQkG2iZxBTC33PMwtGxLTRiNth2t6_OJfRpiAaDP-mkHLMMWwll_6m9_PhJwtVvcdE8ThSqndcm8qHTGL6N75r4K7Pzaba8TuxryRjfLugrkq1UESoU9_tVocWKsgfumCsf9BIQmo5_]--></g></svg>