<svg xmlns="http://www.w3.org/2000/svg" xmlns:xlink="http://www.w3.org/1999/xlink" contentStyleType="text/css" data-diagram-type="DESCRIPTION" height="421px" preserveAspectRatio="none" style="width:737px;height:421px;background:#FFFFFF;" version="1.1" viewBox="0 0 737 421" width="737px" zoomAndPan="magnify"><defs/><g><!--cluster Frontend - WPF clients--><g class="cluster" data-entity="Frontend - WPF clients" data-source-line="7" data-uid="ent0004" id="cluster_Frontend - WPF clients"><path d="M93.32,155 L274.6315,155 A3.75,3.75 0 0 1 277.1315,157.5 L284.1315,177.2969 L283.32,177.2969 A2.5,2.5 0 0 1 285.82,179.7969 L285.82,411.5 A2.5,2.5 0 0 1 283.32,414 L93.32,414 A2.5,2.5 0 0 1 90.82,411.5 L90.82,157.5 A2.5,2.5 0 0 1 93.32,155" fill="none" style="stroke:#000000;stroke-width:1.5;"/><line style="stroke:#000000;stroke-width:1.5;" x1="90.82" x2="284.1315" y1="177.2969" y2="177.2969"/><text fill="#000000" font-family="sans-serif" font-size="14" font-weight="bold" lengthAdjust="spacing" textLength="180.3115" x="94.82" y="169.9951">Frontend - WPF clients</text></g><!--cluster Backend--><g class="cluster" data-entity="Backend" data-source-line="13" data-uid="ent0008" id="cluster_Backend"><path d="M316.32,6 L384.5309,6 A3.75,3.75 0 0 1 387.0309,8.5 L394.0309,28.2969 L727.84,28.2969 A2.5,2.5 0 0 1 730.34,30.7969 L730.34,370.5 A2.5,2.5 0 0 1 727.84,373 L316.32,373 A2.5,2.5 0 0 1 313.82,370.5 L313.82,8.5 A2.5,2.5 0 0 1 316.32,6" fill="none" style="stroke:#000000;stroke-width:1.5;"/><line style="stroke:#000000;stroke-width:1.5;" x1="313.82" x2="394.0309" y1="28.2969" y2="28.2969"/><text fill="#000000" font-family="sans-serif" font-size="14" font-weight="bold" lengthAdjust="spacing" textLength="67.2109" x="317.82" y="20.9951">Backend</text></g><!--cluster File--><g class="cluster" data-entity="File" data-source-line="18" data-uid="ent0011" id="cluster_File"><path d="M544.51,57 L635.6077,57 A3.75,3.75 0 0 1 638.1077,59.5 L645.1077,79.2969 L695.84,79.2969 A2.5,2.5 0 0 1 698.34,81.7969 L698.34,284.5 A2.5,2.5 0 0 1 695.84,287 L544.51,287 A2.5,2.5 0 0 1 542.01,284.5 L542.01,59.5 A2.5,2.5 0 0 1 544.51,57" fill="none" style="stroke:#000000;stroke-width:1.5;"/><line style="stroke:#000000;stroke-width:1.5;" x1="542.01" x2="645.1077" y1="79.2969" y2="79.2969"/><text fill="#000000" font-family="sans-serif" font-size="14" font-weight="bold" lengthAdjust="spacing" textLength="90.0977" x="546.01" y="71.9951">File system</text></g><!--entity Client1--><g class="entity" data-entity="Client1" data-source-line="8" data-uid="ent0005" id="entity_Client1"><polygon fill="#F1F1F1" points="143.6,199.85,153.6,189.85,233.0375,189.85,233.0375,226.1469,223.0375,236.1469,143.6,236.1469,143.6,199.85" style="stroke:#181818;stroke-width:0.5;"/><line style="stroke:#181818;stroke-width:0.5;" x1="223.0375" x2="233.0375" y1="199.85" y2="189.85"/><line style="stroke:#181818;stroke-width:0.5;" x1="143.6" x2="223.0375" y1="199.85" y2="199.85"/><line style="stroke:#181818;stroke-width:0.5;" x1="223.0375" x2="223.0375" y1="199.85" y2="236.1469"/><text fill="#000000" font-family="sans-serif" font-size="14" lengthAdjust="spacing" textLength="49.4375" x="158.6" y="222.8451">Client1</text></g><!--entity Client2--><g class="entity" data-entity="Client2" data-source-line="9" data-uid="ent0006" id="entity_Client2"><polygon fill="#F1F1F1" points="143.6,280.85,153.6,270.85,233.0375,270.85,233.0375,307.1469,223.0375,317.1469,143.6,317.1469,143.6,280.85" style="stroke:#181818;stroke-width:0.5;"/><line style="stroke:#181818;stroke-width:0.5;" x1="223.0375" x2="233.0375" y1="280.85" y2="270.85"/><line style="stroke:#181818;stroke-width:0.5;" x1="143.6" x2="223.0375" y1="280.85" y2="280.85"/><line style="stroke:#181818;stroke-width:0.5;" x1="223.0375" x2="223.0375" y1="280.85" y2="317.1469"/><text fill="#000000" font-family="sans-serif" font-size="14" lengthAdjust="spacing" textLength="49.4375" x="158.6" y="303.8451">Client2</text></g><!--entity ClientN--><g class="entity" data-entity="ClientN" data-source-line="10" data-uid="ent0007" id="entity_ClientN"><polygon fill="#F1F1F1" points="142.82,361.85,152.82,351.85,233.8229,351.85,233.8229,388.1469,223.8229,398.1469,142.82,398.1469,142.82,361.85" style="stroke:#181818;stroke-width:0.5;"/><line style="stroke:#181818;stroke-width:0.5;" x1="223.8229" x2="233.8229" y1="361.85" y2="351.85"/><line style="stroke:#181818;stroke-width:0.5;" x1="142.82" x2="223.8229" y1="361.85" y2="361.85"/><line style="stroke:#181818;stroke-width:0.5;" x1="223.8229" x2="223.8229" y1="361.85" y2="398.1469"/><text fill="#000000" font-family="sans-serif" font-size="14" lengthAdjust="spacing" textLength="51.0029" x="157.82" y="384.8451">ClientN</text></g><!--entity Server--><g class="entity" data-entity="Server" data-source-line="14" data-uid="ent0009" id="entity_Server"><polygon fill="#F1F1F1" points="329.82,280.85,339.82,270.85,506.0055,270.85,506.0055,307.1469,496.0055,317.1469,329.82,317.1469,329.82,280.85" style="stroke:#181818;stroke-width:0.5;"/><line style="stroke:#181818;stroke-width:0.5;" x1="496.0055" x2="506.0055" y1="280.85" y2="270.85"/><line style="stroke:#181818;stroke-width:0.5;" x1="329.82" x2="496.0055" y1="280.85" y2="280.85"/><line style="stroke:#181818;stroke-width:0.5;" x1="496.0055" x2="496.0055" y1="280.85" y2="317.1469"/><text fill="#000000" font-family="sans-serif" font-size="14" lengthAdjust="spacing" textLength="136.1855" x="344.82" y="303.8451">ASP.NET API Server</text></g><!--entity Db--><g class="entity" data-entity="Db" data-source-line="16" data-uid="ent0010" id="entity_Db"><path d="M569.8,321.35 C569.8,311.35 620.1765,311.35 620.1765,311.35 C620.1765,311.35 670.5529,311.35 670.5529,321.35 L670.5529,346.6469 C670.5529,356.6469 620.1765,356.6469 620.1765,356.6469 C620.1765,356.6469 569.8,356.6469 569.8,346.6469 L569.8,321.35" fill="#F1F1F1" style="stroke:#181818;stroke-width:0.5;"/><path d="M569.8,321.35 C569.8,331.35 620.1765,331.35 620.1765,331.35 C620.1765,331.35 670.5529,331.35 670.5529,321.35" fill="none" style="stroke:#181818;stroke-width:0.5;"/><text fill="#000000" font-family="sans-serif" font-size="14" lengthAdjust="spacing" textLength="80.7529" x="579.8" y="348.3451">PostgreSQL</text></g><!--entity User 1 files--><g class="entity" data-entity="User 1 files" data-source-line="19" data-uid="ent0012" id="entity_User 1 files"><path d="M568.51,208.85 L609.51,208.85 A3.75,3.75 0 0 1 612.01,211.35 L619.01,229.85 L671.843,229.85 A2.5,2.5 0 0 1 674.343,232.35 L674.343,260.6469 A2.5,2.5 0 0 1 671.843,263.1469 L568.51,263.1469 A2.5,2.5 0 0 1 566.01,260.6469 L566.01,211.35 A2.5,2.5 0 0 1 568.51,208.85" fill="#F1F1F1" style="stroke:#181818;stroke-width:0.5;"/><line style="stroke:#181818;stroke-width:0.5;" x1="566.01" x2="619.01" y1="229.85" y2="229.85"/><text fill="#000000" font-family="sans-serif" font-size="14" lengthAdjust="spacing" textLength="78.333" x="576.01" y="249.8451">User 1 files</text></g><!--entity User 2 files--><g class="entity" data-entity="User 2 files" data-source-line="20" data-uid="ent0013" id="entity_User 2 files"><path d="M568.51,119.85 L609.51,119.85 A3.75,3.75 0 0 1 612.01,122.35 L619.01,140.85 L671.843,140.85 A2.5,2.5 0 0 1 674.343,143.35 L674.343,171.6469 A2.5,2.5 0 0 1 671.843,174.1469 L568.51,174.1469 A2.5,2.5 0 0 1 566.01,171.6469 L566.01,122.35 A2.5,2.5 0 0 1 568.51,119.85" fill="#F1F1F1" style="stroke:#181818;stroke-width:0.5;"/><line style="stroke:#181818;stroke-width:0.5;" x1="566.01" x2="619.01" y1="140.85" y2="140.85"/><text fill="#000000" font-family="sans-serif" font-size="14" lengthAdjust="spacing" textLength="78.333" x="576.01" y="160.8451">User 2 files</text></g><!--entity User1--><g class="entity" data-entity="User1" data-source-line="4" data-uid="ent0002" id="entity_User1"><ellipse cx="26.4087" cy="183.35" fill="#F1F1F1" rx="8" ry="8" style="stroke:#181818;stroke-width:0.5;"/><path d="M26.4087,191.35 L26.4087,218.35 M13.4087,199.35 L39.4087,199.35 M26.4087,218.35 L13.4087,233.35 M26.4087,218.35 L39.4087,233.35" fill="none" style="stroke:#181818;stroke-width:0.5;"/><text fill="#000000" font-family="sans-serif" font-size="14" lengthAdjust="spacing" textLength="40.8174" x="6" y="247.8451">User1</text></g><!--entity User2--><g class="entity" data-entity="User2" data-source-line="5" data-uid="ent0003" id="entity_User2"><ellipse cx="26.4087" cy="319.35" fill="#F1F1F1" rx="8" ry="8" style="stroke:#181818;stroke-width:0.5;"/><path d="M26.4087,327.35 L26.4087,354.35 M13.4087,335.35 L39.4087,335.35 M26.4087,354.35 L13.4087,369.35 M26.4087,354.35 L39.4087,369.35" fill="none" style="stroke:#181818;stroke-width:0.5;"/><text fill="#000000" font-family="sans-serif" font-size="14" lengthAdjust="spacing" textLength="40.8174" x="6" y="383.8451">User2</text></g><!--link User1 to Client1--><g class="link" data-entity-1="User1" data-entity-2="Client1" data-source-line="25" data-uid="lnk14" id="link_User1_Client1"><path d="M47.02,213 C70.87,213 105.85,213 137.38,213" fill="none" id="User1-to-Client1" style="stroke:#181818;stroke-width:1;"/><polygon fill="#181818" points="143.38,213,134.38,209,138.38,213,134.38,217,143.38,213" style="stroke:#181818;stroke-width:1;"/></g><!--link User2 to Client2--><g class="link" data-entity-1="User2" data-entity-2="Client2" data-source-line="26" data-uid="lnk15" id="link_User2_Client2"><path d="M47.02,342.26 C70.87,334.05 106.1765,321.9123 137.7065,311.0623" fill="none" id="User2-to-Client2" style="stroke:#181818;stroke-width:1;"/><polygon fill="#181818" points="143.38,309.11,133.5682,308.2562,138.6521,310.7369,136.1713,315.8208,143.38,309.11" style="stroke:#181818;stroke-width:1;"/></g><!--link User2 to ClientN--><g class="link" data-entity-1="User2" data-entity-2="ClientN" data-source-line="27" data-uid="lnk16" id="link_User2_ClientN"><path d="M47.02,352.19 C70.62,356.03 105.0676,361.6281 136.4676,366.7281" fill="none" id="User2-to-ClientN" style="stroke:#181818;stroke-width:1;"/><polygon fill="#181818" points="142.39,367.69,134.1477,362.2989,137.4547,366.8884,132.8651,370.1954,142.39,367.69" style="stroke:#181818;stroke-width:1;"/></g><!--link ClientN to Client2--><g class="link" data-entity-1="ClientN" data-entity-2="Client2" data-source-line="28" data-uid="lnk18" id="link_ClientN_Client2"><path d="M188.32,351.59 C188.32,340.19 188.32,328.79 188.32,317.39" fill="none" id="ClientN-Client2" style="stroke:#181818;stroke-width:1;stroke-dasharray:7.0,7.0;"/></g><!--link Client1 to Server--><g class="link" data-entity-1="Client1" data-entity-2="Server" data-source-line="29" data-uid="lnk19" id="link_Client1_Server"><path d="M233.47,228.71 C266.82,240.58 307.4871,255.0589 345.2371,268.4889" fill="none" id="Client1-to-Server" style="stroke:#181818;stroke-width:1;"/><polygon fill="#181818" points="350.89,270.5,343.7513,263.7147,346.1792,268.8241,341.0699,271.252,350.89,270.5" style="stroke:#181818;stroke-width:1;"/></g><!--link Client2 to Server--><g class="link" data-entity-1="Client2" data-entity-2="Server" data-source-line="30" data-uid="lnk20" id="link_Client2_Server"><path d="M233.47,294 C260.75,294 290.7,294 323.54,294" fill="none" id="Client2-to-Server" style="stroke:#181818;stroke-width:1;"/><polygon fill="#181818" points="329.54,294,320.54,290,324.54,294,320.54,298,329.54,294" style="stroke:#181818;stroke-width:1;"/></g><!--link ClientN to Server--><g class="link" data-entity-1="ClientN" data-entity-2="Server" data-source-line="31" data-uid="lnk21" id="link_ClientN_Server"><path d="M234.28,359 C267.45,347.19 307.457,332.9509 344.817,319.6609" fill="none" id="ClientN-to-Server" style="stroke:#181818;stroke-width:1;"/><polygon fill="#181818" points="350.47,317.65,340.6499,316.8977,345.7592,319.3258,343.3311,324.435,350.47,317.65" style="stroke:#181818;stroke-width:1;"/></g><!--link Server to Db--><g class="link" data-entity-1="Server" data-entity-2="Db" data-source-line="32" data-uid="lnk22" id="link_Server_Db"><path d="M506.46,311.49 C528.03,315.8 544.5163,319.0845 563.5863,322.8945" fill="none" id="Server-to-Db" style="stroke:#181818;stroke-width:1;"/><polygon fill="#181818" points="569.47,324.07,561.4281,318.3843,564.5669,323.0904,559.8607,326.2292,569.47,324.07" style="stroke:#181818;stroke-width:1;"/></g><!--link Server to File--><g class="link" data-entity-1="Server" data-entity-2="File" data-source-line="33" data-uid="lnk23" id="link_Server_File"><path d="M425.24,270.49 C437.46,229.77 468.37,146.42 526.01,104 C530.2063,100.9113 534.7803,98.2798 539.5757,96.04 C540.1751,95.76 540.778,95.4862 541.384,95.2183 C541.5355,95.1513 536.1872,97.4825 536.3391,97.4163" fill="none" id="Server-to-File" style="stroke:#181818;stroke-width:1;"/><polygon fill="#181818" points="541.8391,95.0185,531.9905,94.9485,537.2558,97.0167,535.1876,102.2819,541.8391,95.0185" style="stroke:#181818;stroke-width:1;"/></g><!--SRC=[RP7TQiGW48NlVOh1-mJM1oXiVmA58bdIqcitJb9PgqLbePHzzvenNMnJRno_StGueyKfGV8GpFoMG9k0OpBUCSRKc7m0_X8nx3Ye25JLM5onOEn3ZISr8_0kU9VGQMZWjUzWj0PTYXo-6EJblCwUEuBbsRNUgA9InKQLbIhPfUf_culS_dV3_T2tyk4PzlqZ31ZE6EX-AHaPjKhgg68szpwcEU1mU2BJ_R4O9cyrvkYTiGZnCoPy9vtEfTcokjMsp0LsC6KrylzLKQkN9GMZ8KFJt5pdGlEjYDWGoLO5Mfk_i_s3otDhr1_d1iaQbOr8Jb-TbgpV]--></g></svg>