<?xml version="1.0" encoding="us-ascii" standalone="no"?><svg xmlns="http://www.w3.org/2000/svg" xmlns:xlink="http://www.w3.org/1999/xlink" contentStyleType="text/css" height="611px" preserveAspectRatio="none" style="width:300px;height:611px;background:#FFFFFF;" version="1.1" viewBox="0 0 300 611" width="300px" zoomAndPan="magnify"><defs/><g><!--class USER--><g id="elem_USER"><rect codeLine="8" fill="#F1F1F1" height="136.0469" id="USER" rx="2.5" ry="2.5" style="stroke:#181818;stroke-width:0.5;" width="286.3333" x="7" y="7"/><ellipse cx="127.4167" cy="23" fill="#FFFFFF" rx="11" ry="11" style="stroke:#181818;stroke-width:1.0;"/><path d="M128.3385,20.3906 L128.3385,27.0469 L129.4948,27.0469 Q130.1042,27.0469 130.3542,27.2813 Q130.6198,27.5156 130.6198,27.9063 Q130.6198,28.2813 130.3542,28.5156 Q130.1042,28.75 129.4948,28.75 L125.5104,28.75 Q124.8854,28.75 124.6198,28.5156 Q124.3698,28.2813 124.3698,27.8906 Q124.3698,27.5156 124.6198,27.2813 Q124.8854,27.0469 125.5104,27.0469 L126.6354,27.0469 L126.6354,20.3906 L124.7917,20.3906 L124.7917,22 Q124.7917,22.6094 124.5573,22.875 Q124.3229,23.1406 123.9479,23.1406 Q123.5729,23.1406 123.3385,22.875 Q123.1042,22.6094 123.1042,22 L123.1042,18.6875 L131.9167,18.6875 L131.9167,22 Q131.9167,22.6094 131.6667,22.875 Q131.4323,23.1406 131.0573,23.1406 Q130.6823,23.1406 130.4479,22.875 Q130.2135,22.6094 130.2135,22 L130.2135,20.3906 L128.3385,20.3906 Z " fill="#000000"/><text fill="#000000" font-family="sans-serif" font-size="14" lengthAdjust="spacing" textLength="37" x="147.9167" y="28.7285">USER</text><line style="stroke:#181818;stroke-width:0.5;" x1="8" x2="292.3333" y1="39" y2="39"/><path d="M20.4167,47.776 C18.8067,47.776 17.5,49.0827 17.5,50.6927 C17.5,50.8794 17.5,51.066 17.535,51.241 L14,54.776 L14,57.1094 L17.5,57.1094 L17.5,54.776 L19.8333,54.776 L19.8333,53.6094 L19.8683,53.5744 C20.0433,53.6094 20.23,53.6094 20.4167,53.6094 C22.0267,53.6094 23.3333,52.3027 23.3333,50.6927 C23.3333,49.0827 22.0267,47.776 20.4167,47.776 M21,48.9427 C21.6417,48.9427 22.1667,49.4677 22.1667,50.1094 C22.1667,50.751 21.6417,51.276 21,51.276 C20.3583,51.276 19.8333,50.751 19.8333,50.1094 C19.8333,49.4677 20.3583,48.9427 21,48.9427 " fill="#B8861B" style="stroke:;stroke-width:0.0;stroke-dasharray:;"/><text fill="#000000" font-family="sans-serif" font-size="14" font-weight="bold" lengthAdjust="spacing" textLength="60" x="28.3333" y="57.5332">USER_ID</text><text fill="#000000" font-family="sans-serif" font-size="14" lengthAdjust="spacing" textLength="110" x="88.3333" y="57.5332">: UUID NOT NULL</text><line style="stroke:#181818;stroke-width:1.0;" x1="8" x2="292.3333" y1="64.6094" y2="64.6094"/><path d="M17.5,73.3854 C15.5633,73.3854 14,74.9488 14,76.8854 C14,78.8221 15.5633,80.3854 17.5,80.3854 C19.4367,80.3854 21,78.8221 21,76.8854 C21,74.9488 19.4367,73.3854 17.5,73.3854 " fill="#EFEFEF" style="stroke:;stroke-width:0.0;stroke-dasharray:;"/><text fill="#000000" font-family="sans-serif" font-size="14" lengthAdjust="spacing" textLength="154" x="28.3333" y="83.1426">EMAIL: TEXT NOT NULL</text><path d="M17.5,90.9948 C15.5633,90.9948 14,92.5581 14,94.4948 C14,96.4315 15.5633,97.9948 17.5,97.9948 C19.4367,97.9948 21,96.4315 21,94.4948 C21,92.5581 19.4367,90.9948 17.5,90.9948 " fill="#EFEFEF" style="stroke:;stroke-width:0.0;stroke-dasharray:;"/><text fill="#000000" font-family="sans-serif" font-size="14" lengthAdjust="spacing" textLength="194" x="28.3333" y="100.752">PASSWORD: TEXT NOT NULL</text><path d="M17.5,108.6042 C15.5633,108.6042 14,110.1675 14,112.1042 C14,114.0408 15.5633,115.6042 17.5,115.6042 C19.4367,115.6042 21,114.0408 21,112.1042 C21,110.1675 19.4367,108.6042 17.5,108.6042 " fill="#EFEFEF" style="stroke:;stroke-width:0.0;stroke-dasharray:;"/><text fill="#000000" font-family="sans-serif" font-size="14" lengthAdjust="spacing" textLength="259" x="28.3333" y="118.3613">CREATED_DATE: DATETIME NOT NULL</text><path d="M17.5,126.2135 C15.5633,126.2135 14,127.7769 14,129.7135 C14,131.6502 15.5633,133.2135 17.5,133.2135 C19.4367,133.2135 21,131.6502 21,129.7135 C21,127.7769 19.4367,126.2135 17.5,126.2135 " fill="#EFEFEF" style="stroke:;stroke-width:0.0;stroke-dasharray:;"/><text fill="#000000" font-family="sans-serif" font-size="14" lengthAdjust="spacing" textLength="188" x="28.3333" y="135.9707">MODIFIED_DATE: DATETIME</text></g><!--class FILE--><g id="elem_FILE"><rect codeLine="17" fill="#F1F1F1" height="108.8281" id="FILE" rx="2.5" ry="2.5" style="stroke:#181818;stroke-width:0.5;" width="280.3333" x="10" y="203"/><ellipse cx="131.4167" cy="219" fill="#FFFFFF" rx="11" ry="11" style="stroke:#181818;stroke-width:1.0;"/><path d="M132.3385,216.3906 L132.3385,223.0469 L133.4948,223.0469 Q134.1042,223.0469 134.3542,223.2813 Q134.6198,223.5156 134.6198,223.9063 Q134.6198,224.2813 134.3542,224.5156 Q134.1042,224.75 133.4948,224.75 L129.5104,224.75 Q128.8854,224.75 128.6198,224.5156 Q128.3698,224.2813 128.3698,223.8906 Q128.3698,223.5156 128.6198,223.2813 Q128.8854,223.0469 129.5104,223.0469 L130.6354,223.0469 L130.6354,216.3906 L128.7917,216.3906 L128.7917,218 Q128.7917,218.6094 128.5573,218.875 Q128.3229,219.1406 127.9479,219.1406 Q127.5729,219.1406 127.3385,218.875 Q127.1042,218.6094 127.1042,218 L127.1042,214.6875 L135.9167,214.6875 L135.9167,218 Q135.9167,218.6094 135.6667,218.875 Q135.4323,219.1406 135.0573,219.1406 Q134.6823,219.1406 134.4479,218.875 Q134.2135,218.6094 134.2135,218 L134.2135,216.3906 L132.3385,216.3906 Z " fill="#000000"/><text fill="#000000" font-family="sans-serif" font-size="14" lengthAdjust="spacing" textLength="29" x="151.9167" y="224.7285">FILE</text><line style="stroke:#181818;stroke-width:0.5;" x1="11" x2="289.3333" y1="235" y2="235"/><path d="M23.4167,243.776 C21.8067,243.776 20.5,245.0827 20.5,246.6927 C20.5,246.8794 20.5,247.066 20.535,247.241 L17,250.776 L17,253.1094 L20.5,253.1094 L20.5,250.776 L22.8333,250.776 L22.8333,249.6094 L22.8683,249.5744 C23.0433,249.6094 23.23,249.6094 23.4167,249.6094 C25.0267,249.6094 26.3333,248.3027 26.3333,246.6927 C26.3333,245.0827 25.0267,243.776 23.4167,243.776 M24,244.9427 C24.6417,244.9427 25.1667,245.4677 25.1667,246.1094 C25.1667,246.751 24.6417,247.276 24,247.276 C23.3583,247.276 22.8333,246.751 22.8333,246.1094 C22.8333,245.4677 23.3583,244.9427 24,244.9427 " fill="#B8861B" style="stroke:;stroke-width:0.0;stroke-dasharray:;"/><text fill="#000000" font-family="sans-serif" font-size="14" font-weight="bold" lengthAdjust="spacing" textLength="52" x="31.3333" y="253.5332">FILE_ID</text><text fill="#000000" font-family="sans-serif" font-size="14" lengthAdjust="spacing" textLength="110" x="83.3333" y="253.5332">: UUID NOT NULL</text><line style="stroke:#181818;stroke-width:1.0;" x1="11" x2="289.3333" y1="260.6094" y2="260.6094"/><path d="M23.4167,269.3854 C21.8067,269.3854 20.5,270.6921 20.5,272.3021 C20.5,272.4888 20.5,272.6754 20.535,272.8504 L17,276.3854 L17,278.7188 L20.5,278.7188 L20.5,276.3854 L22.8333,276.3854 L22.8333,275.2188 L22.8683,275.1838 C23.0433,275.2188 23.23,275.2188 23.4167,275.2188 C25.0267,275.2188 26.3333,273.9121 26.3333,272.3021 C26.3333,270.6921 25.0267,269.3854 23.4167,269.3854 M24,270.5521 C24.6417,270.5521 25.1667,271.0771 25.1667,271.7188 C25.1667,272.3604 24.6417,272.8854 24,272.8854 C23.3583,272.8854 22.8333,272.3604 22.8333,271.7188 C22.8333,271.0771 23.3583,270.5521 24,270.5521 " fill="#AAAAAA" style="stroke:;stroke-width:0.0;stroke-dasharray:;"/><text fill="#000000" font-family="sans-serif" font-size="14" lengthAdjust="spacing" textLength="168" x="31.3333" y="279.1426">USER_ID: UUID NOT NULL</text><line style="stroke:#181818;stroke-width:1.0;" x1="11" x2="289.3333" y1="286.2188" y2="286.2188"/><path d="M20.5,294.9948 C18.5633,294.9948 17,296.5581 17,298.4948 C17,300.4315 18.5633,301.9948 20.5,301.9948 C22.4367,301.9948 24,300.4315 24,298.4948 C24,296.5581 22.4367,294.9948 20.5,294.9948 " fill="#EFEFEF" style="stroke:;stroke-width:0.0;stroke-dasharray:;"/><text fill="#000000" font-family="sans-serif" font-size="14" lengthAdjust="spacing" textLength="253" x="31.3333" y="304.752">DELETED: BOOLEAN DEFAULT FALSE</text></g><!--class FILE_VERSION--><g id="elem_FILE_VERSION"><rect codeLine="25" fill="#F1F1F1" height="232.0938" id="FILE_VERSION" rx="2.5" ry="2.5" style="stroke:#181818;stroke-width:0.5;" width="286.3333" x="7" y="372"/><ellipse cx="97.4167" cy="388" fill="#FFFFFF" rx="11" ry="11" style="stroke:#181818;stroke-width:1.0;"/><path d="M98.3385,385.3906 L98.3385,392.0469 L99.4948,392.0469 Q100.1042,392.0469 100.3542,392.2813 Q100.6198,392.5156 100.6198,392.9063 Q100.6198,393.2813 100.3542,393.5156 Q100.1042,393.75 99.4948,393.75 L95.5104,393.75 Q94.8854,393.75 94.6198,393.5156 Q94.3698,393.2813 94.3698,392.8906 Q94.3698,392.5156 94.6198,392.2813 Q94.8854,392.0469 95.5104,392.0469 L96.6354,392.0469 L96.6354,385.3906 L94.7917,385.3906 L94.7917,387 Q94.7917,387.6094 94.5573,387.875 Q94.3229,388.1406 93.9479,388.1406 Q93.5729,388.1406 93.3385,387.875 Q93.1042,387.6094 93.1042,387 L93.1042,383.6875 L101.9167,383.6875 L101.9167,387 Q101.9167,387.6094 101.6667,387.875 Q101.4323,388.1406 101.0573,388.1406 Q100.6823,388.1406 100.4479,387.875 Q100.2135,387.6094 100.2135,387 L100.2135,385.3906 L98.3385,385.3906 Z " fill="#000000"/><text fill="#000000" font-family="sans-serif" font-size="14" lengthAdjust="spacing" textLength="97" x="117.9167" y="393.7285">FILE_VERSION</text><line style="stroke:#181818;stroke-width:0.5;" x1="8" x2="292.3333" y1="404" y2="404"/><path d="M20.4167,412.776 C18.8067,412.776 17.5,414.0827 17.5,415.6927 C17.5,415.8794 17.5,416.066 17.535,416.241 L14,419.776 L14,422.1094 L17.5,422.1094 L17.5,419.776 L19.8333,419.776 L19.8333,418.6094 L19.8683,418.5744 C20.0433,418.6094 20.23,418.6094 20.4167,418.6094 C22.0267,418.6094 23.3333,417.3027 23.3333,415.6927 C23.3333,414.0827 22.0267,412.776 20.4167,412.776 M21,413.9427 C21.6417,413.9427 22.1667,414.4677 22.1667,415.1094 C22.1667,415.751 21.6417,416.276 21,416.276 C20.3583,416.276 19.8333,415.751 19.8333,415.1094 C19.8333,414.4677 20.3583,413.9427 21,413.9427 " fill="#B8861B" style="stroke:;stroke-width:0.0;stroke-dasharray:;"/><text fill="#000000" font-family="sans-serif" font-size="14" font-weight="bold" lengthAdjust="spacing" textLength="122" x="28.3333" y="422.5332">FILE_VERSION_ID</text><text fill="#000000" font-family="sans-serif" font-size="14" lengthAdjust="spacing" textLength="110" x="150.3333" y="422.5332">: UUID NOT NULL</text><line style="stroke:#181818;stroke-width:1.0;" x1="8" x2="292.3333" y1="429.6094" y2="429.6094"/><path d="M20.4167,438.3854 C18.8067,438.3854 17.5,439.6921 17.5,441.3021 C17.5,441.4888 17.5,441.6754 17.535,441.8504 L14,445.3854 L14,447.7188 L17.5,447.7188 L17.5,445.3854 L19.8333,445.3854 L19.8333,444.2188 L19.8683,444.1838 C20.0433,444.2188 20.23,444.2188 20.4167,444.2188 C22.0267,444.2188 23.3333,442.9121 23.3333,441.3021 C23.3333,439.6921 22.0267,438.3854 20.4167,438.3854 M21,439.5521 C21.6417,439.5521 22.1667,440.0771 22.1667,440.7188 C22.1667,441.3604 21.6417,441.8854 21,441.8854 C20.3583,441.8854 19.8333,441.3604 19.8333,440.7188 C19.8333,440.0771 20.3583,439.5521 21,439.5521 " fill="#AAAAAA" style="stroke:;stroke-width:0.0;stroke-dasharray:;"/><text fill="#000000" font-family="sans-serif" font-size="14" lengthAdjust="spacing" textLength="160" x="28.3333" y="448.1426">FILE_ID: UUID NOT NULL</text><line style="stroke:#181818;stroke-width:1.0;" x1="8" x2="292.3333" y1="455.2188" y2="455.2188"/><path d="M17.5,463.9948 C15.5633,463.9948 14,465.5581 14,467.4948 C14,469.4315 15.5633,470.9948 17.5,470.9948 C19.4367,470.9948 21,469.4315 21,467.4948 C21,465.5581 19.4367,463.9948 17.5,463.9948 " fill="#EFEFEF" style="stroke:;stroke-width:0.0;stroke-dasharray:;"/><text fill="#000000" font-family="sans-serif" font-size="14" lengthAdjust="spacing" textLength="166" x="28.3333" y="473.752">CLIENT_DIR_PATH: TEXT</text><path d="M17.5,481.6042 C15.5633,481.6042 14,483.1675 14,485.1042 C14,487.0408 15.5633,488.6042 17.5,488.6042 C19.4367,488.6042 21,487.0408 21,485.1042 C21,483.1675 19.4367,481.6042 17.5,481.6042 " fill="#EFEFEF" style="stroke:;stroke-width:0.0;stroke-dasharray:;"/><text fill="#000000" font-family="sans-serif" font-size="14" lengthAdjust="spacing" textLength="174" x="28.3333" y="491.3613">CLIENT_FILE_NAME: TEXT</text><path d="M17.5,499.2135 C15.5633,499.2135 14,500.7769 14,502.7135 C14,504.6502 15.5633,506.2135 17.5,506.2135 C19.4367,506.2135 21,504.6502 21,502.7135 C21,500.7769 19.4367,499.2135 17.5,499.2135 " fill="#EFEFEF" style="stroke:;stroke-width:0.0;stroke-dasharray:;"/><text fill="#000000" font-family="sans-serif" font-size="14" lengthAdjust="spacing" textLength="174" x="28.3333" y="508.9707">SERVER_DIR_PATH: TEXT</text><path d="M17.5,516.8229 C15.5633,516.8229 14,518.3863 14,520.3229 C14,522.2596 15.5633,523.8229 17.5,523.8229 C19.4367,523.8229 21,522.2596 21,520.3229 C21,518.3863 19.4367,516.8229 17.5,516.8229 " fill="#EFEFEF" style="stroke:;stroke-width:0.0;stroke-dasharray:;"/><text fill="#000000" font-family="sans-serif" font-size="14" lengthAdjust="spacing" textLength="182" x="28.3333" y="526.5801">SERVER_FILE_NAME: TEXT</text><path d="M17.5,534.4323 C15.5633,534.4323 14,535.9956 14,537.9323 C14,539.869 15.5633,541.4323 17.5,541.4323 C19.4367,541.4323 21,539.869 21,537.9323 C21,535.9956 19.4367,534.4323 17.5,534.4323 " fill="#EFEFEF" style="stroke:;stroke-width:0.0;stroke-dasharray:;"/><text fill="#000000" font-family="sans-serif" font-size="14" lengthAdjust="spacing" textLength="195" x="28.3333" y="544.1895">VERSION_NR: INT DEFAULT 0</text><path d="M17.5,552.0417 C15.5633,552.0417 14,553.605 14,555.5417 C14,557.4783 15.5633,559.0417 17.5,559.0417 C19.4367,559.0417 21,557.4783 21,555.5417 C21,553.605 19.4367,552.0417 17.5,552.0417 " fill="#EFEFEF" style="stroke:;stroke-width:0.0;stroke-dasharray:;"/><text fill="#000000" font-family="sans-serif" font-size="14" lengthAdjust="spacing" textLength="129" x="28.3333" y="561.7988">MD5: VARCHAR(32)</text><path d="M17.5,569.651 C15.5633,569.651 14,571.2144 14,573.151 C14,575.0877 15.5633,576.651 17.5,576.651 C19.4367,576.651 21,575.0877 21,573.151 C21,571.2144 19.4367,569.651 17.5,569.651 " fill="#EFEFEF" style="stroke:;stroke-width:0.0;stroke-dasharray:;"/><text fill="#000000" font-family="sans-serif" font-size="14" lengthAdjust="spacing" textLength="134" x="28.3333" y="579.4082">SIZE_BYTES: BIGINT</text><path d="M17.5,587.2604 C15.5633,587.2604 14,588.8238 14,590.7604 C14,592.6971 15.5633,594.2604 17.5,594.2604 C19.4367,594.2604 21,592.6971 21,590.7604 C21,588.8238 19.4367,587.2604 17.5,587.2604 " fill="#EFEFEF" style="stroke:;stroke-width:0.0;stroke-dasharray:;"/><text fill="#000000" font-family="sans-serif" font-size="14" lengthAdjust="spacing" textLength="259" x="28.3333" y="597.0176">CREATED_DATE: DATETIME NOT NULL</text></g><!--link USER to FILE--><g id="link_USER_FILE"><path codeLine="40" d="M150,143.21 C150,162.86 150,166.06 150,184.76 " fill="none" id="USER-to-FILE" style="stroke:#181818;stroke-width:1.0;"/><line style="stroke:#181818;stroke-width:1.0;" x1="150" x2="156" y1="194.76" y2="202.76"/><line style="stroke:#181818;stroke-width:1.0;" x1="150" x2="144" y1="194.76" y2="202.76"/><line style="stroke:#181818;stroke-width:1.0;" x1="150" x2="150" y1="194.76" y2="202.76"/><ellipse cx="150" cy="188.76" fill="none" rx="4" ry="4" style="stroke:#181818;stroke-width:1.0;"/></g><!--link FILE to FILE_VERSION--><g id="link_FILE_FILE_VERSION"><path codeLine="41" d="M150,312.07 C150,330.01 150,342.76 150,363.57 " fill="none" id="FILE-to-FILE_VERSION" style="stroke:#181818;stroke-width:1.0;"/><line style="stroke:#181818;stroke-width:1.0;" x1="150" x2="156" y1="363.57" y2="371.57"/><line style="stroke:#181818;stroke-width:1.0;" x1="150" x2="144" y1="363.57" y2="371.57"/><line style="stroke:#181818;stroke-width:1.0;" x1="150" x2="150" y1="363.57" y2="371.57"/><line style="stroke:#181818;stroke-width:1.0;" x1="154" x2="146" y1="361.57" y2="361.57"/></g><!--SRC=[bP9hQy8m58Q_zrT41iF2n5tO42c5QD8PI5jfKtVvKgoch7Zfa8ufRlzz9xKLBqLd2WqdUTxJzvpJsbZ6oLoYpqbzgICZCerHEaqNxQkerNgwW_1w8bUcqSnFJRGqcf6frGfHl14LYc6-ZXHR6Ww-PlDTXOpL0ugP72V3naAEqiMuIfeDewbKIZdFaco5biWmK5tSeE-F99CwCarDqpPGu5DFHsiDmOAYL1WoehTH432275SW9-0ylsuqygtmHMtCE722lefzhW3wsFTVN8-SOheUnOAIaC0REBK9PjDArdO9izWnhFsMjLYCqvrQL7YcblYIYWdb5Cm2sN5TJh632BLmm0MoCFSFV8G3wldCTGxz5CVdVVt3VTb4pgWZGiAyi8z5h-Xt1P6dTB1DAn3e0bWxbQGWJYKfYtCyk6IEs3ReTc-Gv16k1zZhzh1NVxZNzxx2tcdOUHFKLtrcpv3beXy6Xg0c2YrArqXvrTGBmfzDM0v0-mC0]--></g></svg>